%TF.GenerationSoftware,KiCad,Pcbnew,(5.1.9)-1*%
%TF.CreationDate,2021-06-12T00:32:34+08:00*%
%TF.ProjectId,V1,56312e6b-6963-4616-945f-706362585858,rev?*%
%TF.SameCoordinates,Original*%
%TF.FileFunction,Legend,Bot*%
%TF.FilePolarity,Positive*%
%FSLAX46Y46*%
G04 Gerber Fmt 4.6, Leading zero omitted, Abs format (unit mm)*
G04 Created by KiCad (PCBNEW (5.1.9)-1) date 2021-06-12 00:32:34*
%MOMM*%
%LPD*%
G01*
G04 APERTURE LIST*
%ADD10C,0.150000*%
%ADD11C,0.500000*%
%ADD12C,0.250000*%
%ADD13C,0.200000*%
%ADD14C,0.010000*%
%ADD15C,0.152400*%
%ADD16C,0.100000*%
%ADD17C,0.120000*%
%ADD18C,0.300000*%
G04 APERTURE END LIST*
D10*
X229267619Y-75234285D02*
X230267619Y-75234285D01*
X230267619Y-74996190D01*
X230220000Y-74853333D01*
X230124761Y-74758095D01*
X230029523Y-74710476D01*
X229839047Y-74662857D01*
X229696190Y-74662857D01*
X229505714Y-74710476D01*
X229410476Y-74758095D01*
X229315238Y-74853333D01*
X229267619Y-74996190D01*
X229267619Y-75234285D01*
X229315238Y-73853333D02*
X229267619Y-73948571D01*
X229267619Y-74139047D01*
X229315238Y-74234285D01*
X229410476Y-74281904D01*
X229791428Y-74281904D01*
X229886666Y-74234285D01*
X229934285Y-74139047D01*
X229934285Y-73948571D01*
X229886666Y-73853333D01*
X229791428Y-73805714D01*
X229696190Y-73805714D01*
X229600952Y-74281904D01*
X229315238Y-73424761D02*
X229267619Y-73329523D01*
X229267619Y-73139047D01*
X229315238Y-73043809D01*
X229410476Y-72996190D01*
X229458095Y-72996190D01*
X229553333Y-73043809D01*
X229600952Y-73139047D01*
X229600952Y-73281904D01*
X229648571Y-73377142D01*
X229743809Y-73424761D01*
X229791428Y-73424761D01*
X229886666Y-73377142D01*
X229934285Y-73281904D01*
X229934285Y-73139047D01*
X229886666Y-73043809D01*
X229267619Y-72567619D02*
X229934285Y-72567619D01*
X230267619Y-72567619D02*
X230220000Y-72615238D01*
X230172380Y-72567619D01*
X230220000Y-72520000D01*
X230267619Y-72567619D01*
X230172380Y-72567619D01*
X229934285Y-71662857D02*
X229124761Y-71662857D01*
X229029523Y-71710476D01*
X228981904Y-71758095D01*
X228934285Y-71853333D01*
X228934285Y-71996190D01*
X228981904Y-72091428D01*
X229315238Y-71662857D02*
X229267619Y-71758095D01*
X229267619Y-71948571D01*
X229315238Y-72043809D01*
X229362857Y-72091428D01*
X229458095Y-72139047D01*
X229743809Y-72139047D01*
X229839047Y-72091428D01*
X229886666Y-72043809D01*
X229934285Y-71948571D01*
X229934285Y-71758095D01*
X229886666Y-71662857D01*
X229934285Y-71186666D02*
X229267619Y-71186666D01*
X229839047Y-71186666D02*
X229886666Y-71139047D01*
X229934285Y-71043809D01*
X229934285Y-70900952D01*
X229886666Y-70805714D01*
X229791428Y-70758095D01*
X229267619Y-70758095D01*
X229315238Y-69900952D02*
X229267619Y-69996190D01*
X229267619Y-70186666D01*
X229315238Y-70281904D01*
X229410476Y-70329523D01*
X229791428Y-70329523D01*
X229886666Y-70281904D01*
X229934285Y-70186666D01*
X229934285Y-69996190D01*
X229886666Y-69900952D01*
X229791428Y-69853333D01*
X229696190Y-69853333D01*
X229600952Y-70329523D01*
X229267619Y-68996190D02*
X230267619Y-68996190D01*
X229315238Y-68996190D02*
X229267619Y-69091428D01*
X229267619Y-69281904D01*
X229315238Y-69377142D01*
X229362857Y-69424761D01*
X229458095Y-69472380D01*
X229743809Y-69472380D01*
X229839047Y-69424761D01*
X229886666Y-69377142D01*
X229934285Y-69281904D01*
X229934285Y-69091428D01*
X229886666Y-68996190D01*
X229267619Y-67758095D02*
X230267619Y-67758095D01*
X229886666Y-67758095D02*
X229934285Y-67662857D01*
X229934285Y-67472380D01*
X229886666Y-67377142D01*
X229839047Y-67329523D01*
X229743809Y-67281904D01*
X229458095Y-67281904D01*
X229362857Y-67329523D01*
X229315238Y-67377142D01*
X229267619Y-67472380D01*
X229267619Y-67662857D01*
X229315238Y-67758095D01*
X229934285Y-66948571D02*
X229267619Y-66710476D01*
X229934285Y-66472380D02*
X229267619Y-66710476D01*
X229029523Y-66805714D01*
X228981904Y-66853333D01*
X228934285Y-66948571D01*
X229553333Y-65377142D02*
X229553333Y-64900952D01*
X229267619Y-65472380D02*
X230267619Y-65139047D01*
X229267619Y-64805714D01*
X229267619Y-64329523D02*
X229315238Y-64424761D01*
X229410476Y-64472380D01*
X230267619Y-64472380D01*
X229267619Y-63805714D02*
X229315238Y-63900952D01*
X229410476Y-63948571D01*
X230267619Y-63948571D01*
X229315238Y-63043809D02*
X229267619Y-63139047D01*
X229267619Y-63329523D01*
X229315238Y-63424761D01*
X229410476Y-63472380D01*
X229791428Y-63472380D01*
X229886666Y-63424761D01*
X229934285Y-63329523D01*
X229934285Y-63139047D01*
X229886666Y-63043809D01*
X229791428Y-62996190D01*
X229696190Y-62996190D01*
X229600952Y-63472380D01*
X229934285Y-62139047D02*
X229124761Y-62139047D01*
X229029523Y-62186666D01*
X228981904Y-62234285D01*
X228934285Y-62329523D01*
X228934285Y-62472380D01*
X228981904Y-62567619D01*
X229315238Y-62139047D02*
X229267619Y-62234285D01*
X229267619Y-62424761D01*
X229315238Y-62520000D01*
X229362857Y-62567619D01*
X229458095Y-62615238D01*
X229743809Y-62615238D01*
X229839047Y-62567619D01*
X229886666Y-62520000D01*
X229934285Y-62424761D01*
X229934285Y-62234285D01*
X229886666Y-62139047D01*
X229267619Y-61662857D02*
X229934285Y-61662857D01*
X229743809Y-61662857D02*
X229839047Y-61615238D01*
X229886666Y-61567619D01*
X229934285Y-61472380D01*
X229934285Y-61377142D01*
X229267619Y-60900952D02*
X229315238Y-60996190D01*
X229362857Y-61043809D01*
X229458095Y-61091428D01*
X229743809Y-61091428D01*
X229839047Y-61043809D01*
X229886666Y-60996190D01*
X229934285Y-60900952D01*
X229934285Y-60758095D01*
X229886666Y-60662857D01*
X229839047Y-60615238D01*
X229743809Y-60567619D01*
X229458095Y-60567619D01*
X229362857Y-60615238D01*
X229315238Y-60662857D01*
X229267619Y-60758095D01*
X229267619Y-60900952D01*
X230267619Y-59948571D02*
X230267619Y-59853333D01*
X230220000Y-59758095D01*
X230172380Y-59710476D01*
X230077142Y-59662857D01*
X229886666Y-59615238D01*
X229648571Y-59615238D01*
X229458095Y-59662857D01*
X229362857Y-59710476D01*
X229315238Y-59758095D01*
X229267619Y-59853333D01*
X229267619Y-59948571D01*
X229315238Y-60043809D01*
X229362857Y-60091428D01*
X229458095Y-60139047D01*
X229648571Y-60186666D01*
X229886666Y-60186666D01*
X230077142Y-60139047D01*
X230172380Y-60091428D01*
X230220000Y-60043809D01*
X230267619Y-59948571D01*
X229267619Y-58662857D02*
X229267619Y-59234285D01*
X229267619Y-58948571D02*
X230267619Y-58948571D01*
X230124761Y-59043809D01*
X230029523Y-59139047D01*
X229981904Y-59234285D01*
X230267619Y-58329523D02*
X230267619Y-57710476D01*
X229886666Y-58043809D01*
X229886666Y-57900952D01*
X229839047Y-57805714D01*
X229791428Y-57758095D01*
X229696190Y-57710476D01*
X229458095Y-57710476D01*
X229362857Y-57758095D01*
X229315238Y-57805714D01*
X229267619Y-57900952D01*
X229267619Y-58186666D01*
X229315238Y-58281904D01*
X229362857Y-58329523D01*
X230172380Y-57329523D02*
X230220000Y-57281904D01*
X230267619Y-57186666D01*
X230267619Y-56948571D01*
X230220000Y-56853333D01*
X230172380Y-56805714D01*
X230077142Y-56758095D01*
X229981904Y-56758095D01*
X229839047Y-56805714D01*
X229267619Y-57377142D01*
X229267619Y-56758095D01*
D11*
X222616476Y-77209142D02*
X226616476Y-77209142D01*
X222616476Y-74923428D02*
X224902190Y-76637714D01*
X226616476Y-74923428D02*
X224330761Y-77209142D01*
X222997428Y-70923428D02*
X222806952Y-71113904D01*
X222616476Y-71685333D01*
X222616476Y-72066285D01*
X222806952Y-72637714D01*
X223187904Y-73018666D01*
X223568857Y-73209142D01*
X224330761Y-73399619D01*
X224902190Y-73399619D01*
X225664095Y-73209142D01*
X226045047Y-73018666D01*
X226426000Y-72637714D01*
X226616476Y-72066285D01*
X226616476Y-71685333D01*
X226426000Y-71113904D01*
X226235523Y-70923428D01*
X226616476Y-68447238D02*
X226616476Y-67685333D01*
X226426000Y-67304380D01*
X226045047Y-66923428D01*
X225283142Y-66732952D01*
X223949809Y-66732952D01*
X223187904Y-66923428D01*
X222806952Y-67304380D01*
X222616476Y-67685333D01*
X222616476Y-68447238D01*
X222806952Y-68828190D01*
X223187904Y-69209142D01*
X223949809Y-69399619D01*
X225283142Y-69399619D01*
X226045047Y-69209142D01*
X226426000Y-68828190D01*
X226616476Y-68447238D01*
X222616476Y-62732952D02*
X224521238Y-64066285D01*
X222616476Y-65018666D02*
X226616476Y-65018666D01*
X226616476Y-63494857D01*
X226426000Y-63113904D01*
X226235523Y-62923428D01*
X225854571Y-62732952D01*
X225283142Y-62732952D01*
X224902190Y-62923428D01*
X224711714Y-63113904D01*
X224521238Y-63494857D01*
X224521238Y-65018666D01*
X224711714Y-61018666D02*
X224711714Y-59685333D01*
X222616476Y-59113904D02*
X222616476Y-61018666D01*
X226616476Y-61018666D01*
X226616476Y-59113904D01*
X222806952Y-57590095D02*
X222616476Y-57018666D01*
X222616476Y-56066285D01*
X222806952Y-55685333D01*
X222997428Y-55494857D01*
X223378380Y-55304380D01*
X223759333Y-55304380D01*
X224140285Y-55494857D01*
X224330761Y-55685333D01*
X224521238Y-56066285D01*
X224711714Y-56828190D01*
X224902190Y-57209142D01*
X225092666Y-57399619D01*
X225473619Y-57590095D01*
X225854571Y-57590095D01*
X226235523Y-57399619D01*
X226426000Y-57209142D01*
X226616476Y-56828190D01*
X226616476Y-55875809D01*
X226426000Y-55304380D01*
D12*
X221155205Y-88323281D02*
X221155205Y-86577297D01*
X229091790Y-88323281D02*
X229091790Y-88085226D01*
X229091790Y-88085226D02*
X229091790Y-87549501D01*
X229171090Y-87370976D02*
X229825840Y-87371046D01*
X226829840Y-81339141D02*
X228139290Y-81339141D01*
X222345685Y-88323281D02*
X221155205Y-88323281D01*
X228139290Y-81339141D02*
X228139290Y-82926541D01*
X221155205Y-81339141D02*
X222901240Y-81339141D01*
X228139290Y-86497992D02*
X228139290Y-87688406D01*
X225917139Y-88323281D02*
X222345685Y-88323281D01*
X229091790Y-87549501D02*
X229091790Y-87370906D01*
X228139290Y-82926541D02*
X228139290Y-86497992D01*
X229825840Y-87371046D02*
X230044040Y-87371046D01*
X229091790Y-87370906D02*
X229171090Y-87370976D01*
X221155205Y-82648741D02*
X221155205Y-81339141D01*
X228139290Y-87688406D02*
X227504440Y-88323281D01*
X222901240Y-81339141D02*
X226829840Y-81339141D01*
X221155205Y-86577297D02*
X221155205Y-82648741D01*
X227504440Y-88323281D02*
X225917139Y-88323281D01*
X229042940Y-88372197D02*
X229091790Y-88323281D01*
X230044040Y-81776291D02*
X230044040Y-81657241D01*
X228139290Y-80387341D02*
X228139290Y-80149291D01*
X224330040Y-79434991D02*
X224171390Y-79434991D01*
X225599889Y-79434991D02*
X225441190Y-79434991D01*
X224330040Y-79613591D02*
X224330040Y-79434991D01*
X226710889Y-79434991D02*
X226353790Y-79434991D01*
X226869590Y-80149291D02*
X226869590Y-79613591D01*
X224330040Y-80149291D02*
X224330040Y-79613591D01*
X224330040Y-80387341D02*
X224330040Y-80149291D01*
X226234740Y-80387341D02*
X226076039Y-80387341D01*
X224449140Y-80387341D02*
X224330040Y-80387341D01*
X224806240Y-80387341D02*
X224449140Y-80387341D01*
X225441190Y-79434991D02*
X225083990Y-79434991D01*
X226988640Y-80387341D02*
X226869590Y-80387341D01*
X227504440Y-79434991D02*
X227504440Y-79673141D01*
X230044040Y-81657241D02*
X229805990Y-81657241D01*
X227504440Y-80208841D02*
X227504440Y-80387341D01*
X225599889Y-80149291D02*
X225599889Y-79613591D01*
X227623490Y-79434991D02*
X227504440Y-79434991D01*
X230044040Y-82133391D02*
X230044040Y-81776291D01*
X229805990Y-81657241D02*
X229270290Y-81657241D01*
X224964940Y-80208841D02*
X224964940Y-80387341D01*
X224964940Y-79434991D02*
X224964940Y-79673141D01*
X225083990Y-79434991D02*
X224964940Y-79434991D01*
X226234740Y-80208841D02*
X226234740Y-80387341D01*
X226353790Y-79434991D02*
X226234740Y-79434991D01*
X228139290Y-79434991D02*
X227980640Y-79434991D01*
X226869590Y-79613591D02*
X226869590Y-79434991D01*
X227504440Y-80387341D02*
X227345740Y-80387341D01*
X228139290Y-79613591D02*
X228139290Y-79434991D01*
X229091690Y-81339791D02*
X229091690Y-80625491D01*
X226869590Y-79434991D02*
X226710889Y-79434991D01*
X228853590Y-80387341D02*
X228317890Y-80387341D01*
X225599889Y-80387341D02*
X225599889Y-80149291D01*
X228317890Y-80387341D02*
X228139290Y-80387341D01*
X224964940Y-79673141D02*
X224964940Y-80208841D01*
X227980640Y-79434991D02*
X227623490Y-79434991D01*
X225599889Y-79613591D02*
X225599889Y-79434991D01*
X228139290Y-80149291D02*
X228139290Y-79613591D01*
X226234740Y-79434991D02*
X226234740Y-79673141D01*
X229091690Y-81657241D02*
X229091690Y-81339791D01*
X226869590Y-80387341D02*
X226869590Y-80149291D01*
X229270290Y-81657241D02*
X229091690Y-81657241D01*
X225718939Y-80387341D02*
X225599889Y-80387341D01*
X227504440Y-79673141D02*
X227504440Y-80208841D01*
X229091690Y-80625491D02*
X229091690Y-80387341D01*
X229091690Y-80387341D02*
X228853590Y-80387341D01*
X224171390Y-79434991D02*
X223814265Y-79434991D01*
X224964940Y-80387341D02*
X224806240Y-80387341D01*
X226076039Y-80387341D02*
X225718939Y-80387341D01*
X227345740Y-80387341D02*
X226988640Y-80387341D01*
X226234740Y-79673141D02*
X226234740Y-80208841D01*
X230044040Y-86101326D02*
X230044040Y-85942651D01*
X229329790Y-86101326D02*
X229865540Y-86101326D01*
X229091690Y-86220391D02*
X229091690Y-86101326D01*
X230044040Y-82292091D02*
X230044040Y-82133391D01*
X229865540Y-82292091D02*
X230044040Y-82292091D01*
X229329790Y-82292091D02*
X229865540Y-82292091D01*
X229091690Y-84831541D02*
X229329790Y-84831541D01*
X230044040Y-86855251D02*
X230044040Y-86736186D01*
X229270290Y-82926941D02*
X229091690Y-82926941D01*
X229091690Y-85307741D02*
X229091690Y-84950591D01*
X229091690Y-82292091D02*
X229329790Y-82292091D01*
X229091690Y-82411141D02*
X229091690Y-82292091D01*
X230044040Y-82926941D02*
X229805990Y-82926941D01*
X229865540Y-86101326D02*
X230044040Y-86101326D01*
X229091690Y-86101326D02*
X229329790Y-86101326D01*
X230044040Y-83561791D02*
X230044040Y-83403141D01*
X230044040Y-84196641D02*
X229805990Y-84196641D01*
X229805990Y-86736186D02*
X229270290Y-86736186D01*
X229865540Y-84831541D02*
X230044040Y-84831541D01*
X230044040Y-83045991D02*
X230044040Y-82926941D01*
X229091690Y-86736186D02*
X229091690Y-86577506D01*
X230044040Y-85942651D02*
X230044040Y-85585461D01*
X229270290Y-85466401D02*
X229091690Y-85466401D01*
X229270290Y-86736186D02*
X229091690Y-86736186D01*
X230044040Y-86736186D02*
X229805990Y-86736186D01*
X230044040Y-83403141D02*
X230044040Y-83045991D01*
X229091690Y-84196641D02*
X229091690Y-84037991D01*
X230044040Y-84672841D02*
X230044040Y-84315741D01*
X229805990Y-85466401D02*
X229270290Y-85466401D01*
X229091690Y-86577506D02*
X229091690Y-86220391D01*
X230044040Y-87212366D02*
X230044040Y-86855251D01*
X229091690Y-82768291D02*
X229091690Y-82411141D01*
X229091690Y-83561791D02*
X229329790Y-83561791D01*
X229091690Y-82926941D02*
X229091690Y-82768291D01*
X229091690Y-85466401D02*
X229091690Y-85307741D01*
X230044040Y-87371046D02*
X230044040Y-87212366D01*
X229805990Y-82926941D02*
X229270290Y-82926941D01*
X229865540Y-83561791D02*
X230044040Y-83561791D01*
X229329790Y-83561791D02*
X229865540Y-83561791D01*
X229091690Y-83680891D02*
X229091690Y-83561791D01*
X229805990Y-84196641D02*
X229270290Y-84196641D01*
X229091690Y-84037991D02*
X229091690Y-83680891D01*
X229270290Y-84196641D02*
X229091690Y-84196641D01*
X229091690Y-84950591D02*
X229091690Y-84831541D01*
X229329790Y-84831541D02*
X229865540Y-84831541D01*
X230044040Y-85466401D02*
X229805990Y-85466401D01*
X230044040Y-84315741D02*
X230044040Y-84196641D01*
X230044040Y-84831541D02*
X230044040Y-84672841D01*
X230044040Y-85585461D02*
X230044040Y-85466401D01*
X220303395Y-83730441D02*
X220303395Y-83849441D01*
X220303395Y-83373342D02*
X220303395Y-83730441D01*
X220303395Y-83214591D02*
X220303395Y-83373342D01*
X219589156Y-83214591D02*
X220124869Y-83214591D01*
X220303395Y-81865491D02*
X220303395Y-82401191D01*
X219251031Y-81855591D02*
X219251031Y-81974591D01*
X222901665Y-79434991D02*
X222544544Y-79434991D01*
X219965339Y-81339741D02*
X219429625Y-81339741D01*
X221155750Y-79434991D02*
X221155750Y-79673141D01*
X222425485Y-80208841D02*
X222425485Y-80387341D01*
X221631930Y-79434991D02*
X221274810Y-79434991D01*
X221790625Y-79434991D02*
X221631930Y-79434991D01*
X223695205Y-79434991D02*
X223695205Y-79673141D01*
X221909690Y-80387341D02*
X221790625Y-80387341D01*
X222425485Y-80387341D02*
X222266805Y-80387341D01*
X223060345Y-79613591D02*
X223060345Y-79434991D01*
X219251031Y-81974591D02*
X219489156Y-81974591D01*
X222425485Y-79434991D02*
X222425485Y-79673141D01*
X221790625Y-80149291D02*
X221790625Y-79613591D01*
X221155750Y-80387341D02*
X220917695Y-80387341D01*
X219251031Y-84395041D02*
X219251031Y-84514041D01*
X220124869Y-83214591D02*
X220303395Y-83214591D01*
X222425485Y-79673141D02*
X222425485Y-80208841D01*
X220124869Y-84484291D02*
X220303395Y-84484291D01*
X223695205Y-80387341D02*
X223536525Y-80387341D01*
X222544544Y-79434991D02*
X222425485Y-79434991D01*
X219429625Y-81339741D02*
X219251031Y-81339741D01*
X219251031Y-84037891D02*
X219251031Y-84395041D01*
X219251031Y-83879142D02*
X219251031Y-84037891D01*
X219429625Y-83879142D02*
X219251031Y-83879142D01*
X219965339Y-83879142D02*
X219429625Y-83879142D01*
X219251031Y-83125292D02*
X219251031Y-83244291D01*
X219251031Y-82768191D02*
X219251031Y-83125292D01*
X220303395Y-82579741D02*
X220065339Y-82579741D01*
X219965339Y-82609441D02*
X219429625Y-82609441D01*
X220303395Y-83849441D02*
X220065339Y-83849441D01*
X219251031Y-81498491D02*
X219251031Y-81855591D01*
X219251031Y-81339741D02*
X219251031Y-81498491D01*
X220481990Y-81627341D02*
X220303395Y-81627341D01*
X220303395Y-82401191D02*
X220303395Y-82579741D01*
X223060345Y-80149291D02*
X223060345Y-79613591D01*
X221274810Y-79434991D02*
X221155750Y-79434991D01*
X221790625Y-79613591D02*
X221790625Y-79434991D01*
X223060345Y-79434991D02*
X222901665Y-79434991D01*
X223695205Y-79673141D02*
X223695205Y-80208841D01*
X221790625Y-80387341D02*
X221790625Y-80149291D01*
X223060345Y-80387341D02*
X223060345Y-80149291D01*
X223695205Y-80208841D02*
X223695205Y-80387341D01*
X221155750Y-80208841D02*
X221155750Y-80387341D01*
X219251031Y-82609441D02*
X219251031Y-82768191D01*
X221155750Y-79673141D02*
X221155750Y-80208841D01*
X219429625Y-82609441D02*
X219251031Y-82609441D01*
X220303395Y-81627341D02*
X220303395Y-81865491D01*
X220917695Y-80387341D02*
X220381990Y-80387341D01*
X220303395Y-85119142D02*
X220065339Y-85119142D01*
X220303395Y-85000191D02*
X220303395Y-85119142D01*
X223179405Y-80387341D02*
X223060345Y-80387341D01*
X220303395Y-84643041D02*
X220303395Y-85000191D01*
X222266805Y-80387341D02*
X221909690Y-80387341D01*
X223536525Y-80387341D02*
X223179405Y-80387341D01*
X223814265Y-79434991D02*
X223695205Y-79434991D01*
X220303395Y-84484291D02*
X220303395Y-84643041D01*
X219589156Y-84484291D02*
X220124869Y-84484291D01*
X219251031Y-83244291D02*
X219489156Y-83244291D01*
X228139440Y-89275636D02*
X228139440Y-89275636D01*
X228715690Y-88699477D02*
X228896190Y-88518951D01*
X228553690Y-88861466D02*
X228715690Y-88699477D01*
X228413540Y-89001616D02*
X228553690Y-88861466D01*
X228158340Y-89256826D02*
X228212490Y-89202671D01*
X227960940Y-89275636D02*
X228139440Y-89275636D01*
X226710990Y-90228000D02*
X227068090Y-90228000D01*
X228139440Y-89275636D02*
X228158340Y-89256826D01*
X227425189Y-89275636D02*
X227960940Y-89275636D01*
X227187089Y-89989943D02*
X227187089Y-89454231D01*
X227187089Y-89454231D02*
X227187089Y-89275636D01*
X226552239Y-90049475D02*
X226552239Y-90228000D01*
X227187089Y-90228000D02*
X227187089Y-89989943D01*
X226552239Y-90228000D02*
X226710990Y-90228000D01*
X226552239Y-89513762D02*
X226552239Y-90049475D01*
X226552239Y-89275636D02*
X226552239Y-89513762D01*
X227068090Y-90228000D02*
X227187089Y-90228000D01*
X228896190Y-88518951D02*
X229042940Y-88372197D01*
X228298690Y-89116476D02*
X228413540Y-89001616D01*
X228212490Y-89202671D02*
X228298690Y-89116476D01*
X227187089Y-89275636D02*
X227425189Y-89275636D01*
X220124869Y-88293546D02*
X220303395Y-88293546D01*
X220303395Y-87539696D02*
X220303395Y-87658686D01*
X219251031Y-85307641D02*
X219251031Y-85664836D01*
X219251031Y-84514041D02*
X219489156Y-84514041D01*
X220303395Y-86269891D02*
X220303395Y-86388891D01*
X220303395Y-88452296D02*
X220303395Y-88809411D01*
X219429625Y-86418686D02*
X219251031Y-86418686D01*
X219251031Y-86934556D02*
X219251031Y-87053546D01*
X219589156Y-87023826D02*
X220124869Y-87023826D01*
X220303395Y-88293546D02*
X220303395Y-88452296D01*
X219251031Y-87053546D02*
X219489156Y-87053546D01*
X219965339Y-86418686D02*
X219429625Y-86418686D01*
X219429625Y-85148891D02*
X219251031Y-85148891D01*
X220303395Y-87182576D02*
X220303395Y-87539696D01*
X220124869Y-87023826D02*
X220303395Y-87023826D01*
X219251031Y-85783826D02*
X219489156Y-85783826D01*
X219251031Y-85664836D02*
X219251031Y-85783826D01*
X219251031Y-85148891D02*
X219251031Y-85307641D01*
X219965339Y-85148891D02*
X219429625Y-85148891D01*
X220303395Y-86388891D02*
X220065339Y-86388891D01*
X220303395Y-85912791D02*
X220303395Y-86269891D01*
X219589156Y-85754041D02*
X220124869Y-85754041D01*
X220303395Y-85754041D02*
X220303395Y-85912791D01*
X219589156Y-88293546D02*
X220124869Y-88293546D01*
X219251031Y-86577436D02*
X219251031Y-86934556D01*
X219251031Y-86418686D02*
X219251031Y-86577436D01*
X220303395Y-87658686D02*
X220065339Y-87658686D01*
X220303395Y-87023826D02*
X220303395Y-87182576D01*
X220124869Y-85754041D02*
X220303395Y-85754041D01*
X221473250Y-89275636D02*
X221473250Y-89513762D01*
X222266875Y-89275636D02*
X222623994Y-89275636D01*
X220124869Y-89563281D02*
X220303395Y-89563281D01*
X219429625Y-87688406D02*
X219251031Y-87688406D01*
X219251031Y-88323281D02*
X219489156Y-88323281D01*
X224806290Y-89275636D02*
X225163440Y-89275636D01*
X224647540Y-89989943D02*
X224647540Y-89454231D01*
X224647540Y-89275636D02*
X224806290Y-89275636D01*
X226433240Y-89275636D02*
X226552239Y-89275636D01*
X220303395Y-89801406D02*
X220303395Y-90337111D01*
X226076140Y-89275636D02*
X226433240Y-89275636D01*
X225917390Y-89275636D02*
X226076140Y-89275636D01*
X222623994Y-89275636D02*
X222742985Y-89275636D01*
X225917390Y-89454231D02*
X225917390Y-89275636D01*
X219965339Y-87688406D02*
X219429625Y-87688406D01*
X225917390Y-89989943D02*
X225917390Y-89454231D01*
X225917390Y-90228000D02*
X225917390Y-89989943D01*
X225798389Y-90228000D02*
X225917390Y-90228000D01*
X222108125Y-89275636D02*
X222266875Y-89275636D01*
X222108125Y-90228000D02*
X222108125Y-89989943D01*
X221235195Y-89275636D02*
X221473250Y-89275636D01*
X219251031Y-88204291D02*
X219251031Y-88323281D01*
X224647540Y-89454231D02*
X224647540Y-89275636D01*
X222108125Y-89454231D02*
X222108125Y-89275636D01*
X225441190Y-90228000D02*
X225798389Y-90228000D01*
X225282440Y-90228000D02*
X225441190Y-90228000D01*
X225282440Y-90049475D02*
X225282440Y-90228000D01*
X225282440Y-89513762D02*
X225282440Y-90049475D01*
X225282440Y-89275636D02*
X225282440Y-89513762D01*
X224528590Y-90228000D02*
X224647540Y-90228000D01*
X222742985Y-90228000D02*
X222901734Y-90228000D01*
X224012705Y-89275636D02*
X224012705Y-89513762D01*
X220203395Y-89275636D02*
X220520895Y-89275636D01*
X220303395Y-89563281D02*
X220303395Y-89801406D01*
X224171440Y-90228000D02*
X224528590Y-90228000D01*
X224012705Y-89513762D02*
X224012705Y-90049475D01*
X223893710Y-89275636D02*
X224012705Y-89275636D01*
X223536595Y-89275636D02*
X223893710Y-89275636D01*
X223377845Y-90228000D02*
X223377845Y-89989943D01*
X221989115Y-90228000D02*
X222108125Y-90228000D01*
X220520895Y-89275636D02*
X221235195Y-89275636D01*
X222901734Y-90228000D02*
X223258850Y-90228000D01*
X221473250Y-90049475D02*
X221473250Y-90228000D01*
X224012705Y-90228000D02*
X224171440Y-90228000D01*
X224012705Y-90049475D02*
X224012705Y-90228000D01*
X219251031Y-87847156D02*
X219251031Y-88204291D01*
X219251031Y-87688406D02*
X219251031Y-87847156D01*
X220303395Y-90337111D02*
X220303395Y-90515636D01*
X223377845Y-89275636D02*
X223536595Y-89275636D01*
X222742985Y-89513762D02*
X222742985Y-90049475D01*
X222108125Y-89989943D02*
X222108125Y-89454231D01*
X223258850Y-90228000D02*
X223377845Y-90228000D01*
X222742985Y-89275636D02*
X222742985Y-89513762D01*
X221473250Y-89513762D02*
X221473250Y-90049475D01*
X220303395Y-88809411D02*
X220303395Y-88928406D01*
X225163440Y-89275636D02*
X225282440Y-89275636D01*
X224647540Y-90228000D02*
X224647540Y-89989943D01*
X221473250Y-90228000D02*
X221632000Y-90228000D01*
X223377845Y-89454231D02*
X223377845Y-89275636D01*
X223377845Y-89989943D02*
X223377845Y-89454231D01*
X219589156Y-89563281D02*
X220124869Y-89563281D01*
X220303395Y-88928406D02*
X220065339Y-88928406D01*
X222742985Y-90049475D02*
X222742985Y-90228000D01*
X221632000Y-90228000D02*
X221989115Y-90228000D01*
D13*
X89200000Y-63670001D02*
G75*
G03*
X89700000Y-64170001I500000J0D01*
G01*
X198250000Y-52275001D02*
G75*
G02*
X199250000Y-53275001I0J-1000000D01*
G01*
X117400000Y-54675001D02*
G75*
G02*
X116400000Y-55675001I-1000000J0D01*
G01*
X117400000Y-53275001D02*
G75*
G02*
X118400000Y-52275001I1000000J0D01*
G01*
X90200000Y-55675001D02*
G75*
G03*
X89200000Y-56675001I0J-1000000D01*
G01*
X90500000Y-64170001D02*
G75*
G02*
X91000000Y-64670001I0J-500000D01*
G01*
X137800000Y-119275001D02*
G75*
G03*
X138800000Y-120275001I1000000J0D01*
G01*
X136800000Y-97725001D02*
G75*
G02*
X137800000Y-98725001I0J-1000000D01*
G01*
X199250000Y-119275001D02*
G75*
G02*
X198250000Y-120275001I-1000000J0D01*
G01*
X91000000Y-96725001D02*
G75*
G03*
X92000000Y-97725001I1000000J0D01*
G01*
X91000000Y-96445001D02*
X91000000Y-64945001D01*
X91000000Y-64670001D02*
X91000000Y-64945001D01*
X199250000Y-53275001D02*
X199250000Y-119275001D01*
X89200000Y-63670001D02*
X89200000Y-56675001D01*
X90500000Y-64170001D02*
X89700000Y-64170001D01*
X134525000Y-96445001D02*
X91000000Y-96445001D01*
X91000000Y-64945001D02*
X134525000Y-64945001D01*
X117400000Y-53275001D02*
X117400000Y-54675001D01*
X118400000Y-52275001D02*
X198250000Y-52275001D01*
X198250000Y-120275001D02*
X138800000Y-120275001D01*
X90200000Y-55675001D02*
X116400000Y-55675001D01*
X137800000Y-119275001D02*
X137800000Y-98725001D01*
X134525000Y-64945001D02*
X134525000Y-96445001D01*
X136800000Y-97725001D02*
X92000000Y-97725001D01*
X91000000Y-96445001D02*
X91000000Y-96725001D01*
D10*
X127899420Y-91924220D02*
X127899420Y-91474640D01*
X127099320Y-90125900D02*
X126550680Y-89724580D01*
X127249180Y-92775120D02*
X127698760Y-92475400D01*
X127698760Y-92475400D02*
X127899420Y-91924220D01*
X127548900Y-90524680D02*
X127099320Y-90125900D01*
X127800360Y-91075860D02*
X127548900Y-90524680D01*
X127899420Y-91474640D02*
X127800360Y-91075860D01*
X122799100Y-92975780D02*
X122400320Y-92825920D01*
X121699280Y-92424600D02*
X122049800Y-92373800D01*
X125849640Y-92724320D02*
X126350020Y-92975780D01*
X120850920Y-90575480D02*
X120398800Y-90725340D01*
X120398800Y-90725340D02*
X120200680Y-91225720D01*
X122199660Y-90024300D02*
X122799100Y-90575480D01*
X126250960Y-89724580D02*
X126550680Y-89074340D01*
X120599460Y-92124880D02*
X121049040Y-92274740D01*
X125549920Y-90824400D02*
X126250960Y-89724580D01*
X120398800Y-89275000D02*
X121150640Y-90473880D01*
X125349260Y-91075860D02*
X125549920Y-90824400D01*
X121049040Y-92274740D02*
X121699280Y-92424600D01*
X124749820Y-91375580D02*
X125349260Y-91075860D01*
X121150640Y-90473880D02*
X121849140Y-91124120D01*
X121198900Y-90974260D02*
X120850920Y-90575480D01*
X125549920Y-92074080D02*
X125999500Y-92074080D01*
X120800120Y-93024040D02*
X120398800Y-92975780D01*
X125648980Y-91174920D02*
X125199400Y-91474640D01*
X121651020Y-91423840D02*
X121198900Y-90974260D01*
X124300240Y-91474640D02*
X124749820Y-91375580D01*
X123550940Y-91624500D02*
X123251220Y-91774360D01*
X124650760Y-91825160D02*
X124249440Y-91825160D01*
X126550680Y-91624500D02*
X126598940Y-91324780D01*
X120050820Y-92825920D02*
X119448840Y-92424600D01*
X125199400Y-91474640D02*
X124950480Y-91675300D01*
X120398800Y-92975780D02*
X120050820Y-92825920D01*
X124749820Y-92775120D02*
X125199400Y-92175680D01*
X126350020Y-92975780D02*
X126799600Y-93024040D01*
X126299220Y-91075860D02*
X125999500Y-91025060D01*
X124800620Y-92874180D02*
X125400060Y-92625260D01*
X120299740Y-91875960D02*
X120599460Y-92124880D01*
X122750840Y-91875960D02*
X122250460Y-91825160D01*
X126350020Y-92025820D02*
X126550680Y-91624500D01*
X126799600Y-93024040D02*
X127249180Y-92775120D01*
X119448840Y-92424600D02*
X118999260Y-91624500D01*
X125400060Y-92625260D02*
X125849640Y-92724320D01*
X125951240Y-88975280D02*
X125499120Y-89374060D01*
X119751100Y-89523920D02*
X120398800Y-89275000D01*
X118999260Y-91624500D02*
X118900200Y-90926000D01*
X122049800Y-92373800D02*
X122600980Y-92625260D01*
X121750080Y-92874180D02*
X120800120Y-93024040D01*
X125999500Y-91025060D02*
X125648980Y-91174920D01*
X125999500Y-92074080D02*
X126350020Y-92025820D01*
X119199920Y-90024300D02*
X119751100Y-89523920D01*
X123449340Y-91423840D02*
X123850660Y-91324780D01*
X124950480Y-91675300D02*
X124650760Y-91825160D01*
X118900200Y-90926000D02*
X119199920Y-90024300D01*
X123749060Y-91576240D02*
X123550940Y-91624500D01*
X125951240Y-88424100D02*
X125450860Y-87425880D01*
X125400060Y-88573960D02*
X125798840Y-88573960D01*
X126550680Y-89074340D02*
X125951240Y-88975280D01*
X122451120Y-91576240D02*
X122999760Y-91624500D01*
X122600980Y-92625260D02*
X122799100Y-92975780D01*
X121849140Y-91124120D02*
X122451120Y-91576240D01*
X123850660Y-91324780D02*
X124300240Y-91474640D01*
X122999760Y-91624500D02*
X123449340Y-91423840D01*
X120200680Y-91225720D02*
X120299740Y-91875960D01*
X126598940Y-91324780D02*
X126299220Y-91075860D01*
X124249440Y-91825160D02*
X123749060Y-91576240D01*
X122400320Y-92825920D02*
X121750080Y-92874180D01*
X122250460Y-91825160D02*
X121651020Y-91423840D01*
X123251220Y-91774360D02*
X122750840Y-91875960D01*
X125199400Y-92175680D02*
X125549920Y-92074080D01*
X125798840Y-88573960D02*
X125951240Y-88424100D01*
X122649240Y-89724580D02*
X122849900Y-89475660D01*
X125049540Y-88474900D02*
X125250200Y-88573960D01*
X123098820Y-87425880D02*
X122948960Y-87926260D01*
X124249440Y-86625780D02*
X124650760Y-86374320D01*
X125199400Y-84974780D02*
X125100340Y-84675060D01*
X124749820Y-88624760D02*
X124899680Y-88474900D01*
X125400060Y-89673780D02*
X124950480Y-89775380D01*
X125450860Y-87425880D02*
X125301000Y-87425880D01*
X125499120Y-89925240D02*
X125400060Y-89673780D01*
X125400060Y-90125900D02*
X125499120Y-89925240D01*
X124000520Y-87773860D02*
X124300240Y-87773860D01*
X125400060Y-88025320D02*
X125301000Y-87875460D01*
X123550940Y-88876220D02*
X123350280Y-88825420D01*
X124500900Y-88825420D02*
X124201180Y-88975280D01*
X123299480Y-87075360D02*
X123098820Y-87425880D01*
X124201180Y-88975280D02*
X123898920Y-88975280D01*
X124549160Y-88124380D02*
X124099580Y-88474900D01*
X124300240Y-89826180D02*
X124351040Y-89374060D01*
X122799100Y-88175180D02*
X122499380Y-88225980D01*
X124399300Y-87875460D02*
X124549160Y-88124380D01*
X124300240Y-87773860D02*
X124399300Y-87875460D01*
X124599960Y-85924740D02*
X124650760Y-85724080D01*
X123898920Y-86724840D02*
X123449340Y-86874700D01*
X124099580Y-88474900D02*
X123700800Y-88325040D01*
X125100340Y-85325300D02*
X125199400Y-84974780D01*
X124500900Y-88975280D02*
X124599960Y-88825420D01*
X124650760Y-85724080D02*
X124848880Y-85525960D01*
X124650760Y-88774620D02*
X124749820Y-88624760D01*
X125049540Y-86973760D02*
X125400060Y-86775640D01*
X124899680Y-87324280D02*
X125049540Y-86973760D01*
X123251220Y-89475660D02*
X123650000Y-89673780D01*
X123700800Y-89724580D02*
X123350280Y-89874440D01*
X124650760Y-86074600D02*
X124599960Y-85924740D01*
X124998740Y-90224960D02*
X125400060Y-90125900D01*
X123749060Y-87926260D02*
X124000520Y-87773860D01*
X125250200Y-88573960D02*
X125450860Y-88573960D01*
X124399300Y-86674040D02*
X123898920Y-86724840D01*
X124848880Y-85525960D02*
X125100340Y-85325300D01*
X123749060Y-88975280D02*
X123550940Y-88876220D01*
X123449340Y-86874700D02*
X123299480Y-87075360D01*
X125199400Y-86176200D02*
X124650760Y-86074600D01*
X125400060Y-89275000D02*
X125349260Y-88624760D01*
X122948960Y-87926260D02*
X122799100Y-88175180D01*
X124899680Y-88474900D02*
X125049540Y-88474900D01*
X120149880Y-88175180D02*
X121549420Y-88723820D01*
X122049800Y-89074340D02*
X122199660Y-90024300D01*
X122849900Y-89475660D02*
X123251220Y-89475660D01*
X122900700Y-89976040D02*
X122649240Y-89724580D01*
X124848880Y-89874440D02*
X124998740Y-90224960D01*
X125301000Y-87425880D02*
X124899680Y-87324280D01*
X124650760Y-86374320D02*
X124899680Y-86374320D01*
X125100340Y-84675060D02*
X124950480Y-84375340D01*
X124351040Y-89374060D02*
X124500900Y-88975280D01*
X123700800Y-88325040D02*
X123749060Y-87926260D01*
X123898920Y-88975280D02*
X123749060Y-88975280D01*
X124848880Y-86625780D02*
X124399300Y-86674040D01*
X125450860Y-86724840D02*
X124848880Y-86625780D01*
X125400060Y-86224460D02*
X125199400Y-86176200D01*
X121549420Y-88723820D02*
X122049800Y-89074340D01*
X120650260Y-88924480D02*
X120149880Y-88175180D01*
X120650260Y-89523920D02*
X120650260Y-88924480D01*
X124048780Y-90974260D02*
X124300240Y-91324780D01*
X123350280Y-89874440D02*
X122900700Y-89976040D01*
X123650000Y-90824400D02*
X124048780Y-90974260D01*
X124950480Y-84375340D02*
X124998740Y-84375340D01*
X124201180Y-85226240D02*
X124599960Y-85025580D01*
X121099840Y-86224460D02*
X121000780Y-86625780D01*
X126799600Y-91525440D02*
X127800360Y-91273980D01*
X124599960Y-85025580D02*
X124549160Y-84576000D01*
X123898920Y-85525960D02*
X124201180Y-85226240D01*
X121150640Y-85924740D02*
X121099840Y-86224460D01*
X124099580Y-85975540D02*
X123898920Y-85525960D01*
X123449340Y-84974780D02*
X123700800Y-84774120D01*
X122250460Y-85475160D02*
X122799100Y-85025580D01*
X120949980Y-87024560D02*
X120899180Y-87425880D01*
X127800360Y-91273980D02*
X126550680Y-91975020D01*
X126449080Y-92924980D02*
X125301000Y-92223940D01*
X122948960Y-83476180D02*
X122999760Y-83323780D01*
X122649240Y-84123880D02*
X122999760Y-83775900D01*
X122100600Y-91124120D02*
X122849900Y-91474640D01*
X121399560Y-85675820D02*
X121150640Y-85924740D01*
X122999760Y-83775900D02*
X122948960Y-83476180D01*
X123050560Y-83275520D02*
X122999760Y-83173920D01*
X124899680Y-86326060D02*
X125151140Y-86224460D01*
X124399300Y-84174680D02*
X124549160Y-83925760D01*
X124549160Y-84576000D02*
X124399300Y-84174680D01*
X120899180Y-87425880D02*
X120899180Y-87926260D01*
X121800880Y-85274500D02*
X121549420Y-85475160D01*
X123799860Y-83524440D02*
X124000520Y-83323780D01*
X123749060Y-84075620D02*
X123799860Y-83524440D01*
X124500900Y-91576240D02*
X124749820Y-91525440D01*
X123050560Y-84225480D02*
X122649240Y-84123880D01*
X122100600Y-87225220D02*
X121899940Y-86574980D01*
X121899940Y-86574980D02*
X122451120Y-86176200D01*
X121450360Y-88424100D02*
X121750080Y-87974520D01*
X121899940Y-85274500D02*
X122100600Y-85325300D01*
X125951240Y-92223940D02*
X126449080Y-92924980D01*
X127698760Y-92424600D02*
X125951240Y-92223940D01*
X123799860Y-84273740D02*
X123749060Y-84075620D01*
X123850660Y-84576000D02*
X123799860Y-84273740D01*
X121750080Y-87974520D02*
X121651020Y-87524940D01*
X123700800Y-84774120D02*
X123850660Y-84576000D01*
X126550680Y-91975020D02*
X127698760Y-92424600D01*
X122750840Y-84923980D02*
X122948960Y-84525200D01*
X123500140Y-85574220D02*
X123350280Y-85175440D01*
X123350280Y-85175440D02*
X123449340Y-84974780D01*
X121600220Y-90824400D02*
X122100600Y-91124120D01*
X120899180Y-87926260D02*
X120899180Y-88424100D01*
X122948960Y-84525200D02*
X123050560Y-84225480D01*
X122451120Y-86176200D02*
X122250460Y-85475160D01*
X121549420Y-85475160D02*
X121399560Y-85675820D01*
X122849900Y-91474640D02*
X123200420Y-91474640D01*
X121651020Y-87524940D02*
X122100600Y-87225220D01*
X121000780Y-86625780D02*
X120949980Y-87024560D01*
X127249180Y-90425620D02*
X126799600Y-91525440D01*
X125151140Y-86224460D02*
X125400060Y-86224460D01*
X126499880Y-91124120D02*
X127249180Y-90425620D01*
X126748800Y-90024300D02*
X126499880Y-91124120D01*
X125450860Y-90875200D02*
X126748800Y-90024300D01*
X125049540Y-91075860D02*
X125450860Y-90875200D01*
X124399300Y-91273980D02*
X125049540Y-91075860D01*
X120850920Y-92975780D02*
X121950740Y-92475400D01*
X120350540Y-92074080D02*
X119850160Y-92574460D01*
X119850160Y-92574460D02*
X120899180Y-92325540D01*
X120899180Y-92325540D02*
X120850920Y-92975780D01*
X119100860Y-91675300D02*
X120350540Y-92074080D01*
X120350540Y-90776140D02*
X119400580Y-89976040D01*
X120899180Y-90425620D02*
X119900960Y-89625520D01*
X120248940Y-91423840D02*
X119100860Y-91675300D01*
X118951000Y-91075860D02*
X120248940Y-91423840D01*
X119400580Y-89976040D02*
X120099080Y-91273980D01*
X119900960Y-89625520D02*
X120350540Y-90776140D01*
X119050060Y-90623740D02*
X118951000Y-91075860D01*
X120099080Y-91273980D02*
X119050060Y-90623740D01*
X118100100Y-82424620D02*
X118150900Y-82975800D01*
X118150900Y-82975800D02*
X117899440Y-83074860D01*
X120398800Y-83925760D02*
X120398800Y-82775140D01*
X120899180Y-82373820D02*
X121198900Y-82526220D01*
X118100100Y-83874960D02*
X117899440Y-83974020D01*
X128199140Y-83374580D02*
X127899420Y-83224720D01*
X127851160Y-83974020D02*
X128100080Y-83775900D01*
X119700300Y-82424620D02*
X119700300Y-83925760D01*
X118849400Y-83925760D02*
X119700300Y-82424620D01*
X121300500Y-82825940D02*
X121300500Y-83925760D01*
X120398800Y-82775140D02*
X120551200Y-82526220D01*
X126350020Y-83974020D02*
X126050300Y-83925760D01*
X126598940Y-83874960D02*
X126350020Y-83974020D01*
X120551200Y-82526220D02*
X120899180Y-82373820D01*
X125849640Y-82625280D02*
X126200160Y-82475420D01*
X126649740Y-83074860D02*
X126350020Y-83074860D01*
X126200160Y-82475420D02*
X126649740Y-82574480D01*
X127899420Y-83224720D02*
X127399040Y-83275520D01*
X127299980Y-83925760D02*
X127851160Y-83974020D01*
X128849380Y-82424620D02*
X129550420Y-82424620D01*
X128849380Y-84024820D02*
X128849380Y-82424620D01*
X125750580Y-83575240D02*
X125699780Y-83074860D01*
X126649740Y-82574480D02*
X126649740Y-83074860D01*
X127299980Y-82475420D02*
X127299980Y-83925760D01*
X128100080Y-83775900D02*
X128199140Y-83374580D01*
X117698780Y-82424620D02*
X118100100Y-82424620D01*
X117399060Y-82574480D02*
X117698780Y-82424620D01*
X125699780Y-83074860D02*
X125849640Y-82625280D01*
X117249200Y-83425380D02*
X117249200Y-82975800D01*
X117249200Y-82975800D02*
X117399060Y-82574480D01*
X117449860Y-83824160D02*
X117249200Y-83425380D01*
X117899440Y-83974020D02*
X117449860Y-83824160D01*
X126050300Y-83925760D02*
X125750580Y-83575240D01*
X118849400Y-82373820D02*
X118849400Y-83925760D01*
X121198900Y-82526220D02*
X121300500Y-82825940D01*
D14*
G36*
X98821900Y-83913097D02*
G01*
X98933450Y-83857478D01*
X99031908Y-83755069D01*
X99059023Y-83717136D01*
X99088562Y-83667500D01*
X99107728Y-83613588D01*
X99118693Y-83541636D01*
X99123629Y-83437878D01*
X99124713Y-83300899D01*
X99119818Y-83113185D01*
X99102804Y-82972242D01*
X99070177Y-82867092D01*
X99018442Y-82786757D01*
X98944104Y-82720259D01*
X98938642Y-82716322D01*
X98865380Y-82676047D01*
X98777160Y-82656120D01*
X98664962Y-82651207D01*
X98482567Y-82651207D01*
X98482491Y-82474143D01*
X98480793Y-82375530D01*
X98470450Y-82317686D01*
X98443422Y-82282994D01*
X98391668Y-82253836D01*
X98379239Y-82247879D01*
X98321077Y-82219961D01*
X98276044Y-82202328D01*
X98242559Y-82200806D01*
X98219038Y-82221219D01*
X98203900Y-82269393D01*
X98195563Y-82351154D01*
X98192444Y-82472328D01*
X98192960Y-82638740D01*
X98195529Y-82856215D01*
X98196332Y-82921264D01*
X98199222Y-83145498D01*
X98201812Y-83292179D01*
X98482414Y-83292179D01*
X98483991Y-83167674D01*
X98491000Y-83086213D01*
X98506858Y-83032485D01*
X98534981Y-82991177D01*
X98554075Y-82971029D01*
X98632135Y-82912079D01*
X98701247Y-82907280D01*
X98772560Y-82955962D01*
X98774368Y-82957759D01*
X98803383Y-82995382D01*
X98821033Y-83046516D01*
X98829936Y-83125262D01*
X98832709Y-83245724D01*
X98832759Y-83272412D01*
X98826058Y-83438417D01*
X98804248Y-83553495D01*
X98764765Y-83623746D01*
X98705044Y-83655271D01*
X98670528Y-83658448D01*
X98588611Y-83643540D01*
X98532421Y-83594452D01*
X98498598Y-83504638D01*
X98483780Y-83367555D01*
X98482414Y-83292179D01*
X98201812Y-83292179D01*
X98202287Y-83319048D01*
X98206247Y-83449618D01*
X98211826Y-83544913D01*
X98219746Y-83612636D01*
X98230731Y-83660493D01*
X98245501Y-83696187D01*
X98264782Y-83727422D01*
X98273049Y-83739176D01*
X98382712Y-83850203D01*
X98521365Y-83913153D01*
X98681754Y-83930703D01*
X98821900Y-83913097D01*
G37*
X98821900Y-83913097D02*
X98933450Y-83857478D01*
X99031908Y-83755069D01*
X99059023Y-83717136D01*
X99088562Y-83667500D01*
X99107728Y-83613588D01*
X99118693Y-83541636D01*
X99123629Y-83437878D01*
X99124713Y-83300899D01*
X99119818Y-83113185D01*
X99102804Y-82972242D01*
X99070177Y-82867092D01*
X99018442Y-82786757D01*
X98944104Y-82720259D01*
X98938642Y-82716322D01*
X98865380Y-82676047D01*
X98777160Y-82656120D01*
X98664962Y-82651207D01*
X98482567Y-82651207D01*
X98482491Y-82474143D01*
X98480793Y-82375530D01*
X98470450Y-82317686D01*
X98443422Y-82282994D01*
X98391668Y-82253836D01*
X98379239Y-82247879D01*
X98321077Y-82219961D01*
X98276044Y-82202328D01*
X98242559Y-82200806D01*
X98219038Y-82221219D01*
X98203900Y-82269393D01*
X98195563Y-82351154D01*
X98192444Y-82472328D01*
X98192960Y-82638740D01*
X98195529Y-82856215D01*
X98196332Y-82921264D01*
X98199222Y-83145498D01*
X98201812Y-83292179D01*
X98482414Y-83292179D01*
X98483991Y-83167674D01*
X98491000Y-83086213D01*
X98506858Y-83032485D01*
X98534981Y-82991177D01*
X98554075Y-82971029D01*
X98632135Y-82912079D01*
X98701247Y-82907280D01*
X98772560Y-82955962D01*
X98774368Y-82957759D01*
X98803383Y-82995382D01*
X98821033Y-83046516D01*
X98829936Y-83125262D01*
X98832709Y-83245724D01*
X98832759Y-83272412D01*
X98826058Y-83438417D01*
X98804248Y-83553495D01*
X98764765Y-83623746D01*
X98705044Y-83655271D01*
X98670528Y-83658448D01*
X98588611Y-83643540D01*
X98532421Y-83594452D01*
X98498598Y-83504638D01*
X98483780Y-83367555D01*
X98482414Y-83292179D01*
X98201812Y-83292179D01*
X98202287Y-83319048D01*
X98206247Y-83449618D01*
X98211826Y-83544913D01*
X98219746Y-83612636D01*
X98230731Y-83660493D01*
X98245501Y-83696187D01*
X98264782Y-83727422D01*
X98273049Y-83739176D01*
X98382712Y-83850203D01*
X98521365Y-83913153D01*
X98681754Y-83930703D01*
X98821900Y-83913097D01*
G36*
X108985690Y-83834982D02*
G01*
X109020585Y-83819731D01*
X109103877Y-83753765D01*
X109175103Y-83658382D01*
X109219153Y-83556594D01*
X109226322Y-83506413D01*
X109202285Y-83436353D01*
X109149561Y-83399283D01*
X109093031Y-83376836D01*
X109067146Y-83372700D01*
X109054542Y-83402717D01*
X109029654Y-83468039D01*
X109018735Y-83497555D01*
X108957508Y-83599652D01*
X108868861Y-83650577D01*
X108755193Y-83649011D01*
X108746774Y-83647006D01*
X108686088Y-83618233D01*
X108641474Y-83562141D01*
X108611002Y-83471837D01*
X108592744Y-83340429D01*
X108584771Y-83161026D01*
X108584023Y-83065567D01*
X108583652Y-82915087D01*
X108581223Y-82812505D01*
X108574760Y-82747328D01*
X108562288Y-82709062D01*
X108541833Y-82687215D01*
X108511419Y-82671293D01*
X108509661Y-82670491D01*
X108451091Y-82645728D01*
X108422075Y-82636609D01*
X108417616Y-82664178D01*
X108413799Y-82740380D01*
X108410899Y-82855459D01*
X108409191Y-82999659D01*
X108408851Y-83105186D01*
X108410588Y-83309387D01*
X108417382Y-83464303D01*
X108431607Y-83578976D01*
X108455638Y-83662449D01*
X108491848Y-83723764D01*
X108542612Y-83771966D01*
X108592739Y-83805607D01*
X108713275Y-83850381D01*
X108853557Y-83860479D01*
X108985690Y-83834982D01*
G37*
X108985690Y-83834982D02*
X109020585Y-83819731D01*
X109103877Y-83753765D01*
X109175103Y-83658382D01*
X109219153Y-83556594D01*
X109226322Y-83506413D01*
X109202285Y-83436353D01*
X109149561Y-83399283D01*
X109093031Y-83376836D01*
X109067146Y-83372700D01*
X109054542Y-83402717D01*
X109029654Y-83468039D01*
X109018735Y-83497555D01*
X108957508Y-83599652D01*
X108868861Y-83650577D01*
X108755193Y-83649011D01*
X108746774Y-83647006D01*
X108686088Y-83618233D01*
X108641474Y-83562141D01*
X108611002Y-83471837D01*
X108592744Y-83340429D01*
X108584771Y-83161026D01*
X108584023Y-83065567D01*
X108583652Y-82915087D01*
X108581223Y-82812505D01*
X108574760Y-82747328D01*
X108562288Y-82709062D01*
X108541833Y-82687215D01*
X108511419Y-82671293D01*
X108509661Y-82670491D01*
X108451091Y-82645728D01*
X108422075Y-82636609D01*
X108417616Y-82664178D01*
X108413799Y-82740380D01*
X108410899Y-82855459D01*
X108409191Y-82999659D01*
X108408851Y-83105186D01*
X108410588Y-83309387D01*
X108417382Y-83464303D01*
X108431607Y-83578976D01*
X108455638Y-83662449D01*
X108491848Y-83723764D01*
X108542612Y-83771966D01*
X108592739Y-83805607D01*
X108713275Y-83850381D01*
X108853557Y-83860479D01*
X108985690Y-83834982D01*
G36*
X102394598Y-84051143D02*
G01*
X102403154Y-83931812D01*
X102412981Y-83861494D01*
X102426599Y-83830821D01*
X102446527Y-83830429D01*
X102452989Y-83834090D01*
X102538940Y-83860602D01*
X102650745Y-83859054D01*
X102764414Y-83831801D01*
X102835510Y-83796545D01*
X102908405Y-83740222D01*
X102961693Y-83676481D01*
X102998275Y-83595490D01*
X103021050Y-83487414D01*
X103032919Y-83342420D01*
X103036782Y-83150674D01*
X103036851Y-83113891D01*
X103036897Y-82700712D01*
X102944954Y-82668661D01*
X102879652Y-82646856D01*
X102843824Y-82636703D01*
X102842770Y-82636609D01*
X102839242Y-82664140D01*
X102836239Y-82740077D01*
X102833990Y-82854435D01*
X102832724Y-82997231D01*
X102832529Y-83084049D01*
X102832123Y-83255227D01*
X102830032Y-83377912D01*
X102824947Y-83462000D01*
X102815560Y-83517386D01*
X102800561Y-83553968D01*
X102778642Y-83581641D01*
X102764957Y-83594968D01*
X102670949Y-83648672D01*
X102568364Y-83652693D01*
X102475290Y-83607275D01*
X102458078Y-83590877D01*
X102432832Y-83560043D01*
X102415320Y-83523469D01*
X102404142Y-83470585D01*
X102397896Y-83390823D01*
X102395182Y-83273615D01*
X102394598Y-83112009D01*
X102394598Y-82700712D01*
X102302655Y-82668661D01*
X102237353Y-82646856D01*
X102201525Y-82636703D01*
X102200471Y-82636609D01*
X102197775Y-82664552D01*
X102195345Y-82743370D01*
X102193278Y-82865547D01*
X102191671Y-83023568D01*
X102190623Y-83209917D01*
X102190231Y-83417080D01*
X102190230Y-83426294D01*
X102190230Y-84215980D01*
X102285115Y-84256003D01*
X102380000Y-84296027D01*
X102394598Y-84051143D01*
G37*
X102394598Y-84051143D02*
X102403154Y-83931812D01*
X102412981Y-83861494D01*
X102426599Y-83830821D01*
X102446527Y-83830429D01*
X102452989Y-83834090D01*
X102538940Y-83860602D01*
X102650745Y-83859054D01*
X102764414Y-83831801D01*
X102835510Y-83796545D01*
X102908405Y-83740222D01*
X102961693Y-83676481D01*
X102998275Y-83595490D01*
X103021050Y-83487414D01*
X103032919Y-83342420D01*
X103036782Y-83150674D01*
X103036851Y-83113891D01*
X103036897Y-82700712D01*
X102944954Y-82668661D01*
X102879652Y-82646856D01*
X102843824Y-82636703D01*
X102842770Y-82636609D01*
X102839242Y-82664140D01*
X102836239Y-82740077D01*
X102833990Y-82854435D01*
X102832724Y-82997231D01*
X102832529Y-83084049D01*
X102832123Y-83255227D01*
X102830032Y-83377912D01*
X102824947Y-83462000D01*
X102815560Y-83517386D01*
X102800561Y-83553968D01*
X102778642Y-83581641D01*
X102764957Y-83594968D01*
X102670949Y-83648672D01*
X102568364Y-83652693D01*
X102475290Y-83607275D01*
X102458078Y-83590877D01*
X102432832Y-83560043D01*
X102415320Y-83523469D01*
X102404142Y-83470585D01*
X102397896Y-83390823D01*
X102395182Y-83273615D01*
X102394598Y-83112009D01*
X102394598Y-82700712D01*
X102302655Y-82668661D01*
X102237353Y-82646856D01*
X102201525Y-82636703D01*
X102200471Y-82636609D01*
X102197775Y-82664552D01*
X102195345Y-82743370D01*
X102193278Y-82865547D01*
X102191671Y-83023568D01*
X102190623Y-83209917D01*
X102190231Y-83417080D01*
X102190230Y-83426294D01*
X102190230Y-84215980D01*
X102285115Y-84256003D01*
X102380000Y-84296027D01*
X102394598Y-84051143D01*
G36*
X103729944Y-83850640D02*
G01*
X103844343Y-83808158D01*
X103845652Y-83807342D01*
X103916403Y-83755270D01*
X103968636Y-83694416D01*
X104005371Y-83615113D01*
X104029634Y-83507691D01*
X104044445Y-83362483D01*
X104052829Y-83169821D01*
X104053564Y-83142372D01*
X104064120Y-82728479D01*
X103975291Y-82682544D01*
X103911018Y-82651502D01*
X103872210Y-82636794D01*
X103870415Y-82636609D01*
X103863700Y-82663750D01*
X103858365Y-82736959D01*
X103855083Y-82843919D01*
X103854368Y-82930531D01*
X103854351Y-83070838D01*
X103847937Y-83158949D01*
X103825580Y-83200975D01*
X103777732Y-83203025D01*
X103694849Y-83171210D01*
X103569713Y-83112728D01*
X103477697Y-83064155D01*
X103430371Y-83022014D01*
X103416458Y-82976084D01*
X103416437Y-82973811D01*
X103439395Y-82894689D01*
X103507370Y-82851945D01*
X103611398Y-82845754D01*
X103686330Y-82846828D01*
X103725839Y-82825247D01*
X103750478Y-82773409D01*
X103764659Y-82707368D01*
X103744223Y-82669896D01*
X103736528Y-82664533D01*
X103664083Y-82642994D01*
X103562633Y-82639945D01*
X103458157Y-82654222D01*
X103384125Y-82680312D01*
X103281772Y-82767215D01*
X103223591Y-82888184D01*
X103212069Y-82982692D01*
X103220862Y-83067938D01*
X103252680Y-83137524D01*
X103315684Y-83199328D01*
X103418031Y-83261228D01*
X103567882Y-83331103D01*
X103577012Y-83335052D01*
X103711997Y-83397412D01*
X103795294Y-83448554D01*
X103830997Y-83494512D01*
X103823203Y-83541317D01*
X103776007Y-83595002D01*
X103761894Y-83607356D01*
X103667359Y-83655259D01*
X103569406Y-83653242D01*
X103484097Y-83606276D01*
X103427496Y-83519331D01*
X103422237Y-83502266D01*
X103371023Y-83419496D01*
X103306037Y-83379628D01*
X103212069Y-83340118D01*
X103212069Y-83442342D01*
X103240653Y-83590928D01*
X103325495Y-83727216D01*
X103369645Y-83772809D01*
X103470005Y-83831326D01*
X103597635Y-83857816D01*
X103729944Y-83850640D01*
G37*
X103729944Y-83850640D02*
X103844343Y-83808158D01*
X103845652Y-83807342D01*
X103916403Y-83755270D01*
X103968636Y-83694416D01*
X104005371Y-83615113D01*
X104029634Y-83507691D01*
X104044445Y-83362483D01*
X104052829Y-83169821D01*
X104053564Y-83142372D01*
X104064120Y-82728479D01*
X103975291Y-82682544D01*
X103911018Y-82651502D01*
X103872210Y-82636794D01*
X103870415Y-82636609D01*
X103863700Y-82663750D01*
X103858365Y-82736959D01*
X103855083Y-82843919D01*
X103854368Y-82930531D01*
X103854351Y-83070838D01*
X103847937Y-83158949D01*
X103825580Y-83200975D01*
X103777732Y-83203025D01*
X103694849Y-83171210D01*
X103569713Y-83112728D01*
X103477697Y-83064155D01*
X103430371Y-83022014D01*
X103416458Y-82976084D01*
X103416437Y-82973811D01*
X103439395Y-82894689D01*
X103507370Y-82851945D01*
X103611398Y-82845754D01*
X103686330Y-82846828D01*
X103725839Y-82825247D01*
X103750478Y-82773409D01*
X103764659Y-82707368D01*
X103744223Y-82669896D01*
X103736528Y-82664533D01*
X103664083Y-82642994D01*
X103562633Y-82639945D01*
X103458157Y-82654222D01*
X103384125Y-82680312D01*
X103281772Y-82767215D01*
X103223591Y-82888184D01*
X103212069Y-82982692D01*
X103220862Y-83067938D01*
X103252680Y-83137524D01*
X103315684Y-83199328D01*
X103418031Y-83261228D01*
X103567882Y-83331103D01*
X103577012Y-83335052D01*
X103711997Y-83397412D01*
X103795294Y-83448554D01*
X103830997Y-83494512D01*
X103823203Y-83541317D01*
X103776007Y-83595002D01*
X103761894Y-83607356D01*
X103667359Y-83655259D01*
X103569406Y-83653242D01*
X103484097Y-83606276D01*
X103427496Y-83519331D01*
X103422237Y-83502266D01*
X103371023Y-83419496D01*
X103306037Y-83379628D01*
X103212069Y-83340118D01*
X103212069Y-83442342D01*
X103240653Y-83590928D01*
X103325495Y-83727216D01*
X103369645Y-83772809D01*
X103470005Y-83831326D01*
X103597635Y-83857816D01*
X103729944Y-83850640D01*
G36*
X103859014Y-93322002D02*
G01*
X104017006Y-93321137D01*
X104131347Y-93318795D01*
X104209407Y-93314238D01*
X104258554Y-93306730D01*
X104286159Y-93295534D01*
X104299592Y-93279912D01*
X104306221Y-93259127D01*
X104306865Y-93256437D01*
X104316935Y-93207887D01*
X104335575Y-93112095D01*
X104360845Y-92979257D01*
X104390807Y-92819569D01*
X104423522Y-92643226D01*
X104424664Y-92637033D01*
X104457433Y-92464218D01*
X104488093Y-92311531D01*
X104514664Y-92188129D01*
X104535167Y-92103169D01*
X104547626Y-92065810D01*
X104548220Y-92065148D01*
X104584919Y-92046905D01*
X104660586Y-92016503D01*
X104758878Y-91980507D01*
X104759425Y-91980315D01*
X104883233Y-91933778D01*
X105029196Y-91874496D01*
X105166781Y-91814891D01*
X105173293Y-91811944D01*
X105397390Y-91710235D01*
X105893619Y-92049103D01*
X106045846Y-92152408D01*
X106183741Y-92244763D01*
X106299315Y-92320916D01*
X106384579Y-92375615D01*
X106431544Y-92403607D01*
X106436004Y-92405683D01*
X106470134Y-92396440D01*
X106533881Y-92351844D01*
X106629731Y-92269791D01*
X106760169Y-92148179D01*
X106893328Y-92018795D01*
X107021694Y-91891298D01*
X107136581Y-91774954D01*
X107231073Y-91676948D01*
X107298253Y-91604464D01*
X107331206Y-91564687D01*
X107332432Y-91562639D01*
X107336074Y-91535344D01*
X107322350Y-91490766D01*
X107287869Y-91422888D01*
X107229239Y-91325689D01*
X107143070Y-91193149D01*
X107028200Y-91022524D01*
X106926254Y-90872345D01*
X106835123Y-90737650D01*
X106760073Y-90626260D01*
X106706369Y-90545995D01*
X106679280Y-90504675D01*
X106677574Y-90501870D01*
X106680882Y-90462279D01*
X106705953Y-90385331D01*
X106747798Y-90285568D01*
X106762712Y-90253709D01*
X106827786Y-90111774D01*
X106897212Y-89950727D01*
X106953609Y-89811379D01*
X106994247Y-89707956D01*
X107026526Y-89629358D01*
X107045178Y-89588280D01*
X107047497Y-89585115D01*
X107081803Y-89579872D01*
X107162669Y-89565506D01*
X107279343Y-89544063D01*
X107421075Y-89517587D01*
X107577110Y-89488123D01*
X107736698Y-89457717D01*
X107889085Y-89428412D01*
X108023521Y-89402255D01*
X108129252Y-89381290D01*
X108195526Y-89367561D01*
X108211782Y-89363680D01*
X108228573Y-89354100D01*
X108241249Y-89332464D01*
X108250378Y-89291469D01*
X108256531Y-89223811D01*
X108260280Y-89122188D01*
X108262192Y-88979297D01*
X108262840Y-88787835D01*
X108262874Y-88709355D01*
X108262874Y-88071094D01*
X108109598Y-88040840D01*
X108024322Y-88024436D01*
X107897070Y-88000491D01*
X107743315Y-87971893D01*
X107578534Y-87941533D01*
X107532989Y-87933194D01*
X107380932Y-87903630D01*
X107248468Y-87874558D01*
X107146714Y-87848671D01*
X107086788Y-87828663D01*
X107076805Y-87822699D01*
X107052293Y-87780466D01*
X107017148Y-87698630D01*
X106978173Y-87593317D01*
X106970442Y-87570632D01*
X106919360Y-87429982D01*
X106855954Y-87271286D01*
X106793904Y-87128775D01*
X106793598Y-87128114D01*
X106690267Y-86904560D01*
X107369961Y-85904768D01*
X106933621Y-85467700D01*
X106801649Y-85337619D01*
X106681279Y-85222952D01*
X106579273Y-85129819D01*
X106502391Y-85064342D01*
X106457393Y-85032643D01*
X106450938Y-85030632D01*
X106413040Y-85046471D01*
X106335708Y-85090504D01*
X106227389Y-85157510D01*
X106096532Y-85242266D01*
X105955052Y-85337184D01*
X105811461Y-85434002D01*
X105683435Y-85518249D01*
X105579105Y-85584742D01*
X105506600Y-85628298D01*
X105474158Y-85643736D01*
X105434576Y-85630672D01*
X105359519Y-85596250D01*
X105264468Y-85547620D01*
X105254392Y-85542215D01*
X105126391Y-85478020D01*
X105038618Y-85446537D01*
X104984028Y-85446202D01*
X104955575Y-85475452D01*
X104955410Y-85475862D01*
X104941188Y-85510502D01*
X104907269Y-85592731D01*
X104856284Y-85716186D01*
X104790862Y-85874502D01*
X104713634Y-86061314D01*
X104627229Y-86270258D01*
X104543551Y-86472554D01*
X104451588Y-86695800D01*
X104367150Y-86902608D01*
X104292769Y-87086638D01*
X104230974Y-87241549D01*
X104184297Y-87361004D01*
X104155268Y-87438661D01*
X104146322Y-87467644D01*
X104168756Y-87500890D01*
X104227439Y-87553877D01*
X104305689Y-87612296D01*
X104528534Y-87797048D01*
X104702718Y-88008818D01*
X104826154Y-88243144D01*
X104896754Y-88495566D01*
X104912431Y-88761623D01*
X104901036Y-88884425D01*
X104838950Y-89139207D01*
X104732023Y-89364199D01*
X104586889Y-89557183D01*
X104410178Y-89715939D01*
X104208522Y-89838250D01*
X103988554Y-89921895D01*
X103756906Y-89964656D01*
X103520209Y-89964313D01*
X103285095Y-89918648D01*
X103058196Y-89825441D01*
X102846144Y-89682473D01*
X102757636Y-89601617D01*
X102587889Y-89393993D01*
X102469699Y-89167105D01*
X102402278Y-88927567D01*
X102384840Y-88681993D01*
X102416598Y-88436997D01*
X102496765Y-88199192D01*
X102624555Y-87975193D01*
X102799180Y-87771613D01*
X102994312Y-87612296D01*
X103075591Y-87551398D01*
X103133009Y-87498985D01*
X103153678Y-87467594D01*
X103142856Y-87433361D01*
X103112077Y-87351581D01*
X103063874Y-87228593D01*
X103000778Y-87070737D01*
X102925322Y-86884351D01*
X102840038Y-86675774D01*
X102756219Y-86472504D01*
X102663745Y-86249067D01*
X102578089Y-86042016D01*
X102501882Y-85857714D01*
X102437753Y-85702525D01*
X102388332Y-85582812D01*
X102356248Y-85504939D01*
X102344359Y-85475862D01*
X102316274Y-85446323D01*
X102261949Y-85446409D01*
X102174395Y-85477674D01*
X102046619Y-85541671D01*
X102045608Y-85542215D01*
X101949402Y-85591879D01*
X101871631Y-85628055D01*
X101827777Y-85643592D01*
X101825842Y-85643736D01*
X101792829Y-85627976D01*
X101719946Y-85584150D01*
X101615322Y-85517443D01*
X101487090Y-85433036D01*
X101344948Y-85337184D01*
X101200233Y-85240133D01*
X101069804Y-85155730D01*
X100962110Y-85089199D01*
X100885598Y-85045762D01*
X100849062Y-85030632D01*
X100815418Y-85050518D01*
X100747776Y-85106097D01*
X100652893Y-85191246D01*
X100537530Y-85299847D01*
X100408445Y-85425779D01*
X100366229Y-85467851D01*
X99929739Y-85905069D01*
X100261977Y-86392660D01*
X100362946Y-86542395D01*
X100451562Y-86676780D01*
X100522854Y-86788031D01*
X100571850Y-86868361D01*
X100593578Y-86909986D01*
X100594215Y-86912947D01*
X100582760Y-86952182D01*
X100551949Y-87031105D01*
X100507116Y-87136491D01*
X100475647Y-87207046D01*
X100416808Y-87342124D01*
X100361396Y-87478591D01*
X100318436Y-87593897D01*
X100306766Y-87629023D01*
X100273611Y-87722826D01*
X100241201Y-87795306D01*
X100223399Y-87822699D01*
X100184114Y-87839464D01*
X100098374Y-87863230D01*
X99977303Y-87891303D01*
X99832027Y-87920991D01*
X99767012Y-87933194D01*
X99601913Y-87963532D01*
X99443552Y-87992907D01*
X99307404Y-88018431D01*
X99208943Y-88037215D01*
X99190402Y-88040840D01*
X99037127Y-88071094D01*
X99037127Y-88709355D01*
X99037471Y-88919230D01*
X99038884Y-89078020D01*
X99041936Y-89193027D01*
X99047197Y-89271554D01*
X99055237Y-89320904D01*
X99066627Y-89348381D01*
X99081937Y-89361287D01*
X99088218Y-89363680D01*
X99126104Y-89372167D01*
X99209805Y-89389100D01*
X99328567Y-89412434D01*
X99471639Y-89440125D01*
X99628268Y-89470127D01*
X99787703Y-89500396D01*
X99939191Y-89528885D01*
X100071981Y-89553551D01*
X100175319Y-89572349D01*
X100238455Y-89583233D01*
X100252503Y-89585115D01*
X100265230Y-89610296D01*
X100293400Y-89677378D01*
X100331748Y-89773667D01*
X100346391Y-89811379D01*
X100405452Y-89957079D01*
X100475000Y-90118049D01*
X100537288Y-90253709D01*
X100583121Y-90357439D01*
X100613613Y-90442674D01*
X100623792Y-90494874D01*
X100622169Y-90501870D01*
X100600657Y-90534898D01*
X100551535Y-90608357D01*
X100480077Y-90714423D01*
X100391555Y-90845274D01*
X100291241Y-90993088D01*
X100271406Y-91022266D01*
X100155012Y-91195137D01*
X100069452Y-91326774D01*
X100011316Y-91423239D01*
X99977192Y-91490592D01*
X99963669Y-91534894D01*
X99967336Y-91562206D01*
X99967430Y-91562380D01*
X99996293Y-91598254D01*
X100060133Y-91667609D01*
X100152031Y-91763255D01*
X100265067Y-91878001D01*
X100392321Y-92004659D01*
X100406672Y-92018795D01*
X100567043Y-92174097D01*
X100690805Y-92288130D01*
X100780445Y-92362998D01*
X100838448Y-92400804D01*
X100863996Y-92405683D01*
X100901282Y-92384397D01*
X100978657Y-92335227D01*
X101088133Y-92263425D01*
X101221720Y-92174245D01*
X101371430Y-92072937D01*
X101406382Y-92049103D01*
X101902610Y-91710235D01*
X102126707Y-91811944D01*
X102262989Y-91871217D01*
X102409276Y-91930830D01*
X102535035Y-91978360D01*
X102540575Y-91980315D01*
X102638943Y-92016323D01*
X102714771Y-92046771D01*
X102751718Y-92065095D01*
X102751780Y-92065148D01*
X102763504Y-92098271D01*
X102783432Y-92179733D01*
X102809587Y-92300375D01*
X102839990Y-92451041D01*
X102872663Y-92622572D01*
X102875336Y-92637033D01*
X102908110Y-92813765D01*
X102938198Y-92974190D01*
X102963661Y-93108112D01*
X102982559Y-93205337D01*
X102992953Y-93255668D01*
X102993135Y-93256437D01*
X102999461Y-93277847D01*
X103011761Y-93294012D01*
X103037406Y-93305669D01*
X103083765Y-93313555D01*
X103158208Y-93318407D01*
X103268105Y-93320961D01*
X103420825Y-93321955D01*
X103623738Y-93322126D01*
X103650000Y-93322126D01*
X103859014Y-93322002D01*
G37*
X103859014Y-93322002D02*
X104017006Y-93321137D01*
X104131347Y-93318795D01*
X104209407Y-93314238D01*
X104258554Y-93306730D01*
X104286159Y-93295534D01*
X104299592Y-93279912D01*
X104306221Y-93259127D01*
X104306865Y-93256437D01*
X104316935Y-93207887D01*
X104335575Y-93112095D01*
X104360845Y-92979257D01*
X104390807Y-92819569D01*
X104423522Y-92643226D01*
X104424664Y-92637033D01*
X104457433Y-92464218D01*
X104488093Y-92311531D01*
X104514664Y-92188129D01*
X104535167Y-92103169D01*
X104547626Y-92065810D01*
X104548220Y-92065148D01*
X104584919Y-92046905D01*
X104660586Y-92016503D01*
X104758878Y-91980507D01*
X104759425Y-91980315D01*
X104883233Y-91933778D01*
X105029196Y-91874496D01*
X105166781Y-91814891D01*
X105173293Y-91811944D01*
X105397390Y-91710235D01*
X105893619Y-92049103D01*
X106045846Y-92152408D01*
X106183741Y-92244763D01*
X106299315Y-92320916D01*
X106384579Y-92375615D01*
X106431544Y-92403607D01*
X106436004Y-92405683D01*
X106470134Y-92396440D01*
X106533881Y-92351844D01*
X106629731Y-92269791D01*
X106760169Y-92148179D01*
X106893328Y-92018795D01*
X107021694Y-91891298D01*
X107136581Y-91774954D01*
X107231073Y-91676948D01*
X107298253Y-91604464D01*
X107331206Y-91564687D01*
X107332432Y-91562639D01*
X107336074Y-91535344D01*
X107322350Y-91490766D01*
X107287869Y-91422888D01*
X107229239Y-91325689D01*
X107143070Y-91193149D01*
X107028200Y-91022524D01*
X106926254Y-90872345D01*
X106835123Y-90737650D01*
X106760073Y-90626260D01*
X106706369Y-90545995D01*
X106679280Y-90504675D01*
X106677574Y-90501870D01*
X106680882Y-90462279D01*
X106705953Y-90385331D01*
X106747798Y-90285568D01*
X106762712Y-90253709D01*
X106827786Y-90111774D01*
X106897212Y-89950727D01*
X106953609Y-89811379D01*
X106994247Y-89707956D01*
X107026526Y-89629358D01*
X107045178Y-89588280D01*
X107047497Y-89585115D01*
X107081803Y-89579872D01*
X107162669Y-89565506D01*
X107279343Y-89544063D01*
X107421075Y-89517587D01*
X107577110Y-89488123D01*
X107736698Y-89457717D01*
X107889085Y-89428412D01*
X108023521Y-89402255D01*
X108129252Y-89381290D01*
X108195526Y-89367561D01*
X108211782Y-89363680D01*
X108228573Y-89354100D01*
X108241249Y-89332464D01*
X108250378Y-89291469D01*
X108256531Y-89223811D01*
X108260280Y-89122188D01*
X108262192Y-88979297D01*
X108262840Y-88787835D01*
X108262874Y-88709355D01*
X108262874Y-88071094D01*
X108109598Y-88040840D01*
X108024322Y-88024436D01*
X107897070Y-88000491D01*
X107743315Y-87971893D01*
X107578534Y-87941533D01*
X107532989Y-87933194D01*
X107380932Y-87903630D01*
X107248468Y-87874558D01*
X107146714Y-87848671D01*
X107086788Y-87828663D01*
X107076805Y-87822699D01*
X107052293Y-87780466D01*
X107017148Y-87698630D01*
X106978173Y-87593317D01*
X106970442Y-87570632D01*
X106919360Y-87429982D01*
X106855954Y-87271286D01*
X106793904Y-87128775D01*
X106793598Y-87128114D01*
X106690267Y-86904560D01*
X107369961Y-85904768D01*
X106933621Y-85467700D01*
X106801649Y-85337619D01*
X106681279Y-85222952D01*
X106579273Y-85129819D01*
X106502391Y-85064342D01*
X106457393Y-85032643D01*
X106450938Y-85030632D01*
X106413040Y-85046471D01*
X106335708Y-85090504D01*
X106227389Y-85157510D01*
X106096532Y-85242266D01*
X105955052Y-85337184D01*
X105811461Y-85434002D01*
X105683435Y-85518249D01*
X105579105Y-85584742D01*
X105506600Y-85628298D01*
X105474158Y-85643736D01*
X105434576Y-85630672D01*
X105359519Y-85596250D01*
X105264468Y-85547620D01*
X105254392Y-85542215D01*
X105126391Y-85478020D01*
X105038618Y-85446537D01*
X104984028Y-85446202D01*
X104955575Y-85475452D01*
X104955410Y-85475862D01*
X104941188Y-85510502D01*
X104907269Y-85592731D01*
X104856284Y-85716186D01*
X104790862Y-85874502D01*
X104713634Y-86061314D01*
X104627229Y-86270258D01*
X104543551Y-86472554D01*
X104451588Y-86695800D01*
X104367150Y-86902608D01*
X104292769Y-87086638D01*
X104230974Y-87241549D01*
X104184297Y-87361004D01*
X104155268Y-87438661D01*
X104146322Y-87467644D01*
X104168756Y-87500890D01*
X104227439Y-87553877D01*
X104305689Y-87612296D01*
X104528534Y-87797048D01*
X104702718Y-88008818D01*
X104826154Y-88243144D01*
X104896754Y-88495566D01*
X104912431Y-88761623D01*
X104901036Y-88884425D01*
X104838950Y-89139207D01*
X104732023Y-89364199D01*
X104586889Y-89557183D01*
X104410178Y-89715939D01*
X104208522Y-89838250D01*
X103988554Y-89921895D01*
X103756906Y-89964656D01*
X103520209Y-89964313D01*
X103285095Y-89918648D01*
X103058196Y-89825441D01*
X102846144Y-89682473D01*
X102757636Y-89601617D01*
X102587889Y-89393993D01*
X102469699Y-89167105D01*
X102402278Y-88927567D01*
X102384840Y-88681993D01*
X102416598Y-88436997D01*
X102496765Y-88199192D01*
X102624555Y-87975193D01*
X102799180Y-87771613D01*
X102994312Y-87612296D01*
X103075591Y-87551398D01*
X103133009Y-87498985D01*
X103153678Y-87467594D01*
X103142856Y-87433361D01*
X103112077Y-87351581D01*
X103063874Y-87228593D01*
X103000778Y-87070737D01*
X102925322Y-86884351D01*
X102840038Y-86675774D01*
X102756219Y-86472504D01*
X102663745Y-86249067D01*
X102578089Y-86042016D01*
X102501882Y-85857714D01*
X102437753Y-85702525D01*
X102388332Y-85582812D01*
X102356248Y-85504939D01*
X102344359Y-85475862D01*
X102316274Y-85446323D01*
X102261949Y-85446409D01*
X102174395Y-85477674D01*
X102046619Y-85541671D01*
X102045608Y-85542215D01*
X101949402Y-85591879D01*
X101871631Y-85628055D01*
X101827777Y-85643592D01*
X101825842Y-85643736D01*
X101792829Y-85627976D01*
X101719946Y-85584150D01*
X101615322Y-85517443D01*
X101487090Y-85433036D01*
X101344948Y-85337184D01*
X101200233Y-85240133D01*
X101069804Y-85155730D01*
X100962110Y-85089199D01*
X100885598Y-85045762D01*
X100849062Y-85030632D01*
X100815418Y-85050518D01*
X100747776Y-85106097D01*
X100652893Y-85191246D01*
X100537530Y-85299847D01*
X100408445Y-85425779D01*
X100366229Y-85467851D01*
X99929739Y-85905069D01*
X100261977Y-86392660D01*
X100362946Y-86542395D01*
X100451562Y-86676780D01*
X100522854Y-86788031D01*
X100571850Y-86868361D01*
X100593578Y-86909986D01*
X100594215Y-86912947D01*
X100582760Y-86952182D01*
X100551949Y-87031105D01*
X100507116Y-87136491D01*
X100475647Y-87207046D01*
X100416808Y-87342124D01*
X100361396Y-87478591D01*
X100318436Y-87593897D01*
X100306766Y-87629023D01*
X100273611Y-87722826D01*
X100241201Y-87795306D01*
X100223399Y-87822699D01*
X100184114Y-87839464D01*
X100098374Y-87863230D01*
X99977303Y-87891303D01*
X99832027Y-87920991D01*
X99767012Y-87933194D01*
X99601913Y-87963532D01*
X99443552Y-87992907D01*
X99307404Y-88018431D01*
X99208943Y-88037215D01*
X99190402Y-88040840D01*
X99037127Y-88071094D01*
X99037127Y-88709355D01*
X99037471Y-88919230D01*
X99038884Y-89078020D01*
X99041936Y-89193027D01*
X99047197Y-89271554D01*
X99055237Y-89320904D01*
X99066627Y-89348381D01*
X99081937Y-89361287D01*
X99088218Y-89363680D01*
X99126104Y-89372167D01*
X99209805Y-89389100D01*
X99328567Y-89412434D01*
X99471639Y-89440125D01*
X99628268Y-89470127D01*
X99787703Y-89500396D01*
X99939191Y-89528885D01*
X100071981Y-89553551D01*
X100175319Y-89572349D01*
X100238455Y-89583233D01*
X100252503Y-89585115D01*
X100265230Y-89610296D01*
X100293400Y-89677378D01*
X100331748Y-89773667D01*
X100346391Y-89811379D01*
X100405452Y-89957079D01*
X100475000Y-90118049D01*
X100537288Y-90253709D01*
X100583121Y-90357439D01*
X100613613Y-90442674D01*
X100623792Y-90494874D01*
X100622169Y-90501870D01*
X100600657Y-90534898D01*
X100551535Y-90608357D01*
X100480077Y-90714423D01*
X100391555Y-90845274D01*
X100291241Y-90993088D01*
X100271406Y-91022266D01*
X100155012Y-91195137D01*
X100069452Y-91326774D01*
X100011316Y-91423239D01*
X99977192Y-91490592D01*
X99963669Y-91534894D01*
X99967336Y-91562206D01*
X99967430Y-91562380D01*
X99996293Y-91598254D01*
X100060133Y-91667609D01*
X100152031Y-91763255D01*
X100265067Y-91878001D01*
X100392321Y-92004659D01*
X100406672Y-92018795D01*
X100567043Y-92174097D01*
X100690805Y-92288130D01*
X100780445Y-92362998D01*
X100838448Y-92400804D01*
X100863996Y-92405683D01*
X100901282Y-92384397D01*
X100978657Y-92335227D01*
X101088133Y-92263425D01*
X101221720Y-92174245D01*
X101371430Y-92072937D01*
X101406382Y-92049103D01*
X101902610Y-91710235D01*
X102126707Y-91811944D01*
X102262989Y-91871217D01*
X102409276Y-91930830D01*
X102535035Y-91978360D01*
X102540575Y-91980315D01*
X102638943Y-92016323D01*
X102714771Y-92046771D01*
X102751718Y-92065095D01*
X102751780Y-92065148D01*
X102763504Y-92098271D01*
X102783432Y-92179733D01*
X102809587Y-92300375D01*
X102839990Y-92451041D01*
X102872663Y-92622572D01*
X102875336Y-92637033D01*
X102908110Y-92813765D01*
X102938198Y-92974190D01*
X102963661Y-93108112D01*
X102982559Y-93205337D01*
X102992953Y-93255668D01*
X102993135Y-93256437D01*
X102999461Y-93277847D01*
X103011761Y-93294012D01*
X103037406Y-93305669D01*
X103083765Y-93313555D01*
X103158208Y-93318407D01*
X103268105Y-93320961D01*
X103420825Y-93321955D01*
X103623738Y-93322126D01*
X103650000Y-93322126D01*
X103859014Y-93322002D01*
G36*
X99965552Y-83890324D02*
G01*
X100080658Y-83812889D01*
X100169611Y-83701051D01*
X100222749Y-83558735D01*
X100233497Y-83453985D01*
X100232276Y-83410274D01*
X100222056Y-83376806D01*
X100193961Y-83346821D01*
X100139116Y-83313560D01*
X100048645Y-83270262D01*
X99913672Y-83210167D01*
X99912989Y-83209866D01*
X99788751Y-83152963D01*
X99686873Y-83102435D01*
X99617767Y-83063720D01*
X99591846Y-83042260D01*
X99591839Y-83042087D01*
X99614685Y-82995356D01*
X99668109Y-82943846D01*
X99729442Y-82906739D01*
X99760515Y-82899368D01*
X99845289Y-82924862D01*
X99918293Y-82988709D01*
X99953913Y-83058906D01*
X99988180Y-83110657D01*
X100055303Y-83169591D01*
X100134208Y-83220504D01*
X100203821Y-83248191D01*
X100218377Y-83249713D01*
X100234763Y-83224679D01*
X100235750Y-83160689D01*
X100223708Y-83074407D01*
X100201007Y-82982499D01*
X100170014Y-82901631D01*
X100168448Y-82898491D01*
X100075181Y-82768266D01*
X99954304Y-82679689D01*
X99817027Y-82636214D01*
X99674560Y-82641294D01*
X99538112Y-82698384D01*
X99532045Y-82702398D01*
X99424710Y-82799674D01*
X99354132Y-82926591D01*
X99315074Y-83093474D01*
X99309832Y-83140361D01*
X99300548Y-83361671D01*
X99311678Y-83464876D01*
X99591839Y-83464876D01*
X99595479Y-83400497D01*
X99615389Y-83381709D01*
X99665026Y-83395765D01*
X99743267Y-83428991D01*
X99830726Y-83470641D01*
X99832899Y-83471744D01*
X99907030Y-83510735D01*
X99936781Y-83536756D01*
X99929445Y-83564035D01*
X99898553Y-83599879D01*
X99819960Y-83651749D01*
X99735323Y-83655561D01*
X99659403Y-83617811D01*
X99606965Y-83544999D01*
X99591839Y-83464876D01*
X99311678Y-83464876D01*
X99319644Y-83538739D01*
X99368634Y-83679171D01*
X99436836Y-83777553D01*
X99559935Y-83876970D01*
X99695528Y-83926289D01*
X99833955Y-83929432D01*
X99965552Y-83890324D01*
G37*
X99965552Y-83890324D02*
X100080658Y-83812889D01*
X100169611Y-83701051D01*
X100222749Y-83558735D01*
X100233497Y-83453985D01*
X100232276Y-83410274D01*
X100222056Y-83376806D01*
X100193961Y-83346821D01*
X100139116Y-83313560D01*
X100048645Y-83270262D01*
X99913672Y-83210167D01*
X99912989Y-83209866D01*
X99788751Y-83152963D01*
X99686873Y-83102435D01*
X99617767Y-83063720D01*
X99591846Y-83042260D01*
X99591839Y-83042087D01*
X99614685Y-82995356D01*
X99668109Y-82943846D01*
X99729442Y-82906739D01*
X99760515Y-82899368D01*
X99845289Y-82924862D01*
X99918293Y-82988709D01*
X99953913Y-83058906D01*
X99988180Y-83110657D01*
X100055303Y-83169591D01*
X100134208Y-83220504D01*
X100203821Y-83248191D01*
X100218377Y-83249713D01*
X100234763Y-83224679D01*
X100235750Y-83160689D01*
X100223708Y-83074407D01*
X100201007Y-82982499D01*
X100170014Y-82901631D01*
X100168448Y-82898491D01*
X100075181Y-82768266D01*
X99954304Y-82679689D01*
X99817027Y-82636214D01*
X99674560Y-82641294D01*
X99538112Y-82698384D01*
X99532045Y-82702398D01*
X99424710Y-82799674D01*
X99354132Y-82926591D01*
X99315074Y-83093474D01*
X99309832Y-83140361D01*
X99300548Y-83361671D01*
X99311678Y-83464876D01*
X99591839Y-83464876D01*
X99595479Y-83400497D01*
X99615389Y-83381709D01*
X99665026Y-83395765D01*
X99743267Y-83428991D01*
X99830726Y-83470641D01*
X99832899Y-83471744D01*
X99907030Y-83510735D01*
X99936781Y-83536756D01*
X99929445Y-83564035D01*
X99898553Y-83599879D01*
X99819960Y-83651749D01*
X99735323Y-83655561D01*
X99659403Y-83617811D01*
X99606965Y-83544999D01*
X99591839Y-83464876D01*
X99311678Y-83464876D01*
X99319644Y-83538739D01*
X99368634Y-83679171D01*
X99436836Y-83777553D01*
X99559935Y-83876970D01*
X99695528Y-83926289D01*
X99833955Y-83929432D01*
X99965552Y-83890324D01*
G36*
X107964406Y-83839844D02*
G01*
X108048469Y-83801607D01*
X108114450Y-83755274D01*
X108162794Y-83703468D01*
X108196172Y-83636637D01*
X108217253Y-83545231D01*
X108228707Y-83419699D01*
X108233203Y-83250492D01*
X108233678Y-83139067D01*
X108233678Y-82704373D01*
X108159316Y-82670491D01*
X108100746Y-82645728D01*
X108071730Y-82636609D01*
X108066179Y-82663743D01*
X108061775Y-82736906D01*
X108059078Y-82843737D01*
X108058506Y-82928563D01*
X108056046Y-83051113D01*
X108049412Y-83148332D01*
X108039726Y-83207866D01*
X108032032Y-83220517D01*
X107980311Y-83207598D01*
X107899117Y-83174461D01*
X107805102Y-83129539D01*
X107714917Y-83081265D01*
X107645215Y-83038072D01*
X107612648Y-83008392D01*
X107612519Y-83008071D01*
X107615320Y-82953143D01*
X107640439Y-82900708D01*
X107684541Y-82858119D01*
X107748909Y-82843874D01*
X107803921Y-82845534D01*
X107881835Y-82846755D01*
X107922732Y-82828502D01*
X107947295Y-82780274D01*
X107950392Y-82771180D01*
X107961040Y-82702402D01*
X107932565Y-82660640D01*
X107858344Y-82640737D01*
X107778168Y-82637056D01*
X107633890Y-82664342D01*
X107559203Y-82703310D01*
X107466963Y-82794852D01*
X107418043Y-82907218D01*
X107413654Y-83025949D01*
X107455001Y-83136589D01*
X107517197Y-83205920D01*
X107579294Y-83244735D01*
X107676895Y-83293875D01*
X107790632Y-83343708D01*
X107809590Y-83351323D01*
X107934521Y-83406455D01*
X108006539Y-83455046D01*
X108029700Y-83503353D01*
X108008064Y-83557630D01*
X107970920Y-83600057D01*
X107883127Y-83652298D01*
X107786530Y-83656216D01*
X107697944Y-83615959D01*
X107634186Y-83535674D01*
X107625817Y-83514960D01*
X107577096Y-83438775D01*
X107505965Y-83382215D01*
X107416207Y-83335799D01*
X107416207Y-83467416D01*
X107421490Y-83547832D01*
X107444142Y-83611214D01*
X107494367Y-83678837D01*
X107542582Y-83730924D01*
X107617554Y-83804678D01*
X107675806Y-83844298D01*
X107738372Y-83860190D01*
X107809193Y-83862816D01*
X107964406Y-83839844D01*
G37*
X107964406Y-83839844D02*
X108048469Y-83801607D01*
X108114450Y-83755274D01*
X108162794Y-83703468D01*
X108196172Y-83636637D01*
X108217253Y-83545231D01*
X108228707Y-83419699D01*
X108233203Y-83250492D01*
X108233678Y-83139067D01*
X108233678Y-82704373D01*
X108159316Y-82670491D01*
X108100746Y-82645728D01*
X108071730Y-82636609D01*
X108066179Y-82663743D01*
X108061775Y-82736906D01*
X108059078Y-82843737D01*
X108058506Y-82928563D01*
X108056046Y-83051113D01*
X108049412Y-83148332D01*
X108039726Y-83207866D01*
X108032032Y-83220517D01*
X107980311Y-83207598D01*
X107899117Y-83174461D01*
X107805102Y-83129539D01*
X107714917Y-83081265D01*
X107645215Y-83038072D01*
X107612648Y-83008392D01*
X107612519Y-83008071D01*
X107615320Y-82953143D01*
X107640439Y-82900708D01*
X107684541Y-82858119D01*
X107748909Y-82843874D01*
X107803921Y-82845534D01*
X107881835Y-82846755D01*
X107922732Y-82828502D01*
X107947295Y-82780274D01*
X107950392Y-82771180D01*
X107961040Y-82702402D01*
X107932565Y-82660640D01*
X107858344Y-82640737D01*
X107778168Y-82637056D01*
X107633890Y-82664342D01*
X107559203Y-82703310D01*
X107466963Y-82794852D01*
X107418043Y-82907218D01*
X107413654Y-83025949D01*
X107455001Y-83136589D01*
X107517197Y-83205920D01*
X107579294Y-83244735D01*
X107676895Y-83293875D01*
X107790632Y-83343708D01*
X107809590Y-83351323D01*
X107934521Y-83406455D01*
X108006539Y-83455046D01*
X108029700Y-83503353D01*
X108008064Y-83557630D01*
X107970920Y-83600057D01*
X107883127Y-83652298D01*
X107786530Y-83656216D01*
X107697944Y-83615959D01*
X107634186Y-83535674D01*
X107625817Y-83514960D01*
X107577096Y-83438775D01*
X107505965Y-83382215D01*
X107416207Y-83335799D01*
X107416207Y-83467416D01*
X107421490Y-83547832D01*
X107444142Y-83611214D01*
X107494367Y-83678837D01*
X107542582Y-83730924D01*
X107617554Y-83804678D01*
X107675806Y-83844298D01*
X107738372Y-83860190D01*
X107809193Y-83862816D01*
X107964406Y-83839844D01*
G36*
X106043914Y-83620545D02*
G01*
X106043543Y-83402339D01*
X106042108Y-83234481D01*
X106039002Y-83108930D01*
X106033622Y-83017645D01*
X106025362Y-82952585D01*
X106013616Y-82905709D01*
X105997781Y-82868976D01*
X105985790Y-82848009D01*
X105886490Y-82734306D01*
X105760588Y-82663035D01*
X105621291Y-82637462D01*
X105481805Y-82660850D01*
X105398743Y-82702881D01*
X105311545Y-82775589D01*
X105252117Y-82864388D01*
X105216261Y-82980680D01*
X105199781Y-83135865D01*
X105197447Y-83249713D01*
X105197761Y-83257894D01*
X105401724Y-83257894D01*
X105402970Y-83127343D01*
X105408678Y-83040920D01*
X105421804Y-82984382D01*
X105445306Y-82943486D01*
X105473386Y-82912638D01*
X105567688Y-82853095D01*
X105668940Y-82848008D01*
X105764636Y-82897721D01*
X105772084Y-82904457D01*
X105803874Y-82939498D01*
X105823808Y-82981189D01*
X105834600Y-83043238D01*
X105838965Y-83139356D01*
X105839655Y-83245621D01*
X105838159Y-83379120D01*
X105831964Y-83468178D01*
X105818514Y-83526707D01*
X105795251Y-83568618D01*
X105776175Y-83590877D01*
X105687563Y-83647015D01*
X105585508Y-83653765D01*
X105488095Y-83610886D01*
X105469296Y-83594968D01*
X105437293Y-83559618D01*
X105417318Y-83517498D01*
X105406593Y-83454749D01*
X105402339Y-83357513D01*
X105401724Y-83257894D01*
X105197761Y-83257894D01*
X105204504Y-83433053D01*
X105228472Y-83570805D01*
X105273548Y-83674368D01*
X105343928Y-83755144D01*
X105398743Y-83796545D01*
X105498376Y-83841272D01*
X105613855Y-83862033D01*
X105721199Y-83856475D01*
X105781264Y-83834057D01*
X105804835Y-83827677D01*
X105820477Y-83851465D01*
X105831395Y-83915212D01*
X105839655Y-84012313D01*
X105848699Y-84120459D01*
X105861261Y-84185525D01*
X105884119Y-84222732D01*
X105924051Y-84247301D01*
X105949138Y-84258181D01*
X106044023Y-84297928D01*
X106043914Y-83620545D01*
G37*
X106043914Y-83620545D02*
X106043543Y-83402339D01*
X106042108Y-83234481D01*
X106039002Y-83108930D01*
X106033622Y-83017645D01*
X106025362Y-82952585D01*
X106013616Y-82905709D01*
X105997781Y-82868976D01*
X105985790Y-82848009D01*
X105886490Y-82734306D01*
X105760588Y-82663035D01*
X105621291Y-82637462D01*
X105481805Y-82660850D01*
X105398743Y-82702881D01*
X105311545Y-82775589D01*
X105252117Y-82864388D01*
X105216261Y-82980680D01*
X105199781Y-83135865D01*
X105197447Y-83249713D01*
X105197761Y-83257894D01*
X105401724Y-83257894D01*
X105402970Y-83127343D01*
X105408678Y-83040920D01*
X105421804Y-82984382D01*
X105445306Y-82943486D01*
X105473386Y-82912638D01*
X105567688Y-82853095D01*
X105668940Y-82848008D01*
X105764636Y-82897721D01*
X105772084Y-82904457D01*
X105803874Y-82939498D01*
X105823808Y-82981189D01*
X105834600Y-83043238D01*
X105838965Y-83139356D01*
X105839655Y-83245621D01*
X105838159Y-83379120D01*
X105831964Y-83468178D01*
X105818514Y-83526707D01*
X105795251Y-83568618D01*
X105776175Y-83590877D01*
X105687563Y-83647015D01*
X105585508Y-83653765D01*
X105488095Y-83610886D01*
X105469296Y-83594968D01*
X105437293Y-83559618D01*
X105417318Y-83517498D01*
X105406593Y-83454749D01*
X105402339Y-83357513D01*
X105401724Y-83257894D01*
X105197761Y-83257894D01*
X105204504Y-83433053D01*
X105228472Y-83570805D01*
X105273548Y-83674368D01*
X105343928Y-83755144D01*
X105398743Y-83796545D01*
X105498376Y-83841272D01*
X105613855Y-83862033D01*
X105721199Y-83856475D01*
X105781264Y-83834057D01*
X105804835Y-83827677D01*
X105820477Y-83851465D01*
X105831395Y-83915212D01*
X105839655Y-84012313D01*
X105848699Y-84120459D01*
X105861261Y-84185525D01*
X105884119Y-84222732D01*
X105924051Y-84247301D01*
X105949138Y-84258181D01*
X106044023Y-84297928D01*
X106043914Y-83620545D01*
G36*
X109993439Y-83818460D02*
G01*
X110108950Y-83742966D01*
X110164664Y-83675383D01*
X110208804Y-83552745D01*
X110212309Y-83455702D01*
X110204368Y-83325944D01*
X109905115Y-83194961D01*
X109759611Y-83128042D01*
X109664537Y-83074210D01*
X109615101Y-83027584D01*
X109606511Y-82982280D01*
X109633972Y-82932418D01*
X109664253Y-82899368D01*
X109752363Y-82846367D01*
X109848196Y-82842653D01*
X109936212Y-82883959D01*
X110000869Y-82966017D01*
X110012433Y-82994992D01*
X110067825Y-83085491D01*
X110131553Y-83124060D01*
X110218966Y-83157054D01*
X110218966Y-83031966D01*
X110211238Y-82946844D01*
X110180966Y-82875062D01*
X110117518Y-82792644D01*
X110108088Y-82781934D01*
X110037513Y-82708609D01*
X109976847Y-82669258D01*
X109900950Y-82651155D01*
X109838030Y-82645226D01*
X109725487Y-82643749D01*
X109645370Y-82662465D01*
X109595390Y-82690253D01*
X109516838Y-82751359D01*
X109462463Y-82817446D01*
X109428052Y-82900559D01*
X109409388Y-83012746D01*
X109402256Y-83166054D01*
X109401687Y-83243864D01*
X109403622Y-83337147D01*
X109579899Y-83337147D01*
X109581944Y-83287104D01*
X109587039Y-83278908D01*
X109620666Y-83290042D01*
X109693030Y-83319507D01*
X109789747Y-83361399D01*
X109809973Y-83370403D01*
X109932203Y-83432558D01*
X109999547Y-83487185D01*
X110014348Y-83538351D01*
X109978947Y-83590124D01*
X109949711Y-83613000D01*
X109844216Y-83658750D01*
X109745476Y-83651192D01*
X109662812Y-83595349D01*
X109605548Y-83496247D01*
X109587188Y-83417586D01*
X109579899Y-83337147D01*
X109403622Y-83337147D01*
X109405459Y-83425649D01*
X109419359Y-83560147D01*
X109446894Y-83658084D01*
X109491572Y-83730189D01*
X109556901Y-83787187D01*
X109585383Y-83805607D01*
X109714763Y-83853578D01*
X109856412Y-83856597D01*
X109993439Y-83818460D01*
G37*
X109993439Y-83818460D02*
X110108950Y-83742966D01*
X110164664Y-83675383D01*
X110208804Y-83552745D01*
X110212309Y-83455702D01*
X110204368Y-83325944D01*
X109905115Y-83194961D01*
X109759611Y-83128042D01*
X109664537Y-83074210D01*
X109615101Y-83027584D01*
X109606511Y-82982280D01*
X109633972Y-82932418D01*
X109664253Y-82899368D01*
X109752363Y-82846367D01*
X109848196Y-82842653D01*
X109936212Y-82883959D01*
X110000869Y-82966017D01*
X110012433Y-82994992D01*
X110067825Y-83085491D01*
X110131553Y-83124060D01*
X110218966Y-83157054D01*
X110218966Y-83031966D01*
X110211238Y-82946844D01*
X110180966Y-82875062D01*
X110117518Y-82792644D01*
X110108088Y-82781934D01*
X110037513Y-82708609D01*
X109976847Y-82669258D01*
X109900950Y-82651155D01*
X109838030Y-82645226D01*
X109725487Y-82643749D01*
X109645370Y-82662465D01*
X109595390Y-82690253D01*
X109516838Y-82751359D01*
X109462463Y-82817446D01*
X109428052Y-82900559D01*
X109409388Y-83012746D01*
X109402256Y-83166054D01*
X109401687Y-83243864D01*
X109403622Y-83337147D01*
X109579899Y-83337147D01*
X109581944Y-83287104D01*
X109587039Y-83278908D01*
X109620666Y-83290042D01*
X109693030Y-83319507D01*
X109789747Y-83361399D01*
X109809973Y-83370403D01*
X109932203Y-83432558D01*
X109999547Y-83487185D01*
X110014348Y-83538351D01*
X109978947Y-83590124D01*
X109949711Y-83613000D01*
X109844216Y-83658750D01*
X109745476Y-83651192D01*
X109662812Y-83595349D01*
X109605548Y-83496247D01*
X109587188Y-83417586D01*
X109579899Y-83337147D01*
X109403622Y-83337147D01*
X109405459Y-83425649D01*
X109419359Y-83560147D01*
X109446894Y-83658084D01*
X109491572Y-83730189D01*
X109556901Y-83787187D01*
X109585383Y-83805607D01*
X109714763Y-83853578D01*
X109856412Y-83856597D01*
X109993439Y-83818460D01*
G36*
X107230124Y-83835160D02*
G01*
X107234579Y-83758347D01*
X107238071Y-83641609D01*
X107240315Y-83494179D01*
X107241035Y-83339545D01*
X107241035Y-82816273D01*
X107148645Y-82723883D01*
X107084978Y-82666953D01*
X107029089Y-82643893D01*
X106952702Y-82645353D01*
X106922380Y-82649066D01*
X106827610Y-82659874D01*
X106749222Y-82666067D01*
X106730115Y-82666639D01*
X106665699Y-82662898D01*
X106573571Y-82653506D01*
X106537850Y-82649066D01*
X106450114Y-82642199D01*
X106391153Y-82657115D01*
X106332690Y-82703165D01*
X106311585Y-82723883D01*
X106219195Y-82816273D01*
X106219195Y-83795053D01*
X106293558Y-83828934D01*
X106357590Y-83854030D01*
X106395052Y-83862816D01*
X106404657Y-83835050D01*
X106413635Y-83757470D01*
X106421386Y-83638652D01*
X106427314Y-83487172D01*
X106430173Y-83359195D01*
X106438161Y-82855575D01*
X106507848Y-82845722D01*
X106571229Y-82852611D01*
X106602286Y-82874917D01*
X106610967Y-82916621D01*
X106618378Y-83005456D01*
X106623931Y-83130166D01*
X106627036Y-83279493D01*
X106627484Y-83356339D01*
X106627931Y-83798713D01*
X106719874Y-83830765D01*
X106784949Y-83852557D01*
X106820347Y-83862719D01*
X106821368Y-83862816D01*
X106824920Y-83835191D01*
X106828823Y-83758589D01*
X106832751Y-83642421D01*
X106836376Y-83496096D01*
X106838908Y-83359195D01*
X106846897Y-82855575D01*
X107022069Y-82855575D01*
X107030107Y-83315035D01*
X107038146Y-83774495D01*
X107123543Y-83818656D01*
X107186593Y-83848981D01*
X107223910Y-83862742D01*
X107224987Y-83862816D01*
X107230124Y-83835160D01*
G37*
X107230124Y-83835160D02*
X107234579Y-83758347D01*
X107238071Y-83641609D01*
X107240315Y-83494179D01*
X107241035Y-83339545D01*
X107241035Y-82816273D01*
X107148645Y-82723883D01*
X107084978Y-82666953D01*
X107029089Y-82643893D01*
X106952702Y-82645353D01*
X106922380Y-82649066D01*
X106827610Y-82659874D01*
X106749222Y-82666067D01*
X106730115Y-82666639D01*
X106665699Y-82662898D01*
X106573571Y-82653506D01*
X106537850Y-82649066D01*
X106450114Y-82642199D01*
X106391153Y-82657115D01*
X106332690Y-82703165D01*
X106311585Y-82723883D01*
X106219195Y-82816273D01*
X106219195Y-83795053D01*
X106293558Y-83828934D01*
X106357590Y-83854030D01*
X106395052Y-83862816D01*
X106404657Y-83835050D01*
X106413635Y-83757470D01*
X106421386Y-83638652D01*
X106427314Y-83487172D01*
X106430173Y-83359195D01*
X106438161Y-82855575D01*
X106507848Y-82845722D01*
X106571229Y-82852611D01*
X106602286Y-82874917D01*
X106610967Y-82916621D01*
X106618378Y-83005456D01*
X106623931Y-83130166D01*
X106627036Y-83279493D01*
X106627484Y-83356339D01*
X106627931Y-83798713D01*
X106719874Y-83830765D01*
X106784949Y-83852557D01*
X106820347Y-83862719D01*
X106821368Y-83862816D01*
X106824920Y-83835191D01*
X106828823Y-83758589D01*
X106832751Y-83642421D01*
X106836376Y-83496096D01*
X106838908Y-83359195D01*
X106846897Y-82855575D01*
X107022069Y-82855575D01*
X107030107Y-83315035D01*
X107038146Y-83774495D01*
X107123543Y-83818656D01*
X107186593Y-83848981D01*
X107223910Y-83862742D01*
X107224987Y-83862816D01*
X107230124Y-83835160D01*
G36*
X101067429Y-83897281D02*
G01*
X101161123Y-83843086D01*
X101226264Y-83789293D01*
X101273907Y-83732934D01*
X101306728Y-83664013D01*
X101327406Y-83572532D01*
X101338620Y-83448494D01*
X101343049Y-83281902D01*
X101343563Y-83162149D01*
X101343563Y-82721341D01*
X101219483Y-82665717D01*
X101095402Y-82610093D01*
X101080805Y-83092905D01*
X101074773Y-83273221D01*
X101068445Y-83404099D01*
X101060606Y-83494489D01*
X101050037Y-83553336D01*
X101035523Y-83589587D01*
X101015848Y-83612190D01*
X101009535Y-83617083D01*
X100913888Y-83655294D01*
X100817207Y-83640173D01*
X100759655Y-83600057D01*
X100736245Y-83571630D01*
X100720039Y-83534328D01*
X100709741Y-83477777D01*
X100704049Y-83391606D01*
X100701664Y-83265442D01*
X100701264Y-83133958D01*
X100701186Y-82969001D01*
X100698361Y-82852239D01*
X100688907Y-82773490D01*
X100668940Y-82722569D01*
X100634576Y-82689294D01*
X100581932Y-82663480D01*
X100511617Y-82636656D01*
X100434820Y-82607458D01*
X100443962Y-83125654D01*
X100447643Y-83312461D01*
X100451950Y-83450510D01*
X100458123Y-83549432D01*
X100467402Y-83618855D01*
X100481027Y-83668410D01*
X100500239Y-83707727D01*
X100523402Y-83742416D01*
X100635152Y-83853230D01*
X100771513Y-83917311D01*
X100919825Y-83932661D01*
X101067429Y-83897281D01*
G37*
X101067429Y-83897281D02*
X101161123Y-83843086D01*
X101226264Y-83789293D01*
X101273907Y-83732934D01*
X101306728Y-83664013D01*
X101327406Y-83572532D01*
X101338620Y-83448494D01*
X101343049Y-83281902D01*
X101343563Y-83162149D01*
X101343563Y-82721341D01*
X101219483Y-82665717D01*
X101095402Y-82610093D01*
X101080805Y-83092905D01*
X101074773Y-83273221D01*
X101068445Y-83404099D01*
X101060606Y-83494489D01*
X101050037Y-83553336D01*
X101035523Y-83589587D01*
X101015848Y-83612190D01*
X101009535Y-83617083D01*
X100913888Y-83655294D01*
X100817207Y-83640173D01*
X100759655Y-83600057D01*
X100736245Y-83571630D01*
X100720039Y-83534328D01*
X100709741Y-83477777D01*
X100704049Y-83391606D01*
X100701664Y-83265442D01*
X100701264Y-83133958D01*
X100701186Y-82969001D01*
X100698361Y-82852239D01*
X100688907Y-82773490D01*
X100668940Y-82722569D01*
X100634576Y-82689294D01*
X100581932Y-82663480D01*
X100511617Y-82636656D01*
X100434820Y-82607458D01*
X100443962Y-83125654D01*
X100447643Y-83312461D01*
X100451950Y-83450510D01*
X100458123Y-83549432D01*
X100467402Y-83618855D01*
X100481027Y-83668410D01*
X100500239Y-83707727D01*
X100523402Y-83742416D01*
X100635152Y-83853230D01*
X100771513Y-83917311D01*
X100919825Y-83932661D01*
X101067429Y-83897281D01*
G36*
X104715943Y-83853080D02*
G01*
X104848565Y-83804141D01*
X104956010Y-83717581D01*
X104998032Y-83656648D01*
X105043843Y-83544839D01*
X105042891Y-83463994D01*
X104994808Y-83409622D01*
X104977017Y-83400376D01*
X104900204Y-83371550D01*
X104860976Y-83378935D01*
X104847689Y-83427342D01*
X104847012Y-83454080D01*
X104822686Y-83552452D01*
X104759281Y-83621266D01*
X104671154Y-83654502D01*
X104572663Y-83646139D01*
X104492602Y-83602704D01*
X104465561Y-83577928D01*
X104446394Y-83547871D01*
X104433446Y-83502435D01*
X104425064Y-83431524D01*
X104419593Y-83325040D01*
X104415378Y-83172888D01*
X104414287Y-83124713D01*
X104410307Y-82959905D01*
X104405781Y-82843912D01*
X104398995Y-82767167D01*
X104388231Y-82720107D01*
X104371773Y-82693165D01*
X104347906Y-82676777D01*
X104332626Y-82669537D01*
X104267733Y-82644780D01*
X104229534Y-82636609D01*
X104216912Y-82663897D01*
X104209208Y-82746397D01*
X104206380Y-82885059D01*
X104208386Y-83080838D01*
X104209011Y-83111035D01*
X104213421Y-83289651D01*
X104218635Y-83420077D01*
X104226055Y-83512508D01*
X104237082Y-83577142D01*
X104253117Y-83624175D01*
X104275561Y-83663804D01*
X104287302Y-83680785D01*
X104354619Y-83755920D01*
X104429910Y-83814362D01*
X104439128Y-83819464D01*
X104574133Y-83859740D01*
X104715943Y-83853080D01*
G37*
X104715943Y-83853080D02*
X104848565Y-83804141D01*
X104956010Y-83717581D01*
X104998032Y-83656648D01*
X105043843Y-83544839D01*
X105042891Y-83463994D01*
X104994808Y-83409622D01*
X104977017Y-83400376D01*
X104900204Y-83371550D01*
X104860976Y-83378935D01*
X104847689Y-83427342D01*
X104847012Y-83454080D01*
X104822686Y-83552452D01*
X104759281Y-83621266D01*
X104671154Y-83654502D01*
X104572663Y-83646139D01*
X104492602Y-83602704D01*
X104465561Y-83577928D01*
X104446394Y-83547871D01*
X104433446Y-83502435D01*
X104425064Y-83431524D01*
X104419593Y-83325040D01*
X104415378Y-83172888D01*
X104414287Y-83124713D01*
X104410307Y-82959905D01*
X104405781Y-82843912D01*
X104398995Y-82767167D01*
X104388231Y-82720107D01*
X104371773Y-82693165D01*
X104347906Y-82676777D01*
X104332626Y-82669537D01*
X104267733Y-82644780D01*
X104229534Y-82636609D01*
X104216912Y-82663897D01*
X104209208Y-82746397D01*
X104206380Y-82885059D01*
X104208386Y-83080838D01*
X104209011Y-83111035D01*
X104213421Y-83289651D01*
X104218635Y-83420077D01*
X104226055Y-83512508D01*
X104237082Y-83577142D01*
X104253117Y-83624175D01*
X104275561Y-83663804D01*
X104287302Y-83680785D01*
X104354619Y-83755920D01*
X104429910Y-83814362D01*
X104439128Y-83819464D01*
X104574133Y-83859740D01*
X104715943Y-83853080D01*
G36*
X97698221Y-83908985D02*
G01*
X97835061Y-83837032D01*
X97936051Y-83721234D01*
X97971925Y-83646787D01*
X97999839Y-83535008D01*
X98014129Y-83393773D01*
X98015484Y-83239629D01*
X98004595Y-83089121D01*
X97982153Y-82958795D01*
X97948850Y-82865197D01*
X97938615Y-82849078D01*
X97817382Y-82728751D01*
X97673387Y-82656683D01*
X97517139Y-82635592D01*
X97359148Y-82668198D01*
X97315180Y-82687747D01*
X97229556Y-82747988D01*
X97154408Y-82827865D01*
X97147306Y-82837996D01*
X97118439Y-82886819D01*
X97099357Y-82939010D01*
X97088084Y-83007715D01*
X97082645Y-83106082D01*
X97081062Y-83247256D01*
X97081035Y-83278908D01*
X97081107Y-83288981D01*
X97372989Y-83288981D01*
X97374687Y-83155744D01*
X97381372Y-83067326D01*
X97395425Y-83010215D01*
X97419229Y-82970898D01*
X97431379Y-82957759D01*
X97501236Y-82907828D01*
X97569059Y-82910105D01*
X97637635Y-82953416D01*
X97678535Y-82999654D01*
X97702758Y-83067143D01*
X97716361Y-83173567D01*
X97717294Y-83185980D01*
X97719616Y-83378853D01*
X97695350Y-83522100D01*
X97644824Y-83614840D01*
X97568368Y-83656193D01*
X97541076Y-83658448D01*
X97469411Y-83647107D01*
X97420390Y-83607816D01*
X97390418Y-83532674D01*
X97375899Y-83413778D01*
X97372989Y-83288981D01*
X97081107Y-83288981D01*
X97082122Y-83429341D01*
X97086688Y-83534451D01*
X97096688Y-83607286D01*
X97114079Y-83660892D01*
X97140816Y-83708319D01*
X97146724Y-83717136D01*
X97246032Y-83835993D01*
X97354242Y-83904992D01*
X97485981Y-83932381D01*
X97530717Y-83933719D01*
X97698221Y-83908985D01*
G37*
X97698221Y-83908985D02*
X97835061Y-83837032D01*
X97936051Y-83721234D01*
X97971925Y-83646787D01*
X97999839Y-83535008D01*
X98014129Y-83393773D01*
X98015484Y-83239629D01*
X98004595Y-83089121D01*
X97982153Y-82958795D01*
X97948850Y-82865197D01*
X97938615Y-82849078D01*
X97817382Y-82728751D01*
X97673387Y-82656683D01*
X97517139Y-82635592D01*
X97359148Y-82668198D01*
X97315180Y-82687747D01*
X97229556Y-82747988D01*
X97154408Y-82827865D01*
X97147306Y-82837996D01*
X97118439Y-82886819D01*
X97099357Y-82939010D01*
X97088084Y-83007715D01*
X97082645Y-83106082D01*
X97081062Y-83247256D01*
X97081035Y-83278908D01*
X97081107Y-83288981D01*
X97372989Y-83288981D01*
X97374687Y-83155744D01*
X97381372Y-83067326D01*
X97395425Y-83010215D01*
X97419229Y-82970898D01*
X97431379Y-82957759D01*
X97501236Y-82907828D01*
X97569059Y-82910105D01*
X97637635Y-82953416D01*
X97678535Y-82999654D01*
X97702758Y-83067143D01*
X97716361Y-83173567D01*
X97717294Y-83185980D01*
X97719616Y-83378853D01*
X97695350Y-83522100D01*
X97644824Y-83614840D01*
X97568368Y-83656193D01*
X97541076Y-83658448D01*
X97469411Y-83647107D01*
X97420390Y-83607816D01*
X97390418Y-83532674D01*
X97375899Y-83413778D01*
X97372989Y-83288981D01*
X97081107Y-83288981D01*
X97082122Y-83429341D01*
X97086688Y-83534451D01*
X97096688Y-83607286D01*
X97114079Y-83660892D01*
X97140816Y-83708319D01*
X97146724Y-83717136D01*
X97246032Y-83835993D01*
X97354242Y-83904992D01*
X97485981Y-83932381D01*
X97530717Y-83933719D01*
X97698221Y-83908985D01*
D15*
X132850000Y-62675000D02*
X135550000Y-62675000D01*
X135550000Y-55875000D02*
X132850000Y-55875000D01*
X186650000Y-62675000D02*
X186650000Y-55875000D01*
X183950000Y-62675000D02*
X186650000Y-62675000D01*
D16*
G36*
X134650000Y-56875000D02*
G01*
X133650000Y-56875000D01*
X134150000Y-57875000D01*
X134650000Y-56875000D01*
G37*
X134650000Y-56875000D02*
X133650000Y-56875000D01*
X134150000Y-57875000D01*
X134650000Y-56875000D01*
D15*
X132850000Y-55875000D02*
X132850000Y-62675000D01*
X186650000Y-55875000D02*
X183950000Y-55875000D01*
D17*
X149142621Y-76595000D02*
X148807379Y-76595000D01*
X149142621Y-77355000D02*
X148807379Y-77355000D01*
X149140121Y-77595000D02*
X148804879Y-77595000D01*
X149140121Y-78355000D02*
X148804879Y-78355000D01*
X149117621Y-72870000D02*
X148782379Y-72870000D01*
X149117621Y-73630000D02*
X148782379Y-73630000D01*
X149117621Y-73870000D02*
X148782379Y-73870000D01*
X149117621Y-74630000D02*
X148782379Y-74630000D01*
D10*
X134983333Y-53727380D02*
X134983333Y-54441666D01*
X135030952Y-54584523D01*
X135126190Y-54679761D01*
X135269047Y-54727380D01*
X135364285Y-54727380D01*
X134602380Y-53727380D02*
X133983333Y-53727380D01*
X134316666Y-54108333D01*
X134173809Y-54108333D01*
X134078571Y-54155952D01*
X134030952Y-54203571D01*
X133983333Y-54298809D01*
X133983333Y-54536904D01*
X134030952Y-54632142D01*
X134078571Y-54679761D01*
X134173809Y-54727380D01*
X134459523Y-54727380D01*
X134554761Y-54679761D01*
X134602380Y-54632142D01*
D18*
X120126190Y-73179761D02*
X119745238Y-73179761D01*
X119554761Y-73275000D01*
X119364285Y-73465476D01*
X119269047Y-73846428D01*
X119269047Y-74513095D01*
X119364285Y-74894047D01*
X119554761Y-75084523D01*
X119745238Y-75179761D01*
X120126190Y-75179761D01*
X120316666Y-75084523D01*
X120507142Y-74894047D01*
X120602380Y-74513095D01*
X120602380Y-73846428D01*
X120507142Y-73465476D01*
X120316666Y-73275000D01*
X120126190Y-73179761D01*
X117269047Y-74989285D02*
X117364285Y-75084523D01*
X117650000Y-75179761D01*
X117840476Y-75179761D01*
X118126190Y-75084523D01*
X118316666Y-74894047D01*
X118411904Y-74703571D01*
X118507142Y-74322619D01*
X118507142Y-74036904D01*
X118411904Y-73655952D01*
X118316666Y-73465476D01*
X118126190Y-73275000D01*
X117840476Y-73179761D01*
X117650000Y-73179761D01*
X117364285Y-73275000D01*
X117269047Y-73370238D01*
X116411904Y-75179761D02*
X116411904Y-73179761D01*
X115650000Y-73179761D01*
X115459523Y-73275000D01*
X115364285Y-73370238D01*
X115269047Y-73560714D01*
X115269047Y-73846428D01*
X115364285Y-74036904D01*
X115459523Y-74132142D01*
X115650000Y-74227380D01*
X116411904Y-74227380D01*
X114507142Y-73370238D02*
X114411904Y-73275000D01*
X114221428Y-73179761D01*
X113745238Y-73179761D01*
X113554761Y-73275000D01*
X113459523Y-73370238D01*
X113364285Y-73560714D01*
X113364285Y-73751190D01*
X113459523Y-74036904D01*
X114602380Y-75179761D01*
X113364285Y-75179761D01*
X112507142Y-75179761D02*
X112507142Y-73179761D01*
X111745238Y-73179761D01*
X111554761Y-73275000D01*
X111459523Y-73370238D01*
X111364285Y-73560714D01*
X111364285Y-73846428D01*
X111459523Y-74036904D01*
X111554761Y-74132142D01*
X111745238Y-74227380D01*
X112507142Y-74227380D01*
X109364285Y-74989285D02*
X109459523Y-75084523D01*
X109745238Y-75179761D01*
X109935714Y-75179761D01*
X110221428Y-75084523D01*
X110411904Y-74894047D01*
X110507142Y-74703571D01*
X110602380Y-74322619D01*
X110602380Y-74036904D01*
X110507142Y-73655952D01*
X110411904Y-73465476D01*
X110221428Y-73275000D01*
X109935714Y-73179761D01*
X109745238Y-73179761D01*
X109459523Y-73275000D01*
X109364285Y-73370238D01*
X108507142Y-75179761D02*
X108507142Y-73179761D01*
X106792857Y-75084523D02*
X106983333Y-75179761D01*
X107364285Y-75179761D01*
X107554761Y-75084523D01*
X107650000Y-74894047D01*
X107650000Y-74132142D01*
X107554761Y-73941666D01*
X107364285Y-73846428D01*
X106983333Y-73846428D01*
X106792857Y-73941666D01*
X106697619Y-74132142D01*
X106697619Y-74322619D01*
X107650000Y-74513095D01*
D13*
X124685714Y-66953571D02*
X124685714Y-65453571D01*
X123828571Y-66953571D02*
X124471428Y-66096428D01*
X123828571Y-65453571D02*
X124685714Y-66310714D01*
X122328571Y-66810714D02*
X122400000Y-66882142D01*
X122614285Y-66953571D01*
X122757142Y-66953571D01*
X122971428Y-66882142D01*
X123114285Y-66739285D01*
X123185714Y-66596428D01*
X123257142Y-66310714D01*
X123257142Y-66096428D01*
X123185714Y-65810714D01*
X123114285Y-65667857D01*
X122971428Y-65525000D01*
X122757142Y-65453571D01*
X122614285Y-65453571D01*
X122400000Y-65525000D01*
X122328571Y-65596428D01*
X121400000Y-65453571D02*
X121114285Y-65453571D01*
X120971428Y-65525000D01*
X120828571Y-65667857D01*
X120757142Y-65953571D01*
X120757142Y-66453571D01*
X120828571Y-66739285D01*
X120971428Y-66882142D01*
X121114285Y-66953571D01*
X121400000Y-66953571D01*
X121542857Y-66882142D01*
X121685714Y-66739285D01*
X121757142Y-66453571D01*
X121757142Y-65953571D01*
X121685714Y-65667857D01*
X121542857Y-65525000D01*
X121400000Y-65453571D01*
X119257142Y-66953571D02*
X119757142Y-66239285D01*
X120114285Y-66953571D02*
X120114285Y-65453571D01*
X119542857Y-65453571D01*
X119400000Y-65525000D01*
X119328571Y-65596428D01*
X119257142Y-65739285D01*
X119257142Y-65953571D01*
X119328571Y-66096428D01*
X119400000Y-66167857D01*
X119542857Y-66239285D01*
X120114285Y-66239285D01*
X118685714Y-66882142D02*
X118471428Y-66953571D01*
X118114285Y-66953571D01*
X117971428Y-66882142D01*
X117900000Y-66810714D01*
X117828571Y-66667857D01*
X117828571Y-66525000D01*
X117900000Y-66382142D01*
X117971428Y-66310714D01*
X118114285Y-66239285D01*
X118400000Y-66167857D01*
X118542857Y-66096428D01*
X118614285Y-66025000D01*
X118685714Y-65882142D01*
X118685714Y-65739285D01*
X118614285Y-65596428D01*
X118542857Y-65525000D01*
X118400000Y-65453571D01*
X118042857Y-65453571D01*
X117828571Y-65525000D01*
X117185714Y-66167857D02*
X116685714Y-66167857D01*
X116471428Y-66953571D02*
X117185714Y-66953571D01*
X117185714Y-65453571D01*
X116471428Y-65453571D01*
X113757142Y-66239285D02*
X113828571Y-66167857D01*
X113971428Y-66096428D01*
X114114285Y-66096428D01*
X114257142Y-66167857D01*
X114328571Y-66239285D01*
X114400000Y-66382142D01*
X114400000Y-66525000D01*
X114328571Y-66667857D01*
X114257142Y-66739285D01*
X114114285Y-66810714D01*
X113971428Y-66810714D01*
X113828571Y-66739285D01*
X113757142Y-66667857D01*
X113757142Y-66096428D02*
X113757142Y-66667857D01*
X113685714Y-66739285D01*
X113614285Y-66739285D01*
X113471428Y-66667857D01*
X113400000Y-66525000D01*
X113400000Y-66167857D01*
X113542857Y-65953571D01*
X113757142Y-65810714D01*
X114042857Y-65739285D01*
X114328571Y-65810714D01*
X114542857Y-65953571D01*
X114685714Y-66167857D01*
X114757142Y-66453571D01*
X114685714Y-66739285D01*
X114542857Y-66953571D01*
X114328571Y-67096428D01*
X114042857Y-67167857D01*
X113757142Y-67096428D01*
X113542857Y-66953571D01*
X110971428Y-66953571D02*
X110971428Y-66167857D01*
X111042857Y-66025000D01*
X111185714Y-65953571D01*
X111471428Y-65953571D01*
X111614285Y-66025000D01*
X110971428Y-66882142D02*
X111114285Y-66953571D01*
X111471428Y-66953571D01*
X111614285Y-66882142D01*
X111685714Y-66739285D01*
X111685714Y-66596428D01*
X111614285Y-66453571D01*
X111471428Y-66382142D01*
X111114285Y-66382142D01*
X110971428Y-66310714D01*
X110400000Y-65953571D02*
X110114285Y-66953571D01*
X109828571Y-66239285D01*
X109542857Y-66953571D01*
X109257142Y-65953571D01*
X108685714Y-65953571D02*
X108685714Y-67453571D01*
X108685714Y-66025000D02*
X108542857Y-65953571D01*
X108257142Y-65953571D01*
X108114285Y-66025000D01*
X108042857Y-66096428D01*
X107971428Y-66239285D01*
X107971428Y-66667857D01*
X108042857Y-66810714D01*
X108114285Y-66882142D01*
X108257142Y-66953571D01*
X108542857Y-66953571D01*
X108685714Y-66882142D01*
X106685714Y-66953571D02*
X106685714Y-66167857D01*
X106757142Y-66025000D01*
X106900000Y-65953571D01*
X107185714Y-65953571D01*
X107328571Y-66025000D01*
X106685714Y-66882142D02*
X106828571Y-66953571D01*
X107185714Y-66953571D01*
X107328571Y-66882142D01*
X107400000Y-66739285D01*
X107400000Y-66596428D01*
X107328571Y-66453571D01*
X107185714Y-66382142D01*
X106828571Y-66382142D01*
X106685714Y-66310714D01*
X105971428Y-66953571D02*
X105971428Y-65453571D01*
X105828571Y-66382142D02*
X105400000Y-66953571D01*
X105400000Y-65953571D02*
X105971428Y-66525000D01*
X104900000Y-65453571D02*
X103900000Y-65453571D01*
X104542857Y-66953571D01*
X103114285Y-66096428D02*
X103257142Y-66025000D01*
X103328571Y-65953571D01*
X103400000Y-65810714D01*
X103400000Y-65739285D01*
X103328571Y-65596428D01*
X103257142Y-65525000D01*
X103114285Y-65453571D01*
X102828571Y-65453571D01*
X102685714Y-65525000D01*
X102614285Y-65596428D01*
X102542857Y-65739285D01*
X102542857Y-65810714D01*
X102614285Y-65953571D01*
X102685714Y-66025000D01*
X102828571Y-66096428D01*
X103114285Y-66096428D01*
X103257142Y-66167857D01*
X103328571Y-66239285D01*
X103400000Y-66382142D01*
X103400000Y-66667857D01*
X103328571Y-66810714D01*
X103257142Y-66882142D01*
X103114285Y-66953571D01*
X102828571Y-66953571D01*
X102685714Y-66882142D01*
X102614285Y-66810714D01*
X102542857Y-66667857D01*
X102542857Y-66382142D01*
X102614285Y-66239285D01*
X102685714Y-66167857D01*
X102828571Y-66096428D01*
D10*
X149106666Y-80832380D02*
X149440000Y-80356190D01*
X149678095Y-80832380D02*
X149678095Y-79832380D01*
X149297142Y-79832380D01*
X149201904Y-79880000D01*
X149154285Y-79927619D01*
X149106666Y-80022857D01*
X149106666Y-80165714D01*
X149154285Y-80260952D01*
X149201904Y-80308571D01*
X149297142Y-80356190D01*
X149678095Y-80356190D01*
X148630476Y-80832380D02*
X148440000Y-80832380D01*
X148344761Y-80784761D01*
X148297142Y-80737142D01*
X148201904Y-80594285D01*
X148154285Y-80403809D01*
X148154285Y-80022857D01*
X148201904Y-79927619D01*
X148249523Y-79880000D01*
X148344761Y-79832380D01*
X148535238Y-79832380D01*
X148630476Y-79880000D01*
X148678095Y-79927619D01*
X148725714Y-80022857D01*
X148725714Y-80260952D01*
X148678095Y-80356190D01*
X148630476Y-80403809D01*
X148535238Y-80451428D01*
X148344761Y-80451428D01*
X148249523Y-80403809D01*
X148201904Y-80356190D01*
X148154285Y-80260952D01*
X149096666Y-79652380D02*
X149430000Y-79176190D01*
X149668095Y-79652380D02*
X149668095Y-78652380D01*
X149287142Y-78652380D01*
X149191904Y-78700000D01*
X149144285Y-78747619D01*
X149096666Y-78842857D01*
X149096666Y-78985714D01*
X149144285Y-79080952D01*
X149191904Y-79128571D01*
X149287142Y-79176190D01*
X149668095Y-79176190D01*
X148525238Y-79080952D02*
X148620476Y-79033333D01*
X148668095Y-78985714D01*
X148715714Y-78890476D01*
X148715714Y-78842857D01*
X148668095Y-78747619D01*
X148620476Y-78700000D01*
X148525238Y-78652380D01*
X148334761Y-78652380D01*
X148239523Y-78700000D01*
X148191904Y-78747619D01*
X148144285Y-78842857D01*
X148144285Y-78890476D01*
X148191904Y-78985714D01*
X148239523Y-79033333D01*
X148334761Y-79080952D01*
X148525238Y-79080952D01*
X148620476Y-79128571D01*
X148668095Y-79176190D01*
X148715714Y-79271428D01*
X148715714Y-79461904D01*
X148668095Y-79557142D01*
X148620476Y-79604761D01*
X148525238Y-79652380D01*
X148334761Y-79652380D01*
X148239523Y-79604761D01*
X148191904Y-79557142D01*
X148144285Y-79461904D01*
X148144285Y-79271428D01*
X148191904Y-79176190D01*
X148239523Y-79128571D01*
X148334761Y-79080952D01*
X149116666Y-72582380D02*
X149450000Y-72106190D01*
X149688095Y-72582380D02*
X149688095Y-71582380D01*
X149307142Y-71582380D01*
X149211904Y-71630000D01*
X149164285Y-71677619D01*
X149116666Y-71772857D01*
X149116666Y-71915714D01*
X149164285Y-72010952D01*
X149211904Y-72058571D01*
X149307142Y-72106190D01*
X149688095Y-72106190D01*
X148783333Y-71582380D02*
X148116666Y-71582380D01*
X148545238Y-72582380D01*
X149106666Y-71312380D02*
X149440000Y-70836190D01*
X149678095Y-71312380D02*
X149678095Y-70312380D01*
X149297142Y-70312380D01*
X149201904Y-70360000D01*
X149154285Y-70407619D01*
X149106666Y-70502857D01*
X149106666Y-70645714D01*
X149154285Y-70740952D01*
X149201904Y-70788571D01*
X149297142Y-70836190D01*
X149678095Y-70836190D01*
X148249523Y-70312380D02*
X148440000Y-70312380D01*
X148535238Y-70360000D01*
X148582857Y-70407619D01*
X148678095Y-70550476D01*
X148725714Y-70740952D01*
X148725714Y-71121904D01*
X148678095Y-71217142D01*
X148630476Y-71264761D01*
X148535238Y-71312380D01*
X148344761Y-71312380D01*
X148249523Y-71264761D01*
X148201904Y-71217142D01*
X148154285Y-71121904D01*
X148154285Y-70883809D01*
X148201904Y-70788571D01*
X148249523Y-70740952D01*
X148344761Y-70693333D01*
X148535238Y-70693333D01*
X148630476Y-70740952D01*
X148678095Y-70788571D01*
X148725714Y-70883809D01*
M02*
