%TF.GenerationSoftware,KiCad,Pcbnew,(5.1.9)-1*%
%TF.CreationDate,2021-06-12T00:32:34+08:00*%
%TF.ProjectId,V1,56312e6b-6963-4616-945f-706362585858,rev?*%
%TF.SameCoordinates,Original*%
%TF.FileFunction,Soldermask,Bot*%
%TF.FilePolarity,Negative*%
%FSLAX46Y46*%
G04 Gerber Fmt 4.6, Leading zero omitted, Abs format (unit mm)*
G04 Created by KiCad (PCBNEW (5.1.9)-1) date 2021-06-12 00:32:34*
%MOMM*%
%LPD*%
G01*
G04 APERTURE LIST*
%ADD10C,0.100000*%
%ADD11O,6.100000X10.100000*%
%ADD12C,6.100000*%
%ADD13C,1.300000*%
%ADD14C,0.900000*%
%ADD15C,5.100000*%
%ADD16O,1.800000X1.800000*%
%ADD17C,1.800000*%
G04 APERTURE END LIST*
D10*
G36*
X233580000Y-131360000D02*
G01*
X219590000Y-131360000D01*
X219590000Y-125940000D01*
X233580000Y-125940000D01*
X233580000Y-131360000D01*
G37*
X233580000Y-131360000D02*
X219590000Y-131360000D01*
X219590000Y-125940000D01*
X233580000Y-125940000D01*
X233580000Y-131360000D01*
G36*
X217750000Y-135000000D02*
G01*
X132250000Y-135000000D01*
X132250000Y-128350000D01*
X217750000Y-128350000D01*
X217750000Y-135000000D01*
G37*
X217750000Y-135000000D02*
X132250000Y-135000000D01*
X132250000Y-128350000D01*
X217750000Y-128350000D01*
X217750000Y-135000000D01*
D11*
X95500000Y-70739000D03*
D12*
X95500000Y-124650001D03*
D13*
X133650000Y-113250000D03*
D14*
X185850000Y-113250000D03*
D15*
X127250000Y-114050000D03*
G36*
G01*
X183050000Y-62875000D02*
X183050000Y-60475000D01*
G75*
G02*
X183100000Y-60425000I50000J0D01*
G01*
X183600000Y-60425000D01*
G75*
G02*
X183650000Y-60475000I0J-50000D01*
G01*
X183650000Y-62875000D01*
G75*
G02*
X183600000Y-62925000I-50000J0D01*
G01*
X183100000Y-62925000D01*
G75*
G02*
X183050000Y-62875000I0J50000D01*
G01*
G37*
G36*
G01*
X182250000Y-62875000D02*
X182250000Y-60475000D01*
G75*
G02*
X182300000Y-60425000I50000J0D01*
G01*
X182800000Y-60425000D01*
G75*
G02*
X182850000Y-60475000I0J-50000D01*
G01*
X182850000Y-62875000D01*
G75*
G02*
X182800000Y-62925000I-50000J0D01*
G01*
X182300000Y-62925000D01*
G75*
G02*
X182250000Y-62875000I0J50000D01*
G01*
G37*
G36*
G01*
X181450000Y-62875000D02*
X181450000Y-60475000D01*
G75*
G02*
X181500000Y-60425000I50000J0D01*
G01*
X182000000Y-60425000D01*
G75*
G02*
X182050000Y-60475000I0J-50000D01*
G01*
X182050000Y-62875000D01*
G75*
G02*
X182000000Y-62925000I-50000J0D01*
G01*
X181500000Y-62925000D01*
G75*
G02*
X181450000Y-62875000I0J50000D01*
G01*
G37*
G36*
G01*
X180650000Y-62875000D02*
X180650000Y-60475000D01*
G75*
G02*
X180700000Y-60425000I50000J0D01*
G01*
X181200000Y-60425000D01*
G75*
G02*
X181250000Y-60475000I0J-50000D01*
G01*
X181250000Y-62875000D01*
G75*
G02*
X181200000Y-62925000I-50000J0D01*
G01*
X180700000Y-62925000D01*
G75*
G02*
X180650000Y-62875000I0J50000D01*
G01*
G37*
G36*
G01*
X179850000Y-62875000D02*
X179850000Y-60475000D01*
G75*
G02*
X179900000Y-60425000I50000J0D01*
G01*
X180400000Y-60425000D01*
G75*
G02*
X180450000Y-60475000I0J-50000D01*
G01*
X180450000Y-62875000D01*
G75*
G02*
X180400000Y-62925000I-50000J0D01*
G01*
X179900000Y-62925000D01*
G75*
G02*
X179850000Y-62875000I0J50000D01*
G01*
G37*
G36*
G01*
X179050000Y-62875000D02*
X179050000Y-60475000D01*
G75*
G02*
X179100000Y-60425000I50000J0D01*
G01*
X179600000Y-60425000D01*
G75*
G02*
X179650000Y-60475000I0J-50000D01*
G01*
X179650000Y-62875000D01*
G75*
G02*
X179600000Y-62925000I-50000J0D01*
G01*
X179100000Y-62925000D01*
G75*
G02*
X179050000Y-62875000I0J50000D01*
G01*
G37*
G36*
G01*
X178250000Y-62875000D02*
X178250000Y-60475000D01*
G75*
G02*
X178300000Y-60425000I50000J0D01*
G01*
X178800000Y-60425000D01*
G75*
G02*
X178850000Y-60475000I0J-50000D01*
G01*
X178850000Y-62875000D01*
G75*
G02*
X178800000Y-62925000I-50000J0D01*
G01*
X178300000Y-62925000D01*
G75*
G02*
X178250000Y-62875000I0J50000D01*
G01*
G37*
G36*
G01*
X177450000Y-62875000D02*
X177450000Y-60475000D01*
G75*
G02*
X177500000Y-60425000I50000J0D01*
G01*
X178000000Y-60425000D01*
G75*
G02*
X178050000Y-60475000I0J-50000D01*
G01*
X178050000Y-62875000D01*
G75*
G02*
X178000000Y-62925000I-50000J0D01*
G01*
X177500000Y-62925000D01*
G75*
G02*
X177450000Y-62875000I0J50000D01*
G01*
G37*
G36*
G01*
X176650000Y-62875000D02*
X176650000Y-60475000D01*
G75*
G02*
X176700000Y-60425000I50000J0D01*
G01*
X177200000Y-60425000D01*
G75*
G02*
X177250000Y-60475000I0J-50000D01*
G01*
X177250000Y-62875000D01*
G75*
G02*
X177200000Y-62925000I-50000J0D01*
G01*
X176700000Y-62925000D01*
G75*
G02*
X176650000Y-62875000I0J50000D01*
G01*
G37*
G36*
G01*
X175850000Y-62875000D02*
X175850000Y-60475000D01*
G75*
G02*
X175900000Y-60425000I50000J0D01*
G01*
X176400000Y-60425000D01*
G75*
G02*
X176450000Y-60475000I0J-50000D01*
G01*
X176450000Y-62875000D01*
G75*
G02*
X176400000Y-62925000I-50000J0D01*
G01*
X175900000Y-62925000D01*
G75*
G02*
X175850000Y-62875000I0J50000D01*
G01*
G37*
G36*
G01*
X175050000Y-62875000D02*
X175050000Y-60475000D01*
G75*
G02*
X175100000Y-60425000I50000J0D01*
G01*
X175600000Y-60425000D01*
G75*
G02*
X175650000Y-60475000I0J-50000D01*
G01*
X175650000Y-62875000D01*
G75*
G02*
X175600000Y-62925000I-50000J0D01*
G01*
X175100000Y-62925000D01*
G75*
G02*
X175050000Y-62875000I0J50000D01*
G01*
G37*
G36*
G01*
X174250000Y-62875000D02*
X174250000Y-60475000D01*
G75*
G02*
X174300000Y-60425000I50000J0D01*
G01*
X174800000Y-60425000D01*
G75*
G02*
X174850000Y-60475000I0J-50000D01*
G01*
X174850000Y-62875000D01*
G75*
G02*
X174800000Y-62925000I-50000J0D01*
G01*
X174300000Y-62925000D01*
G75*
G02*
X174250000Y-62875000I0J50000D01*
G01*
G37*
G36*
G01*
X173450000Y-62875000D02*
X173450000Y-60475000D01*
G75*
G02*
X173500000Y-60425000I50000J0D01*
G01*
X174000000Y-60425000D01*
G75*
G02*
X174050000Y-60475000I0J-50000D01*
G01*
X174050000Y-62875000D01*
G75*
G02*
X174000000Y-62925000I-50000J0D01*
G01*
X173500000Y-62925000D01*
G75*
G02*
X173450000Y-62875000I0J50000D01*
G01*
G37*
G36*
G01*
X172650000Y-62875000D02*
X172650000Y-60475000D01*
G75*
G02*
X172700000Y-60425000I50000J0D01*
G01*
X173200000Y-60425000D01*
G75*
G02*
X173250000Y-60475000I0J-50000D01*
G01*
X173250000Y-62875000D01*
G75*
G02*
X173200000Y-62925000I-50000J0D01*
G01*
X172700000Y-62925000D01*
G75*
G02*
X172650000Y-62875000I0J50000D01*
G01*
G37*
G36*
G01*
X171850000Y-62875000D02*
X171850000Y-60475000D01*
G75*
G02*
X171900000Y-60425000I50000J0D01*
G01*
X172400000Y-60425000D01*
G75*
G02*
X172450000Y-60475000I0J-50000D01*
G01*
X172450000Y-62875000D01*
G75*
G02*
X172400000Y-62925000I-50000J0D01*
G01*
X171900000Y-62925000D01*
G75*
G02*
X171850000Y-62875000I0J50000D01*
G01*
G37*
G36*
G01*
X171050000Y-62875000D02*
X171050000Y-60475000D01*
G75*
G02*
X171100000Y-60425000I50000J0D01*
G01*
X171600000Y-60425000D01*
G75*
G02*
X171650000Y-60475000I0J-50000D01*
G01*
X171650000Y-62875000D01*
G75*
G02*
X171600000Y-62925000I-50000J0D01*
G01*
X171100000Y-62925000D01*
G75*
G02*
X171050000Y-62875000I0J50000D01*
G01*
G37*
G36*
G01*
X170250000Y-62875000D02*
X170250000Y-60475000D01*
G75*
G02*
X170300000Y-60425000I50000J0D01*
G01*
X170800000Y-60425000D01*
G75*
G02*
X170850000Y-60475000I0J-50000D01*
G01*
X170850000Y-62875000D01*
G75*
G02*
X170800000Y-62925000I-50000J0D01*
G01*
X170300000Y-62925000D01*
G75*
G02*
X170250000Y-62875000I0J50000D01*
G01*
G37*
G36*
G01*
X169450000Y-62875000D02*
X169450000Y-60475000D01*
G75*
G02*
X169500000Y-60425000I50000J0D01*
G01*
X170000000Y-60425000D01*
G75*
G02*
X170050000Y-60475000I0J-50000D01*
G01*
X170050000Y-62875000D01*
G75*
G02*
X170000000Y-62925000I-50000J0D01*
G01*
X169500000Y-62925000D01*
G75*
G02*
X169450000Y-62875000I0J50000D01*
G01*
G37*
G36*
G01*
X168650000Y-62875000D02*
X168650000Y-60475000D01*
G75*
G02*
X168700000Y-60425000I50000J0D01*
G01*
X169200000Y-60425000D01*
G75*
G02*
X169250000Y-60475000I0J-50000D01*
G01*
X169250000Y-62875000D01*
G75*
G02*
X169200000Y-62925000I-50000J0D01*
G01*
X168700000Y-62925000D01*
G75*
G02*
X168650000Y-62875000I0J50000D01*
G01*
G37*
G36*
G01*
X167850000Y-62875000D02*
X167850000Y-60475000D01*
G75*
G02*
X167900000Y-60425000I50000J0D01*
G01*
X168400000Y-60425000D01*
G75*
G02*
X168450000Y-60475000I0J-50000D01*
G01*
X168450000Y-62875000D01*
G75*
G02*
X168400000Y-62925000I-50000J0D01*
G01*
X167900000Y-62925000D01*
G75*
G02*
X167850000Y-62875000I0J50000D01*
G01*
G37*
G36*
G01*
X167050000Y-62875000D02*
X167050000Y-60475000D01*
G75*
G02*
X167100000Y-60425000I50000J0D01*
G01*
X167600000Y-60425000D01*
G75*
G02*
X167650000Y-60475000I0J-50000D01*
G01*
X167650000Y-62875000D01*
G75*
G02*
X167600000Y-62925000I-50000J0D01*
G01*
X167100000Y-62925000D01*
G75*
G02*
X167050000Y-62875000I0J50000D01*
G01*
G37*
G36*
G01*
X166250000Y-62875000D02*
X166250000Y-60475000D01*
G75*
G02*
X166300000Y-60425000I50000J0D01*
G01*
X166800000Y-60425000D01*
G75*
G02*
X166850000Y-60475000I0J-50000D01*
G01*
X166850000Y-62875000D01*
G75*
G02*
X166800000Y-62925000I-50000J0D01*
G01*
X166300000Y-62925000D01*
G75*
G02*
X166250000Y-62875000I0J50000D01*
G01*
G37*
G36*
G01*
X165450000Y-62875000D02*
X165450000Y-60475000D01*
G75*
G02*
X165500000Y-60425000I50000J0D01*
G01*
X166000000Y-60425000D01*
G75*
G02*
X166050000Y-60475000I0J-50000D01*
G01*
X166050000Y-62875000D01*
G75*
G02*
X166000000Y-62925000I-50000J0D01*
G01*
X165500000Y-62925000D01*
G75*
G02*
X165450000Y-62875000I0J50000D01*
G01*
G37*
G36*
G01*
X164650000Y-62875000D02*
X164650000Y-60475000D01*
G75*
G02*
X164700000Y-60425000I50000J0D01*
G01*
X165200000Y-60425000D01*
G75*
G02*
X165250000Y-60475000I0J-50000D01*
G01*
X165250000Y-62875000D01*
G75*
G02*
X165200000Y-62925000I-50000J0D01*
G01*
X164700000Y-62925000D01*
G75*
G02*
X164650000Y-62875000I0J50000D01*
G01*
G37*
G36*
G01*
X163850000Y-62875000D02*
X163850000Y-60475000D01*
G75*
G02*
X163900000Y-60425000I50000J0D01*
G01*
X164400000Y-60425000D01*
G75*
G02*
X164450000Y-60475000I0J-50000D01*
G01*
X164450000Y-62875000D01*
G75*
G02*
X164400000Y-62925000I-50000J0D01*
G01*
X163900000Y-62925000D01*
G75*
G02*
X163850000Y-62875000I0J50000D01*
G01*
G37*
G36*
G01*
X163050000Y-62875000D02*
X163050000Y-60475000D01*
G75*
G02*
X163100000Y-60425000I50000J0D01*
G01*
X163600000Y-60425000D01*
G75*
G02*
X163650000Y-60475000I0J-50000D01*
G01*
X163650000Y-62875000D01*
G75*
G02*
X163600000Y-62925000I-50000J0D01*
G01*
X163100000Y-62925000D01*
G75*
G02*
X163050000Y-62875000I0J50000D01*
G01*
G37*
G36*
G01*
X162250000Y-62875000D02*
X162250000Y-60475000D01*
G75*
G02*
X162300000Y-60425000I50000J0D01*
G01*
X162800000Y-60425000D01*
G75*
G02*
X162850000Y-60475000I0J-50000D01*
G01*
X162850000Y-62875000D01*
G75*
G02*
X162800000Y-62925000I-50000J0D01*
G01*
X162300000Y-62925000D01*
G75*
G02*
X162250000Y-62875000I0J50000D01*
G01*
G37*
G36*
G01*
X161450000Y-62875000D02*
X161450000Y-60475000D01*
G75*
G02*
X161500000Y-60425000I50000J0D01*
G01*
X162000000Y-60425000D01*
G75*
G02*
X162050000Y-60475000I0J-50000D01*
G01*
X162050000Y-62875000D01*
G75*
G02*
X162000000Y-62925000I-50000J0D01*
G01*
X161500000Y-62925000D01*
G75*
G02*
X161450000Y-62875000I0J50000D01*
G01*
G37*
G36*
G01*
X160650000Y-62875000D02*
X160650000Y-60475000D01*
G75*
G02*
X160700000Y-60425000I50000J0D01*
G01*
X161200000Y-60425000D01*
G75*
G02*
X161250000Y-60475000I0J-50000D01*
G01*
X161250000Y-62875000D01*
G75*
G02*
X161200000Y-62925000I-50000J0D01*
G01*
X160700000Y-62925000D01*
G75*
G02*
X160650000Y-62875000I0J50000D01*
G01*
G37*
G36*
G01*
X159850000Y-62875000D02*
X159850000Y-60475000D01*
G75*
G02*
X159900000Y-60425000I50000J0D01*
G01*
X160400000Y-60425000D01*
G75*
G02*
X160450000Y-60475000I0J-50000D01*
G01*
X160450000Y-62875000D01*
G75*
G02*
X160400000Y-62925000I-50000J0D01*
G01*
X159900000Y-62925000D01*
G75*
G02*
X159850000Y-62875000I0J50000D01*
G01*
G37*
G36*
G01*
X159050000Y-62875000D02*
X159050000Y-60475000D01*
G75*
G02*
X159100000Y-60425000I50000J0D01*
G01*
X159600000Y-60425000D01*
G75*
G02*
X159650000Y-60475000I0J-50000D01*
G01*
X159650000Y-62875000D01*
G75*
G02*
X159600000Y-62925000I-50000J0D01*
G01*
X159100000Y-62925000D01*
G75*
G02*
X159050000Y-62875000I0J50000D01*
G01*
G37*
G36*
G01*
X158250000Y-62875000D02*
X158250000Y-60475000D01*
G75*
G02*
X158300000Y-60425000I50000J0D01*
G01*
X158800000Y-60425000D01*
G75*
G02*
X158850000Y-60475000I0J-50000D01*
G01*
X158850000Y-62875000D01*
G75*
G02*
X158800000Y-62925000I-50000J0D01*
G01*
X158300000Y-62925000D01*
G75*
G02*
X158250000Y-62875000I0J50000D01*
G01*
G37*
G36*
G01*
X157450000Y-62875000D02*
X157450000Y-60475000D01*
G75*
G02*
X157500000Y-60425000I50000J0D01*
G01*
X158000000Y-60425000D01*
G75*
G02*
X158050000Y-60475000I0J-50000D01*
G01*
X158050000Y-62875000D01*
G75*
G02*
X158000000Y-62925000I-50000J0D01*
G01*
X157500000Y-62925000D01*
G75*
G02*
X157450000Y-62875000I0J50000D01*
G01*
G37*
G36*
G01*
X156650000Y-62875000D02*
X156650000Y-60475000D01*
G75*
G02*
X156700000Y-60425000I50000J0D01*
G01*
X157200000Y-60425000D01*
G75*
G02*
X157250000Y-60475000I0J-50000D01*
G01*
X157250000Y-62875000D01*
G75*
G02*
X157200000Y-62925000I-50000J0D01*
G01*
X156700000Y-62925000D01*
G75*
G02*
X156650000Y-62875000I0J50000D01*
G01*
G37*
G36*
G01*
X155850000Y-62875000D02*
X155850000Y-60475000D01*
G75*
G02*
X155900000Y-60425000I50000J0D01*
G01*
X156400000Y-60425000D01*
G75*
G02*
X156450000Y-60475000I0J-50000D01*
G01*
X156450000Y-62875000D01*
G75*
G02*
X156400000Y-62925000I-50000J0D01*
G01*
X155900000Y-62925000D01*
G75*
G02*
X155850000Y-62875000I0J50000D01*
G01*
G37*
G36*
G01*
X155050000Y-62875000D02*
X155050000Y-60475000D01*
G75*
G02*
X155100000Y-60425000I50000J0D01*
G01*
X155600000Y-60425000D01*
G75*
G02*
X155650000Y-60475000I0J-50000D01*
G01*
X155650000Y-62875000D01*
G75*
G02*
X155600000Y-62925000I-50000J0D01*
G01*
X155100000Y-62925000D01*
G75*
G02*
X155050000Y-62875000I0J50000D01*
G01*
G37*
G36*
G01*
X154250000Y-62875000D02*
X154250000Y-60475000D01*
G75*
G02*
X154300000Y-60425000I50000J0D01*
G01*
X154800000Y-60425000D01*
G75*
G02*
X154850000Y-60475000I0J-50000D01*
G01*
X154850000Y-62875000D01*
G75*
G02*
X154800000Y-62925000I-50000J0D01*
G01*
X154300000Y-62925000D01*
G75*
G02*
X154250000Y-62875000I0J50000D01*
G01*
G37*
G36*
G01*
X153450000Y-62875000D02*
X153450000Y-60475000D01*
G75*
G02*
X153500000Y-60425000I50000J0D01*
G01*
X154000000Y-60425000D01*
G75*
G02*
X154050000Y-60475000I0J-50000D01*
G01*
X154050000Y-62875000D01*
G75*
G02*
X154000000Y-62925000I-50000J0D01*
G01*
X153500000Y-62925000D01*
G75*
G02*
X153450000Y-62875000I0J50000D01*
G01*
G37*
G36*
G01*
X152650000Y-62875000D02*
X152650000Y-60475000D01*
G75*
G02*
X152700000Y-60425000I50000J0D01*
G01*
X153200000Y-60425000D01*
G75*
G02*
X153250000Y-60475000I0J-50000D01*
G01*
X153250000Y-62875000D01*
G75*
G02*
X153200000Y-62925000I-50000J0D01*
G01*
X152700000Y-62925000D01*
G75*
G02*
X152650000Y-62875000I0J50000D01*
G01*
G37*
G36*
G01*
X151850000Y-62875000D02*
X151850000Y-60475000D01*
G75*
G02*
X151900000Y-60425000I50000J0D01*
G01*
X152400000Y-60425000D01*
G75*
G02*
X152450000Y-60475000I0J-50000D01*
G01*
X152450000Y-62875000D01*
G75*
G02*
X152400000Y-62925000I-50000J0D01*
G01*
X151900000Y-62925000D01*
G75*
G02*
X151850000Y-62875000I0J50000D01*
G01*
G37*
G36*
G01*
X151050000Y-62875000D02*
X151050000Y-60475000D01*
G75*
G02*
X151100000Y-60425000I50000J0D01*
G01*
X151600000Y-60425000D01*
G75*
G02*
X151650000Y-60475000I0J-50000D01*
G01*
X151650000Y-62875000D01*
G75*
G02*
X151600000Y-62925000I-50000J0D01*
G01*
X151100000Y-62925000D01*
G75*
G02*
X151050000Y-62875000I0J50000D01*
G01*
G37*
G36*
G01*
X150250000Y-62875000D02*
X150250000Y-60475000D01*
G75*
G02*
X150300000Y-60425000I50000J0D01*
G01*
X150800000Y-60425000D01*
G75*
G02*
X150850000Y-60475000I0J-50000D01*
G01*
X150850000Y-62875000D01*
G75*
G02*
X150800000Y-62925000I-50000J0D01*
G01*
X150300000Y-62925000D01*
G75*
G02*
X150250000Y-62875000I0J50000D01*
G01*
G37*
G36*
G01*
X149450000Y-62875000D02*
X149450000Y-60475000D01*
G75*
G02*
X149500000Y-60425000I50000J0D01*
G01*
X150000000Y-60425000D01*
G75*
G02*
X150050000Y-60475000I0J-50000D01*
G01*
X150050000Y-62875000D01*
G75*
G02*
X150000000Y-62925000I-50000J0D01*
G01*
X149500000Y-62925000D01*
G75*
G02*
X149450000Y-62875000I0J50000D01*
G01*
G37*
G36*
G01*
X148650000Y-62875000D02*
X148650000Y-60475000D01*
G75*
G02*
X148700000Y-60425000I50000J0D01*
G01*
X149200000Y-60425000D01*
G75*
G02*
X149250000Y-60475000I0J-50000D01*
G01*
X149250000Y-62875000D01*
G75*
G02*
X149200000Y-62925000I-50000J0D01*
G01*
X148700000Y-62925000D01*
G75*
G02*
X148650000Y-62875000I0J50000D01*
G01*
G37*
G36*
G01*
X147850000Y-62875000D02*
X147850000Y-60475000D01*
G75*
G02*
X147900000Y-60425000I50000J0D01*
G01*
X148400000Y-60425000D01*
G75*
G02*
X148450000Y-60475000I0J-50000D01*
G01*
X148450000Y-62875000D01*
G75*
G02*
X148400000Y-62925000I-50000J0D01*
G01*
X147900000Y-62925000D01*
G75*
G02*
X147850000Y-62875000I0J50000D01*
G01*
G37*
G36*
G01*
X147050000Y-62875000D02*
X147050000Y-60475000D01*
G75*
G02*
X147100000Y-60425000I50000J0D01*
G01*
X147600000Y-60425000D01*
G75*
G02*
X147650000Y-60475000I0J-50000D01*
G01*
X147650000Y-62875000D01*
G75*
G02*
X147600000Y-62925000I-50000J0D01*
G01*
X147100000Y-62925000D01*
G75*
G02*
X147050000Y-62875000I0J50000D01*
G01*
G37*
G36*
G01*
X146250000Y-62875000D02*
X146250000Y-60475000D01*
G75*
G02*
X146300000Y-60425000I50000J0D01*
G01*
X146800000Y-60425000D01*
G75*
G02*
X146850000Y-60475000I0J-50000D01*
G01*
X146850000Y-62875000D01*
G75*
G02*
X146800000Y-62925000I-50000J0D01*
G01*
X146300000Y-62925000D01*
G75*
G02*
X146250000Y-62875000I0J50000D01*
G01*
G37*
G36*
G01*
X145450000Y-62875000D02*
X145450000Y-60475000D01*
G75*
G02*
X145500000Y-60425000I50000J0D01*
G01*
X146000000Y-60425000D01*
G75*
G02*
X146050000Y-60475000I0J-50000D01*
G01*
X146050000Y-62875000D01*
G75*
G02*
X146000000Y-62925000I-50000J0D01*
G01*
X145500000Y-62925000D01*
G75*
G02*
X145450000Y-62875000I0J50000D01*
G01*
G37*
G36*
G01*
X144650000Y-62875000D02*
X144650000Y-60475000D01*
G75*
G02*
X144700000Y-60425000I50000J0D01*
G01*
X145200000Y-60425000D01*
G75*
G02*
X145250000Y-60475000I0J-50000D01*
G01*
X145250000Y-62875000D01*
G75*
G02*
X145200000Y-62925000I-50000J0D01*
G01*
X144700000Y-62925000D01*
G75*
G02*
X144650000Y-62875000I0J50000D01*
G01*
G37*
G36*
G01*
X143850000Y-62875000D02*
X143850000Y-60475000D01*
G75*
G02*
X143900000Y-60425000I50000J0D01*
G01*
X144400000Y-60425000D01*
G75*
G02*
X144450000Y-60475000I0J-50000D01*
G01*
X144450000Y-62875000D01*
G75*
G02*
X144400000Y-62925000I-50000J0D01*
G01*
X143900000Y-62925000D01*
G75*
G02*
X143850000Y-62875000I0J50000D01*
G01*
G37*
G36*
G01*
X143050000Y-62875000D02*
X143050000Y-60475000D01*
G75*
G02*
X143100000Y-60425000I50000J0D01*
G01*
X143600000Y-60425000D01*
G75*
G02*
X143650000Y-60475000I0J-50000D01*
G01*
X143650000Y-62875000D01*
G75*
G02*
X143600000Y-62925000I-50000J0D01*
G01*
X143100000Y-62925000D01*
G75*
G02*
X143050000Y-62875000I0J50000D01*
G01*
G37*
G36*
G01*
X142250000Y-62875000D02*
X142250000Y-60475000D01*
G75*
G02*
X142300000Y-60425000I50000J0D01*
G01*
X142800000Y-60425000D01*
G75*
G02*
X142850000Y-60475000I0J-50000D01*
G01*
X142850000Y-62875000D01*
G75*
G02*
X142800000Y-62925000I-50000J0D01*
G01*
X142300000Y-62925000D01*
G75*
G02*
X142250000Y-62875000I0J50000D01*
G01*
G37*
G36*
G01*
X141450000Y-62875000D02*
X141450000Y-60475000D01*
G75*
G02*
X141500000Y-60425000I50000J0D01*
G01*
X142000000Y-60425000D01*
G75*
G02*
X142050000Y-60475000I0J-50000D01*
G01*
X142050000Y-62875000D01*
G75*
G02*
X142000000Y-62925000I-50000J0D01*
G01*
X141500000Y-62925000D01*
G75*
G02*
X141450000Y-62875000I0J50000D01*
G01*
G37*
G36*
G01*
X140650000Y-62875000D02*
X140650000Y-60475000D01*
G75*
G02*
X140700000Y-60425000I50000J0D01*
G01*
X141200000Y-60425000D01*
G75*
G02*
X141250000Y-60475000I0J-50000D01*
G01*
X141250000Y-62875000D01*
G75*
G02*
X141200000Y-62925000I-50000J0D01*
G01*
X140700000Y-62925000D01*
G75*
G02*
X140650000Y-62875000I0J50000D01*
G01*
G37*
G36*
G01*
X139850000Y-62875000D02*
X139850000Y-60475000D01*
G75*
G02*
X139900000Y-60425000I50000J0D01*
G01*
X140400000Y-60425000D01*
G75*
G02*
X140450000Y-60475000I0J-50000D01*
G01*
X140450000Y-62875000D01*
G75*
G02*
X140400000Y-62925000I-50000J0D01*
G01*
X139900000Y-62925000D01*
G75*
G02*
X139850000Y-62875000I0J50000D01*
G01*
G37*
G36*
G01*
X139050000Y-62875000D02*
X139050000Y-60475000D01*
G75*
G02*
X139100000Y-60425000I50000J0D01*
G01*
X139600000Y-60425000D01*
G75*
G02*
X139650000Y-60475000I0J-50000D01*
G01*
X139650000Y-62875000D01*
G75*
G02*
X139600000Y-62925000I-50000J0D01*
G01*
X139100000Y-62925000D01*
G75*
G02*
X139050000Y-62875000I0J50000D01*
G01*
G37*
G36*
G01*
X138250000Y-62875000D02*
X138250000Y-60475000D01*
G75*
G02*
X138300000Y-60425000I50000J0D01*
G01*
X138800000Y-60425000D01*
G75*
G02*
X138850000Y-60475000I0J-50000D01*
G01*
X138850000Y-62875000D01*
G75*
G02*
X138800000Y-62925000I-50000J0D01*
G01*
X138300000Y-62925000D01*
G75*
G02*
X138250000Y-62875000I0J50000D01*
G01*
G37*
G36*
G01*
X137450000Y-62875000D02*
X137450000Y-60475000D01*
G75*
G02*
X137500000Y-60425000I50000J0D01*
G01*
X138000000Y-60425000D01*
G75*
G02*
X138050000Y-60475000I0J-50000D01*
G01*
X138050000Y-62875000D01*
G75*
G02*
X138000000Y-62925000I-50000J0D01*
G01*
X137500000Y-62925000D01*
G75*
G02*
X137450000Y-62875000I0J50000D01*
G01*
G37*
G36*
G01*
X136650000Y-62875000D02*
X136650000Y-60475000D01*
G75*
G02*
X136700000Y-60425000I50000J0D01*
G01*
X137200000Y-60425000D01*
G75*
G02*
X137250000Y-60475000I0J-50000D01*
G01*
X137250000Y-62875000D01*
G75*
G02*
X137200000Y-62925000I-50000J0D01*
G01*
X136700000Y-62925000D01*
G75*
G02*
X136650000Y-62875000I0J50000D01*
G01*
G37*
G36*
G01*
X135850000Y-62875000D02*
X135850000Y-60475000D01*
G75*
G02*
X135900000Y-60425000I50000J0D01*
G01*
X136400000Y-60425000D01*
G75*
G02*
X136450000Y-60475000I0J-50000D01*
G01*
X136450000Y-62875000D01*
G75*
G02*
X136400000Y-62925000I-50000J0D01*
G01*
X135900000Y-62925000D01*
G75*
G02*
X135850000Y-62875000I0J50000D01*
G01*
G37*
G36*
G01*
X183050000Y-58075000D02*
X183050000Y-55675000D01*
G75*
G02*
X183100000Y-55625000I50000J0D01*
G01*
X183600000Y-55625000D01*
G75*
G02*
X183650000Y-55675000I0J-50000D01*
G01*
X183650000Y-58075000D01*
G75*
G02*
X183600000Y-58125000I-50000J0D01*
G01*
X183100000Y-58125000D01*
G75*
G02*
X183050000Y-58075000I0J50000D01*
G01*
G37*
G36*
G01*
X182250000Y-58075000D02*
X182250000Y-55675000D01*
G75*
G02*
X182300000Y-55625000I50000J0D01*
G01*
X182800000Y-55625000D01*
G75*
G02*
X182850000Y-55675000I0J-50000D01*
G01*
X182850000Y-58075000D01*
G75*
G02*
X182800000Y-58125000I-50000J0D01*
G01*
X182300000Y-58125000D01*
G75*
G02*
X182250000Y-58075000I0J50000D01*
G01*
G37*
G36*
G01*
X181450000Y-58075000D02*
X181450000Y-55675000D01*
G75*
G02*
X181500000Y-55625000I50000J0D01*
G01*
X182000000Y-55625000D01*
G75*
G02*
X182050000Y-55675000I0J-50000D01*
G01*
X182050000Y-58075000D01*
G75*
G02*
X182000000Y-58125000I-50000J0D01*
G01*
X181500000Y-58125000D01*
G75*
G02*
X181450000Y-58075000I0J50000D01*
G01*
G37*
G36*
G01*
X180650000Y-58075000D02*
X180650000Y-55675000D01*
G75*
G02*
X180700000Y-55625000I50000J0D01*
G01*
X181200000Y-55625000D01*
G75*
G02*
X181250000Y-55675000I0J-50000D01*
G01*
X181250000Y-58075000D01*
G75*
G02*
X181200000Y-58125000I-50000J0D01*
G01*
X180700000Y-58125000D01*
G75*
G02*
X180650000Y-58075000I0J50000D01*
G01*
G37*
G36*
G01*
X179850000Y-58075000D02*
X179850000Y-55675000D01*
G75*
G02*
X179900000Y-55625000I50000J0D01*
G01*
X180400000Y-55625000D01*
G75*
G02*
X180450000Y-55675000I0J-50000D01*
G01*
X180450000Y-58075000D01*
G75*
G02*
X180400000Y-58125000I-50000J0D01*
G01*
X179900000Y-58125000D01*
G75*
G02*
X179850000Y-58075000I0J50000D01*
G01*
G37*
G36*
G01*
X179050000Y-58075000D02*
X179050000Y-55675000D01*
G75*
G02*
X179100000Y-55625000I50000J0D01*
G01*
X179600000Y-55625000D01*
G75*
G02*
X179650000Y-55675000I0J-50000D01*
G01*
X179650000Y-58075000D01*
G75*
G02*
X179600000Y-58125000I-50000J0D01*
G01*
X179100000Y-58125000D01*
G75*
G02*
X179050000Y-58075000I0J50000D01*
G01*
G37*
G36*
G01*
X178250000Y-58075000D02*
X178250000Y-55675000D01*
G75*
G02*
X178300000Y-55625000I50000J0D01*
G01*
X178800000Y-55625000D01*
G75*
G02*
X178850000Y-55675000I0J-50000D01*
G01*
X178850000Y-58075000D01*
G75*
G02*
X178800000Y-58125000I-50000J0D01*
G01*
X178300000Y-58125000D01*
G75*
G02*
X178250000Y-58075000I0J50000D01*
G01*
G37*
G36*
G01*
X177450000Y-58075000D02*
X177450000Y-55675000D01*
G75*
G02*
X177500000Y-55625000I50000J0D01*
G01*
X178000000Y-55625000D01*
G75*
G02*
X178050000Y-55675000I0J-50000D01*
G01*
X178050000Y-58075000D01*
G75*
G02*
X178000000Y-58125000I-50000J0D01*
G01*
X177500000Y-58125000D01*
G75*
G02*
X177450000Y-58075000I0J50000D01*
G01*
G37*
G36*
G01*
X176650000Y-58075000D02*
X176650000Y-55675000D01*
G75*
G02*
X176700000Y-55625000I50000J0D01*
G01*
X177200000Y-55625000D01*
G75*
G02*
X177250000Y-55675000I0J-50000D01*
G01*
X177250000Y-58075000D01*
G75*
G02*
X177200000Y-58125000I-50000J0D01*
G01*
X176700000Y-58125000D01*
G75*
G02*
X176650000Y-58075000I0J50000D01*
G01*
G37*
G36*
G01*
X175850000Y-58075000D02*
X175850000Y-55675000D01*
G75*
G02*
X175900000Y-55625000I50000J0D01*
G01*
X176400000Y-55625000D01*
G75*
G02*
X176450000Y-55675000I0J-50000D01*
G01*
X176450000Y-58075000D01*
G75*
G02*
X176400000Y-58125000I-50000J0D01*
G01*
X175900000Y-58125000D01*
G75*
G02*
X175850000Y-58075000I0J50000D01*
G01*
G37*
G36*
G01*
X175050000Y-58075000D02*
X175050000Y-55675000D01*
G75*
G02*
X175100000Y-55625000I50000J0D01*
G01*
X175600000Y-55625000D01*
G75*
G02*
X175650000Y-55675000I0J-50000D01*
G01*
X175650000Y-58075000D01*
G75*
G02*
X175600000Y-58125000I-50000J0D01*
G01*
X175100000Y-58125000D01*
G75*
G02*
X175050000Y-58075000I0J50000D01*
G01*
G37*
G36*
G01*
X174250000Y-58075000D02*
X174250000Y-55675000D01*
G75*
G02*
X174300000Y-55625000I50000J0D01*
G01*
X174800000Y-55625000D01*
G75*
G02*
X174850000Y-55675000I0J-50000D01*
G01*
X174850000Y-58075000D01*
G75*
G02*
X174800000Y-58125000I-50000J0D01*
G01*
X174300000Y-58125000D01*
G75*
G02*
X174250000Y-58075000I0J50000D01*
G01*
G37*
G36*
G01*
X173450000Y-58075000D02*
X173450000Y-55675000D01*
G75*
G02*
X173500000Y-55625000I50000J0D01*
G01*
X174000000Y-55625000D01*
G75*
G02*
X174050000Y-55675000I0J-50000D01*
G01*
X174050000Y-58075000D01*
G75*
G02*
X174000000Y-58125000I-50000J0D01*
G01*
X173500000Y-58125000D01*
G75*
G02*
X173450000Y-58075000I0J50000D01*
G01*
G37*
G36*
G01*
X172650000Y-58075000D02*
X172650000Y-55675000D01*
G75*
G02*
X172700000Y-55625000I50000J0D01*
G01*
X173200000Y-55625000D01*
G75*
G02*
X173250000Y-55675000I0J-50000D01*
G01*
X173250000Y-58075000D01*
G75*
G02*
X173200000Y-58125000I-50000J0D01*
G01*
X172700000Y-58125000D01*
G75*
G02*
X172650000Y-58075000I0J50000D01*
G01*
G37*
G36*
G01*
X171850000Y-58075000D02*
X171850000Y-55675000D01*
G75*
G02*
X171900000Y-55625000I50000J0D01*
G01*
X172400000Y-55625000D01*
G75*
G02*
X172450000Y-55675000I0J-50000D01*
G01*
X172450000Y-58075000D01*
G75*
G02*
X172400000Y-58125000I-50000J0D01*
G01*
X171900000Y-58125000D01*
G75*
G02*
X171850000Y-58075000I0J50000D01*
G01*
G37*
G36*
G01*
X171050000Y-58075000D02*
X171050000Y-55675000D01*
G75*
G02*
X171100000Y-55625000I50000J0D01*
G01*
X171600000Y-55625000D01*
G75*
G02*
X171650000Y-55675000I0J-50000D01*
G01*
X171650000Y-58075000D01*
G75*
G02*
X171600000Y-58125000I-50000J0D01*
G01*
X171100000Y-58125000D01*
G75*
G02*
X171050000Y-58075000I0J50000D01*
G01*
G37*
G36*
G01*
X170250000Y-58075000D02*
X170250000Y-55675000D01*
G75*
G02*
X170300000Y-55625000I50000J0D01*
G01*
X170800000Y-55625000D01*
G75*
G02*
X170850000Y-55675000I0J-50000D01*
G01*
X170850000Y-58075000D01*
G75*
G02*
X170800000Y-58125000I-50000J0D01*
G01*
X170300000Y-58125000D01*
G75*
G02*
X170250000Y-58075000I0J50000D01*
G01*
G37*
G36*
G01*
X169450000Y-58075000D02*
X169450000Y-55675000D01*
G75*
G02*
X169500000Y-55625000I50000J0D01*
G01*
X170000000Y-55625000D01*
G75*
G02*
X170050000Y-55675000I0J-50000D01*
G01*
X170050000Y-58075000D01*
G75*
G02*
X170000000Y-58125000I-50000J0D01*
G01*
X169500000Y-58125000D01*
G75*
G02*
X169450000Y-58075000I0J50000D01*
G01*
G37*
G36*
G01*
X168650000Y-58075000D02*
X168650000Y-55675000D01*
G75*
G02*
X168700000Y-55625000I50000J0D01*
G01*
X169200000Y-55625000D01*
G75*
G02*
X169250000Y-55675000I0J-50000D01*
G01*
X169250000Y-58075000D01*
G75*
G02*
X169200000Y-58125000I-50000J0D01*
G01*
X168700000Y-58125000D01*
G75*
G02*
X168650000Y-58075000I0J50000D01*
G01*
G37*
G36*
G01*
X167850000Y-58075000D02*
X167850000Y-55675000D01*
G75*
G02*
X167900000Y-55625000I50000J0D01*
G01*
X168400000Y-55625000D01*
G75*
G02*
X168450000Y-55675000I0J-50000D01*
G01*
X168450000Y-58075000D01*
G75*
G02*
X168400000Y-58125000I-50000J0D01*
G01*
X167900000Y-58125000D01*
G75*
G02*
X167850000Y-58075000I0J50000D01*
G01*
G37*
G36*
G01*
X167050000Y-58075000D02*
X167050000Y-55675000D01*
G75*
G02*
X167100000Y-55625000I50000J0D01*
G01*
X167600000Y-55625000D01*
G75*
G02*
X167650000Y-55675000I0J-50000D01*
G01*
X167650000Y-58075000D01*
G75*
G02*
X167600000Y-58125000I-50000J0D01*
G01*
X167100000Y-58125000D01*
G75*
G02*
X167050000Y-58075000I0J50000D01*
G01*
G37*
G36*
G01*
X166250000Y-58075000D02*
X166250000Y-55675000D01*
G75*
G02*
X166300000Y-55625000I50000J0D01*
G01*
X166800000Y-55625000D01*
G75*
G02*
X166850000Y-55675000I0J-50000D01*
G01*
X166850000Y-58075000D01*
G75*
G02*
X166800000Y-58125000I-50000J0D01*
G01*
X166300000Y-58125000D01*
G75*
G02*
X166250000Y-58075000I0J50000D01*
G01*
G37*
G36*
G01*
X165450000Y-58075000D02*
X165450000Y-55675000D01*
G75*
G02*
X165500000Y-55625000I50000J0D01*
G01*
X166000000Y-55625000D01*
G75*
G02*
X166050000Y-55675000I0J-50000D01*
G01*
X166050000Y-58075000D01*
G75*
G02*
X166000000Y-58125000I-50000J0D01*
G01*
X165500000Y-58125000D01*
G75*
G02*
X165450000Y-58075000I0J50000D01*
G01*
G37*
G36*
G01*
X164650000Y-58075000D02*
X164650000Y-55675000D01*
G75*
G02*
X164700000Y-55625000I50000J0D01*
G01*
X165200000Y-55625000D01*
G75*
G02*
X165250000Y-55675000I0J-50000D01*
G01*
X165250000Y-58075000D01*
G75*
G02*
X165200000Y-58125000I-50000J0D01*
G01*
X164700000Y-58125000D01*
G75*
G02*
X164650000Y-58075000I0J50000D01*
G01*
G37*
G36*
G01*
X163850000Y-58075000D02*
X163850000Y-55675000D01*
G75*
G02*
X163900000Y-55625000I50000J0D01*
G01*
X164400000Y-55625000D01*
G75*
G02*
X164450000Y-55675000I0J-50000D01*
G01*
X164450000Y-58075000D01*
G75*
G02*
X164400000Y-58125000I-50000J0D01*
G01*
X163900000Y-58125000D01*
G75*
G02*
X163850000Y-58075000I0J50000D01*
G01*
G37*
G36*
G01*
X163050000Y-58075000D02*
X163050000Y-55675000D01*
G75*
G02*
X163100000Y-55625000I50000J0D01*
G01*
X163600000Y-55625000D01*
G75*
G02*
X163650000Y-55675000I0J-50000D01*
G01*
X163650000Y-58075000D01*
G75*
G02*
X163600000Y-58125000I-50000J0D01*
G01*
X163100000Y-58125000D01*
G75*
G02*
X163050000Y-58075000I0J50000D01*
G01*
G37*
G36*
G01*
X162250000Y-58075000D02*
X162250000Y-55675000D01*
G75*
G02*
X162300000Y-55625000I50000J0D01*
G01*
X162800000Y-55625000D01*
G75*
G02*
X162850000Y-55675000I0J-50000D01*
G01*
X162850000Y-58075000D01*
G75*
G02*
X162800000Y-58125000I-50000J0D01*
G01*
X162300000Y-58125000D01*
G75*
G02*
X162250000Y-58075000I0J50000D01*
G01*
G37*
G36*
G01*
X161450000Y-58075000D02*
X161450000Y-55675000D01*
G75*
G02*
X161500000Y-55625000I50000J0D01*
G01*
X162000000Y-55625000D01*
G75*
G02*
X162050000Y-55675000I0J-50000D01*
G01*
X162050000Y-58075000D01*
G75*
G02*
X162000000Y-58125000I-50000J0D01*
G01*
X161500000Y-58125000D01*
G75*
G02*
X161450000Y-58075000I0J50000D01*
G01*
G37*
G36*
G01*
X160650000Y-58075000D02*
X160650000Y-55675000D01*
G75*
G02*
X160700000Y-55625000I50000J0D01*
G01*
X161200000Y-55625000D01*
G75*
G02*
X161250000Y-55675000I0J-50000D01*
G01*
X161250000Y-58075000D01*
G75*
G02*
X161200000Y-58125000I-50000J0D01*
G01*
X160700000Y-58125000D01*
G75*
G02*
X160650000Y-58075000I0J50000D01*
G01*
G37*
G36*
G01*
X159850000Y-58075000D02*
X159850000Y-55675000D01*
G75*
G02*
X159900000Y-55625000I50000J0D01*
G01*
X160400000Y-55625000D01*
G75*
G02*
X160450000Y-55675000I0J-50000D01*
G01*
X160450000Y-58075000D01*
G75*
G02*
X160400000Y-58125000I-50000J0D01*
G01*
X159900000Y-58125000D01*
G75*
G02*
X159850000Y-58075000I0J50000D01*
G01*
G37*
G36*
G01*
X159050000Y-58075000D02*
X159050000Y-55675000D01*
G75*
G02*
X159100000Y-55625000I50000J0D01*
G01*
X159600000Y-55625000D01*
G75*
G02*
X159650000Y-55675000I0J-50000D01*
G01*
X159650000Y-58075000D01*
G75*
G02*
X159600000Y-58125000I-50000J0D01*
G01*
X159100000Y-58125000D01*
G75*
G02*
X159050000Y-58075000I0J50000D01*
G01*
G37*
G36*
G01*
X158250000Y-58075000D02*
X158250000Y-55675000D01*
G75*
G02*
X158300000Y-55625000I50000J0D01*
G01*
X158800000Y-55625000D01*
G75*
G02*
X158850000Y-55675000I0J-50000D01*
G01*
X158850000Y-58075000D01*
G75*
G02*
X158800000Y-58125000I-50000J0D01*
G01*
X158300000Y-58125000D01*
G75*
G02*
X158250000Y-58075000I0J50000D01*
G01*
G37*
G36*
G01*
X157450000Y-58075000D02*
X157450000Y-55675000D01*
G75*
G02*
X157500000Y-55625000I50000J0D01*
G01*
X158000000Y-55625000D01*
G75*
G02*
X158050000Y-55675000I0J-50000D01*
G01*
X158050000Y-58075000D01*
G75*
G02*
X158000000Y-58125000I-50000J0D01*
G01*
X157500000Y-58125000D01*
G75*
G02*
X157450000Y-58075000I0J50000D01*
G01*
G37*
G36*
G01*
X156650000Y-58075000D02*
X156650000Y-55675000D01*
G75*
G02*
X156700000Y-55625000I50000J0D01*
G01*
X157200000Y-55625000D01*
G75*
G02*
X157250000Y-55675000I0J-50000D01*
G01*
X157250000Y-58075000D01*
G75*
G02*
X157200000Y-58125000I-50000J0D01*
G01*
X156700000Y-58125000D01*
G75*
G02*
X156650000Y-58075000I0J50000D01*
G01*
G37*
G36*
G01*
X155850000Y-58075000D02*
X155850000Y-55675000D01*
G75*
G02*
X155900000Y-55625000I50000J0D01*
G01*
X156400000Y-55625000D01*
G75*
G02*
X156450000Y-55675000I0J-50000D01*
G01*
X156450000Y-58075000D01*
G75*
G02*
X156400000Y-58125000I-50000J0D01*
G01*
X155900000Y-58125000D01*
G75*
G02*
X155850000Y-58075000I0J50000D01*
G01*
G37*
G36*
G01*
X155050000Y-58075000D02*
X155050000Y-55675000D01*
G75*
G02*
X155100000Y-55625000I50000J0D01*
G01*
X155600000Y-55625000D01*
G75*
G02*
X155650000Y-55675000I0J-50000D01*
G01*
X155650000Y-58075000D01*
G75*
G02*
X155600000Y-58125000I-50000J0D01*
G01*
X155100000Y-58125000D01*
G75*
G02*
X155050000Y-58075000I0J50000D01*
G01*
G37*
G36*
G01*
X154250000Y-58075000D02*
X154250000Y-55675000D01*
G75*
G02*
X154300000Y-55625000I50000J0D01*
G01*
X154800000Y-55625000D01*
G75*
G02*
X154850000Y-55675000I0J-50000D01*
G01*
X154850000Y-58075000D01*
G75*
G02*
X154800000Y-58125000I-50000J0D01*
G01*
X154300000Y-58125000D01*
G75*
G02*
X154250000Y-58075000I0J50000D01*
G01*
G37*
G36*
G01*
X153450000Y-58075000D02*
X153450000Y-55675000D01*
G75*
G02*
X153500000Y-55625000I50000J0D01*
G01*
X154000000Y-55625000D01*
G75*
G02*
X154050000Y-55675000I0J-50000D01*
G01*
X154050000Y-58075000D01*
G75*
G02*
X154000000Y-58125000I-50000J0D01*
G01*
X153500000Y-58125000D01*
G75*
G02*
X153450000Y-58075000I0J50000D01*
G01*
G37*
G36*
G01*
X152650000Y-58075000D02*
X152650000Y-55675000D01*
G75*
G02*
X152700000Y-55625000I50000J0D01*
G01*
X153200000Y-55625000D01*
G75*
G02*
X153250000Y-55675000I0J-50000D01*
G01*
X153250000Y-58075000D01*
G75*
G02*
X153200000Y-58125000I-50000J0D01*
G01*
X152700000Y-58125000D01*
G75*
G02*
X152650000Y-58075000I0J50000D01*
G01*
G37*
G36*
G01*
X151850000Y-58075000D02*
X151850000Y-55675000D01*
G75*
G02*
X151900000Y-55625000I50000J0D01*
G01*
X152400000Y-55625000D01*
G75*
G02*
X152450000Y-55675000I0J-50000D01*
G01*
X152450000Y-58075000D01*
G75*
G02*
X152400000Y-58125000I-50000J0D01*
G01*
X151900000Y-58125000D01*
G75*
G02*
X151850000Y-58075000I0J50000D01*
G01*
G37*
G36*
G01*
X151050000Y-58075000D02*
X151050000Y-55675000D01*
G75*
G02*
X151100000Y-55625000I50000J0D01*
G01*
X151600000Y-55625000D01*
G75*
G02*
X151650000Y-55675000I0J-50000D01*
G01*
X151650000Y-58075000D01*
G75*
G02*
X151600000Y-58125000I-50000J0D01*
G01*
X151100000Y-58125000D01*
G75*
G02*
X151050000Y-58075000I0J50000D01*
G01*
G37*
G36*
G01*
X150250000Y-58075000D02*
X150250000Y-55675000D01*
G75*
G02*
X150300000Y-55625000I50000J0D01*
G01*
X150800000Y-55625000D01*
G75*
G02*
X150850000Y-55675000I0J-50000D01*
G01*
X150850000Y-58075000D01*
G75*
G02*
X150800000Y-58125000I-50000J0D01*
G01*
X150300000Y-58125000D01*
G75*
G02*
X150250000Y-58075000I0J50000D01*
G01*
G37*
G36*
G01*
X149450000Y-58075000D02*
X149450000Y-55675000D01*
G75*
G02*
X149500000Y-55625000I50000J0D01*
G01*
X150000000Y-55625000D01*
G75*
G02*
X150050000Y-55675000I0J-50000D01*
G01*
X150050000Y-58075000D01*
G75*
G02*
X150000000Y-58125000I-50000J0D01*
G01*
X149500000Y-58125000D01*
G75*
G02*
X149450000Y-58075000I0J50000D01*
G01*
G37*
G36*
G01*
X148650000Y-58075000D02*
X148650000Y-55675000D01*
G75*
G02*
X148700000Y-55625000I50000J0D01*
G01*
X149200000Y-55625000D01*
G75*
G02*
X149250000Y-55675000I0J-50000D01*
G01*
X149250000Y-58075000D01*
G75*
G02*
X149200000Y-58125000I-50000J0D01*
G01*
X148700000Y-58125000D01*
G75*
G02*
X148650000Y-58075000I0J50000D01*
G01*
G37*
G36*
G01*
X147850000Y-58075000D02*
X147850000Y-55675000D01*
G75*
G02*
X147900000Y-55625000I50000J0D01*
G01*
X148400000Y-55625000D01*
G75*
G02*
X148450000Y-55675000I0J-50000D01*
G01*
X148450000Y-58075000D01*
G75*
G02*
X148400000Y-58125000I-50000J0D01*
G01*
X147900000Y-58125000D01*
G75*
G02*
X147850000Y-58075000I0J50000D01*
G01*
G37*
G36*
G01*
X147050000Y-58075000D02*
X147050000Y-55675000D01*
G75*
G02*
X147100000Y-55625000I50000J0D01*
G01*
X147600000Y-55625000D01*
G75*
G02*
X147650000Y-55675000I0J-50000D01*
G01*
X147650000Y-58075000D01*
G75*
G02*
X147600000Y-58125000I-50000J0D01*
G01*
X147100000Y-58125000D01*
G75*
G02*
X147050000Y-58075000I0J50000D01*
G01*
G37*
G36*
G01*
X146250000Y-58075000D02*
X146250000Y-55675000D01*
G75*
G02*
X146300000Y-55625000I50000J0D01*
G01*
X146800000Y-55625000D01*
G75*
G02*
X146850000Y-55675000I0J-50000D01*
G01*
X146850000Y-58075000D01*
G75*
G02*
X146800000Y-58125000I-50000J0D01*
G01*
X146300000Y-58125000D01*
G75*
G02*
X146250000Y-58075000I0J50000D01*
G01*
G37*
G36*
G01*
X145450000Y-58075000D02*
X145450000Y-55675000D01*
G75*
G02*
X145500000Y-55625000I50000J0D01*
G01*
X146000000Y-55625000D01*
G75*
G02*
X146050000Y-55675000I0J-50000D01*
G01*
X146050000Y-58075000D01*
G75*
G02*
X146000000Y-58125000I-50000J0D01*
G01*
X145500000Y-58125000D01*
G75*
G02*
X145450000Y-58075000I0J50000D01*
G01*
G37*
G36*
G01*
X144650000Y-58075000D02*
X144650000Y-55675000D01*
G75*
G02*
X144700000Y-55625000I50000J0D01*
G01*
X145200000Y-55625000D01*
G75*
G02*
X145250000Y-55675000I0J-50000D01*
G01*
X145250000Y-58075000D01*
G75*
G02*
X145200000Y-58125000I-50000J0D01*
G01*
X144700000Y-58125000D01*
G75*
G02*
X144650000Y-58075000I0J50000D01*
G01*
G37*
G36*
G01*
X143850000Y-58075000D02*
X143850000Y-55675000D01*
G75*
G02*
X143900000Y-55625000I50000J0D01*
G01*
X144400000Y-55625000D01*
G75*
G02*
X144450000Y-55675000I0J-50000D01*
G01*
X144450000Y-58075000D01*
G75*
G02*
X144400000Y-58125000I-50000J0D01*
G01*
X143900000Y-58125000D01*
G75*
G02*
X143850000Y-58075000I0J50000D01*
G01*
G37*
G36*
G01*
X143050000Y-58075000D02*
X143050000Y-55675000D01*
G75*
G02*
X143100000Y-55625000I50000J0D01*
G01*
X143600000Y-55625000D01*
G75*
G02*
X143650000Y-55675000I0J-50000D01*
G01*
X143650000Y-58075000D01*
G75*
G02*
X143600000Y-58125000I-50000J0D01*
G01*
X143100000Y-58125000D01*
G75*
G02*
X143050000Y-58075000I0J50000D01*
G01*
G37*
G36*
G01*
X142250000Y-58075000D02*
X142250000Y-55675000D01*
G75*
G02*
X142300000Y-55625000I50000J0D01*
G01*
X142800000Y-55625000D01*
G75*
G02*
X142850000Y-55675000I0J-50000D01*
G01*
X142850000Y-58075000D01*
G75*
G02*
X142800000Y-58125000I-50000J0D01*
G01*
X142300000Y-58125000D01*
G75*
G02*
X142250000Y-58075000I0J50000D01*
G01*
G37*
G36*
G01*
X141450000Y-58075000D02*
X141450000Y-55675000D01*
G75*
G02*
X141500000Y-55625000I50000J0D01*
G01*
X142000000Y-55625000D01*
G75*
G02*
X142050000Y-55675000I0J-50000D01*
G01*
X142050000Y-58075000D01*
G75*
G02*
X142000000Y-58125000I-50000J0D01*
G01*
X141500000Y-58125000D01*
G75*
G02*
X141450000Y-58075000I0J50000D01*
G01*
G37*
G36*
G01*
X140650000Y-58075000D02*
X140650000Y-55675000D01*
G75*
G02*
X140700000Y-55625000I50000J0D01*
G01*
X141200000Y-55625000D01*
G75*
G02*
X141250000Y-55675000I0J-50000D01*
G01*
X141250000Y-58075000D01*
G75*
G02*
X141200000Y-58125000I-50000J0D01*
G01*
X140700000Y-58125000D01*
G75*
G02*
X140650000Y-58075000I0J50000D01*
G01*
G37*
G36*
G01*
X139850000Y-58075000D02*
X139850000Y-55675000D01*
G75*
G02*
X139900000Y-55625000I50000J0D01*
G01*
X140400000Y-55625000D01*
G75*
G02*
X140450000Y-55675000I0J-50000D01*
G01*
X140450000Y-58075000D01*
G75*
G02*
X140400000Y-58125000I-50000J0D01*
G01*
X139900000Y-58125000D01*
G75*
G02*
X139850000Y-58075000I0J50000D01*
G01*
G37*
G36*
G01*
X139050000Y-58075000D02*
X139050000Y-55675000D01*
G75*
G02*
X139100000Y-55625000I50000J0D01*
G01*
X139600000Y-55625000D01*
G75*
G02*
X139650000Y-55675000I0J-50000D01*
G01*
X139650000Y-58075000D01*
G75*
G02*
X139600000Y-58125000I-50000J0D01*
G01*
X139100000Y-58125000D01*
G75*
G02*
X139050000Y-58075000I0J50000D01*
G01*
G37*
G36*
G01*
X138250000Y-58075000D02*
X138250000Y-55675000D01*
G75*
G02*
X138300000Y-55625000I50000J0D01*
G01*
X138800000Y-55625000D01*
G75*
G02*
X138850000Y-55675000I0J-50000D01*
G01*
X138850000Y-58075000D01*
G75*
G02*
X138800000Y-58125000I-50000J0D01*
G01*
X138300000Y-58125000D01*
G75*
G02*
X138250000Y-58075000I0J50000D01*
G01*
G37*
G36*
G01*
X137450000Y-58075000D02*
X137450000Y-55675000D01*
G75*
G02*
X137500000Y-55625000I50000J0D01*
G01*
X138000000Y-55625000D01*
G75*
G02*
X138050000Y-55675000I0J-50000D01*
G01*
X138050000Y-58075000D01*
G75*
G02*
X138000000Y-58125000I-50000J0D01*
G01*
X137500000Y-58125000D01*
G75*
G02*
X137450000Y-58075000I0J50000D01*
G01*
G37*
G36*
G01*
X136650000Y-58075000D02*
X136650000Y-55675000D01*
G75*
G02*
X136700000Y-55625000I50000J0D01*
G01*
X137200000Y-55625000D01*
G75*
G02*
X137250000Y-55675000I0J-50000D01*
G01*
X137250000Y-58075000D01*
G75*
G02*
X137200000Y-58125000I-50000J0D01*
G01*
X136700000Y-58125000D01*
G75*
G02*
X136650000Y-58075000I0J50000D01*
G01*
G37*
X192250000Y-58475000D03*
G36*
G01*
X135850000Y-58075000D02*
X135850000Y-55675000D01*
G75*
G02*
X135900000Y-55625000I50000J0D01*
G01*
X136400000Y-55625000D01*
G75*
G02*
X136450000Y-55675000I0J-50000D01*
G01*
X136450000Y-58075000D01*
G75*
G02*
X136400000Y-58125000I-50000J0D01*
G01*
X135900000Y-58125000D01*
G75*
G02*
X135850000Y-58075000I0J50000D01*
G01*
G37*
D13*
X133650000Y-59275000D03*
D14*
X185850000Y-59275000D03*
D15*
X127250000Y-58475000D03*
G36*
G01*
X148785000Y-76790000D02*
X148785000Y-77160000D01*
G75*
G02*
X148600000Y-77345000I-185000J0D01*
G01*
X148155000Y-77345000D01*
G75*
G02*
X147970000Y-77160000I0J185000D01*
G01*
X147970000Y-76790000D01*
G75*
G02*
X148155000Y-76605000I185000J0D01*
G01*
X148600000Y-76605000D01*
G75*
G02*
X148785000Y-76790000I0J-185000D01*
G01*
G37*
G36*
G01*
X149980000Y-76790000D02*
X149980000Y-77160000D01*
G75*
G02*
X149795000Y-77345000I-185000J0D01*
G01*
X149350000Y-77345000D01*
G75*
G02*
X149165000Y-77160000I0J185000D01*
G01*
X149165000Y-76790000D01*
G75*
G02*
X149350000Y-76605000I185000J0D01*
G01*
X149795000Y-76605000D01*
G75*
G02*
X149980000Y-76790000I0J-185000D01*
G01*
G37*
G36*
G01*
X148782500Y-77790000D02*
X148782500Y-78160000D01*
G75*
G02*
X148597500Y-78345000I-185000J0D01*
G01*
X148152500Y-78345000D01*
G75*
G02*
X147967500Y-78160000I0J185000D01*
G01*
X147967500Y-77790000D01*
G75*
G02*
X148152500Y-77605000I185000J0D01*
G01*
X148597500Y-77605000D01*
G75*
G02*
X148782500Y-77790000I0J-185000D01*
G01*
G37*
G36*
G01*
X149977500Y-77790000D02*
X149977500Y-78160000D01*
G75*
G02*
X149792500Y-78345000I-185000J0D01*
G01*
X149347500Y-78345000D01*
G75*
G02*
X149162500Y-78160000I0J185000D01*
G01*
X149162500Y-77790000D01*
G75*
G02*
X149347500Y-77605000I185000J0D01*
G01*
X149792500Y-77605000D01*
G75*
G02*
X149977500Y-77790000I0J-185000D01*
G01*
G37*
G36*
G01*
X148760000Y-73065000D02*
X148760000Y-73435000D01*
G75*
G02*
X148575000Y-73620000I-185000J0D01*
G01*
X148130000Y-73620000D01*
G75*
G02*
X147945000Y-73435000I0J185000D01*
G01*
X147945000Y-73065000D01*
G75*
G02*
X148130000Y-72880000I185000J0D01*
G01*
X148575000Y-72880000D01*
G75*
G02*
X148760000Y-73065000I0J-185000D01*
G01*
G37*
G36*
G01*
X149955000Y-73065000D02*
X149955000Y-73435000D01*
G75*
G02*
X149770000Y-73620000I-185000J0D01*
G01*
X149325000Y-73620000D01*
G75*
G02*
X149140000Y-73435000I0J185000D01*
G01*
X149140000Y-73065000D01*
G75*
G02*
X149325000Y-72880000I185000J0D01*
G01*
X149770000Y-72880000D01*
G75*
G02*
X149955000Y-73065000I0J-185000D01*
G01*
G37*
G36*
G01*
X148760000Y-74065000D02*
X148760000Y-74435000D01*
G75*
G02*
X148575000Y-74620000I-185000J0D01*
G01*
X148130000Y-74620000D01*
G75*
G02*
X147945000Y-74435000I0J185000D01*
G01*
X147945000Y-74065000D01*
G75*
G02*
X148130000Y-73880000I185000J0D01*
G01*
X148575000Y-73880000D01*
G75*
G02*
X148760000Y-74065000I0J-185000D01*
G01*
G37*
G36*
G01*
X149955000Y-74065000D02*
X149955000Y-74435000D01*
G75*
G02*
X149770000Y-74620000I-185000J0D01*
G01*
X149325000Y-74620000D01*
G75*
G02*
X149140000Y-74435000I0J185000D01*
G01*
X149140000Y-74065000D01*
G75*
G02*
X149325000Y-73880000I185000J0D01*
G01*
X149770000Y-73880000D01*
G75*
G02*
X149955000Y-74065000I0J-185000D01*
G01*
G37*
G36*
G01*
X216250000Y-132700000D02*
X216250000Y-128400000D01*
G75*
G02*
X216300000Y-128350000I50000J0D01*
G01*
X217000000Y-128350000D01*
G75*
G02*
X217050000Y-128400000I0J-50000D01*
G01*
X217050000Y-132700000D01*
G75*
G02*
X217000000Y-132750000I-50000J0D01*
G01*
X216300000Y-132750000D01*
G75*
G02*
X216250000Y-132700000I0J50000D01*
G01*
G37*
G36*
G01*
X215250000Y-132700000D02*
X215250000Y-128400000D01*
G75*
G02*
X215300000Y-128350000I50000J0D01*
G01*
X216000000Y-128350000D01*
G75*
G02*
X216050000Y-128400000I0J-50000D01*
G01*
X216050000Y-132700000D01*
G75*
G02*
X216000000Y-132750000I-50000J0D01*
G01*
X215300000Y-132750000D01*
G75*
G02*
X215250000Y-132700000I0J50000D01*
G01*
G37*
G36*
G01*
X214250000Y-132700000D02*
X214250000Y-128400000D01*
G75*
G02*
X214300000Y-128350000I50000J0D01*
G01*
X215000000Y-128350000D01*
G75*
G02*
X215050000Y-128400000I0J-50000D01*
G01*
X215050000Y-132700000D01*
G75*
G02*
X215000000Y-132750000I-50000J0D01*
G01*
X214300000Y-132750000D01*
G75*
G02*
X214250000Y-132700000I0J50000D01*
G01*
G37*
G36*
G01*
X213250000Y-132700000D02*
X213250000Y-128400000D01*
G75*
G02*
X213300000Y-128350000I50000J0D01*
G01*
X214000000Y-128350000D01*
G75*
G02*
X214050000Y-128400000I0J-50000D01*
G01*
X214050000Y-132700000D01*
G75*
G02*
X214000000Y-132750000I-50000J0D01*
G01*
X213300000Y-132750000D01*
G75*
G02*
X213250000Y-132700000I0J50000D01*
G01*
G37*
G36*
G01*
X212250000Y-132700000D02*
X212250000Y-128400000D01*
G75*
G02*
X212300000Y-128350000I50000J0D01*
G01*
X213000000Y-128350000D01*
G75*
G02*
X213050000Y-128400000I0J-50000D01*
G01*
X213050000Y-132700000D01*
G75*
G02*
X213000000Y-132750000I-50000J0D01*
G01*
X212300000Y-132750000D01*
G75*
G02*
X212250000Y-132700000I0J50000D01*
G01*
G37*
G36*
G01*
X211250000Y-132700000D02*
X211250000Y-128400000D01*
G75*
G02*
X211300000Y-128350000I50000J0D01*
G01*
X212000000Y-128350000D01*
G75*
G02*
X212050000Y-128400000I0J-50000D01*
G01*
X212050000Y-132700000D01*
G75*
G02*
X212000000Y-132750000I-50000J0D01*
G01*
X211300000Y-132750000D01*
G75*
G02*
X211250000Y-132700000I0J50000D01*
G01*
G37*
G36*
G01*
X210250000Y-132700000D02*
X210250000Y-128400000D01*
G75*
G02*
X210300000Y-128350000I50000J0D01*
G01*
X211000000Y-128350000D01*
G75*
G02*
X211050000Y-128400000I0J-50000D01*
G01*
X211050000Y-132700000D01*
G75*
G02*
X211000000Y-132750000I-50000J0D01*
G01*
X210300000Y-132750000D01*
G75*
G02*
X210250000Y-132700000I0J50000D01*
G01*
G37*
G36*
G01*
X209250000Y-132700000D02*
X209250000Y-128400000D01*
G75*
G02*
X209300000Y-128350000I50000J0D01*
G01*
X210000000Y-128350000D01*
G75*
G02*
X210050000Y-128400000I0J-50000D01*
G01*
X210050000Y-132700000D01*
G75*
G02*
X210000000Y-132750000I-50000J0D01*
G01*
X209300000Y-132750000D01*
G75*
G02*
X209250000Y-132700000I0J50000D01*
G01*
G37*
G36*
G01*
X208250000Y-132700000D02*
X208250000Y-128400000D01*
G75*
G02*
X208300000Y-128350000I50000J0D01*
G01*
X209000000Y-128350000D01*
G75*
G02*
X209050000Y-128400000I0J-50000D01*
G01*
X209050000Y-132700000D01*
G75*
G02*
X209000000Y-132750000I-50000J0D01*
G01*
X208300000Y-132750000D01*
G75*
G02*
X208250000Y-132700000I0J50000D01*
G01*
G37*
G36*
G01*
X207250000Y-132700000D02*
X207250000Y-128400000D01*
G75*
G02*
X207300000Y-128350000I50000J0D01*
G01*
X208000000Y-128350000D01*
G75*
G02*
X208050000Y-128400000I0J-50000D01*
G01*
X208050000Y-132700000D01*
G75*
G02*
X208000000Y-132750000I-50000J0D01*
G01*
X207300000Y-132750000D01*
G75*
G02*
X207250000Y-132700000I0J50000D01*
G01*
G37*
G36*
G01*
X206250000Y-132700000D02*
X206250000Y-128400000D01*
G75*
G02*
X206300000Y-128350000I50000J0D01*
G01*
X207000000Y-128350000D01*
G75*
G02*
X207050000Y-128400000I0J-50000D01*
G01*
X207050000Y-132700000D01*
G75*
G02*
X207000000Y-132750000I-50000J0D01*
G01*
X206300000Y-132750000D01*
G75*
G02*
X206250000Y-132700000I0J50000D01*
G01*
G37*
G36*
G01*
X205250000Y-132700000D02*
X205250000Y-128400000D01*
G75*
G02*
X205300000Y-128350000I50000J0D01*
G01*
X206000000Y-128350000D01*
G75*
G02*
X206050000Y-128400000I0J-50000D01*
G01*
X206050000Y-132700000D01*
G75*
G02*
X206000000Y-132750000I-50000J0D01*
G01*
X205300000Y-132750000D01*
G75*
G02*
X205250000Y-132700000I0J50000D01*
G01*
G37*
G36*
G01*
X204250000Y-132700000D02*
X204250000Y-128400000D01*
G75*
G02*
X204300000Y-128350000I50000J0D01*
G01*
X205000000Y-128350000D01*
G75*
G02*
X205050000Y-128400000I0J-50000D01*
G01*
X205050000Y-132700000D01*
G75*
G02*
X205000000Y-132750000I-50000J0D01*
G01*
X204300000Y-132750000D01*
G75*
G02*
X204250000Y-132700000I0J50000D01*
G01*
G37*
G36*
G01*
X203250000Y-132700000D02*
X203250000Y-128400000D01*
G75*
G02*
X203300000Y-128350000I50000J0D01*
G01*
X204000000Y-128350000D01*
G75*
G02*
X204050000Y-128400000I0J-50000D01*
G01*
X204050000Y-132700000D01*
G75*
G02*
X204000000Y-132750000I-50000J0D01*
G01*
X203300000Y-132750000D01*
G75*
G02*
X203250000Y-132700000I0J50000D01*
G01*
G37*
G36*
G01*
X202250000Y-132700000D02*
X202250000Y-128400000D01*
G75*
G02*
X202300000Y-128350000I50000J0D01*
G01*
X203000000Y-128350000D01*
G75*
G02*
X203050000Y-128400000I0J-50000D01*
G01*
X203050000Y-132700000D01*
G75*
G02*
X203000000Y-132750000I-50000J0D01*
G01*
X202300000Y-132750000D01*
G75*
G02*
X202250000Y-132700000I0J50000D01*
G01*
G37*
G36*
G01*
X201250000Y-132700000D02*
X201250000Y-128400000D01*
G75*
G02*
X201300000Y-128350000I50000J0D01*
G01*
X202000000Y-128350000D01*
G75*
G02*
X202050000Y-128400000I0J-50000D01*
G01*
X202050000Y-132700000D01*
G75*
G02*
X202000000Y-132750000I-50000J0D01*
G01*
X201300000Y-132750000D01*
G75*
G02*
X201250000Y-132700000I0J50000D01*
G01*
G37*
G36*
G01*
X200250000Y-132700000D02*
X200250000Y-128400000D01*
G75*
G02*
X200300000Y-128350000I50000J0D01*
G01*
X201000000Y-128350000D01*
G75*
G02*
X201050000Y-128400000I0J-50000D01*
G01*
X201050000Y-132700000D01*
G75*
G02*
X201000000Y-132750000I-50000J0D01*
G01*
X200300000Y-132750000D01*
G75*
G02*
X200250000Y-132700000I0J50000D01*
G01*
G37*
G36*
G01*
X199250000Y-132700000D02*
X199250000Y-128400000D01*
G75*
G02*
X199300000Y-128350000I50000J0D01*
G01*
X200000000Y-128350000D01*
G75*
G02*
X200050000Y-128400000I0J-50000D01*
G01*
X200050000Y-132700000D01*
G75*
G02*
X200000000Y-132750000I-50000J0D01*
G01*
X199300000Y-132750000D01*
G75*
G02*
X199250000Y-132700000I0J50000D01*
G01*
G37*
G36*
G01*
X198250000Y-132700000D02*
X198250000Y-128400000D01*
G75*
G02*
X198300000Y-128350000I50000J0D01*
G01*
X199000000Y-128350000D01*
G75*
G02*
X199050000Y-128400000I0J-50000D01*
G01*
X199050000Y-132700000D01*
G75*
G02*
X199000000Y-132750000I-50000J0D01*
G01*
X198300000Y-132750000D01*
G75*
G02*
X198250000Y-132700000I0J50000D01*
G01*
G37*
G36*
G01*
X197250000Y-132700000D02*
X197250000Y-128400000D01*
G75*
G02*
X197300000Y-128350000I50000J0D01*
G01*
X198000000Y-128350000D01*
G75*
G02*
X198050000Y-128400000I0J-50000D01*
G01*
X198050000Y-132700000D01*
G75*
G02*
X198000000Y-132750000I-50000J0D01*
G01*
X197300000Y-132750000D01*
G75*
G02*
X197250000Y-132700000I0J50000D01*
G01*
G37*
G36*
G01*
X196250000Y-132700000D02*
X196250000Y-128400000D01*
G75*
G02*
X196300000Y-128350000I50000J0D01*
G01*
X197000000Y-128350000D01*
G75*
G02*
X197050000Y-128400000I0J-50000D01*
G01*
X197050000Y-132700000D01*
G75*
G02*
X197000000Y-132750000I-50000J0D01*
G01*
X196300000Y-132750000D01*
G75*
G02*
X196250000Y-132700000I0J50000D01*
G01*
G37*
G36*
G01*
X195250000Y-132700000D02*
X195250000Y-128400000D01*
G75*
G02*
X195300000Y-128350000I50000J0D01*
G01*
X196000000Y-128350000D01*
G75*
G02*
X196050000Y-128400000I0J-50000D01*
G01*
X196050000Y-132700000D01*
G75*
G02*
X196000000Y-132750000I-50000J0D01*
G01*
X195300000Y-132750000D01*
G75*
G02*
X195250000Y-132700000I0J50000D01*
G01*
G37*
G36*
G01*
X194250000Y-132700000D02*
X194250000Y-128400000D01*
G75*
G02*
X194300000Y-128350000I50000J0D01*
G01*
X195000000Y-128350000D01*
G75*
G02*
X195050000Y-128400000I0J-50000D01*
G01*
X195050000Y-132700000D01*
G75*
G02*
X195000000Y-132750000I-50000J0D01*
G01*
X194300000Y-132750000D01*
G75*
G02*
X194250000Y-132700000I0J50000D01*
G01*
G37*
G36*
G01*
X193250000Y-132700000D02*
X193250000Y-128400000D01*
G75*
G02*
X193300000Y-128350000I50000J0D01*
G01*
X194000000Y-128350000D01*
G75*
G02*
X194050000Y-128400000I0J-50000D01*
G01*
X194050000Y-132700000D01*
G75*
G02*
X194000000Y-132750000I-50000J0D01*
G01*
X193300000Y-132750000D01*
G75*
G02*
X193250000Y-132700000I0J50000D01*
G01*
G37*
G36*
G01*
X192250000Y-132700000D02*
X192250000Y-128400000D01*
G75*
G02*
X192300000Y-128350000I50000J0D01*
G01*
X193000000Y-128350000D01*
G75*
G02*
X193050000Y-128400000I0J-50000D01*
G01*
X193050000Y-132700000D01*
G75*
G02*
X193000000Y-132750000I-50000J0D01*
G01*
X192300000Y-132750000D01*
G75*
G02*
X192250000Y-132700000I0J50000D01*
G01*
G37*
G36*
G01*
X191250000Y-132700000D02*
X191250000Y-128400000D01*
G75*
G02*
X191300000Y-128350000I50000J0D01*
G01*
X192000000Y-128350000D01*
G75*
G02*
X192050000Y-128400000I0J-50000D01*
G01*
X192050000Y-132700000D01*
G75*
G02*
X192000000Y-132750000I-50000J0D01*
G01*
X191300000Y-132750000D01*
G75*
G02*
X191250000Y-132700000I0J50000D01*
G01*
G37*
G36*
G01*
X190250000Y-132700000D02*
X190250000Y-128400000D01*
G75*
G02*
X190300000Y-128350000I50000J0D01*
G01*
X191000000Y-128350000D01*
G75*
G02*
X191050000Y-128400000I0J-50000D01*
G01*
X191050000Y-132700000D01*
G75*
G02*
X191000000Y-132750000I-50000J0D01*
G01*
X190300000Y-132750000D01*
G75*
G02*
X190250000Y-132700000I0J50000D01*
G01*
G37*
G36*
G01*
X189250000Y-132700000D02*
X189250000Y-128400000D01*
G75*
G02*
X189300000Y-128350000I50000J0D01*
G01*
X190000000Y-128350000D01*
G75*
G02*
X190050000Y-128400000I0J-50000D01*
G01*
X190050000Y-132700000D01*
G75*
G02*
X190000000Y-132750000I-50000J0D01*
G01*
X189300000Y-132750000D01*
G75*
G02*
X189250000Y-132700000I0J50000D01*
G01*
G37*
G36*
G01*
X188250000Y-132700000D02*
X188250000Y-128400000D01*
G75*
G02*
X188300000Y-128350000I50000J0D01*
G01*
X189000000Y-128350000D01*
G75*
G02*
X189050000Y-128400000I0J-50000D01*
G01*
X189050000Y-132700000D01*
G75*
G02*
X189000000Y-132750000I-50000J0D01*
G01*
X188300000Y-132750000D01*
G75*
G02*
X188250000Y-132700000I0J50000D01*
G01*
G37*
G36*
G01*
X187250000Y-132700000D02*
X187250000Y-128400000D01*
G75*
G02*
X187300000Y-128350000I50000J0D01*
G01*
X188000000Y-128350000D01*
G75*
G02*
X188050000Y-128400000I0J-50000D01*
G01*
X188050000Y-132700000D01*
G75*
G02*
X188000000Y-132750000I-50000J0D01*
G01*
X187300000Y-132750000D01*
G75*
G02*
X187250000Y-132700000I0J50000D01*
G01*
G37*
G36*
G01*
X186250000Y-132700000D02*
X186250000Y-128400000D01*
G75*
G02*
X186300000Y-128350000I50000J0D01*
G01*
X187000000Y-128350000D01*
G75*
G02*
X187050000Y-128400000I0J-50000D01*
G01*
X187050000Y-132700000D01*
G75*
G02*
X187000000Y-132750000I-50000J0D01*
G01*
X186300000Y-132750000D01*
G75*
G02*
X186250000Y-132700000I0J50000D01*
G01*
G37*
G36*
G01*
X185250000Y-132700000D02*
X185250000Y-128400000D01*
G75*
G02*
X185300000Y-128350000I50000J0D01*
G01*
X186000000Y-128350000D01*
G75*
G02*
X186050000Y-128400000I0J-50000D01*
G01*
X186050000Y-132700000D01*
G75*
G02*
X186000000Y-132750000I-50000J0D01*
G01*
X185300000Y-132750000D01*
G75*
G02*
X185250000Y-132700000I0J50000D01*
G01*
G37*
G36*
G01*
X184250000Y-132700000D02*
X184250000Y-128400000D01*
G75*
G02*
X184300000Y-128350000I50000J0D01*
G01*
X185000000Y-128350000D01*
G75*
G02*
X185050000Y-128400000I0J-50000D01*
G01*
X185050000Y-132700000D01*
G75*
G02*
X185000000Y-132750000I-50000J0D01*
G01*
X184300000Y-132750000D01*
G75*
G02*
X184250000Y-132700000I0J50000D01*
G01*
G37*
G36*
G01*
X183250000Y-132700000D02*
X183250000Y-128400000D01*
G75*
G02*
X183300000Y-128350000I50000J0D01*
G01*
X184000000Y-128350000D01*
G75*
G02*
X184050000Y-128400000I0J-50000D01*
G01*
X184050000Y-132700000D01*
G75*
G02*
X184000000Y-132750000I-50000J0D01*
G01*
X183300000Y-132750000D01*
G75*
G02*
X183250000Y-132700000I0J50000D01*
G01*
G37*
G36*
G01*
X182250000Y-132700000D02*
X182250000Y-128400000D01*
G75*
G02*
X182300000Y-128350000I50000J0D01*
G01*
X183000000Y-128350000D01*
G75*
G02*
X183050000Y-128400000I0J-50000D01*
G01*
X183050000Y-132700000D01*
G75*
G02*
X183000000Y-132750000I-50000J0D01*
G01*
X182300000Y-132750000D01*
G75*
G02*
X182250000Y-132700000I0J50000D01*
G01*
G37*
G36*
G01*
X181250000Y-132700000D02*
X181250000Y-128400000D01*
G75*
G02*
X181300000Y-128350000I50000J0D01*
G01*
X182000000Y-128350000D01*
G75*
G02*
X182050000Y-128400000I0J-50000D01*
G01*
X182050000Y-132700000D01*
G75*
G02*
X182000000Y-132750000I-50000J0D01*
G01*
X181300000Y-132750000D01*
G75*
G02*
X181250000Y-132700000I0J50000D01*
G01*
G37*
G36*
G01*
X180250000Y-132700000D02*
X180250000Y-128400000D01*
G75*
G02*
X180300000Y-128350000I50000J0D01*
G01*
X181000000Y-128350000D01*
G75*
G02*
X181050000Y-128400000I0J-50000D01*
G01*
X181050000Y-132700000D01*
G75*
G02*
X181000000Y-132750000I-50000J0D01*
G01*
X180300000Y-132750000D01*
G75*
G02*
X180250000Y-132700000I0J50000D01*
G01*
G37*
G36*
G01*
X179250000Y-132700000D02*
X179250000Y-128400000D01*
G75*
G02*
X179300000Y-128350000I50000J0D01*
G01*
X180000000Y-128350000D01*
G75*
G02*
X180050000Y-128400000I0J-50000D01*
G01*
X180050000Y-132700000D01*
G75*
G02*
X180000000Y-132750000I-50000J0D01*
G01*
X179300000Y-132750000D01*
G75*
G02*
X179250000Y-132700000I0J50000D01*
G01*
G37*
G36*
G01*
X178250000Y-132700000D02*
X178250000Y-128400000D01*
G75*
G02*
X178300000Y-128350000I50000J0D01*
G01*
X179000000Y-128350000D01*
G75*
G02*
X179050000Y-128400000I0J-50000D01*
G01*
X179050000Y-132700000D01*
G75*
G02*
X179000000Y-132750000I-50000J0D01*
G01*
X178300000Y-132750000D01*
G75*
G02*
X178250000Y-132700000I0J50000D01*
G01*
G37*
G36*
G01*
X177250000Y-132700000D02*
X177250000Y-128400000D01*
G75*
G02*
X177300000Y-128350000I50000J0D01*
G01*
X178000000Y-128350000D01*
G75*
G02*
X178050000Y-128400000I0J-50000D01*
G01*
X178050000Y-132700000D01*
G75*
G02*
X178000000Y-132750000I-50000J0D01*
G01*
X177300000Y-132750000D01*
G75*
G02*
X177250000Y-132700000I0J50000D01*
G01*
G37*
G36*
G01*
X176250000Y-132700000D02*
X176250000Y-128400000D01*
G75*
G02*
X176300000Y-128350000I50000J0D01*
G01*
X177000000Y-128350000D01*
G75*
G02*
X177050000Y-128400000I0J-50000D01*
G01*
X177050000Y-132700000D01*
G75*
G02*
X177000000Y-132750000I-50000J0D01*
G01*
X176300000Y-132750000D01*
G75*
G02*
X176250000Y-132700000I0J50000D01*
G01*
G37*
G36*
G01*
X147250000Y-132700000D02*
X147250000Y-128400000D01*
G75*
G02*
X147300000Y-128350000I50000J0D01*
G01*
X148000000Y-128350000D01*
G75*
G02*
X148050000Y-128400000I0J-50000D01*
G01*
X148050000Y-132700000D01*
G75*
G02*
X148000000Y-132750000I-50000J0D01*
G01*
X147300000Y-132750000D01*
G75*
G02*
X147250000Y-132700000I0J50000D01*
G01*
G37*
G36*
G01*
X146250000Y-132700000D02*
X146250000Y-128400000D01*
G75*
G02*
X146300000Y-128350000I50000J0D01*
G01*
X147000000Y-128350000D01*
G75*
G02*
X147050000Y-128400000I0J-50000D01*
G01*
X147050000Y-132700000D01*
G75*
G02*
X147000000Y-132750000I-50000J0D01*
G01*
X146300000Y-132750000D01*
G75*
G02*
X146250000Y-132700000I0J50000D01*
G01*
G37*
G36*
G01*
X152250000Y-132700000D02*
X152250000Y-128400000D01*
G75*
G02*
X152300000Y-128350000I50000J0D01*
G01*
X153000000Y-128350000D01*
G75*
G02*
X153050000Y-128400000I0J-50000D01*
G01*
X153050000Y-132700000D01*
G75*
G02*
X153000000Y-132750000I-50000J0D01*
G01*
X152300000Y-132750000D01*
G75*
G02*
X152250000Y-132700000I0J50000D01*
G01*
G37*
G36*
G01*
X151250000Y-132700000D02*
X151250000Y-128400000D01*
G75*
G02*
X151300000Y-128350000I50000J0D01*
G01*
X152000000Y-128350000D01*
G75*
G02*
X152050000Y-128400000I0J-50000D01*
G01*
X152050000Y-132700000D01*
G75*
G02*
X152000000Y-132750000I-50000J0D01*
G01*
X151300000Y-132750000D01*
G75*
G02*
X151250000Y-132700000I0J50000D01*
G01*
G37*
G36*
G01*
X150250000Y-132700000D02*
X150250000Y-128400000D01*
G75*
G02*
X150300000Y-128350000I50000J0D01*
G01*
X151000000Y-128350000D01*
G75*
G02*
X151050000Y-128400000I0J-50000D01*
G01*
X151050000Y-132700000D01*
G75*
G02*
X151000000Y-132750000I-50000J0D01*
G01*
X150300000Y-132750000D01*
G75*
G02*
X150250000Y-132700000I0J50000D01*
G01*
G37*
G36*
G01*
X149250000Y-132700000D02*
X149250000Y-128400000D01*
G75*
G02*
X149300000Y-128350000I50000J0D01*
G01*
X150000000Y-128350000D01*
G75*
G02*
X150050000Y-128400000I0J-50000D01*
G01*
X150050000Y-132700000D01*
G75*
G02*
X150000000Y-132750000I-50000J0D01*
G01*
X149300000Y-132750000D01*
G75*
G02*
X149250000Y-132700000I0J50000D01*
G01*
G37*
G36*
G01*
X148250000Y-132700000D02*
X148250000Y-128400000D01*
G75*
G02*
X148300000Y-128350000I50000J0D01*
G01*
X149000000Y-128350000D01*
G75*
G02*
X149050000Y-128400000I0J-50000D01*
G01*
X149050000Y-132700000D01*
G75*
G02*
X149000000Y-132750000I-50000J0D01*
G01*
X148300000Y-132750000D01*
G75*
G02*
X148250000Y-132700000I0J50000D01*
G01*
G37*
G36*
G01*
X143250000Y-132700000D02*
X143250000Y-128400000D01*
G75*
G02*
X143300000Y-128350000I50000J0D01*
G01*
X144000000Y-128350000D01*
G75*
G02*
X144050000Y-128400000I0J-50000D01*
G01*
X144050000Y-132700000D01*
G75*
G02*
X144000000Y-132750000I-50000J0D01*
G01*
X143300000Y-132750000D01*
G75*
G02*
X143250000Y-132700000I0J50000D01*
G01*
G37*
G36*
G01*
X142250000Y-132700000D02*
X142250000Y-128400000D01*
G75*
G02*
X142300000Y-128350000I50000J0D01*
G01*
X143000000Y-128350000D01*
G75*
G02*
X143050000Y-128400000I0J-50000D01*
G01*
X143050000Y-132700000D01*
G75*
G02*
X143000000Y-132750000I-50000J0D01*
G01*
X142300000Y-132750000D01*
G75*
G02*
X142250000Y-132700000I0J50000D01*
G01*
G37*
G36*
G01*
X141250000Y-132700000D02*
X141250000Y-128400000D01*
G75*
G02*
X141300000Y-128350000I50000J0D01*
G01*
X142000000Y-128350000D01*
G75*
G02*
X142050000Y-128400000I0J-50000D01*
G01*
X142050000Y-132700000D01*
G75*
G02*
X142000000Y-132750000I-50000J0D01*
G01*
X141300000Y-132750000D01*
G75*
G02*
X141250000Y-132700000I0J50000D01*
G01*
G37*
G36*
G01*
X140250000Y-132700000D02*
X140250000Y-128400000D01*
G75*
G02*
X140300000Y-128350000I50000J0D01*
G01*
X141000000Y-128350000D01*
G75*
G02*
X141050000Y-128400000I0J-50000D01*
G01*
X141050000Y-132700000D01*
G75*
G02*
X141000000Y-132750000I-50000J0D01*
G01*
X140300000Y-132750000D01*
G75*
G02*
X140250000Y-132700000I0J50000D01*
G01*
G37*
G36*
G01*
X139250000Y-132700000D02*
X139250000Y-128400000D01*
G75*
G02*
X139300000Y-128350000I50000J0D01*
G01*
X140000000Y-128350000D01*
G75*
G02*
X140050000Y-128400000I0J-50000D01*
G01*
X140050000Y-132700000D01*
G75*
G02*
X140000000Y-132750000I-50000J0D01*
G01*
X139300000Y-132750000D01*
G75*
G02*
X139250000Y-132700000I0J50000D01*
G01*
G37*
G36*
G01*
X138250000Y-132700000D02*
X138250000Y-128400000D01*
G75*
G02*
X138300000Y-128350000I50000J0D01*
G01*
X139000000Y-128350000D01*
G75*
G02*
X139050000Y-128400000I0J-50000D01*
G01*
X139050000Y-132700000D01*
G75*
G02*
X139000000Y-132750000I-50000J0D01*
G01*
X138300000Y-132750000D01*
G75*
G02*
X138250000Y-132700000I0J50000D01*
G01*
G37*
G36*
G01*
X137250000Y-132700000D02*
X137250000Y-128400000D01*
G75*
G02*
X137300000Y-128350000I50000J0D01*
G01*
X138000000Y-128350000D01*
G75*
G02*
X138050000Y-128400000I0J-50000D01*
G01*
X138050000Y-132700000D01*
G75*
G02*
X138000000Y-132750000I-50000J0D01*
G01*
X137300000Y-132750000D01*
G75*
G02*
X137250000Y-132700000I0J50000D01*
G01*
G37*
G36*
G01*
X136250000Y-132700000D02*
X136250000Y-128400000D01*
G75*
G02*
X136300000Y-128350000I50000J0D01*
G01*
X137000000Y-128350000D01*
G75*
G02*
X137050000Y-128400000I0J-50000D01*
G01*
X137050000Y-132700000D01*
G75*
G02*
X137000000Y-132750000I-50000J0D01*
G01*
X136300000Y-132750000D01*
G75*
G02*
X136250000Y-132700000I0J50000D01*
G01*
G37*
G36*
G01*
X135250000Y-132700000D02*
X135250000Y-128400000D01*
G75*
G02*
X135300000Y-128350000I50000J0D01*
G01*
X136000000Y-128350000D01*
G75*
G02*
X136050000Y-128400000I0J-50000D01*
G01*
X136050000Y-132700000D01*
G75*
G02*
X136000000Y-132750000I-50000J0D01*
G01*
X135300000Y-132750000D01*
G75*
G02*
X135250000Y-132700000I0J50000D01*
G01*
G37*
G36*
G01*
X134250000Y-132700000D02*
X134250000Y-128400000D01*
G75*
G02*
X134300000Y-128350000I50000J0D01*
G01*
X135000000Y-128350000D01*
G75*
G02*
X135050000Y-128400000I0J-50000D01*
G01*
X135050000Y-132700000D01*
G75*
G02*
X135000000Y-132750000I-50000J0D01*
G01*
X134300000Y-132750000D01*
G75*
G02*
X134250000Y-132700000I0J50000D01*
G01*
G37*
G36*
G01*
X133250000Y-131600000D02*
X133250000Y-128400000D01*
G75*
G02*
X133300000Y-128350000I50000J0D01*
G01*
X134000000Y-128350000D01*
G75*
G02*
X134050000Y-128400000I0J-50000D01*
G01*
X134050000Y-131600000D01*
G75*
G02*
X134000000Y-131650000I-50000J0D01*
G01*
X133300000Y-131650000D01*
G75*
G02*
X133250000Y-131600000I0J50000D01*
G01*
G37*
G36*
G01*
X153250000Y-132700000D02*
X153250000Y-128400000D01*
G75*
G02*
X153300000Y-128350000I50000J0D01*
G01*
X154000000Y-128350000D01*
G75*
G02*
X154050000Y-128400000I0J-50000D01*
G01*
X154050000Y-132700000D01*
G75*
G02*
X154000000Y-132750000I-50000J0D01*
G01*
X153300000Y-132750000D01*
G75*
G02*
X153250000Y-132700000I0J50000D01*
G01*
G37*
G36*
G01*
X154250000Y-132700000D02*
X154250000Y-128400000D01*
G75*
G02*
X154300000Y-128350000I50000J0D01*
G01*
X155000000Y-128350000D01*
G75*
G02*
X155050000Y-128400000I0J-50000D01*
G01*
X155050000Y-132700000D01*
G75*
G02*
X155000000Y-132750000I-50000J0D01*
G01*
X154300000Y-132750000D01*
G75*
G02*
X154250000Y-132700000I0J50000D01*
G01*
G37*
G36*
G01*
X155250000Y-132700000D02*
X155250000Y-128400000D01*
G75*
G02*
X155300000Y-128350000I50000J0D01*
G01*
X156000000Y-128350000D01*
G75*
G02*
X156050000Y-128400000I0J-50000D01*
G01*
X156050000Y-132700000D01*
G75*
G02*
X156000000Y-132750000I-50000J0D01*
G01*
X155300000Y-132750000D01*
G75*
G02*
X155250000Y-132700000I0J50000D01*
G01*
G37*
G36*
G01*
X156250000Y-132700000D02*
X156250000Y-128400000D01*
G75*
G02*
X156300000Y-128350000I50000J0D01*
G01*
X157000000Y-128350000D01*
G75*
G02*
X157050000Y-128400000I0J-50000D01*
G01*
X157050000Y-132700000D01*
G75*
G02*
X157000000Y-132750000I-50000J0D01*
G01*
X156300000Y-132750000D01*
G75*
G02*
X156250000Y-132700000I0J50000D01*
G01*
G37*
G36*
G01*
X157250000Y-132700000D02*
X157250000Y-128400000D01*
G75*
G02*
X157300000Y-128350000I50000J0D01*
G01*
X158000000Y-128350000D01*
G75*
G02*
X158050000Y-128400000I0J-50000D01*
G01*
X158050000Y-132700000D01*
G75*
G02*
X158000000Y-132750000I-50000J0D01*
G01*
X157300000Y-132750000D01*
G75*
G02*
X157250000Y-132700000I0J50000D01*
G01*
G37*
G36*
G01*
X158250000Y-132700000D02*
X158250000Y-128400000D01*
G75*
G02*
X158300000Y-128350000I50000J0D01*
G01*
X159000000Y-128350000D01*
G75*
G02*
X159050000Y-128400000I0J-50000D01*
G01*
X159050000Y-132700000D01*
G75*
G02*
X159000000Y-132750000I-50000J0D01*
G01*
X158300000Y-132750000D01*
G75*
G02*
X158250000Y-132700000I0J50000D01*
G01*
G37*
G36*
G01*
X159250000Y-132700000D02*
X159250000Y-128400000D01*
G75*
G02*
X159300000Y-128350000I50000J0D01*
G01*
X160000000Y-128350000D01*
G75*
G02*
X160050000Y-128400000I0J-50000D01*
G01*
X160050000Y-132700000D01*
G75*
G02*
X160000000Y-132750000I-50000J0D01*
G01*
X159300000Y-132750000D01*
G75*
G02*
X159250000Y-132700000I0J50000D01*
G01*
G37*
G36*
G01*
X160250000Y-132700000D02*
X160250000Y-128400000D01*
G75*
G02*
X160300000Y-128350000I50000J0D01*
G01*
X161000000Y-128350000D01*
G75*
G02*
X161050000Y-128400000I0J-50000D01*
G01*
X161050000Y-132700000D01*
G75*
G02*
X161000000Y-132750000I-50000J0D01*
G01*
X160300000Y-132750000D01*
G75*
G02*
X160250000Y-132700000I0J50000D01*
G01*
G37*
G36*
G01*
X161250000Y-132700000D02*
X161250000Y-128400000D01*
G75*
G02*
X161300000Y-128350000I50000J0D01*
G01*
X162000000Y-128350000D01*
G75*
G02*
X162050000Y-128400000I0J-50000D01*
G01*
X162050000Y-132700000D01*
G75*
G02*
X162000000Y-132750000I-50000J0D01*
G01*
X161300000Y-132750000D01*
G75*
G02*
X161250000Y-132700000I0J50000D01*
G01*
G37*
G36*
G01*
X162250000Y-132700000D02*
X162250000Y-128400000D01*
G75*
G02*
X162300000Y-128350000I50000J0D01*
G01*
X163000000Y-128350000D01*
G75*
G02*
X163050000Y-128400000I0J-50000D01*
G01*
X163050000Y-132700000D01*
G75*
G02*
X163000000Y-132750000I-50000J0D01*
G01*
X162300000Y-132750000D01*
G75*
G02*
X162250000Y-132700000I0J50000D01*
G01*
G37*
G36*
G01*
X163250000Y-132700000D02*
X163250000Y-128400000D01*
G75*
G02*
X163300000Y-128350000I50000J0D01*
G01*
X164000000Y-128350000D01*
G75*
G02*
X164050000Y-128400000I0J-50000D01*
G01*
X164050000Y-132700000D01*
G75*
G02*
X164000000Y-132750000I-50000J0D01*
G01*
X163300000Y-132750000D01*
G75*
G02*
X163250000Y-132700000I0J50000D01*
G01*
G37*
G36*
G01*
X164250000Y-132700000D02*
X164250000Y-128400000D01*
G75*
G02*
X164300000Y-128350000I50000J0D01*
G01*
X165000000Y-128350000D01*
G75*
G02*
X165050000Y-128400000I0J-50000D01*
G01*
X165050000Y-132700000D01*
G75*
G02*
X165000000Y-132750000I-50000J0D01*
G01*
X164300000Y-132750000D01*
G75*
G02*
X164250000Y-132700000I0J50000D01*
G01*
G37*
G36*
G01*
X165250000Y-132700000D02*
X165250000Y-128400000D01*
G75*
G02*
X165300000Y-128350000I50000J0D01*
G01*
X166000000Y-128350000D01*
G75*
G02*
X166050000Y-128400000I0J-50000D01*
G01*
X166050000Y-132700000D01*
G75*
G02*
X166000000Y-132750000I-50000J0D01*
G01*
X165300000Y-132750000D01*
G75*
G02*
X165250000Y-132700000I0J50000D01*
G01*
G37*
G36*
G01*
X166250000Y-132700000D02*
X166250000Y-128400000D01*
G75*
G02*
X166300000Y-128350000I50000J0D01*
G01*
X167000000Y-128350000D01*
G75*
G02*
X167050000Y-128400000I0J-50000D01*
G01*
X167050000Y-132700000D01*
G75*
G02*
X167000000Y-132750000I-50000J0D01*
G01*
X166300000Y-132750000D01*
G75*
G02*
X166250000Y-132700000I0J50000D01*
G01*
G37*
G36*
G01*
X167250000Y-132700000D02*
X167250000Y-128400000D01*
G75*
G02*
X167300000Y-128350000I50000J0D01*
G01*
X168000000Y-128350000D01*
G75*
G02*
X168050000Y-128400000I0J-50000D01*
G01*
X168050000Y-132700000D01*
G75*
G02*
X168000000Y-132750000I-50000J0D01*
G01*
X167300000Y-132750000D01*
G75*
G02*
X167250000Y-132700000I0J50000D01*
G01*
G37*
G36*
G01*
X168250000Y-132700000D02*
X168250000Y-128400000D01*
G75*
G02*
X168300000Y-128350000I50000J0D01*
G01*
X169000000Y-128350000D01*
G75*
G02*
X169050000Y-128400000I0J-50000D01*
G01*
X169050000Y-132700000D01*
G75*
G02*
X169000000Y-132750000I-50000J0D01*
G01*
X168300000Y-132750000D01*
G75*
G02*
X168250000Y-132700000I0J50000D01*
G01*
G37*
G36*
G01*
X169250000Y-132700000D02*
X169250000Y-128400000D01*
G75*
G02*
X169300000Y-128350000I50000J0D01*
G01*
X170000000Y-128350000D01*
G75*
G02*
X170050000Y-128400000I0J-50000D01*
G01*
X170050000Y-132700000D01*
G75*
G02*
X170000000Y-132750000I-50000J0D01*
G01*
X169300000Y-132750000D01*
G75*
G02*
X169250000Y-132700000I0J50000D01*
G01*
G37*
G36*
G01*
X170250000Y-132700000D02*
X170250000Y-128400000D01*
G75*
G02*
X170300000Y-128350000I50000J0D01*
G01*
X171000000Y-128350000D01*
G75*
G02*
X171050000Y-128400000I0J-50000D01*
G01*
X171050000Y-132700000D01*
G75*
G02*
X171000000Y-132750000I-50000J0D01*
G01*
X170300000Y-132750000D01*
G75*
G02*
X170250000Y-132700000I0J50000D01*
G01*
G37*
G36*
G01*
X171250000Y-132700000D02*
X171250000Y-128400000D01*
G75*
G02*
X171300000Y-128350000I50000J0D01*
G01*
X172000000Y-128350000D01*
G75*
G02*
X172050000Y-128400000I0J-50000D01*
G01*
X172050000Y-132700000D01*
G75*
G02*
X172000000Y-132750000I-50000J0D01*
G01*
X171300000Y-132750000D01*
G75*
G02*
X171250000Y-132700000I0J50000D01*
G01*
G37*
G36*
G01*
X172250000Y-132700000D02*
X172250000Y-128400000D01*
G75*
G02*
X172300000Y-128350000I50000J0D01*
G01*
X173000000Y-128350000D01*
G75*
G02*
X173050000Y-128400000I0J-50000D01*
G01*
X173050000Y-132700000D01*
G75*
G02*
X173000000Y-132750000I-50000J0D01*
G01*
X172300000Y-132750000D01*
G75*
G02*
X172250000Y-132700000I0J50000D01*
G01*
G37*
G36*
G01*
X173250000Y-132700000D02*
X173250000Y-128400000D01*
G75*
G02*
X173300000Y-128350000I50000J0D01*
G01*
X174000000Y-128350000D01*
G75*
G02*
X174050000Y-128400000I0J-50000D01*
G01*
X174050000Y-132700000D01*
G75*
G02*
X174000000Y-132750000I-50000J0D01*
G01*
X173300000Y-132750000D01*
G75*
G02*
X173250000Y-132700000I0J50000D01*
G01*
G37*
G36*
G01*
X174250000Y-132700000D02*
X174250000Y-128400000D01*
G75*
G02*
X174300000Y-128350000I50000J0D01*
G01*
X175000000Y-128350000D01*
G75*
G02*
X175050000Y-128400000I0J-50000D01*
G01*
X175050000Y-132700000D01*
G75*
G02*
X175000000Y-132750000I-50000J0D01*
G01*
X174300000Y-132750000D01*
G75*
G02*
X174250000Y-132700000I0J50000D01*
G01*
G37*
G36*
G01*
X175250000Y-132700000D02*
X175250000Y-128400000D01*
G75*
G02*
X175300000Y-128350000I50000J0D01*
G01*
X176000000Y-128350000D01*
G75*
G02*
X176050000Y-128400000I0J-50000D01*
G01*
X176050000Y-132700000D01*
G75*
G02*
X176000000Y-132750000I-50000J0D01*
G01*
X175300000Y-132750000D01*
G75*
G02*
X175250000Y-132700000I0J50000D01*
G01*
G37*
G36*
G01*
X123150000Y-53100000D02*
X124850000Y-53100000D01*
G75*
G02*
X124900000Y-53150000I0J-50000D01*
G01*
X124900000Y-54850000D01*
G75*
G02*
X124850000Y-54900000I-50000J0D01*
G01*
X123150000Y-54900000D01*
G75*
G02*
X123100000Y-54850000I0J50000D01*
G01*
X123100000Y-53150000D01*
G75*
G02*
X123150000Y-53100000I50000J0D01*
G01*
G37*
D16*
X121460000Y-54000000D03*
G36*
G01*
X108850000Y-54900000D02*
X107150000Y-54900000D01*
G75*
G02*
X107100000Y-54850000I0J50000D01*
G01*
X107100000Y-53150000D01*
G75*
G02*
X107150000Y-53100000I50000J0D01*
G01*
X108850000Y-53100000D01*
G75*
G02*
X108900000Y-53150000I0J-50000D01*
G01*
X108900000Y-54850000D01*
G75*
G02*
X108850000Y-54900000I-50000J0D01*
G01*
G37*
X110540000Y-54000000D03*
D17*
X120793000Y-72224000D03*
X120793000Y-69684000D03*
X120793000Y-59524000D03*
X120793000Y-62064000D03*
X103013000Y-62064000D03*
X103013000Y-59524000D03*
X103013000Y-72224000D03*
X103013000Y-69684000D03*
M02*
