%TF.GenerationSoftware,KiCad,Pcbnew,(5.1.9)-1*%
%TF.CreationDate,2021-06-12T00:32:34+08:00*%
%TF.ProjectId,V1,56312e6b-6963-4616-945f-706362585858,rev?*%
%TF.SameCoordinates,Original*%
%TF.FileFunction,Profile,NP*%
%FSLAX46Y46*%
G04 Gerber Fmt 4.6, Leading zero omitted, Abs format (unit mm)*
G04 Created by KiCad (PCBNEW (5.1.9)-1) date 2021-06-12 00:32:34*
%MOMM*%
%LPD*%
G01*
G04 APERTURE LIST*
%TA.AperFunction,Profile*%
%ADD10C,0.050000*%
%TD*%
%TA.AperFunction,Profile*%
%ADD11C,0.120000*%
%TD*%
%TA.AperFunction,Profile*%
%ADD12C,0.200000*%
%TD*%
%TA.AperFunction,Profile*%
%ADD13C,0.100000*%
%TD*%
G04 APERTURE END LIST*
D10*
X226980000Y-122260000D02*
X227780000Y-121260000D01*
X226980000Y-125180000D02*
X226980000Y-122260000D01*
X227800000Y-126060000D02*
X226980000Y-125180000D01*
X227780000Y-121260000D02*
X233050000Y-121260000D01*
X231360000Y-131110000D02*
X232750000Y-128950000D01*
X227800000Y-126060000D02*
X232750000Y-126060000D01*
X217299965Y-125600000D02*
G75*
G02*
X220020000Y-125610000I1360036J-1D01*
G01*
X220050000Y-127750000D02*
X220020000Y-125610000D01*
X225570000Y-131060000D02*
X231360000Y-131110000D01*
X232750000Y-126060000D02*
X232750000Y-128950000D01*
X220360000Y-131060000D02*
X225570000Y-131060000D01*
X220050000Y-130840000D02*
X220360000Y-131060000D01*
X220050000Y-127750000D02*
X220050000Y-130840000D01*
X88000000Y-52250000D02*
X88000000Y-72426000D01*
D11*
X88900000Y-73326000D02*
G75*
G02*
X89800000Y-74226000I0J-900000D01*
G01*
X88900000Y-73326000D02*
G75*
G02*
X88000000Y-72426000I0J900000D01*
G01*
D10*
X89800000Y-120326000D02*
X89800000Y-74226000D01*
D11*
X89800000Y-120326000D02*
G75*
G02*
X88900000Y-121226000I-900000J0D01*
G01*
X88000000Y-122126000D02*
G75*
G02*
X88900000Y-121226000I900000J0D01*
G01*
D12*
X133000000Y-123075000D02*
X133000000Y-125600000D01*
X133000000Y-123075000D02*
G75*
G03*
X129350000Y-123075000I-1825000J0D01*
G01*
X129350000Y-129500000D02*
X129350000Y-123075000D01*
X121350000Y-129500000D02*
X129350000Y-129500000D01*
X121350000Y-122250000D02*
X121350000Y-129500000D01*
X120350000Y-121250000D02*
G75*
G02*
X121350000Y-122250000I0J-1000000D01*
G01*
X104000000Y-121250000D02*
X120350000Y-121250000D01*
X103000000Y-122250000D02*
G75*
G02*
X104000000Y-121250000I1000000J0D01*
G01*
X103000000Y-122250000D02*
X103000000Y-128500000D01*
X102000000Y-129500000D02*
G75*
G03*
X103000000Y-128500000I0J1000000D01*
G01*
X89000000Y-129500000D02*
X102000000Y-129500000D01*
X88000000Y-128500000D02*
G75*
G03*
X89000000Y-129500000I1000000J0D01*
G01*
X88000000Y-128500000D02*
X88000000Y-122126000D01*
X89000000Y-51250000D02*
G75*
G03*
X88000000Y-52250000I0J-1000000D01*
G01*
X89000000Y-51250000D02*
X232050000Y-51250000D01*
X233050000Y-52250000D02*
G75*
G03*
X232050000Y-51250000I-1000000J0D01*
G01*
X233050000Y-52250000D02*
X233050000Y-121260000D01*
X97100000Y-124650001D02*
G75*
G03*
X97100000Y-124650001I-1600000J0D01*
G01*
D13*
X144200000Y-126550000D02*
G75*
G02*
X146100000Y-126550000I950000J0D01*
G01*
X144200000Y-126550000D02*
X144200000Y-133500000D01*
X146100000Y-126550000D02*
X146100000Y-133500000D01*
X133000000Y-125600000D02*
X133000000Y-133500000D01*
X133500000Y-134000000D02*
X143700000Y-134000000D01*
X217300000Y-125600000D02*
X217300000Y-133500000D01*
X146600000Y-134000000D02*
X216800000Y-134000000D01*
X133000000Y-133500000D02*
X133500000Y-134000000D01*
X144200000Y-133500000D02*
X143700000Y-134000000D01*
X146100000Y-133500000D02*
X146600000Y-134000000D01*
X217300000Y-133500000D02*
X216800000Y-134000000D01*
M02*
