M48
; DRILL file {KiCad (5.1.9)-1} date 06/12/21 00:32:38
; FORMAT={-:-/ absolute / inch / decimal}
; #@! TF.CreationDate,2021-06-12T00:32:38+08:00
; #@! TF.GenerationSoftware,Kicad,Pcbnew,(5.1.9)-1
; #@! TF.FileFunction,Plated,1,2,PTH
FMAT,2
INCH
T1C0.0118
T2C0.0157
T3C0.0394
T4C0.1260
T5C0.1299
%
G90
G05
T1
X3.7291Y-2.43
X3.7291Y-2.53
X3.815Y-4.325
X3.815Y-4.425
X3.815Y-4.525
X3.8291Y-2.43
X3.8291Y-2.53
X3.915Y-4.325
X3.915Y-4.425
X3.915Y-4.525
X4.015Y-4.325
X4.015Y-4.425
X4.015Y-4.525
X4.115Y-4.325
X4.115Y-4.425
X4.115Y-4.525
X4.215Y-4.325
X4.215Y-4.425
X4.215Y-4.525
X4.315Y-4.325
X4.315Y-4.425
X4.315Y-4.525
X4.3336Y-2.3807
X4.3336Y-2.4807
X4.3336Y-2.5807
X4.3336Y-2.6807
X4.3336Y-2.7807
X4.415Y-4.325
X4.415Y-4.425
X4.415Y-4.525
X4.4336Y-2.3807
X4.4336Y-2.4807
X4.4336Y-2.5807
X4.4336Y-2.6807
X4.4336Y-2.7807
X4.515Y-4.325
X4.515Y-4.425
X4.515Y-4.525
X4.5336Y-2.3807
X4.5336Y-2.4807
X4.5336Y-2.5807
X4.5336Y-2.6807
X4.5336Y-2.7807
X4.615Y-4.325
X4.615Y-4.425
X4.615Y-4.525
X4.715Y-4.325
X4.715Y-4.425
X4.715Y-4.525
X4.9087Y-3.1933
X4.9087Y-3.2433
X4.9087Y-3.2933
X4.9206Y-2.7435
X4.9206Y-2.7935
X4.9206Y-2.8435
X4.952Y-3.2937
X4.9528Y-3.1945
X4.9528Y-3.2437
X4.9706Y-2.7435
X4.9706Y-2.7935
X4.9706Y-2.8435
X5.0126Y-3.4134
X5.0126Y-3.4634
X5.0126Y-3.5134
X5.0626Y-3.4134
X5.0626Y-3.4634
X5.0626Y-3.5134
X5.2674Y-3.378
X5.2686Y-3.326
X5.2686Y-3.4256
X5.3012Y-4.9638
X5.3012Y-4.9938
X5.3139Y-3.3768
X5.3182Y-3.326
X5.3264Y-4.0421
X5.3337Y-3.237
X5.3337Y-3.2646
X5.3406Y-4.9644
X5.3406Y-4.9944
X5.3602Y-4.6329
X5.3622Y-3.237
X5.3624Y-3.2646
X5.3669Y-3.3256
X5.3919Y-3.2639
X5.3929Y-3.2363
X5.4059Y-3.1598
X5.4205Y-2.1276
X5.425Y-4.965
X5.4413Y-3.1772
X5.4417Y-3.1244
X5.47Y-4.965
X5.4772Y-4.2705
X5.5177Y-2.5285
X5.5343Y-3.6142
X5.5545Y-3.6345
X5.5724Y-4.27
X5.5827Y-4.9252
X5.5827Y-4.9646
X5.5827Y-5.0039
X5.589Y-4.0327
X5.5898Y-3.9917
X5.6289Y-4.437
X5.6305Y-3.686
X5.6507Y-3.6658
X5.6555Y-4.7933
X5.6604Y-4.437
X5.6604Y-4.4803
X5.6917Y-4.865
X5.6919Y-4.437
X5.6919Y-4.4803
X5.7234Y-4.4803
X5.7502Y-4.237
X5.7687Y-3.6909
X5.7687Y-3.7196
X5.7694Y-3.7492
X5.7776Y-3.5266
X5.7933Y-4.7835
X5.7933Y-4.9843
X5.7963Y-3.6909
X5.7963Y-3.7195
X5.7969Y-3.7502
X5.8022Y-3.5266
X5.8573Y-3.7589
X5.8573Y-3.7876
X5.858Y-3.8171
X5.8583Y-3.3179
X5.8583Y-3.3466
X5.8589Y-3.3761
X5.8642Y-2.3258
X5.8642Y-4.4783
X5.874Y-4.7835
X5.8848Y-3.7589
X5.8848Y-3.7874
X5.8855Y-3.8181
X5.8858Y-3.3179
X5.8858Y-3.3465
X5.8865Y-3.3771
X5.8932Y-4.1978
X5.9114Y-4.9843
X5.9218Y-4.1978
X5.96Y-4.235
X5.9653Y-4.8088
X5.9682Y-4.9033
X5.985Y-4.64
X5.9855Y-4.829
X5.9869Y-2.9771
X5.9885Y-4.9235
X5.995Y-4.45
X6.0072Y-2.9973
X6.0076Y-3.7404
X6.0098Y-4.9843
X6.0278Y-3.7202
X6.0419Y-2.1232
X6.0546Y-4.9518
X6.0665Y-4.2346
X6.0832Y-4.9518
X6.1033Y-2.325
X6.1083Y-4.9843
X6.1225Y-4.4824
X6.1333Y-4.9252
X6.1427Y-4.4622
X6.1484Y-2.1228
X6.1491Y-2.3248
X6.1619Y-4.9252
X6.1694Y-4.234
X6.1762Y-4.4478
X6.1777Y-2.3248
X6.187Y-4.9843
X6.2121Y-4.4488
X6.2121Y-4.8898
X6.2258Y-2.3242
X6.2407Y-4.4488
X6.2407Y-4.8898
X6.2513Y-2.1222
X6.26Y-4.235
X6.2657Y-4.9843
X6.2751Y-2.3228
X6.2894Y-4.4488
X6.2908Y-4.9252
X6.3037Y-2.3228
X6.3081Y-3.7098
X6.3081Y-3.8098
X6.3081Y-3.9098
X6.3081Y-4.0098
X6.3081Y-4.1098
X6.3194Y-4.9252
X6.3381Y-4.4498
X6.3419Y-2.1232
X6.3445Y-4.9843
X6.3518Y-2.3238
X6.36Y-4.235
X6.3667Y-4.4498
X6.3695Y-4.8898
X6.3982Y-4.8898
X6.401Y-2.3228
X6.4081Y-3.7098
X6.4081Y-3.8098
X6.4081Y-3.9098
X6.4081Y-4.0098
X6.4081Y-4.1098
X6.4154Y-4.4488
X6.4232Y-4.9843
X6.4297Y-2.3228
X6.4419Y-2.1232
X6.4483Y-4.9252
X6.46Y-4.235
X6.464Y-4.4469
X6.4769Y-4.9252
X6.4789Y-2.3222
X6.4927Y-4.4469
X6.5Y-4.985
X6.5081Y-3.7098
X6.5081Y-3.8098
X6.5081Y-3.9098
X6.5081Y-4.0098
X6.5081Y-4.1098
X6.527Y-2.3219
X6.5413Y-4.4478
X6.5419Y-2.1232
X6.555Y-4.985
X6.5556Y-2.3219
X6.56Y-4.235
X6.59Y-4.4469
X6.6058Y-4.8898
X6.6061Y-2.3226
X6.6186Y-4.4469
X6.6344Y-4.8898
X6.6419Y-2.1232
X6.653Y-2.3219
X6.6594Y-4.9843
X6.66Y-4.235
X6.6673Y-4.4469
X6.6816Y-2.3219
X6.6845Y-4.925
X6.7131Y-4.925
X6.716Y-4.4488
X6.7317Y-2.3222
X6.7382Y-4.9843
X6.7419Y-2.1232
X6.7446Y-4.4488
X6.76Y-4.235
X6.7632Y-4.89
X6.779Y-2.3248
X6.7919Y-4.89
X6.7933Y-4.4488
X6.8076Y-2.3248
X6.8169Y-4.9843
X6.8419Y-2.1232
X6.842Y-4.4488
X6.842Y-4.925
X6.8573Y-2.3234
X6.86Y-4.235
X6.8706Y-4.4488
X6.8706Y-4.925
X6.8957Y-4.9843
X6.905Y-2.3209
X6.9193Y-4.4498
X6.9207Y-4.89
X6.9336Y-2.3209
X6.9419Y-2.1232
X6.9494Y-4.89
X6.96Y-4.235
X6.968Y-4.4488
X6.9744Y-4.9843
X6.9793Y-2.3211
X6.9966Y-4.4488
X6.9995Y-4.925
X7.0281Y-4.925
X7.031Y-2.3204
X7.0419Y-2.1232
X7.0453Y-4.4488
X7.0531Y-4.9843
X7.0584Y-4.2354
X7.0596Y-2.3204
X7.0782Y-4.8898
X7.094Y-4.4488
X7.1068Y-4.8898
X7.1077Y-2.3226
X7.1226Y-4.4488
X7.1319Y-4.9843
X7.1403Y-2.1236
X7.1545Y-4.2362
X7.1569Y-2.3238
X7.1569Y-4.925
X7.1713Y-4.4498
X7.1856Y-2.3238
X7.1856Y-4.925
X7.2185Y-4.4508
X7.2303Y-4.7884
X7.2352Y-2.325
X7.2364Y-2.1244
X7.25Y-4.9843
X7.2751Y-4.8898
X7.3037Y-4.8898
X7.3287Y-4.9843
X7.3538Y-4.9252
X7.3824Y-4.9252
X7.4075Y-4.9843
X7.4325Y-4.8898
X7.4612Y-4.8898
X7.4862Y-4.9843
X7.5113Y-4.9252
X7.5399Y-4.9252
X7.565Y-4.9843
X7.59Y-4.8898
X7.6186Y-4.8898
X7.6437Y-4.9843
X7.6688Y-4.9252
X7.6974Y-4.9252
X7.7224Y-4.9843
X7.7475Y-4.8898
X7.7761Y-4.8898
X7.8012Y-4.9843
X7.8262Y-4.9252
X7.8549Y-4.9252
X7.8799Y-4.9843
X7.905Y-4.8898
X7.9336Y-4.8898
X7.9587Y-4.9843
X7.9837Y-4.9252
X8.0123Y-4.9252
X8.0374Y-4.9843
X8.0625Y-4.8898
X8.0911Y-4.8898
X8.1161Y-4.9843
X8.1412Y-4.9252
X8.1698Y-4.9252
X8.1949Y-4.9843
X8.2199Y-4.8898
X8.2486Y-4.8898
X8.2736Y-4.9843
X8.2987Y-4.9252
X8.3273Y-4.9252
X8.3524Y-4.9843
X8.3774Y-4.8898
X8.406Y-4.8898
X8.4311Y-4.9843
X8.4562Y-4.9252
X8.4848Y-4.9252
X8.5256Y-4.8858
X8.5295Y-5.0217
X8.7608Y-3.6366
X8.7608Y-3.7366
X8.7608Y-3.8366
X8.7608Y-3.9366
X8.7608Y-4.0366
X8.7608Y-4.1366
X8.7608Y-4.2366
X8.7608Y-4.3366
X8.7608Y-4.4366
X8.7608Y-4.5366
X8.7659Y-2.3413
X8.7659Y-2.4413
X8.7659Y-2.5413
X8.7659Y-2.6413
X8.7659Y-2.7413
X8.7659Y-2.8413
X8.7659Y-2.9413
X8.7659Y-3.0413
X8.7659Y-3.1413
X8.7659Y-3.2413
X8.8608Y-3.6366
X8.8608Y-3.7366
X8.8608Y-3.8366
X8.8608Y-3.9366
X8.8608Y-4.0366
X8.8608Y-4.1366
X8.8608Y-4.2366
X8.8608Y-4.3366
X8.8608Y-4.4366
X8.8608Y-4.5366
X8.8659Y-2.3413
X8.8659Y-2.4413
X8.8659Y-2.5413
X8.8659Y-2.6413
X8.8659Y-2.7413
X8.8659Y-2.8413
X8.8659Y-2.9413
X8.8659Y-3.0413
X8.8659Y-3.1413
X8.8659Y-3.2413
X8.9608Y-3.6366
X8.9608Y-3.7366
X8.9608Y-3.8366
X8.9608Y-3.9366
X8.9608Y-4.0366
X8.9608Y-4.1366
X8.9608Y-4.2366
X8.9608Y-4.3366
X8.9608Y-4.4366
X8.9608Y-4.5366
X8.9659Y-2.3413
X8.9659Y-2.4413
X8.9659Y-2.5413
X8.9659Y-2.6413
X8.9659Y-2.7413
X8.9659Y-2.8413
X8.9659Y-2.9413
X8.9659Y-3.0413
X8.9659Y-3.1413
X8.9659Y-3.2413
T2
X5.3632Y-4.4685
X5.4026Y-2.3238
X5.4026Y-4.4685
X5.4419Y-2.3238
X5.4419Y-4.4685
X5.4813Y-4.4685
X5.8228Y-4.4537
T3
X4.0556Y-2.3435
X4.0556Y-2.4435
X4.0556Y-2.7435
X4.0556Y-2.8435
X4.252Y-2.126
X4.352Y-2.126
X4.7556Y-2.3435
X4.7556Y-2.4435
X4.7556Y-2.7435
X4.7556Y-2.8435
X4.7819Y-2.126
X4.8819Y-2.126
T4
X3.7598Y-4.9075
T5
X5.0098Y-2.3022
X5.0098Y-4.4902
X7.5689Y-2.3022
T4
G00X3.7598Y-2.7141
M15
G01X3.7598Y-2.8559
M16
G05
T0
M30
