M48
; DRILL file {KiCad (5.1.9)-1} date 05/23/21 15:16:49
; FORMAT={-:-/ absolute / inch / decimal}
; #@! TF.CreationDate,2021-05-23T15:16:49+08:00
; #@! TF.GenerationSoftware,Kicad,Pcbnew,(5.1.9)-1
; #@! TF.FileFunction,Plated,1,2,PTH
FMAT,2
INCH
T1C0.0118
T2C0.0157
T3C0.0394
T4C0.1260
T5C0.1299
%
G90
G05
T1
X3.7291Y-2.43
X3.7291Y-2.53
X3.815Y-4.325
X3.815Y-4.425
X3.815Y-4.525
X3.8291Y-2.43
X3.8291Y-2.53
X3.915Y-4.325
X3.915Y-4.425
X3.915Y-4.525
X3.9291Y-2.43
X3.9291Y-2.53
X4.015Y-4.325
X4.015Y-4.425
X4.015Y-4.525
X4.115Y-4.325
X4.115Y-4.425
X4.115Y-4.525
X4.215Y-4.325
X4.215Y-4.425
X4.215Y-4.525
X4.315Y-4.325
X4.315Y-4.425
X4.315Y-4.525
X4.415Y-4.325
X4.415Y-4.425
X4.415Y-4.525
X4.4291Y-2.4
X4.4291Y-2.5
X4.4291Y-2.6
X4.4291Y-2.7
X4.4291Y-2.8
X4.515Y-4.325
X4.515Y-4.425
X4.515Y-4.525
X4.5291Y-2.4
X4.5291Y-2.5
X4.5291Y-2.6
X4.5291Y-2.7
X4.5291Y-2.8
X4.615Y-4.325
X4.615Y-4.425
X4.615Y-4.525
X4.6291Y-2.4
X4.6291Y-2.5
X4.6291Y-2.6
X4.6291Y-2.7
X4.6291Y-2.8
X4.715Y-4.325
X4.715Y-4.425
X4.715Y-4.525
X5.1441Y-2.71
X5.1441Y-2.76
X5.1441Y-2.81
X5.1529Y-3.3712
X5.1529Y-3.4212
X5.1941Y-2.71
X5.1941Y-2.76
X5.1941Y-2.81
X5.2029Y-3.3712
X5.2029Y-3.4212
X5.3012Y-4.9638
X5.3012Y-4.9938
X5.3406Y-4.9644
X5.3406Y-4.9944
X5.3524Y-4.6457
X5.3806Y-3.5681
X5.3806Y-3.5976
X5.3806Y-3.6291
X5.4101Y-3.5681
X5.4101Y-3.5976
X5.4101Y-3.6291
X5.425Y-4.965
X5.4626Y-3.3799
X5.4626Y-3.4075
X5.47Y-4.965
X5.4911Y-3.3799
X5.4913Y-3.4075
X5.5208Y-3.4068
X5.5218Y-3.3793
X5.5827Y-4.9252
X5.5827Y-4.9646
X5.5827Y-5.0039
X5.605Y-2.61
X5.605Y-2.71
X5.605Y-2.81
X5.605Y-2.91
X5.6083Y-3.0098
X5.6093Y-3.2549
X5.6289Y-4.437
X5.6555Y-4.7933
X5.66Y-4.235
X5.6604Y-4.437
X5.6604Y-4.4803
X5.6917Y-4.865
X5.6919Y-4.437
X5.6919Y-4.4803
X5.705Y-2.61
X5.705Y-2.71
X5.705Y-2.81
X5.705Y-2.91
X5.7095Y-3.009
X5.7234Y-4.4803
X5.76Y-4.235
X5.7687Y-3.6909
X5.7687Y-3.7196
X5.7694Y-3.7492
X5.7776Y-3.5266
X5.7933Y-4.7835
X5.7933Y-4.9843
X5.7963Y-3.6909
X5.7963Y-3.7195
X5.7969Y-3.7502
X5.8022Y-3.5266
X5.805Y-2.61
X5.805Y-2.71
X5.805Y-2.81
X5.805Y-2.91
X5.805Y-3.01
X5.8573Y-3.7589
X5.8573Y-3.7876
X5.858Y-3.8171
X5.8583Y-3.3179
X5.8583Y-3.3466
X5.8589Y-3.3761
X5.86Y-4.235
X5.8642Y-4.4488
X5.8848Y-3.7589
X5.8848Y-3.7874
X5.8855Y-3.8181
X5.8858Y-3.3179
X5.8858Y-3.3465
X5.8865Y-3.3771
X5.8932Y-4.1978
X5.905Y-2.61
X5.905Y-2.71
X5.905Y-2.81
X5.905Y-2.91
X5.905Y-3.01
X5.9114Y-4.9843
X5.9131Y-4.7832
X5.9218Y-4.1978
X5.9281Y-3.5531
X5.9333Y-4.8034
X5.95Y-4.85
X5.96Y-4.235
X5.9623Y-4.9052
X5.9826Y-4.9255
X5.984Y-3.5593
X5.985Y-4.64
X5.995Y-4.45
X6.0042Y-3.5391
X6.0098Y-4.9843
X6.0546Y-4.8898
X6.0832Y-4.8898
X6.1083Y-4.9843
X6.1333Y-4.9252
X6.1491Y-4.4687
X6.16Y-4.645
X6.1619Y-4.9252
X6.1694Y-4.234
X6.1777Y-4.4687
X6.187Y-4.9843
X6.2121Y-4.4488
X6.2121Y-4.8898
X6.2407Y-4.4488
X6.2407Y-4.8898
X6.26Y-4.235
X6.2657Y-4.9843
X6.28Y-4.45
X6.2908Y-4.9252
X6.3194Y-4.9252
X6.3381Y-4.4487
X6.3445Y-4.9843
X6.36Y-4.235
X6.3667Y-4.4487
X6.3695Y-4.8898
X6.3982Y-4.8898
X6.405Y-4.45
X6.4232Y-4.9843
X6.4483Y-4.8898
X6.46Y-4.235
X6.464Y-4.4469
X6.4769Y-4.8898
X6.4927Y-4.4469
X6.5Y-4.985
X6.53Y-4.45
X6.555Y-4.985
X6.56Y-4.235
X6.59Y-4.4469
X6.6058Y-4.8898
X6.6186Y-4.4469
X6.6344Y-4.8898
X6.6594Y-4.4469
X6.6594Y-4.9843
X6.66Y-4.235
X6.6845Y-4.925
X6.7131Y-4.925
X6.716Y-4.4488
X6.7382Y-4.9843
X6.7446Y-4.4488
X6.76Y-4.235
X6.7632Y-4.89
X6.7884Y-4.4498
X6.7919Y-4.89
X6.8169Y-4.9843
X6.842Y-4.4488
X6.842Y-4.925
X6.86Y-4.235
X6.8706Y-4.4488
X6.8706Y-4.925
X6.8957Y-4.9843
X6.9134Y-4.4508
X6.9207Y-4.89
X6.9494Y-4.89
X6.96Y-4.235
X6.968Y-4.4488
X6.9744Y-4.9843
X6.9966Y-4.4488
X6.9995Y-4.925
X7.0281Y-4.925
X7.0404Y-4.4498
X7.0531Y-4.9843
X7.06Y-4.235
X7.0782Y-4.8898
X7.094Y-4.4488
X7.1068Y-4.8898
X7.1226Y-4.4488
X7.1319Y-4.9843
X7.1569Y-4.925
X7.16Y-4.235
X7.1683Y-4.4508
X7.1856Y-4.925
X7.2103Y-4.7319
X7.2185Y-4.4488
X7.2303Y-4.9843
X7.26Y-4.235
X7.36Y-4.235
X7.46Y-4.235
X7.56Y-4.235
T2
X5.3632Y-4.4685
X5.4026Y-4.4685
X5.4419Y-4.4685
X5.4813Y-4.4685
T3
X4.252Y-2.126
X4.2791Y-2.31
X4.2791Y-2.41
X4.2791Y-2.71
X4.2791Y-2.81
X4.352Y-2.126
X4.8819Y-2.126
X4.9791Y-2.31
X4.9791Y-2.41
X4.9791Y-2.71
X4.9791Y-2.81
X4.9819Y-2.126
T4
X3.7598Y-4.9075
T5
X5.0098Y-4.4902
X5.8957Y-2.3012
X7.5689Y-2.3012
X7.5689Y-4.4902
T4
G00X3.7598Y-2.7141
M15
G01X3.7598Y-2.8559
M16
G05
T0
M30
