%TF.GenerationSoftware,KiCad,Pcbnew,(5.1.9)-1*%
%TF.CreationDate,2021-05-23T17:46:56+08:00*%
%TF.ProjectId,V1,56312e6b-6963-4616-945f-706362585858,rev?*%
%TF.SameCoordinates,Original*%
%TF.FileFunction,Legend,Bot*%
%TF.FilePolarity,Positive*%
%FSLAX46Y46*%
G04 Gerber Fmt 4.6, Leading zero omitted, Abs format (unit mm)*
G04 Created by KiCad (PCBNEW (5.1.9)-1) date 2021-05-23 17:46:56*
%MOMM*%
%LPD*%
G01*
G04 APERTURE LIST*
%ADD10C,0.500000*%
%ADD11C,0.250000*%
G04 APERTURE END LIST*
D10*
X166180857Y-56356476D02*
X166180857Y-60356476D01*
X168466571Y-56356476D02*
X166752285Y-58642190D01*
X168466571Y-60356476D02*
X166180857Y-58070761D01*
X172466571Y-56737428D02*
X172276095Y-56546952D01*
X171704666Y-56356476D01*
X171323714Y-56356476D01*
X170752285Y-56546952D01*
X170371333Y-56927904D01*
X170180857Y-57308857D01*
X169990380Y-58070761D01*
X169990380Y-58642190D01*
X170180857Y-59404095D01*
X170371333Y-59785047D01*
X170752285Y-60166000D01*
X171323714Y-60356476D01*
X171704666Y-60356476D01*
X172276095Y-60166000D01*
X172466571Y-59975523D01*
X174942761Y-60356476D02*
X175704666Y-60356476D01*
X176085619Y-60166000D01*
X176466571Y-59785047D01*
X176657047Y-59023142D01*
X176657047Y-57689809D01*
X176466571Y-56927904D01*
X176085619Y-56546952D01*
X175704666Y-56356476D01*
X174942761Y-56356476D01*
X174561809Y-56546952D01*
X174180857Y-56927904D01*
X173990380Y-57689809D01*
X173990380Y-59023142D01*
X174180857Y-59785047D01*
X174561809Y-60166000D01*
X174942761Y-60356476D01*
X180657047Y-56356476D02*
X179323714Y-58261238D01*
X178371333Y-56356476D02*
X178371333Y-60356476D01*
X179895142Y-60356476D01*
X180276095Y-60166000D01*
X180466571Y-59975523D01*
X180657047Y-59594571D01*
X180657047Y-59023142D01*
X180466571Y-58642190D01*
X180276095Y-58451714D01*
X179895142Y-58261238D01*
X178371333Y-58261238D01*
X182371333Y-58451714D02*
X183704666Y-58451714D01*
X184276095Y-56356476D02*
X182371333Y-56356476D01*
X182371333Y-60356476D01*
X184276095Y-60356476D01*
X185799904Y-56546952D02*
X186371333Y-56356476D01*
X187323714Y-56356476D01*
X187704666Y-56546952D01*
X187895142Y-56737428D01*
X188085619Y-57118380D01*
X188085619Y-57499333D01*
X187895142Y-57880285D01*
X187704666Y-58070761D01*
X187323714Y-58261238D01*
X186561809Y-58451714D01*
X186180857Y-58642190D01*
X185990380Y-58832666D01*
X185799904Y-59213619D01*
X185799904Y-59594571D01*
X185990380Y-59975523D01*
X186180857Y-60166000D01*
X186561809Y-60356476D01*
X187514190Y-60356476D01*
X188085619Y-60166000D01*
D11*
X155066719Y-54895205D02*
X156812703Y-54895205D01*
X155066719Y-62831790D02*
X155304774Y-62831790D01*
X155304774Y-62831790D02*
X155840499Y-62831790D01*
X156019024Y-62911090D02*
X156018954Y-63565840D01*
X162050859Y-60569840D02*
X162050859Y-61879290D01*
X155066719Y-56085685D02*
X155066719Y-54895205D01*
X162050859Y-61879290D02*
X160463459Y-61879290D01*
X162050859Y-54895205D02*
X162050859Y-56641240D01*
X156892008Y-61879290D02*
X155701594Y-61879290D01*
X155066719Y-59657139D02*
X155066719Y-56085685D01*
X155840499Y-62831790D02*
X156019094Y-62831790D01*
X160463459Y-61879290D02*
X156892008Y-61879290D01*
X156018954Y-63565840D02*
X156018954Y-63784040D01*
X156019094Y-62831790D02*
X156019024Y-62911090D01*
X160741259Y-54895205D02*
X162050859Y-54895205D01*
X155701594Y-61879290D02*
X155066719Y-61244440D01*
X162050859Y-56641240D02*
X162050859Y-60569840D01*
X156812703Y-54895205D02*
X160741259Y-54895205D01*
X155066719Y-61244440D02*
X155066719Y-59657139D01*
X155017803Y-62782940D02*
X155066719Y-62831790D01*
X161613709Y-63784040D02*
X161732759Y-63784040D01*
X163002659Y-61879290D02*
X163240709Y-61879290D01*
X163955009Y-58070040D02*
X163955009Y-57911390D01*
X163955009Y-59339889D02*
X163955009Y-59181190D01*
X163776409Y-58070040D02*
X163955009Y-58070040D01*
X163955009Y-60450889D02*
X163955009Y-60093790D01*
X163240709Y-60609590D02*
X163776409Y-60609590D01*
X163240709Y-58070040D02*
X163776409Y-58070040D01*
X163002659Y-58070040D02*
X163240709Y-58070040D01*
X163002659Y-59974740D02*
X163002659Y-59816039D01*
X163002659Y-58189140D02*
X163002659Y-58070040D01*
X163002659Y-58546240D02*
X163002659Y-58189140D01*
X163955009Y-59181190D02*
X163955009Y-58823990D01*
X163002659Y-60728640D02*
X163002659Y-60609590D01*
X163955009Y-61244440D02*
X163716859Y-61244440D01*
X161732759Y-63784040D02*
X161732759Y-63545990D01*
X163181159Y-61244440D02*
X163002659Y-61244440D01*
X163240709Y-59339889D02*
X163776409Y-59339889D01*
X163955009Y-61363490D02*
X163955009Y-61244440D01*
X161256609Y-63784040D02*
X161613709Y-63784040D01*
X161732759Y-63545990D02*
X161732759Y-63010290D01*
X163181159Y-58704940D02*
X163002659Y-58704940D01*
X163955009Y-58704940D02*
X163716859Y-58704940D01*
X163955009Y-58823990D02*
X163955009Y-58704940D01*
X163181159Y-59974740D02*
X163002659Y-59974740D01*
X163955009Y-60093790D02*
X163955009Y-59974740D01*
X163955009Y-61879290D02*
X163955009Y-61720640D01*
X163776409Y-60609590D02*
X163955009Y-60609590D01*
X163002659Y-61244440D02*
X163002659Y-61085740D01*
X163776409Y-61879290D02*
X163955009Y-61879290D01*
X162050209Y-62831690D02*
X162764509Y-62831690D01*
X163955009Y-60609590D02*
X163955009Y-60450889D01*
X163002659Y-62593590D02*
X163002659Y-62057890D01*
X163002659Y-59339889D02*
X163240709Y-59339889D01*
X163002659Y-62057890D02*
X163002659Y-61879290D01*
X163716859Y-58704940D02*
X163181159Y-58704940D01*
X163955009Y-61720640D02*
X163955009Y-61363490D01*
X163776409Y-59339889D02*
X163955009Y-59339889D01*
X163240709Y-61879290D02*
X163776409Y-61879290D01*
X163955009Y-59974740D02*
X163716859Y-59974740D01*
X161732759Y-62831690D02*
X162050209Y-62831690D01*
X163002659Y-60609590D02*
X163240709Y-60609590D01*
X161732759Y-63010290D02*
X161732759Y-62831690D01*
X163002659Y-59458939D02*
X163002659Y-59339889D01*
X163716859Y-61244440D02*
X163181159Y-61244440D01*
X162764509Y-62831690D02*
X163002659Y-62831690D01*
X163002659Y-62831690D02*
X163002659Y-62593590D01*
X163955009Y-57911390D02*
X163955009Y-57554265D01*
X163002659Y-58704940D02*
X163002659Y-58546240D01*
X163002659Y-59816039D02*
X163002659Y-59458939D01*
X163002659Y-61085740D02*
X163002659Y-60728640D01*
X163716859Y-59974740D02*
X163181159Y-59974740D01*
X157288674Y-63784040D02*
X157447349Y-63784040D01*
X157288674Y-63069790D02*
X157288674Y-63605540D01*
X157169609Y-62831690D02*
X157288674Y-62831690D01*
X161097909Y-63784040D02*
X161256609Y-63784040D01*
X161097909Y-63605540D02*
X161097909Y-63784040D01*
X161097909Y-63069790D02*
X161097909Y-63605540D01*
X158558459Y-62831690D02*
X158558459Y-63069790D01*
X156534749Y-63784040D02*
X156653814Y-63784040D01*
X160463059Y-63010290D02*
X160463059Y-62831690D01*
X158082259Y-62831690D02*
X158439409Y-62831690D01*
X161097909Y-62831690D02*
X161097909Y-63069790D01*
X160978859Y-62831690D02*
X161097909Y-62831690D01*
X160463059Y-63784040D02*
X160463059Y-63545990D01*
X157288674Y-63605540D02*
X157288674Y-63784040D01*
X157288674Y-62831690D02*
X157288674Y-63069790D01*
X159828209Y-63784040D02*
X159986859Y-63784040D01*
X159193359Y-63784040D02*
X159193359Y-63545990D01*
X156653814Y-63545990D02*
X156653814Y-63010290D01*
X158558459Y-63605540D02*
X158558459Y-63784040D01*
X160344009Y-63784040D02*
X160463059Y-63784040D01*
X156653814Y-62831690D02*
X156812494Y-62831690D01*
X157447349Y-63784040D02*
X157804539Y-63784040D01*
X157923599Y-63010290D02*
X157923599Y-62831690D01*
X156653814Y-63010290D02*
X156653814Y-62831690D01*
X156653814Y-63784040D02*
X156653814Y-63545990D01*
X159986859Y-63784040D02*
X160344009Y-63784040D01*
X159193359Y-62831690D02*
X159352009Y-62831690D01*
X158717159Y-63784040D02*
X159074259Y-63784040D01*
X157923599Y-63545990D02*
X157923599Y-63010290D01*
X156812494Y-62831690D02*
X157169609Y-62831690D01*
X156177634Y-63784040D02*
X156534749Y-63784040D01*
X160621709Y-62831690D02*
X160978859Y-62831690D01*
X159828209Y-62831690D02*
X159828209Y-63069790D01*
X160463059Y-62831690D02*
X160621709Y-62831690D01*
X157923599Y-62831690D02*
X158082259Y-62831690D01*
X156018954Y-63784040D02*
X156177634Y-63784040D01*
X160463059Y-63545990D02*
X160463059Y-63010290D01*
X159828209Y-63605540D02*
X159828209Y-63784040D01*
X159828209Y-63069790D02*
X159828209Y-63605540D01*
X159709109Y-62831690D02*
X159828209Y-62831690D01*
X159193359Y-63545990D02*
X159193359Y-63010290D01*
X159352009Y-62831690D02*
X159709109Y-62831690D01*
X159193359Y-63010290D02*
X159193359Y-62831690D01*
X158439409Y-62831690D02*
X158558459Y-62831690D01*
X158558459Y-63069790D02*
X158558459Y-63605540D01*
X157923599Y-63784040D02*
X157923599Y-63545990D01*
X159074259Y-63784040D02*
X159193359Y-63784040D01*
X158558459Y-63784040D02*
X158717159Y-63784040D01*
X157804539Y-63784040D02*
X157923599Y-63784040D01*
X160899559Y-53943395D02*
X160780559Y-53943395D01*
X161256658Y-53943395D02*
X160899559Y-53943395D01*
X161415409Y-53943395D02*
X161256658Y-53943395D01*
X161415409Y-53229156D02*
X161415409Y-53764869D01*
X162764509Y-53943395D02*
X162228809Y-53943395D01*
X161534409Y-52991031D02*
X161415409Y-52991031D01*
X163955009Y-56641665D02*
X163955009Y-56284544D01*
X162050259Y-53705339D02*
X162050259Y-53169625D01*
X163955009Y-54895750D02*
X163716859Y-54895750D01*
X163181159Y-56165485D02*
X163002659Y-56165485D01*
X163955009Y-55371930D02*
X163955009Y-55014810D01*
X163955009Y-55530625D02*
X163955009Y-55371930D01*
X163955009Y-57435205D02*
X163716859Y-57435205D01*
X163002659Y-55649690D02*
X163002659Y-55530625D01*
X163002659Y-56165485D02*
X163002659Y-56006805D01*
X163776409Y-56800345D02*
X163955009Y-56800345D01*
X161415409Y-52991031D02*
X161415409Y-53229156D01*
X163955009Y-56165485D02*
X163716859Y-56165485D01*
X163240709Y-55530625D02*
X163776409Y-55530625D01*
X163002659Y-54895750D02*
X163002659Y-54657695D01*
X158994959Y-52991031D02*
X158875959Y-52991031D01*
X161415409Y-53764869D02*
X161415409Y-53943395D01*
X163716859Y-56165485D02*
X163181159Y-56165485D01*
X160145709Y-53764869D02*
X160145709Y-53943395D01*
X163002659Y-57435205D02*
X163002659Y-57276525D01*
X163955009Y-56284544D02*
X163955009Y-56165485D01*
X162050259Y-53169625D02*
X162050259Y-52991031D01*
X159352109Y-52991031D02*
X158994959Y-52991031D01*
X159510858Y-52991031D02*
X159352109Y-52991031D01*
X159510858Y-53169625D02*
X159510858Y-52991031D01*
X159510858Y-53705339D02*
X159510858Y-53169625D01*
X160264708Y-52991031D02*
X160145709Y-52991031D01*
X160621809Y-52991031D02*
X160264708Y-52991031D01*
X162050259Y-53943395D02*
X162050259Y-53705339D01*
X160780559Y-53705339D02*
X160780559Y-53169625D01*
X160780559Y-53943395D02*
X160780559Y-53705339D01*
X161891509Y-52991031D02*
X161534409Y-52991031D01*
X162050259Y-52991031D02*
X161891509Y-52991031D01*
X163002659Y-54121990D02*
X163002659Y-53943395D01*
X162228809Y-53943395D02*
X162050259Y-53943395D01*
X163240709Y-56800345D02*
X163776409Y-56800345D01*
X163955009Y-55014810D02*
X163955009Y-54895750D01*
X163776409Y-55530625D02*
X163955009Y-55530625D01*
X163955009Y-56800345D02*
X163955009Y-56641665D01*
X163716859Y-57435205D02*
X163181159Y-57435205D01*
X163002659Y-55530625D02*
X163240709Y-55530625D01*
X163002659Y-56800345D02*
X163240709Y-56800345D01*
X163181159Y-57435205D02*
X163002659Y-57435205D01*
X163181159Y-54895750D02*
X163002659Y-54895750D01*
X160780559Y-52991031D02*
X160621809Y-52991031D01*
X163716859Y-54895750D02*
X163181159Y-54895750D01*
X160780559Y-53169625D02*
X160780559Y-52991031D01*
X163002659Y-53943395D02*
X162764509Y-53943395D01*
X163002659Y-54657695D02*
X163002659Y-54121990D01*
X159510858Y-53943395D02*
X159510858Y-53705339D01*
X159629809Y-53943395D02*
X159510858Y-53943395D01*
X163002659Y-56919405D02*
X163002659Y-56800345D01*
X159986959Y-53943395D02*
X159629809Y-53943395D01*
X163002659Y-56006805D02*
X163002659Y-55649690D01*
X163002659Y-57276525D02*
X163002659Y-56919405D01*
X163955009Y-57554265D02*
X163955009Y-57435205D01*
X160145709Y-53943395D02*
X159986959Y-53943395D01*
X160145709Y-53229156D02*
X160145709Y-53764869D01*
X160145709Y-52991031D02*
X160145709Y-53229156D01*
X154114364Y-61879440D02*
X154114364Y-61879440D01*
X154690523Y-62455690D02*
X154871049Y-62636190D01*
X154528534Y-62293690D02*
X154690523Y-62455690D01*
X154388384Y-62153540D02*
X154528534Y-62293690D01*
X154133174Y-61898340D02*
X154187329Y-61952490D01*
X154114364Y-61700940D02*
X154114364Y-61879440D01*
X153162000Y-60450990D02*
X153162000Y-60808090D01*
X154114364Y-61879440D02*
X154133174Y-61898340D01*
X154114364Y-61165189D02*
X154114364Y-61700940D01*
X153400057Y-60927089D02*
X153935769Y-60927089D01*
X153935769Y-60927089D02*
X154114364Y-60927089D01*
X153340525Y-60292239D02*
X153162000Y-60292239D01*
X153162000Y-60927089D02*
X153400057Y-60927089D01*
X153162000Y-60292239D02*
X153162000Y-60450990D01*
X153876238Y-60292239D02*
X153340525Y-60292239D01*
X154114364Y-60292239D02*
X153876238Y-60292239D01*
X153162000Y-60808090D02*
X153162000Y-60927089D01*
X154871049Y-62636190D02*
X155017803Y-62782940D01*
X154273524Y-62038690D02*
X154388384Y-62153540D01*
X154187329Y-61952490D02*
X154273524Y-62038690D01*
X154114364Y-60927089D02*
X154114364Y-61165189D01*
X156336454Y-53764869D02*
X156336454Y-53943395D01*
X157090304Y-53943395D02*
X156971314Y-53943395D01*
X158082359Y-52991031D02*
X157725164Y-52991031D01*
X158875959Y-52991031D02*
X158875959Y-53229156D01*
X158360109Y-53943395D02*
X158241109Y-53943395D01*
X156177704Y-53943395D02*
X155820589Y-53943395D01*
X156971314Y-53169625D02*
X156971314Y-52991031D01*
X156455444Y-52991031D02*
X156336454Y-52991031D01*
X157606174Y-53229156D02*
X157606174Y-53764869D01*
X156336454Y-53943395D02*
X156177704Y-53943395D01*
X156336454Y-52991031D02*
X156336454Y-53229156D01*
X156971314Y-53705339D02*
X156971314Y-53169625D01*
X158241109Y-53169625D02*
X158241109Y-52991031D01*
X157447424Y-53943395D02*
X157090304Y-53943395D01*
X157606174Y-53764869D02*
X157606174Y-53943395D01*
X157606174Y-52991031D02*
X157606174Y-53229156D01*
X157725164Y-52991031D02*
X157606174Y-52991031D01*
X158241109Y-52991031D02*
X158082359Y-52991031D01*
X158241109Y-53705339D02*
X158241109Y-53169625D01*
X158241109Y-53943395D02*
X158241109Y-53705339D01*
X158717209Y-53943395D02*
X158360109Y-53943395D01*
X158875959Y-53229156D02*
X158875959Y-53764869D01*
X158875959Y-53943395D02*
X158717209Y-53943395D01*
X156336454Y-53229156D02*
X156336454Y-53764869D01*
X156812564Y-52991031D02*
X156455444Y-52991031D01*
X156971314Y-52991031D02*
X156812564Y-52991031D01*
X156971314Y-53943395D02*
X156971314Y-53705339D01*
X157606174Y-53943395D02*
X157447424Y-53943395D01*
X158875959Y-53764869D02*
X158875959Y-53943395D01*
X154114364Y-55213250D02*
X153876238Y-55213250D01*
X154114364Y-56006875D02*
X154114364Y-56363994D01*
X155066719Y-53764869D02*
X155066719Y-53943395D01*
X155701594Y-53169625D02*
X155701594Y-52991031D01*
X155066719Y-52991031D02*
X155066719Y-53229156D01*
X154114364Y-58546290D02*
X154114364Y-58903440D01*
X153400057Y-58387540D02*
X153935769Y-58387540D01*
X154114364Y-58387540D02*
X154114364Y-58546290D01*
X154114364Y-60173240D02*
X154114364Y-60292239D01*
X154828594Y-53943395D02*
X154292889Y-53943395D01*
X154114364Y-59816140D02*
X154114364Y-60173240D01*
X154114364Y-59657390D02*
X154114364Y-59816140D01*
X154114364Y-56363994D02*
X154114364Y-56482985D01*
X153935769Y-59657390D02*
X154114364Y-59657390D01*
X155701594Y-53705339D02*
X155701594Y-53169625D01*
X153400057Y-59657390D02*
X153935769Y-59657390D01*
X153162000Y-59657390D02*
X153400057Y-59657390D01*
X153162000Y-59538389D02*
X153162000Y-59657390D01*
X154114364Y-55848125D02*
X154114364Y-56006875D01*
X153162000Y-55848125D02*
X153400057Y-55848125D01*
X154114364Y-54975195D02*
X154114364Y-55213250D01*
X155185709Y-52991031D02*
X155066719Y-52991031D01*
X153935769Y-58387540D02*
X154114364Y-58387540D01*
X153935769Y-55848125D02*
X154114364Y-55848125D01*
X153162000Y-59181190D02*
X153162000Y-59538389D01*
X153162000Y-59022440D02*
X153162000Y-59181190D01*
X153340525Y-59022440D02*
X153162000Y-59022440D01*
X153876238Y-59022440D02*
X153340525Y-59022440D01*
X154114364Y-59022440D02*
X153876238Y-59022440D01*
X153162000Y-58268590D02*
X153162000Y-58387540D01*
X153162000Y-56482985D02*
X153162000Y-56641734D01*
X154114364Y-57752705D02*
X153876238Y-57752705D01*
X154114364Y-53943395D02*
X154114364Y-54260895D01*
X155066719Y-53943395D02*
X154828594Y-53943395D01*
X153162000Y-57911440D02*
X153162000Y-58268590D01*
X153876238Y-57752705D02*
X153340525Y-57752705D01*
X154114364Y-57633710D02*
X154114364Y-57752705D01*
X154114364Y-57276595D02*
X154114364Y-57633710D01*
X153162000Y-57117845D02*
X153400057Y-57117845D01*
X153162000Y-55729115D02*
X153162000Y-55848125D01*
X154114364Y-54260895D02*
X154114364Y-54975195D01*
X153162000Y-56641734D02*
X153162000Y-56998850D01*
X153340525Y-55213250D02*
X153162000Y-55213250D01*
X153162000Y-57752705D02*
X153162000Y-57911440D01*
X153340525Y-57752705D02*
X153162000Y-57752705D01*
X155542844Y-52991031D02*
X155185709Y-52991031D01*
X155701594Y-52991031D02*
X155542844Y-52991031D01*
X154292889Y-53943395D02*
X154114364Y-53943395D01*
X154114364Y-57117845D02*
X154114364Y-57276595D01*
X153876238Y-56482985D02*
X153340525Y-56482985D01*
X153400057Y-55848125D02*
X153935769Y-55848125D01*
X153162000Y-56998850D02*
X153162000Y-57117845D01*
X154114364Y-56482985D02*
X153876238Y-56482985D01*
X153876238Y-55213250D02*
X153340525Y-55213250D01*
X155820589Y-53943395D02*
X155701594Y-53943395D01*
X154114364Y-58903440D02*
X154114364Y-59022440D01*
X153162000Y-58387540D02*
X153400057Y-58387540D01*
X153162000Y-55213250D02*
X153162000Y-55372000D01*
X153935769Y-57117845D02*
X154114364Y-57117845D01*
X153400057Y-57117845D02*
X153935769Y-57117845D01*
X155066719Y-53229156D02*
X155066719Y-53764869D01*
X155701594Y-53943395D02*
X155701594Y-53705339D01*
X153340525Y-56482985D02*
X153162000Y-56482985D01*
X153162000Y-55372000D02*
X153162000Y-55729115D01*
M02*
