%TF.GenerationSoftware,KiCad,Pcbnew,(5.1.9)-1*%
%TF.CreationDate,2021-05-23T17:46:56+08:00*%
%TF.ProjectId,V1,56312e6b-6963-4616-945f-706362585858,rev?*%
%TF.SameCoordinates,Original*%
%TF.FileFunction,Profile,NP*%
%FSLAX46Y46*%
G04 Gerber Fmt 4.6, Leading zero omitted, Abs format (unit mm)*
G04 Created by KiCad (PCBNEW (5.1.9)-1) date 2021-05-23 17:46:56*
%MOMM*%
%LPD*%
G01*
G04 APERTURE LIST*
%TA.AperFunction,Profile*%
%ADD10C,0.203200*%
%TD*%
%TA.AperFunction,Profile*%
%ADD11C,0.050000*%
%TD*%
%TA.AperFunction,Profile*%
%ADD12C,0.120000*%
%TD*%
%TA.AperFunction,Profile*%
%ADD13C,0.200000*%
%TD*%
%TA.AperFunction,Profile*%
%ADD14C,0.100000*%
%TD*%
G04 APERTURE END LIST*
D10*
X184299987Y-122299478D02*
G75*
G02*
X185350000Y-121250000I1025013J24478D01*
G01*
D11*
X88000000Y-52250000D02*
X88000000Y-72426000D01*
D12*
X88900000Y-73326000D02*
G75*
G02*
X89800000Y-74226000I0J-900000D01*
G01*
X88900000Y-73326000D02*
G75*
G02*
X88000000Y-72426000I0J900000D01*
G01*
D11*
X89800000Y-120326000D02*
X89800000Y-74226000D01*
D12*
X89800000Y-120326000D02*
G75*
G02*
X88900000Y-121226000I-900000J0D01*
G01*
X88000000Y-122126000D02*
G75*
G02*
X88900000Y-121226000I900000J0D01*
G01*
D13*
X133000000Y-123075000D02*
X133000000Y-125600000D01*
X133000000Y-123075000D02*
G75*
G03*
X129350000Y-123075000I-1825000J0D01*
G01*
X129350000Y-129500000D02*
X129350000Y-123075000D01*
X121350000Y-129500000D02*
X129350000Y-129500000D01*
X121350000Y-122250000D02*
X121350000Y-129500000D01*
X120350000Y-121250000D02*
G75*
G02*
X121350000Y-122250000I0J-1000000D01*
G01*
X104000000Y-121250000D02*
X120350000Y-121250000D01*
X103000000Y-122250000D02*
G75*
G02*
X104000000Y-121250000I1000000J0D01*
G01*
X103000000Y-122250000D02*
X103000000Y-128500000D01*
X102000000Y-129500000D02*
G75*
G03*
X103000000Y-128500000I0J1000000D01*
G01*
X89000000Y-129500000D02*
X102000000Y-129500000D01*
X88000000Y-128500000D02*
G75*
G03*
X89000000Y-129500000I1000000J0D01*
G01*
X88000000Y-128500000D02*
X88000000Y-122126000D01*
X89000000Y-51250000D02*
G75*
G03*
X88000000Y-52250000I0J-1000000D01*
G01*
X89000000Y-51250000D02*
X199050000Y-51250000D01*
X200050000Y-52250000D02*
G75*
G03*
X199050000Y-51250000I-1000000J0D01*
G01*
X200050000Y-52250000D02*
X200050000Y-120250000D01*
X97100000Y-124650001D02*
G75*
G03*
X97100000Y-124650001I-1600000J0D01*
G01*
X185350000Y-121250000D02*
X199050000Y-121250000D01*
X199050000Y-121250000D02*
G75*
G03*
X200050000Y-120250000I0J1000000D01*
G01*
X184300000Y-125600000D02*
X184300000Y-122300000D01*
D14*
X144200000Y-126550000D02*
X144200000Y-133500000D01*
X146100000Y-126550000D02*
X146100000Y-133500000D01*
X133000000Y-125600000D02*
X133000000Y-133500000D01*
X133500000Y-134000000D02*
X143700000Y-134000000D01*
X184300000Y-125600000D02*
X184300000Y-133500000D01*
X146600000Y-134000000D02*
X183800000Y-134000000D01*
X133000000Y-133500000D02*
X133500000Y-134000000D01*
X144200000Y-133500000D02*
X143700000Y-134000000D01*
X146100000Y-133500000D02*
X146600000Y-134000000D01*
X184300000Y-133500000D02*
X183800000Y-134000000D01*
X144200000Y-126550000D02*
G75*
G02*
X146100000Y-126550000I950000J0D01*
G01*
D13*
X191850000Y-70250000D02*
G75*
G03*
X191850000Y-70250000I-1600000J0D01*
G01*
X159850000Y-70250000D02*
G75*
G03*
X159850000Y-70250000I-1600000J0D01*
G01*
X191850000Y-102250000D02*
G75*
G03*
X191850000Y-102250000I-1600000J0D01*
G01*
X159850000Y-102250000D02*
G75*
G03*
X159850000Y-102250000I-1600000J0D01*
G01*
X165240796Y-101623165D02*
X189623165Y-77240796D01*
X187501845Y-75119475D02*
X163119475Y-99501845D01*
X185380525Y-72998155D02*
X160998155Y-97380525D01*
X158876835Y-95259204D02*
X183259204Y-70876835D01*
X192287113Y-83062129D02*
X171062129Y-104287113D01*
X168940809Y-102165793D02*
X190165793Y-80940809D01*
X192291036Y-91543487D02*
X179543487Y-104291036D01*
X177422167Y-102169715D02*
X190169715Y-89422167D01*
X156212887Y-89437871D02*
X177437871Y-68212887D01*
X179559191Y-70334207D02*
X158334207Y-91559191D01*
X156208964Y-80956513D02*
X168956513Y-68208964D01*
X171077833Y-70330285D02*
X158330285Y-83077833D01*
X158330284Y-83077833D02*
G75*
G02*
X156208964Y-80956513I-1060660J1060660D01*
G01*
X168956513Y-68208963D02*
G75*
G02*
X171077833Y-70330285I1060660J-1060661D01*
G01*
X158334207Y-91559191D02*
G75*
G02*
X156212887Y-89437871I-1060660J1060660D01*
G01*
X177437871Y-68212887D02*
G75*
G02*
X179559191Y-70334207I1060660J-1060660D01*
G01*
X190169716Y-89422167D02*
G75*
G02*
X192291036Y-91543487I1060660J-1060660D01*
G01*
X179543487Y-104291037D02*
G75*
G02*
X177422167Y-102169715I-1060660J1060661D01*
G01*
X190165793Y-80940809D02*
G75*
G02*
X192287113Y-83062129I1060660J-1060660D01*
G01*
X171062129Y-104287113D02*
G75*
G02*
X168940809Y-102165793I-1060660J1060660D01*
G01*
X183259203Y-70876835D02*
G75*
G02*
X185380525Y-72998155I1060661J-1060660D01*
G01*
X160998155Y-97380524D02*
G75*
G02*
X158876835Y-95259204I-1060660J1060660D01*
G01*
X165240797Y-101623165D02*
G75*
G02*
X163119475Y-99501845I-1060661J1060660D01*
G01*
X187501845Y-75119476D02*
G75*
G02*
X189623165Y-77240796I1060660J-1060660D01*
G01*
M02*
