%TF.GenerationSoftware,KiCad,Pcbnew,(5.1.9)-1*%
%TF.CreationDate,2021-05-24T00:29:36+08:00*%
%TF.ProjectId,V1,56312e6b-6963-4616-945f-706362585858,rev?*%
%TF.SameCoordinates,Original*%
%TF.FileFunction,Legend,Top*%
%TF.FilePolarity,Positive*%
%FSLAX46Y46*%
G04 Gerber Fmt 4.6, Leading zero omitted, Abs format (unit mm)*
G04 Created by KiCad (PCBNEW (5.1.9)-1) date 2021-05-24 00:29:36*
%MOMM*%
%LPD*%
G01*
G04 APERTURE LIST*
%ADD10C,0.200000*%
%ADD11C,0.150000*%
%ADD12C,0.120000*%
%ADD13C,0.127000*%
%ADD14C,0.152400*%
%ADD15C,0.100000*%
%ADD16C,0.010000*%
%ADD17C,0.015000*%
G04 APERTURE END LIST*
D10*
X121919952Y-54046428D02*
X121158047Y-54046428D01*
X121539000Y-54427380D02*
X121539000Y-53665476D01*
X105917952Y-54046428D02*
X105156047Y-54046428D01*
X105537000Y-54427380D02*
X105537000Y-53665476D01*
D11*
X129190857Y-52518571D02*
X128476571Y-52518571D01*
X128405142Y-53232857D01*
X128476571Y-53161428D01*
X128619428Y-53090000D01*
X128976571Y-53090000D01*
X129119428Y-53161428D01*
X129190857Y-53232857D01*
X129262285Y-53375714D01*
X129262285Y-53732857D01*
X129190857Y-53875714D01*
X129119428Y-53947142D01*
X128976571Y-54018571D01*
X128619428Y-54018571D01*
X128476571Y-53947142D01*
X128405142Y-53875714D01*
X129690857Y-52518571D02*
X130190857Y-54018571D01*
X130690857Y-52518571D01*
X131405142Y-52518571D02*
X131405142Y-52875714D01*
X131048000Y-52732857D02*
X131405142Y-52875714D01*
X131762285Y-52732857D01*
X131190857Y-53161428D02*
X131405142Y-52875714D01*
X131619428Y-53161428D01*
X113371428Y-53891571D02*
X112514285Y-53891571D01*
X112942857Y-53891571D02*
X112942857Y-52391571D01*
X112800000Y-52605857D01*
X112657142Y-52748714D01*
X112514285Y-52820142D01*
X113942857Y-52534428D02*
X114014285Y-52463000D01*
X114157142Y-52391571D01*
X114514285Y-52391571D01*
X114657142Y-52463000D01*
X114728571Y-52534428D01*
X114800000Y-52677285D01*
X114800000Y-52820142D01*
X114728571Y-53034428D01*
X113871428Y-53891571D01*
X114800000Y-53891571D01*
X115228571Y-52391571D02*
X115728571Y-53891571D01*
X116228571Y-52391571D01*
D12*
X149345276Y-75577500D02*
X149854724Y-75577500D01*
X149345276Y-76622500D02*
X149854724Y-76622500D01*
D10*
X137960000Y-88275000D02*
G75*
G03*
X137960000Y-88275000I-100000J0D01*
G01*
D13*
X139850000Y-87750000D02*
X144250000Y-87750000D01*
X139850000Y-94650000D02*
X144250000Y-94650000D01*
D12*
X138200000Y-78180000D02*
X139000000Y-77380000D01*
X139000000Y-77380000D02*
X149600000Y-77380000D01*
X149600000Y-77380000D02*
X149600000Y-82020000D01*
X149600000Y-82020000D02*
X138200000Y-82020000D01*
X138200000Y-82020000D02*
X138200000Y-78180000D01*
X149117621Y-92730000D02*
X148782379Y-92730000D01*
X149117621Y-91970000D02*
X148782379Y-91970000D01*
X149117621Y-91730000D02*
X148782379Y-91730000D01*
X149117621Y-90970000D02*
X148782379Y-90970000D01*
X149117621Y-89480000D02*
X148782379Y-89480000D01*
X149117621Y-88720000D02*
X148782379Y-88720000D01*
X149117621Y-88480000D02*
X148782379Y-88480000D01*
X149117621Y-87720000D02*
X148782379Y-87720000D01*
X147578733Y-98390000D02*
X147921267Y-98390000D01*
X147578733Y-99410000D02*
X147921267Y-99410000D01*
X144890000Y-85446267D02*
X144890000Y-85103733D01*
X145910000Y-85446267D02*
X145910000Y-85103733D01*
X146096267Y-97885000D02*
X145803733Y-97885000D01*
X146096267Y-96865000D02*
X145803733Y-96865000D01*
X136015835Y-93835000D02*
X135784165Y-93835000D01*
X136015835Y-93115000D02*
X135784165Y-93115000D01*
X146115835Y-96385000D02*
X145884165Y-96385000D01*
X146115835Y-95665000D02*
X145884165Y-95665000D01*
X143365000Y-85396267D02*
X143365000Y-85103733D01*
X144385000Y-85396267D02*
X144385000Y-85103733D01*
X140990000Y-85340835D02*
X140990000Y-85109165D01*
X141710000Y-85340835D02*
X141710000Y-85109165D01*
X142015000Y-85340835D02*
X142015000Y-85109165D01*
X142735000Y-85340835D02*
X142735000Y-85109165D01*
D10*
X91000000Y-76079999D02*
X91000000Y-115849999D01*
X91000000Y-107854999D02*
X91000000Y-107579999D01*
X199250000Y-119249999D02*
X199250000Y-53249999D01*
X134525000Y-76079999D02*
X91000000Y-76079999D01*
X91000000Y-107579999D02*
X134525000Y-107579999D01*
X117400000Y-119249999D02*
X117400000Y-117849999D01*
X118400000Y-120249999D02*
X198250000Y-120249999D01*
X198250000Y-52249999D02*
X138800000Y-52249999D01*
X92000000Y-116849999D02*
X116400000Y-116849999D01*
X137800000Y-53249999D02*
X137800000Y-73799999D01*
X134525000Y-107579999D02*
X134525000Y-76079999D01*
X136800000Y-74799999D02*
X92000000Y-74799999D01*
X91000000Y-76079999D02*
X91000000Y-75799999D01*
D14*
X132850000Y-109850000D02*
X135550000Y-109850000D01*
X135550000Y-116650000D02*
X132850000Y-116650000D01*
X186650000Y-109850000D02*
X186650000Y-116650000D01*
X183950000Y-109850000D02*
X186650000Y-109850000D01*
D15*
G36*
X134650000Y-115650000D02*
G01*
X133650000Y-115650000D01*
X134150000Y-114650000D01*
X134650000Y-115650000D01*
G37*
X134650000Y-115650000D02*
X133650000Y-115650000D01*
X134150000Y-114650000D01*
X134650000Y-115650000D01*
D14*
X132850000Y-116650000D02*
X132850000Y-109850000D01*
X186650000Y-116650000D02*
X183950000Y-116650000D01*
D10*
X198250000Y-120249999D02*
G75*
G03*
X199250000Y-119249999I0J1000000D01*
G01*
X117400000Y-117849999D02*
G75*
G03*
X116400000Y-116849999I-1000000J0D01*
G01*
X117400000Y-119249999D02*
G75*
G03*
X118400000Y-120249999I1000000J0D01*
G01*
X92000000Y-116849999D02*
G75*
G02*
X91000000Y-115849999I0J1000000D01*
G01*
X137800000Y-53249999D02*
G75*
G02*
X138800000Y-52249999I1000000J0D01*
G01*
X136800000Y-74799999D02*
G75*
G03*
X137800000Y-73799999I0J1000000D01*
G01*
X199250000Y-53249999D02*
G75*
G03*
X198250000Y-52249999I-1000000J0D01*
G01*
X91000000Y-75799999D02*
G75*
G02*
X92000000Y-74799999I1000000J0D01*
G01*
D16*
G36*
X156969900Y-63424903D02*
G01*
X157081450Y-63480522D01*
X157179908Y-63582931D01*
X157207023Y-63620864D01*
X157236562Y-63670500D01*
X157255728Y-63724412D01*
X157266693Y-63796364D01*
X157271629Y-63900122D01*
X157272713Y-64037101D01*
X157267818Y-64224815D01*
X157250804Y-64365758D01*
X157218177Y-64470908D01*
X157166442Y-64551243D01*
X157092104Y-64617741D01*
X157086642Y-64621678D01*
X157013380Y-64661953D01*
X156925160Y-64681880D01*
X156812962Y-64686793D01*
X156630567Y-64686793D01*
X156630491Y-64863857D01*
X156628793Y-64962470D01*
X156618450Y-65020314D01*
X156591422Y-65055006D01*
X156539668Y-65084164D01*
X156527239Y-65090121D01*
X156469077Y-65118039D01*
X156424044Y-65135672D01*
X156390559Y-65137194D01*
X156367038Y-65116781D01*
X156351900Y-65068607D01*
X156343563Y-64986846D01*
X156340444Y-64865672D01*
X156340960Y-64699260D01*
X156343529Y-64481785D01*
X156344332Y-64416736D01*
X156347222Y-64192502D01*
X156349812Y-64045821D01*
X156630414Y-64045821D01*
X156631991Y-64170326D01*
X156639000Y-64251787D01*
X156654858Y-64305515D01*
X156682981Y-64346823D01*
X156702075Y-64366971D01*
X156780135Y-64425921D01*
X156849247Y-64430720D01*
X156920560Y-64382038D01*
X156922368Y-64380241D01*
X156951383Y-64342618D01*
X156969033Y-64291484D01*
X156977936Y-64212738D01*
X156980709Y-64092276D01*
X156980759Y-64065588D01*
X156974058Y-63899583D01*
X156952248Y-63784505D01*
X156912765Y-63714254D01*
X156853044Y-63682729D01*
X156818528Y-63679552D01*
X156736611Y-63694460D01*
X156680421Y-63743548D01*
X156646598Y-63833362D01*
X156631780Y-63970445D01*
X156630414Y-64045821D01*
X156349812Y-64045821D01*
X156350287Y-64018952D01*
X156354247Y-63888382D01*
X156359826Y-63793087D01*
X156367746Y-63725364D01*
X156378731Y-63677507D01*
X156393501Y-63641813D01*
X156412782Y-63610578D01*
X156421049Y-63598824D01*
X156530712Y-63487797D01*
X156669365Y-63424847D01*
X156829754Y-63407297D01*
X156969900Y-63424903D01*
G37*
X156969900Y-63424903D02*
X157081450Y-63480522D01*
X157179908Y-63582931D01*
X157207023Y-63620864D01*
X157236562Y-63670500D01*
X157255728Y-63724412D01*
X157266693Y-63796364D01*
X157271629Y-63900122D01*
X157272713Y-64037101D01*
X157267818Y-64224815D01*
X157250804Y-64365758D01*
X157218177Y-64470908D01*
X157166442Y-64551243D01*
X157092104Y-64617741D01*
X157086642Y-64621678D01*
X157013380Y-64661953D01*
X156925160Y-64681880D01*
X156812962Y-64686793D01*
X156630567Y-64686793D01*
X156630491Y-64863857D01*
X156628793Y-64962470D01*
X156618450Y-65020314D01*
X156591422Y-65055006D01*
X156539668Y-65084164D01*
X156527239Y-65090121D01*
X156469077Y-65118039D01*
X156424044Y-65135672D01*
X156390559Y-65137194D01*
X156367038Y-65116781D01*
X156351900Y-65068607D01*
X156343563Y-64986846D01*
X156340444Y-64865672D01*
X156340960Y-64699260D01*
X156343529Y-64481785D01*
X156344332Y-64416736D01*
X156347222Y-64192502D01*
X156349812Y-64045821D01*
X156630414Y-64045821D01*
X156631991Y-64170326D01*
X156639000Y-64251787D01*
X156654858Y-64305515D01*
X156682981Y-64346823D01*
X156702075Y-64366971D01*
X156780135Y-64425921D01*
X156849247Y-64430720D01*
X156920560Y-64382038D01*
X156922368Y-64380241D01*
X156951383Y-64342618D01*
X156969033Y-64291484D01*
X156977936Y-64212738D01*
X156980709Y-64092276D01*
X156980759Y-64065588D01*
X156974058Y-63899583D01*
X156952248Y-63784505D01*
X156912765Y-63714254D01*
X156853044Y-63682729D01*
X156818528Y-63679552D01*
X156736611Y-63694460D01*
X156680421Y-63743548D01*
X156646598Y-63833362D01*
X156631780Y-63970445D01*
X156630414Y-64045821D01*
X156349812Y-64045821D01*
X156350287Y-64018952D01*
X156354247Y-63888382D01*
X156359826Y-63793087D01*
X156367746Y-63725364D01*
X156378731Y-63677507D01*
X156393501Y-63641813D01*
X156412782Y-63610578D01*
X156421049Y-63598824D01*
X156530712Y-63487797D01*
X156669365Y-63424847D01*
X156829754Y-63407297D01*
X156969900Y-63424903D01*
G36*
X159215429Y-63440719D02*
G01*
X159309123Y-63494914D01*
X159374264Y-63548707D01*
X159421907Y-63605066D01*
X159454728Y-63673987D01*
X159475406Y-63765468D01*
X159486620Y-63889506D01*
X159491049Y-64056098D01*
X159491563Y-64175851D01*
X159491563Y-64616659D01*
X159367483Y-64672283D01*
X159243402Y-64727907D01*
X159228805Y-64245095D01*
X159222773Y-64064779D01*
X159216445Y-63933901D01*
X159208606Y-63843511D01*
X159198037Y-63784664D01*
X159183523Y-63748413D01*
X159163848Y-63725810D01*
X159157535Y-63720917D01*
X159061888Y-63682706D01*
X158965207Y-63697827D01*
X158907655Y-63737943D01*
X158884245Y-63766370D01*
X158868039Y-63803672D01*
X158857741Y-63860223D01*
X158852049Y-63946394D01*
X158849664Y-64072558D01*
X158849264Y-64204042D01*
X158849186Y-64368999D01*
X158846361Y-64485761D01*
X158836907Y-64564510D01*
X158816940Y-64615431D01*
X158782576Y-64648706D01*
X158729932Y-64674520D01*
X158659617Y-64701344D01*
X158582820Y-64730542D01*
X158591962Y-64212346D01*
X158595643Y-64025539D01*
X158599950Y-63887490D01*
X158606123Y-63788568D01*
X158615402Y-63719145D01*
X158629027Y-63669590D01*
X158648239Y-63630273D01*
X158671402Y-63595584D01*
X158783152Y-63484770D01*
X158919513Y-63420689D01*
X159067825Y-63405339D01*
X159215429Y-63440719D01*
G37*
X159215429Y-63440719D02*
X159309123Y-63494914D01*
X159374264Y-63548707D01*
X159421907Y-63605066D01*
X159454728Y-63673987D01*
X159475406Y-63765468D01*
X159486620Y-63889506D01*
X159491049Y-64056098D01*
X159491563Y-64175851D01*
X159491563Y-64616659D01*
X159367483Y-64672283D01*
X159243402Y-64727907D01*
X159228805Y-64245095D01*
X159222773Y-64064779D01*
X159216445Y-63933901D01*
X159208606Y-63843511D01*
X159198037Y-63784664D01*
X159183523Y-63748413D01*
X159163848Y-63725810D01*
X159157535Y-63720917D01*
X159061888Y-63682706D01*
X158965207Y-63697827D01*
X158907655Y-63737943D01*
X158884245Y-63766370D01*
X158868039Y-63803672D01*
X158857741Y-63860223D01*
X158852049Y-63946394D01*
X158849664Y-64072558D01*
X158849264Y-64204042D01*
X158849186Y-64368999D01*
X158846361Y-64485761D01*
X158836907Y-64564510D01*
X158816940Y-64615431D01*
X158782576Y-64648706D01*
X158729932Y-64674520D01*
X158659617Y-64701344D01*
X158582820Y-64730542D01*
X158591962Y-64212346D01*
X158595643Y-64025539D01*
X158599950Y-63887490D01*
X158606123Y-63788568D01*
X158615402Y-63719145D01*
X158629027Y-63669590D01*
X158648239Y-63630273D01*
X158671402Y-63595584D01*
X158783152Y-63484770D01*
X158919513Y-63420689D01*
X159067825Y-63405339D01*
X159215429Y-63440719D01*
G36*
X155846221Y-63429015D02*
G01*
X155983061Y-63500968D01*
X156084051Y-63616766D01*
X156119925Y-63691213D01*
X156147839Y-63802992D01*
X156162129Y-63944227D01*
X156163484Y-64098371D01*
X156152595Y-64248879D01*
X156130153Y-64379205D01*
X156096850Y-64472803D01*
X156086615Y-64488922D01*
X155965382Y-64609249D01*
X155821387Y-64681317D01*
X155665139Y-64702408D01*
X155507148Y-64669802D01*
X155463180Y-64650253D01*
X155377556Y-64590012D01*
X155302408Y-64510135D01*
X155295306Y-64500004D01*
X155266439Y-64451181D01*
X155247357Y-64398990D01*
X155236084Y-64330285D01*
X155230645Y-64231918D01*
X155229062Y-64090744D01*
X155229035Y-64059092D01*
X155229107Y-64049019D01*
X155520989Y-64049019D01*
X155522687Y-64182256D01*
X155529372Y-64270674D01*
X155543425Y-64327785D01*
X155567229Y-64367102D01*
X155579379Y-64380241D01*
X155649236Y-64430172D01*
X155717059Y-64427895D01*
X155785635Y-64384584D01*
X155826535Y-64338346D01*
X155850758Y-64270857D01*
X155864361Y-64164433D01*
X155865294Y-64152020D01*
X155867616Y-63959147D01*
X155843350Y-63815900D01*
X155792824Y-63723160D01*
X155716368Y-63681807D01*
X155689076Y-63679552D01*
X155617411Y-63690893D01*
X155568390Y-63730184D01*
X155538418Y-63805326D01*
X155523899Y-63924222D01*
X155520989Y-64049019D01*
X155229107Y-64049019D01*
X155230122Y-63908659D01*
X155234688Y-63803549D01*
X155244688Y-63730714D01*
X155262079Y-63677108D01*
X155288816Y-63629681D01*
X155294724Y-63620864D01*
X155394032Y-63502007D01*
X155502242Y-63433008D01*
X155633981Y-63405619D01*
X155678717Y-63404281D01*
X155846221Y-63429015D01*
G37*
X155846221Y-63429015D02*
X155983061Y-63500968D01*
X156084051Y-63616766D01*
X156119925Y-63691213D01*
X156147839Y-63802992D01*
X156162129Y-63944227D01*
X156163484Y-64098371D01*
X156152595Y-64248879D01*
X156130153Y-64379205D01*
X156096850Y-64472803D01*
X156086615Y-64488922D01*
X155965382Y-64609249D01*
X155821387Y-64681317D01*
X155665139Y-64702408D01*
X155507148Y-64669802D01*
X155463180Y-64650253D01*
X155377556Y-64590012D01*
X155302408Y-64510135D01*
X155295306Y-64500004D01*
X155266439Y-64451181D01*
X155247357Y-64398990D01*
X155236084Y-64330285D01*
X155230645Y-64231918D01*
X155229062Y-64090744D01*
X155229035Y-64059092D01*
X155229107Y-64049019D01*
X155520989Y-64049019D01*
X155522687Y-64182256D01*
X155529372Y-64270674D01*
X155543425Y-64327785D01*
X155567229Y-64367102D01*
X155579379Y-64380241D01*
X155649236Y-64430172D01*
X155717059Y-64427895D01*
X155785635Y-64384584D01*
X155826535Y-64338346D01*
X155850758Y-64270857D01*
X155864361Y-64164433D01*
X155865294Y-64152020D01*
X155867616Y-63959147D01*
X155843350Y-63815900D01*
X155792824Y-63723160D01*
X155716368Y-63681807D01*
X155689076Y-63679552D01*
X155617411Y-63690893D01*
X155568390Y-63730184D01*
X155538418Y-63805326D01*
X155523899Y-63924222D01*
X155520989Y-64049019D01*
X155229107Y-64049019D01*
X155230122Y-63908659D01*
X155234688Y-63803549D01*
X155244688Y-63730714D01*
X155262079Y-63677108D01*
X155288816Y-63629681D01*
X155294724Y-63620864D01*
X155394032Y-63502007D01*
X155502242Y-63433008D01*
X155633981Y-63405619D01*
X155678717Y-63404281D01*
X155846221Y-63429015D01*
G36*
X158113552Y-63447676D02*
G01*
X158228658Y-63525111D01*
X158317611Y-63636949D01*
X158370749Y-63779265D01*
X158381497Y-63884015D01*
X158380276Y-63927726D01*
X158370056Y-63961194D01*
X158341961Y-63991179D01*
X158287116Y-64024440D01*
X158196645Y-64067738D01*
X158061672Y-64127833D01*
X158060989Y-64128134D01*
X157936751Y-64185037D01*
X157834873Y-64235565D01*
X157765767Y-64274280D01*
X157739846Y-64295740D01*
X157739839Y-64295913D01*
X157762685Y-64342644D01*
X157816109Y-64394154D01*
X157877442Y-64431261D01*
X157908515Y-64438632D01*
X157993289Y-64413138D01*
X158066293Y-64349291D01*
X158101913Y-64279094D01*
X158136180Y-64227343D01*
X158203303Y-64168409D01*
X158282208Y-64117496D01*
X158351821Y-64089809D01*
X158366377Y-64088287D01*
X158382763Y-64113321D01*
X158383750Y-64177311D01*
X158371708Y-64263593D01*
X158349007Y-64355501D01*
X158318014Y-64436369D01*
X158316448Y-64439509D01*
X158223181Y-64569734D01*
X158102304Y-64658311D01*
X157965027Y-64701786D01*
X157822560Y-64696706D01*
X157686112Y-64639616D01*
X157680045Y-64635602D01*
X157572710Y-64538326D01*
X157502132Y-64411409D01*
X157463074Y-64244526D01*
X157457832Y-64197639D01*
X157448548Y-63976329D01*
X157459678Y-63873124D01*
X157739839Y-63873124D01*
X157743479Y-63937503D01*
X157763389Y-63956291D01*
X157813026Y-63942235D01*
X157891267Y-63909009D01*
X157978726Y-63867359D01*
X157980899Y-63866256D01*
X158055030Y-63827265D01*
X158084781Y-63801244D01*
X158077445Y-63773965D01*
X158046553Y-63738121D01*
X157967960Y-63686251D01*
X157883323Y-63682439D01*
X157807403Y-63720189D01*
X157754965Y-63793001D01*
X157739839Y-63873124D01*
X157459678Y-63873124D01*
X157467644Y-63799261D01*
X157516634Y-63658829D01*
X157584836Y-63560447D01*
X157707935Y-63461030D01*
X157843528Y-63411711D01*
X157981955Y-63408568D01*
X158113552Y-63447676D01*
G37*
X158113552Y-63447676D02*
X158228658Y-63525111D01*
X158317611Y-63636949D01*
X158370749Y-63779265D01*
X158381497Y-63884015D01*
X158380276Y-63927726D01*
X158370056Y-63961194D01*
X158341961Y-63991179D01*
X158287116Y-64024440D01*
X158196645Y-64067738D01*
X158061672Y-64127833D01*
X158060989Y-64128134D01*
X157936751Y-64185037D01*
X157834873Y-64235565D01*
X157765767Y-64274280D01*
X157739846Y-64295740D01*
X157739839Y-64295913D01*
X157762685Y-64342644D01*
X157816109Y-64394154D01*
X157877442Y-64431261D01*
X157908515Y-64438632D01*
X157993289Y-64413138D01*
X158066293Y-64349291D01*
X158101913Y-64279094D01*
X158136180Y-64227343D01*
X158203303Y-64168409D01*
X158282208Y-64117496D01*
X158351821Y-64089809D01*
X158366377Y-64088287D01*
X158382763Y-64113321D01*
X158383750Y-64177311D01*
X158371708Y-64263593D01*
X158349007Y-64355501D01*
X158318014Y-64436369D01*
X158316448Y-64439509D01*
X158223181Y-64569734D01*
X158102304Y-64658311D01*
X157965027Y-64701786D01*
X157822560Y-64696706D01*
X157686112Y-64639616D01*
X157680045Y-64635602D01*
X157572710Y-64538326D01*
X157502132Y-64411409D01*
X157463074Y-64244526D01*
X157457832Y-64197639D01*
X157448548Y-63976329D01*
X157459678Y-63873124D01*
X157739839Y-63873124D01*
X157743479Y-63937503D01*
X157763389Y-63956291D01*
X157813026Y-63942235D01*
X157891267Y-63909009D01*
X157978726Y-63867359D01*
X157980899Y-63866256D01*
X158055030Y-63827265D01*
X158084781Y-63801244D01*
X158077445Y-63773965D01*
X158046553Y-63738121D01*
X157967960Y-63686251D01*
X157883323Y-63682439D01*
X157807403Y-63720189D01*
X157754965Y-63793001D01*
X157739839Y-63873124D01*
X157459678Y-63873124D01*
X157467644Y-63799261D01*
X157516634Y-63658829D01*
X157584836Y-63560447D01*
X157707935Y-63461030D01*
X157843528Y-63411711D01*
X157981955Y-63408568D01*
X158113552Y-63447676D01*
G36*
X160542598Y-63286857D02*
G01*
X160551154Y-63406188D01*
X160560981Y-63476506D01*
X160574599Y-63507179D01*
X160594527Y-63507571D01*
X160600989Y-63503910D01*
X160686940Y-63477398D01*
X160798745Y-63478946D01*
X160912414Y-63506199D01*
X160983510Y-63541455D01*
X161056405Y-63597778D01*
X161109693Y-63661519D01*
X161146275Y-63742510D01*
X161169050Y-63850586D01*
X161180919Y-63995580D01*
X161184782Y-64187326D01*
X161184851Y-64224109D01*
X161184897Y-64637288D01*
X161092954Y-64669339D01*
X161027652Y-64691144D01*
X160991824Y-64701297D01*
X160990770Y-64701391D01*
X160987242Y-64673860D01*
X160984239Y-64597923D01*
X160981990Y-64483565D01*
X160980724Y-64340769D01*
X160980529Y-64253951D01*
X160980123Y-64082773D01*
X160978032Y-63960088D01*
X160972947Y-63876000D01*
X160963560Y-63820614D01*
X160948561Y-63784032D01*
X160926642Y-63756359D01*
X160912957Y-63743032D01*
X160818949Y-63689328D01*
X160716364Y-63685307D01*
X160623290Y-63730725D01*
X160606078Y-63747123D01*
X160580832Y-63777957D01*
X160563320Y-63814531D01*
X160552142Y-63867415D01*
X160545896Y-63947177D01*
X160543182Y-64064385D01*
X160542598Y-64225991D01*
X160542598Y-64637288D01*
X160450655Y-64669339D01*
X160385353Y-64691144D01*
X160349525Y-64701297D01*
X160348471Y-64701391D01*
X160345775Y-64673448D01*
X160343345Y-64594630D01*
X160341278Y-64472453D01*
X160339671Y-64314432D01*
X160338623Y-64128083D01*
X160338231Y-63920920D01*
X160338230Y-63911706D01*
X160338230Y-63122020D01*
X160433115Y-63081997D01*
X160528000Y-63041973D01*
X160542598Y-63286857D01*
G37*
X160542598Y-63286857D02*
X160551154Y-63406188D01*
X160560981Y-63476506D01*
X160574599Y-63507179D01*
X160594527Y-63507571D01*
X160600989Y-63503910D01*
X160686940Y-63477398D01*
X160798745Y-63478946D01*
X160912414Y-63506199D01*
X160983510Y-63541455D01*
X161056405Y-63597778D01*
X161109693Y-63661519D01*
X161146275Y-63742510D01*
X161169050Y-63850586D01*
X161180919Y-63995580D01*
X161184782Y-64187326D01*
X161184851Y-64224109D01*
X161184897Y-64637288D01*
X161092954Y-64669339D01*
X161027652Y-64691144D01*
X160991824Y-64701297D01*
X160990770Y-64701391D01*
X160987242Y-64673860D01*
X160984239Y-64597923D01*
X160981990Y-64483565D01*
X160980724Y-64340769D01*
X160980529Y-64253951D01*
X160980123Y-64082773D01*
X160978032Y-63960088D01*
X160972947Y-63876000D01*
X160963560Y-63820614D01*
X160948561Y-63784032D01*
X160926642Y-63756359D01*
X160912957Y-63743032D01*
X160818949Y-63689328D01*
X160716364Y-63685307D01*
X160623290Y-63730725D01*
X160606078Y-63747123D01*
X160580832Y-63777957D01*
X160563320Y-63814531D01*
X160552142Y-63867415D01*
X160545896Y-63947177D01*
X160543182Y-64064385D01*
X160542598Y-64225991D01*
X160542598Y-64637288D01*
X160450655Y-64669339D01*
X160385353Y-64691144D01*
X160349525Y-64701297D01*
X160348471Y-64701391D01*
X160345775Y-64673448D01*
X160343345Y-64594630D01*
X160341278Y-64472453D01*
X160339671Y-64314432D01*
X160338623Y-64128083D01*
X160338231Y-63920920D01*
X160338230Y-63911706D01*
X160338230Y-63122020D01*
X160433115Y-63081997D01*
X160528000Y-63041973D01*
X160542598Y-63286857D01*
G36*
X161877944Y-63487360D02*
G01*
X161992343Y-63529842D01*
X161993652Y-63530658D01*
X162064403Y-63582730D01*
X162116636Y-63643584D01*
X162153371Y-63722887D01*
X162177634Y-63830309D01*
X162192445Y-63975517D01*
X162200829Y-64168179D01*
X162201564Y-64195628D01*
X162212120Y-64609521D01*
X162123291Y-64655456D01*
X162059018Y-64686498D01*
X162020210Y-64701206D01*
X162018415Y-64701391D01*
X162011700Y-64674250D01*
X162006365Y-64601041D01*
X162003083Y-64494081D01*
X162002368Y-64407469D01*
X162002351Y-64267162D01*
X161995937Y-64179051D01*
X161973580Y-64137025D01*
X161925732Y-64134975D01*
X161842849Y-64166790D01*
X161717713Y-64225272D01*
X161625697Y-64273845D01*
X161578371Y-64315986D01*
X161564458Y-64361916D01*
X161564437Y-64364189D01*
X161587395Y-64443311D01*
X161655370Y-64486055D01*
X161759398Y-64492246D01*
X161834330Y-64491172D01*
X161873839Y-64512753D01*
X161898478Y-64564591D01*
X161912659Y-64630632D01*
X161892223Y-64668104D01*
X161884528Y-64673467D01*
X161812083Y-64695006D01*
X161710633Y-64698055D01*
X161606157Y-64683778D01*
X161532125Y-64657688D01*
X161429772Y-64570785D01*
X161371591Y-64449816D01*
X161360069Y-64355308D01*
X161368862Y-64270062D01*
X161400680Y-64200476D01*
X161463684Y-64138672D01*
X161566031Y-64076772D01*
X161715882Y-64006897D01*
X161725012Y-64002948D01*
X161859997Y-63940588D01*
X161943294Y-63889446D01*
X161978997Y-63843488D01*
X161971203Y-63796683D01*
X161924007Y-63742998D01*
X161909894Y-63730644D01*
X161815359Y-63682741D01*
X161717406Y-63684758D01*
X161632097Y-63731724D01*
X161575496Y-63818669D01*
X161570237Y-63835734D01*
X161519023Y-63918504D01*
X161454037Y-63958372D01*
X161360069Y-63997882D01*
X161360069Y-63895658D01*
X161388653Y-63747072D01*
X161473495Y-63610784D01*
X161517645Y-63565191D01*
X161618005Y-63506674D01*
X161745635Y-63480184D01*
X161877944Y-63487360D01*
G37*
X161877944Y-63487360D02*
X161992343Y-63529842D01*
X161993652Y-63530658D01*
X162064403Y-63582730D01*
X162116636Y-63643584D01*
X162153371Y-63722887D01*
X162177634Y-63830309D01*
X162192445Y-63975517D01*
X162200829Y-64168179D01*
X162201564Y-64195628D01*
X162212120Y-64609521D01*
X162123291Y-64655456D01*
X162059018Y-64686498D01*
X162020210Y-64701206D01*
X162018415Y-64701391D01*
X162011700Y-64674250D01*
X162006365Y-64601041D01*
X162003083Y-64494081D01*
X162002368Y-64407469D01*
X162002351Y-64267162D01*
X161995937Y-64179051D01*
X161973580Y-64137025D01*
X161925732Y-64134975D01*
X161842849Y-64166790D01*
X161717713Y-64225272D01*
X161625697Y-64273845D01*
X161578371Y-64315986D01*
X161564458Y-64361916D01*
X161564437Y-64364189D01*
X161587395Y-64443311D01*
X161655370Y-64486055D01*
X161759398Y-64492246D01*
X161834330Y-64491172D01*
X161873839Y-64512753D01*
X161898478Y-64564591D01*
X161912659Y-64630632D01*
X161892223Y-64668104D01*
X161884528Y-64673467D01*
X161812083Y-64695006D01*
X161710633Y-64698055D01*
X161606157Y-64683778D01*
X161532125Y-64657688D01*
X161429772Y-64570785D01*
X161371591Y-64449816D01*
X161360069Y-64355308D01*
X161368862Y-64270062D01*
X161400680Y-64200476D01*
X161463684Y-64138672D01*
X161566031Y-64076772D01*
X161715882Y-64006897D01*
X161725012Y-64002948D01*
X161859997Y-63940588D01*
X161943294Y-63889446D01*
X161978997Y-63843488D01*
X161971203Y-63796683D01*
X161924007Y-63742998D01*
X161909894Y-63730644D01*
X161815359Y-63682741D01*
X161717406Y-63684758D01*
X161632097Y-63731724D01*
X161575496Y-63818669D01*
X161570237Y-63835734D01*
X161519023Y-63918504D01*
X161454037Y-63958372D01*
X161360069Y-63997882D01*
X161360069Y-63895658D01*
X161388653Y-63747072D01*
X161473495Y-63610784D01*
X161517645Y-63565191D01*
X161618005Y-63506674D01*
X161745635Y-63480184D01*
X161877944Y-63487360D01*
G36*
X162863943Y-63484920D02*
G01*
X162996565Y-63533859D01*
X163104010Y-63620419D01*
X163146032Y-63681352D01*
X163191843Y-63793161D01*
X163190891Y-63874006D01*
X163142808Y-63928378D01*
X163125017Y-63937624D01*
X163048204Y-63966450D01*
X163008976Y-63959065D01*
X162995689Y-63910658D01*
X162995012Y-63883920D01*
X162970686Y-63785548D01*
X162907281Y-63716734D01*
X162819154Y-63683498D01*
X162720663Y-63691861D01*
X162640602Y-63735296D01*
X162613561Y-63760072D01*
X162594394Y-63790129D01*
X162581446Y-63835565D01*
X162573064Y-63906476D01*
X162567593Y-64012960D01*
X162563378Y-64165112D01*
X162562287Y-64213287D01*
X162558307Y-64378095D01*
X162553781Y-64494088D01*
X162546995Y-64570833D01*
X162536231Y-64617893D01*
X162519773Y-64644835D01*
X162495906Y-64661223D01*
X162480626Y-64668463D01*
X162415733Y-64693220D01*
X162377534Y-64701391D01*
X162364912Y-64674103D01*
X162357208Y-64591603D01*
X162354380Y-64452941D01*
X162356386Y-64257162D01*
X162357011Y-64226965D01*
X162361421Y-64048349D01*
X162366635Y-63917923D01*
X162374055Y-63825492D01*
X162385082Y-63760858D01*
X162401117Y-63713825D01*
X162423561Y-63674196D01*
X162435302Y-63657215D01*
X162502619Y-63582080D01*
X162577910Y-63523638D01*
X162587128Y-63518536D01*
X162722133Y-63478260D01*
X162863943Y-63484920D01*
G37*
X162863943Y-63484920D02*
X162996565Y-63533859D01*
X163104010Y-63620419D01*
X163146032Y-63681352D01*
X163191843Y-63793161D01*
X163190891Y-63874006D01*
X163142808Y-63928378D01*
X163125017Y-63937624D01*
X163048204Y-63966450D01*
X163008976Y-63959065D01*
X162995689Y-63910658D01*
X162995012Y-63883920D01*
X162970686Y-63785548D01*
X162907281Y-63716734D01*
X162819154Y-63683498D01*
X162720663Y-63691861D01*
X162640602Y-63735296D01*
X162613561Y-63760072D01*
X162594394Y-63790129D01*
X162581446Y-63835565D01*
X162573064Y-63906476D01*
X162567593Y-64012960D01*
X162563378Y-64165112D01*
X162562287Y-64213287D01*
X162558307Y-64378095D01*
X162553781Y-64494088D01*
X162546995Y-64570833D01*
X162536231Y-64617893D01*
X162519773Y-64644835D01*
X162495906Y-64661223D01*
X162480626Y-64668463D01*
X162415733Y-64693220D01*
X162377534Y-64701391D01*
X162364912Y-64674103D01*
X162357208Y-64591603D01*
X162354380Y-64452941D01*
X162356386Y-64257162D01*
X162357011Y-64226965D01*
X162361421Y-64048349D01*
X162366635Y-63917923D01*
X162374055Y-63825492D01*
X162385082Y-63760858D01*
X162401117Y-63713825D01*
X162423561Y-63674196D01*
X162435302Y-63657215D01*
X162502619Y-63582080D01*
X162577910Y-63523638D01*
X162587128Y-63518536D01*
X162722133Y-63478260D01*
X162863943Y-63484920D01*
G36*
X164191914Y-63717455D02*
G01*
X164191543Y-63935661D01*
X164190108Y-64103519D01*
X164187002Y-64229070D01*
X164181622Y-64320355D01*
X164173362Y-64385415D01*
X164161616Y-64432291D01*
X164145781Y-64469024D01*
X164133790Y-64489991D01*
X164034490Y-64603694D01*
X163908588Y-64674965D01*
X163769291Y-64700538D01*
X163629805Y-64677150D01*
X163546743Y-64635119D01*
X163459545Y-64562411D01*
X163400117Y-64473612D01*
X163364261Y-64357320D01*
X163347781Y-64202135D01*
X163345447Y-64088287D01*
X163345761Y-64080106D01*
X163549724Y-64080106D01*
X163550970Y-64210657D01*
X163556678Y-64297080D01*
X163569804Y-64353618D01*
X163593306Y-64394514D01*
X163621386Y-64425362D01*
X163715688Y-64484905D01*
X163816940Y-64489992D01*
X163912636Y-64440279D01*
X163920084Y-64433543D01*
X163951874Y-64398502D01*
X163971808Y-64356811D01*
X163982600Y-64294762D01*
X163986965Y-64198644D01*
X163987655Y-64092379D01*
X163986159Y-63958880D01*
X163979964Y-63869822D01*
X163966514Y-63811293D01*
X163943251Y-63769382D01*
X163924175Y-63747123D01*
X163835563Y-63690985D01*
X163733508Y-63684235D01*
X163636095Y-63727114D01*
X163617296Y-63743032D01*
X163585293Y-63778382D01*
X163565318Y-63820502D01*
X163554593Y-63883251D01*
X163550339Y-63980487D01*
X163549724Y-64080106D01*
X163345761Y-64080106D01*
X163352504Y-63904947D01*
X163376472Y-63767195D01*
X163421548Y-63663632D01*
X163491928Y-63582856D01*
X163546743Y-63541455D01*
X163646376Y-63496728D01*
X163761855Y-63475967D01*
X163869199Y-63481525D01*
X163929264Y-63503943D01*
X163952835Y-63510323D01*
X163968477Y-63486535D01*
X163979395Y-63422788D01*
X163987655Y-63325687D01*
X163996699Y-63217541D01*
X164009261Y-63152475D01*
X164032119Y-63115268D01*
X164072051Y-63090699D01*
X164097138Y-63079819D01*
X164192023Y-63040072D01*
X164191914Y-63717455D01*
G37*
X164191914Y-63717455D02*
X164191543Y-63935661D01*
X164190108Y-64103519D01*
X164187002Y-64229070D01*
X164181622Y-64320355D01*
X164173362Y-64385415D01*
X164161616Y-64432291D01*
X164145781Y-64469024D01*
X164133790Y-64489991D01*
X164034490Y-64603694D01*
X163908588Y-64674965D01*
X163769291Y-64700538D01*
X163629805Y-64677150D01*
X163546743Y-64635119D01*
X163459545Y-64562411D01*
X163400117Y-64473612D01*
X163364261Y-64357320D01*
X163347781Y-64202135D01*
X163345447Y-64088287D01*
X163345761Y-64080106D01*
X163549724Y-64080106D01*
X163550970Y-64210657D01*
X163556678Y-64297080D01*
X163569804Y-64353618D01*
X163593306Y-64394514D01*
X163621386Y-64425362D01*
X163715688Y-64484905D01*
X163816940Y-64489992D01*
X163912636Y-64440279D01*
X163920084Y-64433543D01*
X163951874Y-64398502D01*
X163971808Y-64356811D01*
X163982600Y-64294762D01*
X163986965Y-64198644D01*
X163987655Y-64092379D01*
X163986159Y-63958880D01*
X163979964Y-63869822D01*
X163966514Y-63811293D01*
X163943251Y-63769382D01*
X163924175Y-63747123D01*
X163835563Y-63690985D01*
X163733508Y-63684235D01*
X163636095Y-63727114D01*
X163617296Y-63743032D01*
X163585293Y-63778382D01*
X163565318Y-63820502D01*
X163554593Y-63883251D01*
X163550339Y-63980487D01*
X163549724Y-64080106D01*
X163345761Y-64080106D01*
X163352504Y-63904947D01*
X163376472Y-63767195D01*
X163421548Y-63663632D01*
X163491928Y-63582856D01*
X163546743Y-63541455D01*
X163646376Y-63496728D01*
X163761855Y-63475967D01*
X163869199Y-63481525D01*
X163929264Y-63503943D01*
X163952835Y-63510323D01*
X163968477Y-63486535D01*
X163979395Y-63422788D01*
X163987655Y-63325687D01*
X163996699Y-63217541D01*
X164009261Y-63152475D01*
X164032119Y-63115268D01*
X164072051Y-63090699D01*
X164097138Y-63079819D01*
X164192023Y-63040072D01*
X164191914Y-63717455D01*
G36*
X165378124Y-63502840D02*
G01*
X165382579Y-63579653D01*
X165386071Y-63696391D01*
X165388315Y-63843821D01*
X165389035Y-63998455D01*
X165389035Y-64521727D01*
X165296645Y-64614117D01*
X165232978Y-64671047D01*
X165177089Y-64694107D01*
X165100702Y-64692647D01*
X165070380Y-64688934D01*
X164975610Y-64678126D01*
X164897222Y-64671933D01*
X164878115Y-64671361D01*
X164813699Y-64675102D01*
X164721571Y-64684494D01*
X164685850Y-64688934D01*
X164598114Y-64695801D01*
X164539153Y-64680885D01*
X164480690Y-64634835D01*
X164459585Y-64614117D01*
X164367195Y-64521727D01*
X164367195Y-63542947D01*
X164441558Y-63509066D01*
X164505590Y-63483970D01*
X164543052Y-63475184D01*
X164552657Y-63502950D01*
X164561635Y-63580530D01*
X164569386Y-63699348D01*
X164575314Y-63850828D01*
X164578173Y-63978805D01*
X164586161Y-64482425D01*
X164655848Y-64492278D01*
X164719229Y-64485389D01*
X164750286Y-64463083D01*
X164758967Y-64421379D01*
X164766378Y-64332544D01*
X164771931Y-64207834D01*
X164775036Y-64058507D01*
X164775484Y-63981661D01*
X164775931Y-63539287D01*
X164867874Y-63507235D01*
X164932949Y-63485443D01*
X164968347Y-63475281D01*
X164969368Y-63475184D01*
X164972920Y-63502809D01*
X164976823Y-63579411D01*
X164980751Y-63695579D01*
X164984376Y-63841904D01*
X164986908Y-63978805D01*
X164994897Y-64482425D01*
X165170069Y-64482425D01*
X165178107Y-64022965D01*
X165186146Y-63563505D01*
X165271543Y-63519344D01*
X165334593Y-63489019D01*
X165371910Y-63475258D01*
X165372987Y-63475184D01*
X165378124Y-63502840D01*
G37*
X165378124Y-63502840D02*
X165382579Y-63579653D01*
X165386071Y-63696391D01*
X165388315Y-63843821D01*
X165389035Y-63998455D01*
X165389035Y-64521727D01*
X165296645Y-64614117D01*
X165232978Y-64671047D01*
X165177089Y-64694107D01*
X165100702Y-64692647D01*
X165070380Y-64688934D01*
X164975610Y-64678126D01*
X164897222Y-64671933D01*
X164878115Y-64671361D01*
X164813699Y-64675102D01*
X164721571Y-64684494D01*
X164685850Y-64688934D01*
X164598114Y-64695801D01*
X164539153Y-64680885D01*
X164480690Y-64634835D01*
X164459585Y-64614117D01*
X164367195Y-64521727D01*
X164367195Y-63542947D01*
X164441558Y-63509066D01*
X164505590Y-63483970D01*
X164543052Y-63475184D01*
X164552657Y-63502950D01*
X164561635Y-63580530D01*
X164569386Y-63699348D01*
X164575314Y-63850828D01*
X164578173Y-63978805D01*
X164586161Y-64482425D01*
X164655848Y-64492278D01*
X164719229Y-64485389D01*
X164750286Y-64463083D01*
X164758967Y-64421379D01*
X164766378Y-64332544D01*
X164771931Y-64207834D01*
X164775036Y-64058507D01*
X164775484Y-63981661D01*
X164775931Y-63539287D01*
X164867874Y-63507235D01*
X164932949Y-63485443D01*
X164968347Y-63475281D01*
X164969368Y-63475184D01*
X164972920Y-63502809D01*
X164976823Y-63579411D01*
X164980751Y-63695579D01*
X164984376Y-63841904D01*
X164986908Y-63978805D01*
X164994897Y-64482425D01*
X165170069Y-64482425D01*
X165178107Y-64022965D01*
X165186146Y-63563505D01*
X165271543Y-63519344D01*
X165334593Y-63489019D01*
X165371910Y-63475258D01*
X165372987Y-63475184D01*
X165378124Y-63502840D01*
G36*
X166112406Y-63498156D02*
G01*
X166196469Y-63536393D01*
X166262450Y-63582726D01*
X166310794Y-63634532D01*
X166344172Y-63701363D01*
X166365253Y-63792769D01*
X166376707Y-63918301D01*
X166381203Y-64087508D01*
X166381678Y-64198933D01*
X166381678Y-64633627D01*
X166307316Y-64667509D01*
X166248746Y-64692272D01*
X166219730Y-64701391D01*
X166214179Y-64674257D01*
X166209775Y-64601094D01*
X166207078Y-64494263D01*
X166206506Y-64409437D01*
X166204046Y-64286887D01*
X166197412Y-64189668D01*
X166187726Y-64130134D01*
X166180032Y-64117483D01*
X166128311Y-64130402D01*
X166047117Y-64163539D01*
X165953102Y-64208461D01*
X165862917Y-64256735D01*
X165793215Y-64299928D01*
X165760648Y-64329608D01*
X165760519Y-64329929D01*
X165763320Y-64384857D01*
X165788439Y-64437292D01*
X165832541Y-64479881D01*
X165896909Y-64494126D01*
X165951921Y-64492466D01*
X166029835Y-64491245D01*
X166070732Y-64509498D01*
X166095295Y-64557726D01*
X166098392Y-64566820D01*
X166109040Y-64635598D01*
X166080565Y-64677360D01*
X166006344Y-64697263D01*
X165926168Y-64700944D01*
X165781890Y-64673658D01*
X165707203Y-64634690D01*
X165614963Y-64543148D01*
X165566043Y-64430782D01*
X165561654Y-64312051D01*
X165603001Y-64201411D01*
X165665197Y-64132080D01*
X165727294Y-64093265D01*
X165824895Y-64044125D01*
X165938632Y-63994292D01*
X165957590Y-63986677D01*
X166082521Y-63931545D01*
X166154539Y-63882954D01*
X166177700Y-63834647D01*
X166156064Y-63780370D01*
X166118920Y-63737943D01*
X166031127Y-63685702D01*
X165934530Y-63681784D01*
X165845944Y-63722041D01*
X165782186Y-63802326D01*
X165773817Y-63823040D01*
X165725096Y-63899225D01*
X165653965Y-63955785D01*
X165564207Y-64002201D01*
X165564207Y-63870584D01*
X165569490Y-63790168D01*
X165592142Y-63726786D01*
X165642367Y-63659163D01*
X165690582Y-63607076D01*
X165765554Y-63533322D01*
X165823806Y-63493702D01*
X165886372Y-63477810D01*
X165957193Y-63475184D01*
X166112406Y-63498156D01*
G37*
X166112406Y-63498156D02*
X166196469Y-63536393D01*
X166262450Y-63582726D01*
X166310794Y-63634532D01*
X166344172Y-63701363D01*
X166365253Y-63792769D01*
X166376707Y-63918301D01*
X166381203Y-64087508D01*
X166381678Y-64198933D01*
X166381678Y-64633627D01*
X166307316Y-64667509D01*
X166248746Y-64692272D01*
X166219730Y-64701391D01*
X166214179Y-64674257D01*
X166209775Y-64601094D01*
X166207078Y-64494263D01*
X166206506Y-64409437D01*
X166204046Y-64286887D01*
X166197412Y-64189668D01*
X166187726Y-64130134D01*
X166180032Y-64117483D01*
X166128311Y-64130402D01*
X166047117Y-64163539D01*
X165953102Y-64208461D01*
X165862917Y-64256735D01*
X165793215Y-64299928D01*
X165760648Y-64329608D01*
X165760519Y-64329929D01*
X165763320Y-64384857D01*
X165788439Y-64437292D01*
X165832541Y-64479881D01*
X165896909Y-64494126D01*
X165951921Y-64492466D01*
X166029835Y-64491245D01*
X166070732Y-64509498D01*
X166095295Y-64557726D01*
X166098392Y-64566820D01*
X166109040Y-64635598D01*
X166080565Y-64677360D01*
X166006344Y-64697263D01*
X165926168Y-64700944D01*
X165781890Y-64673658D01*
X165707203Y-64634690D01*
X165614963Y-64543148D01*
X165566043Y-64430782D01*
X165561654Y-64312051D01*
X165603001Y-64201411D01*
X165665197Y-64132080D01*
X165727294Y-64093265D01*
X165824895Y-64044125D01*
X165938632Y-63994292D01*
X165957590Y-63986677D01*
X166082521Y-63931545D01*
X166154539Y-63882954D01*
X166177700Y-63834647D01*
X166156064Y-63780370D01*
X166118920Y-63737943D01*
X166031127Y-63685702D01*
X165934530Y-63681784D01*
X165845944Y-63722041D01*
X165782186Y-63802326D01*
X165773817Y-63823040D01*
X165725096Y-63899225D01*
X165653965Y-63955785D01*
X165564207Y-64002201D01*
X165564207Y-63870584D01*
X165569490Y-63790168D01*
X165592142Y-63726786D01*
X165642367Y-63659163D01*
X165690582Y-63607076D01*
X165765554Y-63533322D01*
X165823806Y-63493702D01*
X165886372Y-63477810D01*
X165957193Y-63475184D01*
X166112406Y-63498156D01*
G36*
X167133690Y-63503018D02*
G01*
X167168585Y-63518269D01*
X167251877Y-63584235D01*
X167323103Y-63679618D01*
X167367153Y-63781406D01*
X167374322Y-63831587D01*
X167350285Y-63901647D01*
X167297561Y-63938717D01*
X167241031Y-63961164D01*
X167215146Y-63965300D01*
X167202542Y-63935283D01*
X167177654Y-63869961D01*
X167166735Y-63840445D01*
X167105508Y-63738348D01*
X167016861Y-63687423D01*
X166903193Y-63688989D01*
X166894774Y-63690994D01*
X166834088Y-63719767D01*
X166789474Y-63775859D01*
X166759002Y-63866163D01*
X166740744Y-63997571D01*
X166732771Y-64176974D01*
X166732023Y-64272433D01*
X166731652Y-64422913D01*
X166729223Y-64525495D01*
X166722760Y-64590672D01*
X166710288Y-64628938D01*
X166689833Y-64650785D01*
X166659419Y-64666707D01*
X166657661Y-64667509D01*
X166599091Y-64692272D01*
X166570075Y-64701391D01*
X166565616Y-64673822D01*
X166561799Y-64597620D01*
X166558899Y-64482541D01*
X166557191Y-64338341D01*
X166556851Y-64232814D01*
X166558588Y-64028613D01*
X166565382Y-63873697D01*
X166579607Y-63759024D01*
X166603638Y-63675551D01*
X166639848Y-63614236D01*
X166690612Y-63566034D01*
X166740739Y-63532393D01*
X166861275Y-63487619D01*
X167001557Y-63477521D01*
X167133690Y-63503018D01*
G37*
X167133690Y-63503018D02*
X167168585Y-63518269D01*
X167251877Y-63584235D01*
X167323103Y-63679618D01*
X167367153Y-63781406D01*
X167374322Y-63831587D01*
X167350285Y-63901647D01*
X167297561Y-63938717D01*
X167241031Y-63961164D01*
X167215146Y-63965300D01*
X167202542Y-63935283D01*
X167177654Y-63869961D01*
X167166735Y-63840445D01*
X167105508Y-63738348D01*
X167016861Y-63687423D01*
X166903193Y-63688989D01*
X166894774Y-63690994D01*
X166834088Y-63719767D01*
X166789474Y-63775859D01*
X166759002Y-63866163D01*
X166740744Y-63997571D01*
X166732771Y-64176974D01*
X166732023Y-64272433D01*
X166731652Y-64422913D01*
X166729223Y-64525495D01*
X166722760Y-64590672D01*
X166710288Y-64628938D01*
X166689833Y-64650785D01*
X166659419Y-64666707D01*
X166657661Y-64667509D01*
X166599091Y-64692272D01*
X166570075Y-64701391D01*
X166565616Y-64673822D01*
X166561799Y-64597620D01*
X166558899Y-64482541D01*
X166557191Y-64338341D01*
X166556851Y-64232814D01*
X166558588Y-64028613D01*
X166565382Y-63873697D01*
X166579607Y-63759024D01*
X166603638Y-63675551D01*
X166639848Y-63614236D01*
X166690612Y-63566034D01*
X166740739Y-63532393D01*
X166861275Y-63487619D01*
X167001557Y-63477521D01*
X167133690Y-63503018D01*
G36*
X168141439Y-63519540D02*
G01*
X168256950Y-63595034D01*
X168312664Y-63662617D01*
X168356804Y-63785255D01*
X168360309Y-63882298D01*
X168352368Y-64012056D01*
X168053115Y-64143039D01*
X167907611Y-64209958D01*
X167812537Y-64263790D01*
X167763101Y-64310416D01*
X167754511Y-64355720D01*
X167781972Y-64405582D01*
X167812253Y-64438632D01*
X167900363Y-64491633D01*
X167996196Y-64495347D01*
X168084212Y-64454041D01*
X168148869Y-64371983D01*
X168160433Y-64343008D01*
X168215825Y-64252509D01*
X168279553Y-64213940D01*
X168366966Y-64180946D01*
X168366966Y-64306034D01*
X168359238Y-64391156D01*
X168328966Y-64462938D01*
X168265518Y-64545356D01*
X168256088Y-64556066D01*
X168185513Y-64629391D01*
X168124847Y-64668742D01*
X168048950Y-64686845D01*
X167986030Y-64692774D01*
X167873487Y-64694251D01*
X167793370Y-64675535D01*
X167743390Y-64647747D01*
X167664838Y-64586641D01*
X167610463Y-64520554D01*
X167576052Y-64437441D01*
X167557388Y-64325254D01*
X167550256Y-64171946D01*
X167549687Y-64094136D01*
X167551622Y-64000853D01*
X167727899Y-64000853D01*
X167729944Y-64050896D01*
X167735039Y-64059092D01*
X167768666Y-64047958D01*
X167841030Y-64018493D01*
X167937747Y-63976601D01*
X167957973Y-63967597D01*
X168080203Y-63905442D01*
X168147547Y-63850815D01*
X168162348Y-63799649D01*
X168126947Y-63747876D01*
X168097711Y-63725000D01*
X167992216Y-63679250D01*
X167893476Y-63686808D01*
X167810812Y-63742651D01*
X167753548Y-63841753D01*
X167735188Y-63920414D01*
X167727899Y-64000853D01*
X167551622Y-64000853D01*
X167553459Y-63912351D01*
X167567359Y-63777853D01*
X167594894Y-63679916D01*
X167639572Y-63607811D01*
X167704901Y-63550813D01*
X167733383Y-63532393D01*
X167862763Y-63484422D01*
X168004412Y-63481403D01*
X168141439Y-63519540D01*
G37*
X168141439Y-63519540D02*
X168256950Y-63595034D01*
X168312664Y-63662617D01*
X168356804Y-63785255D01*
X168360309Y-63882298D01*
X168352368Y-64012056D01*
X168053115Y-64143039D01*
X167907611Y-64209958D01*
X167812537Y-64263790D01*
X167763101Y-64310416D01*
X167754511Y-64355720D01*
X167781972Y-64405582D01*
X167812253Y-64438632D01*
X167900363Y-64491633D01*
X167996196Y-64495347D01*
X168084212Y-64454041D01*
X168148869Y-64371983D01*
X168160433Y-64343008D01*
X168215825Y-64252509D01*
X168279553Y-64213940D01*
X168366966Y-64180946D01*
X168366966Y-64306034D01*
X168359238Y-64391156D01*
X168328966Y-64462938D01*
X168265518Y-64545356D01*
X168256088Y-64556066D01*
X168185513Y-64629391D01*
X168124847Y-64668742D01*
X168048950Y-64686845D01*
X167986030Y-64692774D01*
X167873487Y-64694251D01*
X167793370Y-64675535D01*
X167743390Y-64647747D01*
X167664838Y-64586641D01*
X167610463Y-64520554D01*
X167576052Y-64437441D01*
X167557388Y-64325254D01*
X167550256Y-64171946D01*
X167549687Y-64094136D01*
X167551622Y-64000853D01*
X167727899Y-64000853D01*
X167729944Y-64050896D01*
X167735039Y-64059092D01*
X167768666Y-64047958D01*
X167841030Y-64018493D01*
X167937747Y-63976601D01*
X167957973Y-63967597D01*
X168080203Y-63905442D01*
X168147547Y-63850815D01*
X168162348Y-63799649D01*
X168126947Y-63747876D01*
X168097711Y-63725000D01*
X167992216Y-63679250D01*
X167893476Y-63686808D01*
X167810812Y-63742651D01*
X167753548Y-63841753D01*
X167735188Y-63920414D01*
X167727899Y-64000853D01*
X167551622Y-64000853D01*
X167553459Y-63912351D01*
X167567359Y-63777853D01*
X167594894Y-63679916D01*
X167639572Y-63607811D01*
X167704901Y-63550813D01*
X167733383Y-63532393D01*
X167862763Y-63484422D01*
X168004412Y-63481403D01*
X168141439Y-63519540D01*
G36*
X162007014Y-54015998D02*
G01*
X162165006Y-54016863D01*
X162279347Y-54019205D01*
X162357407Y-54023762D01*
X162406554Y-54031270D01*
X162434159Y-54042466D01*
X162447592Y-54058088D01*
X162454221Y-54078873D01*
X162454865Y-54081563D01*
X162464935Y-54130113D01*
X162483575Y-54225905D01*
X162508845Y-54358743D01*
X162538807Y-54518431D01*
X162571522Y-54694774D01*
X162572664Y-54700967D01*
X162605433Y-54873782D01*
X162636093Y-55026469D01*
X162662664Y-55149871D01*
X162683167Y-55234831D01*
X162695626Y-55272190D01*
X162696220Y-55272852D01*
X162732919Y-55291095D01*
X162808586Y-55321497D01*
X162906878Y-55357493D01*
X162907425Y-55357685D01*
X163031233Y-55404222D01*
X163177196Y-55463504D01*
X163314781Y-55523109D01*
X163321293Y-55526056D01*
X163545390Y-55627765D01*
X164041619Y-55288897D01*
X164193846Y-55185592D01*
X164331741Y-55093237D01*
X164447315Y-55017084D01*
X164532579Y-54962385D01*
X164579544Y-54934393D01*
X164584004Y-54932317D01*
X164618134Y-54941560D01*
X164681881Y-54986156D01*
X164777731Y-55068209D01*
X164908169Y-55189821D01*
X165041328Y-55319205D01*
X165169694Y-55446702D01*
X165284581Y-55563046D01*
X165379073Y-55661052D01*
X165446253Y-55733536D01*
X165479206Y-55773313D01*
X165480432Y-55775361D01*
X165484074Y-55802656D01*
X165470350Y-55847234D01*
X165435869Y-55915112D01*
X165377239Y-56012311D01*
X165291070Y-56144851D01*
X165176200Y-56315476D01*
X165074254Y-56465655D01*
X164983123Y-56600350D01*
X164908073Y-56711740D01*
X164854369Y-56792005D01*
X164827280Y-56833325D01*
X164825574Y-56836130D01*
X164828882Y-56875721D01*
X164853953Y-56952669D01*
X164895798Y-57052432D01*
X164910712Y-57084291D01*
X164975786Y-57226226D01*
X165045212Y-57387273D01*
X165101609Y-57526621D01*
X165142247Y-57630044D01*
X165174526Y-57708642D01*
X165193178Y-57749720D01*
X165195497Y-57752885D01*
X165229803Y-57758128D01*
X165310669Y-57772494D01*
X165427343Y-57793937D01*
X165569075Y-57820413D01*
X165725110Y-57849877D01*
X165884698Y-57880283D01*
X166037085Y-57909588D01*
X166171521Y-57935745D01*
X166277252Y-57956710D01*
X166343526Y-57970439D01*
X166359782Y-57974320D01*
X166376573Y-57983900D01*
X166389249Y-58005536D01*
X166398378Y-58046531D01*
X166404531Y-58114189D01*
X166408280Y-58215812D01*
X166410192Y-58358703D01*
X166410840Y-58550165D01*
X166410874Y-58628645D01*
X166410874Y-59266906D01*
X166257598Y-59297160D01*
X166172322Y-59313564D01*
X166045070Y-59337509D01*
X165891315Y-59366107D01*
X165726534Y-59396467D01*
X165680989Y-59404806D01*
X165528932Y-59434370D01*
X165396468Y-59463442D01*
X165294714Y-59489329D01*
X165234788Y-59509337D01*
X165224805Y-59515301D01*
X165200293Y-59557534D01*
X165165148Y-59639370D01*
X165126173Y-59744683D01*
X165118442Y-59767368D01*
X165067360Y-59908018D01*
X165003954Y-60066714D01*
X164941904Y-60209225D01*
X164941598Y-60209886D01*
X164838267Y-60433440D01*
X165517961Y-61433232D01*
X165081621Y-61870300D01*
X164949649Y-62000381D01*
X164829279Y-62115048D01*
X164727273Y-62208181D01*
X164650391Y-62273658D01*
X164605393Y-62305357D01*
X164598938Y-62307368D01*
X164561040Y-62291529D01*
X164483708Y-62247496D01*
X164375389Y-62180490D01*
X164244532Y-62095734D01*
X164103052Y-62000816D01*
X163959461Y-61903998D01*
X163831435Y-61819751D01*
X163727105Y-61753258D01*
X163654600Y-61709702D01*
X163622158Y-61694264D01*
X163582576Y-61707328D01*
X163507519Y-61741750D01*
X163412468Y-61790380D01*
X163402392Y-61795785D01*
X163274391Y-61859980D01*
X163186618Y-61891463D01*
X163132028Y-61891798D01*
X163103575Y-61862548D01*
X163103410Y-61862138D01*
X163089188Y-61827498D01*
X163055269Y-61745269D01*
X163004284Y-61621814D01*
X162938862Y-61463498D01*
X162861634Y-61276686D01*
X162775229Y-61067742D01*
X162691551Y-60865446D01*
X162599588Y-60642200D01*
X162515150Y-60435392D01*
X162440769Y-60251362D01*
X162378974Y-60096451D01*
X162332297Y-59976996D01*
X162303268Y-59899339D01*
X162294322Y-59870356D01*
X162316756Y-59837110D01*
X162375439Y-59784123D01*
X162453689Y-59725704D01*
X162676534Y-59540952D01*
X162850718Y-59329182D01*
X162974154Y-59094856D01*
X163044754Y-58842434D01*
X163060431Y-58576377D01*
X163049036Y-58453575D01*
X162986950Y-58198793D01*
X162880023Y-57973801D01*
X162734889Y-57780817D01*
X162558178Y-57622061D01*
X162356522Y-57499750D01*
X162136554Y-57416105D01*
X161904906Y-57373344D01*
X161668209Y-57373687D01*
X161433095Y-57419352D01*
X161206196Y-57512559D01*
X160994144Y-57655527D01*
X160905636Y-57736383D01*
X160735889Y-57944007D01*
X160617699Y-58170895D01*
X160550278Y-58410433D01*
X160532840Y-58656007D01*
X160564598Y-58901003D01*
X160644765Y-59138808D01*
X160772555Y-59362807D01*
X160947180Y-59566387D01*
X161142312Y-59725704D01*
X161223591Y-59786602D01*
X161281009Y-59839015D01*
X161301678Y-59870406D01*
X161290856Y-59904639D01*
X161260077Y-59986419D01*
X161211874Y-60109407D01*
X161148778Y-60267263D01*
X161073322Y-60453649D01*
X160988038Y-60662226D01*
X160904219Y-60865496D01*
X160811745Y-61088933D01*
X160726089Y-61295984D01*
X160649882Y-61480286D01*
X160585753Y-61635475D01*
X160536332Y-61755188D01*
X160504248Y-61833061D01*
X160492359Y-61862138D01*
X160464274Y-61891677D01*
X160409949Y-61891591D01*
X160322395Y-61860326D01*
X160194619Y-61796329D01*
X160193608Y-61795785D01*
X160097402Y-61746121D01*
X160019631Y-61709945D01*
X159975777Y-61694408D01*
X159973842Y-61694264D01*
X159940829Y-61710024D01*
X159867946Y-61753850D01*
X159763322Y-61820557D01*
X159635090Y-61904964D01*
X159492948Y-62000816D01*
X159348233Y-62097867D01*
X159217804Y-62182270D01*
X159110110Y-62248801D01*
X159033598Y-62292238D01*
X158997062Y-62307368D01*
X158963418Y-62287482D01*
X158895776Y-62231903D01*
X158800893Y-62146754D01*
X158685530Y-62038153D01*
X158556445Y-61912221D01*
X158514229Y-61870149D01*
X158077739Y-61432931D01*
X158409977Y-60945340D01*
X158510946Y-60795605D01*
X158599562Y-60661220D01*
X158670854Y-60549969D01*
X158719850Y-60469639D01*
X158741578Y-60428014D01*
X158742215Y-60425053D01*
X158730760Y-60385818D01*
X158699949Y-60306895D01*
X158655116Y-60201509D01*
X158623647Y-60130954D01*
X158564808Y-59995876D01*
X158509396Y-59859409D01*
X158466436Y-59744103D01*
X158454766Y-59708977D01*
X158421611Y-59615174D01*
X158389201Y-59542694D01*
X158371399Y-59515301D01*
X158332114Y-59498536D01*
X158246374Y-59474770D01*
X158125303Y-59446697D01*
X157980027Y-59417009D01*
X157915012Y-59404806D01*
X157749913Y-59374468D01*
X157591552Y-59345093D01*
X157455404Y-59319569D01*
X157356943Y-59300785D01*
X157338402Y-59297160D01*
X157185127Y-59266906D01*
X157185127Y-58628645D01*
X157185471Y-58418770D01*
X157186884Y-58259980D01*
X157189936Y-58144973D01*
X157195197Y-58066446D01*
X157203237Y-58017096D01*
X157214627Y-57989619D01*
X157229937Y-57976713D01*
X157236218Y-57974320D01*
X157274104Y-57965833D01*
X157357805Y-57948900D01*
X157476567Y-57925566D01*
X157619639Y-57897875D01*
X157776268Y-57867873D01*
X157935703Y-57837604D01*
X158087191Y-57809115D01*
X158219981Y-57784449D01*
X158323319Y-57765651D01*
X158386455Y-57754767D01*
X158400503Y-57752885D01*
X158413230Y-57727704D01*
X158441400Y-57660622D01*
X158479748Y-57564333D01*
X158494391Y-57526621D01*
X158553452Y-57380921D01*
X158623000Y-57219951D01*
X158685288Y-57084291D01*
X158731121Y-56980561D01*
X158761613Y-56895326D01*
X158771792Y-56843126D01*
X158770169Y-56836130D01*
X158748657Y-56803102D01*
X158699535Y-56729643D01*
X158628077Y-56623577D01*
X158539555Y-56492726D01*
X158439241Y-56344912D01*
X158419406Y-56315734D01*
X158303012Y-56142863D01*
X158217452Y-56011226D01*
X158159316Y-55914761D01*
X158125192Y-55847408D01*
X158111669Y-55803106D01*
X158115336Y-55775794D01*
X158115430Y-55775620D01*
X158144293Y-55739746D01*
X158208133Y-55670391D01*
X158300031Y-55574745D01*
X158413067Y-55459999D01*
X158540321Y-55333341D01*
X158554672Y-55319205D01*
X158715043Y-55163903D01*
X158838805Y-55049870D01*
X158928445Y-54975002D01*
X158986448Y-54937196D01*
X159011996Y-54932317D01*
X159049282Y-54953603D01*
X159126657Y-55002773D01*
X159236133Y-55074575D01*
X159369720Y-55163755D01*
X159519430Y-55265063D01*
X159554382Y-55288897D01*
X160050610Y-55627765D01*
X160274707Y-55526056D01*
X160410989Y-55466783D01*
X160557276Y-55407170D01*
X160683035Y-55359640D01*
X160688575Y-55357685D01*
X160786943Y-55321677D01*
X160862771Y-55291229D01*
X160899718Y-55272905D01*
X160899780Y-55272852D01*
X160911504Y-55239729D01*
X160931432Y-55158267D01*
X160957587Y-55037625D01*
X160987990Y-54886959D01*
X161020663Y-54715428D01*
X161023336Y-54700967D01*
X161056110Y-54524235D01*
X161086198Y-54363810D01*
X161111661Y-54229888D01*
X161130559Y-54132663D01*
X161140953Y-54082332D01*
X161141135Y-54081563D01*
X161147461Y-54060153D01*
X161159761Y-54043988D01*
X161185406Y-54032331D01*
X161231765Y-54024445D01*
X161306208Y-54019593D01*
X161416105Y-54017039D01*
X161568825Y-54016045D01*
X161771738Y-54015874D01*
X161798000Y-54015874D01*
X162007014Y-54015998D01*
G37*
X162007014Y-54015998D02*
X162165006Y-54016863D01*
X162279347Y-54019205D01*
X162357407Y-54023762D01*
X162406554Y-54031270D01*
X162434159Y-54042466D01*
X162447592Y-54058088D01*
X162454221Y-54078873D01*
X162454865Y-54081563D01*
X162464935Y-54130113D01*
X162483575Y-54225905D01*
X162508845Y-54358743D01*
X162538807Y-54518431D01*
X162571522Y-54694774D01*
X162572664Y-54700967D01*
X162605433Y-54873782D01*
X162636093Y-55026469D01*
X162662664Y-55149871D01*
X162683167Y-55234831D01*
X162695626Y-55272190D01*
X162696220Y-55272852D01*
X162732919Y-55291095D01*
X162808586Y-55321497D01*
X162906878Y-55357493D01*
X162907425Y-55357685D01*
X163031233Y-55404222D01*
X163177196Y-55463504D01*
X163314781Y-55523109D01*
X163321293Y-55526056D01*
X163545390Y-55627765D01*
X164041619Y-55288897D01*
X164193846Y-55185592D01*
X164331741Y-55093237D01*
X164447315Y-55017084D01*
X164532579Y-54962385D01*
X164579544Y-54934393D01*
X164584004Y-54932317D01*
X164618134Y-54941560D01*
X164681881Y-54986156D01*
X164777731Y-55068209D01*
X164908169Y-55189821D01*
X165041328Y-55319205D01*
X165169694Y-55446702D01*
X165284581Y-55563046D01*
X165379073Y-55661052D01*
X165446253Y-55733536D01*
X165479206Y-55773313D01*
X165480432Y-55775361D01*
X165484074Y-55802656D01*
X165470350Y-55847234D01*
X165435869Y-55915112D01*
X165377239Y-56012311D01*
X165291070Y-56144851D01*
X165176200Y-56315476D01*
X165074254Y-56465655D01*
X164983123Y-56600350D01*
X164908073Y-56711740D01*
X164854369Y-56792005D01*
X164827280Y-56833325D01*
X164825574Y-56836130D01*
X164828882Y-56875721D01*
X164853953Y-56952669D01*
X164895798Y-57052432D01*
X164910712Y-57084291D01*
X164975786Y-57226226D01*
X165045212Y-57387273D01*
X165101609Y-57526621D01*
X165142247Y-57630044D01*
X165174526Y-57708642D01*
X165193178Y-57749720D01*
X165195497Y-57752885D01*
X165229803Y-57758128D01*
X165310669Y-57772494D01*
X165427343Y-57793937D01*
X165569075Y-57820413D01*
X165725110Y-57849877D01*
X165884698Y-57880283D01*
X166037085Y-57909588D01*
X166171521Y-57935745D01*
X166277252Y-57956710D01*
X166343526Y-57970439D01*
X166359782Y-57974320D01*
X166376573Y-57983900D01*
X166389249Y-58005536D01*
X166398378Y-58046531D01*
X166404531Y-58114189D01*
X166408280Y-58215812D01*
X166410192Y-58358703D01*
X166410840Y-58550165D01*
X166410874Y-58628645D01*
X166410874Y-59266906D01*
X166257598Y-59297160D01*
X166172322Y-59313564D01*
X166045070Y-59337509D01*
X165891315Y-59366107D01*
X165726534Y-59396467D01*
X165680989Y-59404806D01*
X165528932Y-59434370D01*
X165396468Y-59463442D01*
X165294714Y-59489329D01*
X165234788Y-59509337D01*
X165224805Y-59515301D01*
X165200293Y-59557534D01*
X165165148Y-59639370D01*
X165126173Y-59744683D01*
X165118442Y-59767368D01*
X165067360Y-59908018D01*
X165003954Y-60066714D01*
X164941904Y-60209225D01*
X164941598Y-60209886D01*
X164838267Y-60433440D01*
X165517961Y-61433232D01*
X165081621Y-61870300D01*
X164949649Y-62000381D01*
X164829279Y-62115048D01*
X164727273Y-62208181D01*
X164650391Y-62273658D01*
X164605393Y-62305357D01*
X164598938Y-62307368D01*
X164561040Y-62291529D01*
X164483708Y-62247496D01*
X164375389Y-62180490D01*
X164244532Y-62095734D01*
X164103052Y-62000816D01*
X163959461Y-61903998D01*
X163831435Y-61819751D01*
X163727105Y-61753258D01*
X163654600Y-61709702D01*
X163622158Y-61694264D01*
X163582576Y-61707328D01*
X163507519Y-61741750D01*
X163412468Y-61790380D01*
X163402392Y-61795785D01*
X163274391Y-61859980D01*
X163186618Y-61891463D01*
X163132028Y-61891798D01*
X163103575Y-61862548D01*
X163103410Y-61862138D01*
X163089188Y-61827498D01*
X163055269Y-61745269D01*
X163004284Y-61621814D01*
X162938862Y-61463498D01*
X162861634Y-61276686D01*
X162775229Y-61067742D01*
X162691551Y-60865446D01*
X162599588Y-60642200D01*
X162515150Y-60435392D01*
X162440769Y-60251362D01*
X162378974Y-60096451D01*
X162332297Y-59976996D01*
X162303268Y-59899339D01*
X162294322Y-59870356D01*
X162316756Y-59837110D01*
X162375439Y-59784123D01*
X162453689Y-59725704D01*
X162676534Y-59540952D01*
X162850718Y-59329182D01*
X162974154Y-59094856D01*
X163044754Y-58842434D01*
X163060431Y-58576377D01*
X163049036Y-58453575D01*
X162986950Y-58198793D01*
X162880023Y-57973801D01*
X162734889Y-57780817D01*
X162558178Y-57622061D01*
X162356522Y-57499750D01*
X162136554Y-57416105D01*
X161904906Y-57373344D01*
X161668209Y-57373687D01*
X161433095Y-57419352D01*
X161206196Y-57512559D01*
X160994144Y-57655527D01*
X160905636Y-57736383D01*
X160735889Y-57944007D01*
X160617699Y-58170895D01*
X160550278Y-58410433D01*
X160532840Y-58656007D01*
X160564598Y-58901003D01*
X160644765Y-59138808D01*
X160772555Y-59362807D01*
X160947180Y-59566387D01*
X161142312Y-59725704D01*
X161223591Y-59786602D01*
X161281009Y-59839015D01*
X161301678Y-59870406D01*
X161290856Y-59904639D01*
X161260077Y-59986419D01*
X161211874Y-60109407D01*
X161148778Y-60267263D01*
X161073322Y-60453649D01*
X160988038Y-60662226D01*
X160904219Y-60865496D01*
X160811745Y-61088933D01*
X160726089Y-61295984D01*
X160649882Y-61480286D01*
X160585753Y-61635475D01*
X160536332Y-61755188D01*
X160504248Y-61833061D01*
X160492359Y-61862138D01*
X160464274Y-61891677D01*
X160409949Y-61891591D01*
X160322395Y-61860326D01*
X160194619Y-61796329D01*
X160193608Y-61795785D01*
X160097402Y-61746121D01*
X160019631Y-61709945D01*
X159975777Y-61694408D01*
X159973842Y-61694264D01*
X159940829Y-61710024D01*
X159867946Y-61753850D01*
X159763322Y-61820557D01*
X159635090Y-61904964D01*
X159492948Y-62000816D01*
X159348233Y-62097867D01*
X159217804Y-62182270D01*
X159110110Y-62248801D01*
X159033598Y-62292238D01*
X158997062Y-62307368D01*
X158963418Y-62287482D01*
X158895776Y-62231903D01*
X158800893Y-62146754D01*
X158685530Y-62038153D01*
X158556445Y-61912221D01*
X158514229Y-61870149D01*
X158077739Y-61432931D01*
X158409977Y-60945340D01*
X158510946Y-60795605D01*
X158599562Y-60661220D01*
X158670854Y-60549969D01*
X158719850Y-60469639D01*
X158741578Y-60428014D01*
X158742215Y-60425053D01*
X158730760Y-60385818D01*
X158699949Y-60306895D01*
X158655116Y-60201509D01*
X158623647Y-60130954D01*
X158564808Y-59995876D01*
X158509396Y-59859409D01*
X158466436Y-59744103D01*
X158454766Y-59708977D01*
X158421611Y-59615174D01*
X158389201Y-59542694D01*
X158371399Y-59515301D01*
X158332114Y-59498536D01*
X158246374Y-59474770D01*
X158125303Y-59446697D01*
X157980027Y-59417009D01*
X157915012Y-59404806D01*
X157749913Y-59374468D01*
X157591552Y-59345093D01*
X157455404Y-59319569D01*
X157356943Y-59300785D01*
X157338402Y-59297160D01*
X157185127Y-59266906D01*
X157185127Y-58628645D01*
X157185471Y-58418770D01*
X157186884Y-58259980D01*
X157189936Y-58144973D01*
X157195197Y-58066446D01*
X157203237Y-58017096D01*
X157214627Y-57989619D01*
X157229937Y-57976713D01*
X157236218Y-57974320D01*
X157274104Y-57965833D01*
X157357805Y-57948900D01*
X157476567Y-57925566D01*
X157619639Y-57897875D01*
X157776268Y-57867873D01*
X157935703Y-57837604D01*
X158087191Y-57809115D01*
X158219981Y-57784449D01*
X158323319Y-57765651D01*
X158386455Y-57754767D01*
X158400503Y-57752885D01*
X158413230Y-57727704D01*
X158441400Y-57660622D01*
X158479748Y-57564333D01*
X158494391Y-57526621D01*
X158553452Y-57380921D01*
X158623000Y-57219951D01*
X158685288Y-57084291D01*
X158731121Y-56980561D01*
X158761613Y-56895326D01*
X158771792Y-56843126D01*
X158770169Y-56836130D01*
X158748657Y-56803102D01*
X158699535Y-56729643D01*
X158628077Y-56623577D01*
X158539555Y-56492726D01*
X158439241Y-56344912D01*
X158419406Y-56315734D01*
X158303012Y-56142863D01*
X158217452Y-56011226D01*
X158159316Y-55914761D01*
X158125192Y-55847408D01*
X158111669Y-55803106D01*
X158115336Y-55775794D01*
X158115430Y-55775620D01*
X158144293Y-55739746D01*
X158208133Y-55670391D01*
X158300031Y-55574745D01*
X158413067Y-55459999D01*
X158540321Y-55333341D01*
X158554672Y-55319205D01*
X158715043Y-55163903D01*
X158838805Y-55049870D01*
X158928445Y-54975002D01*
X158986448Y-54937196D01*
X159011996Y-54932317D01*
X159049282Y-54953603D01*
X159126657Y-55002773D01*
X159236133Y-55074575D01*
X159369720Y-55163755D01*
X159519430Y-55265063D01*
X159554382Y-55288897D01*
X160050610Y-55627765D01*
X160274707Y-55526056D01*
X160410989Y-55466783D01*
X160557276Y-55407170D01*
X160683035Y-55359640D01*
X160688575Y-55357685D01*
X160786943Y-55321677D01*
X160862771Y-55291229D01*
X160899718Y-55272905D01*
X160899780Y-55272852D01*
X160911504Y-55239729D01*
X160931432Y-55158267D01*
X160957587Y-55037625D01*
X160987990Y-54886959D01*
X161020663Y-54715428D01*
X161023336Y-54700967D01*
X161056110Y-54524235D01*
X161086198Y-54363810D01*
X161111661Y-54229888D01*
X161130559Y-54132663D01*
X161140953Y-54082332D01*
X161141135Y-54081563D01*
X161147461Y-54060153D01*
X161159761Y-54043988D01*
X161185406Y-54032331D01*
X161231765Y-54024445D01*
X161306208Y-54019593D01*
X161416105Y-54017039D01*
X161568825Y-54016045D01*
X161771738Y-54015874D01*
X161798000Y-54015874D01*
X162007014Y-54015998D01*
D11*
X182237380Y-63035180D02*
X182237380Y-64635380D01*
X182237380Y-64635380D02*
X182938420Y-64635380D01*
X180687980Y-64584580D02*
X180687980Y-63134240D01*
X180687980Y-63134240D02*
X181239160Y-63085980D01*
X181239160Y-63085980D02*
X181488080Y-63284100D01*
X181488080Y-63284100D02*
X181587140Y-63685420D01*
X181587140Y-63685420D02*
X181287420Y-63835280D01*
X181287420Y-63835280D02*
X180787040Y-63784480D01*
X179986940Y-63185040D02*
X179738020Y-63085980D01*
X179738020Y-63085980D02*
X179438300Y-63134240D01*
X179438300Y-63134240D02*
X179138580Y-63484760D01*
X179138580Y-63484760D02*
X179087780Y-63985140D01*
X179087780Y-63985140D02*
X179237640Y-64434720D01*
X179237640Y-64434720D02*
X179588160Y-64584580D01*
X179588160Y-64584580D02*
X180037740Y-64485520D01*
X180037740Y-64485520D02*
X180037740Y-63985140D01*
X180037740Y-63985140D02*
X179738020Y-63985140D01*
X173786800Y-63134240D02*
X173786800Y-64284860D01*
X173786800Y-64284860D02*
X173939200Y-64533780D01*
X173939200Y-64533780D02*
X174287180Y-64686180D01*
X174287180Y-64686180D02*
X174586900Y-64533780D01*
X174586900Y-64533780D02*
X174688500Y-64234060D01*
X174688500Y-64234060D02*
X174688500Y-63134240D01*
X172237400Y-64686180D02*
X172237400Y-63134240D01*
X172237400Y-63134240D02*
X173088300Y-64635380D01*
X173088300Y-64635380D02*
X173088300Y-63134240D01*
X171488100Y-63185040D02*
X171287440Y-63085980D01*
X171287440Y-63085980D02*
X170837860Y-63235840D01*
X170837860Y-63235840D02*
X170637200Y-63634620D01*
X170637200Y-63634620D02*
X170637200Y-64084200D01*
X170637200Y-64084200D02*
X170787060Y-64485520D01*
X170787060Y-64485520D02*
X171086780Y-64635380D01*
X171086780Y-64635380D02*
X171488100Y-64635380D01*
X171488100Y-64635380D02*
X171538900Y-64084200D01*
X171538900Y-64084200D02*
X171287440Y-63985140D01*
X174287180Y-56634380D02*
X173288960Y-57434480D01*
X173288960Y-57434480D02*
X173738540Y-56283860D01*
X173738540Y-56283860D02*
X172788580Y-57083960D01*
X172788580Y-57083960D02*
X173487080Y-55786020D01*
X173487080Y-55786020D02*
X172438060Y-56436260D01*
X172438060Y-56436260D02*
X172339000Y-55984140D01*
X172339000Y-55984140D02*
X173636940Y-55636160D01*
X173636940Y-55636160D02*
X172488860Y-55384700D01*
X172488860Y-55384700D02*
X173738540Y-54985920D01*
X173738540Y-54985920D02*
X173238160Y-54485540D01*
X173238160Y-54485540D02*
X174287180Y-54734460D01*
X174287180Y-54734460D02*
X174238920Y-54084220D01*
X174238920Y-54084220D02*
X175338740Y-54584600D01*
X177787300Y-55786020D02*
X178437540Y-55984140D01*
X178437540Y-55984140D02*
X178838860Y-56184800D01*
X178838860Y-56184800D02*
X180136800Y-57035700D01*
X180136800Y-57035700D02*
X179887880Y-55935880D01*
X179887880Y-55935880D02*
X180637180Y-56634380D01*
X180637180Y-56634380D02*
X180187600Y-55534560D01*
X180187600Y-55534560D02*
X181188360Y-55786020D01*
X181188360Y-55786020D02*
X179938680Y-55084980D01*
X179938680Y-55084980D02*
X181086760Y-54635400D01*
X181086760Y-54635400D02*
X179339240Y-54836060D01*
X179339240Y-54836060D02*
X179837080Y-54135020D01*
X179837080Y-54135020D02*
X178689000Y-54836060D01*
X177888900Y-55483760D02*
X178137820Y-55534560D01*
X174988220Y-56235600D02*
X175488600Y-55935880D01*
X175488600Y-55935880D02*
X176237900Y-55585360D01*
X176237900Y-55585360D02*
X176588420Y-55585360D01*
X175188880Y-61785500D02*
X174937420Y-61584840D01*
X174937420Y-61584840D02*
X174787560Y-61384180D01*
X174787560Y-61384180D02*
X174538640Y-61135260D01*
X174538640Y-61135260D02*
X174487840Y-60835540D01*
X174487840Y-60835540D02*
X174388780Y-60434220D01*
X174388780Y-60434220D02*
X174337980Y-60035440D01*
X174337980Y-60035440D02*
X174287180Y-59634120D01*
X174287180Y-59634120D02*
X174287180Y-59133740D01*
X174287180Y-59133740D02*
X174287180Y-58635900D01*
X175287940Y-61785500D02*
X175488600Y-61734700D01*
X174838360Y-58635900D02*
X175138080Y-59085480D01*
X175138080Y-59085480D02*
X175039020Y-59535060D01*
X175039020Y-59535060D02*
X175488600Y-59834780D01*
X175488600Y-59834780D02*
X175287940Y-60485020D01*
X175287940Y-60485020D02*
X175839120Y-60883800D01*
X175839120Y-60883800D02*
X175638460Y-61584840D01*
X175638460Y-61584840D02*
X176187100Y-62034420D01*
X176438560Y-63784480D02*
X176387760Y-63886080D01*
X176138840Y-62136020D02*
X176336960Y-62534800D01*
X176336960Y-62534800D02*
X176438560Y-62834520D01*
X176438560Y-62834520D02*
X176037240Y-62936120D01*
X176037240Y-62936120D02*
X176387760Y-63284100D01*
X176387760Y-63284100D02*
X176336960Y-63583820D01*
X176336960Y-63583820D02*
X176387760Y-63736220D01*
X176888140Y-61485780D02*
X176738280Y-61884560D01*
X176738280Y-61884560D02*
X176837340Y-62085220D01*
X176837340Y-62085220D02*
X177088800Y-62285880D01*
X177088800Y-62285880D02*
X177238660Y-62484000D01*
X177238660Y-62484000D02*
X177187860Y-62786260D01*
X177187860Y-62786260D02*
X177137060Y-62984380D01*
X177137060Y-62984380D02*
X177187860Y-63535560D01*
X177187860Y-63535560D02*
X177388520Y-63736220D01*
X177487580Y-61084460D02*
X177286920Y-61534040D01*
X177286920Y-61534040D02*
X177589180Y-61833760D01*
X177589180Y-61833760D02*
X177987960Y-62034420D01*
X177987960Y-62034420D02*
X177937160Y-62484000D01*
X177937160Y-62484000D02*
X177787300Y-62885320D01*
X177787300Y-62885320D02*
X177937160Y-63134240D01*
X178338480Y-62684660D02*
X178386740Y-62684660D01*
X178287680Y-60733940D02*
X178539140Y-60835540D01*
X178539140Y-60835540D02*
X178788060Y-60835540D01*
X178788060Y-60835540D02*
X178587400Y-60883800D01*
X178587400Y-60883800D02*
X178038760Y-60985400D01*
X178038760Y-60985400D02*
X177987960Y-61135260D01*
X177987960Y-61135260D02*
X178038760Y-61335920D01*
X178038760Y-61335920D02*
X178236880Y-61534040D01*
X178236880Y-61534040D02*
X178488340Y-61734700D01*
X178488340Y-61734700D02*
X178587400Y-62085220D01*
X178587400Y-62085220D02*
X178488340Y-62384940D01*
X178488340Y-62384940D02*
X178338480Y-62684660D01*
X177637440Y-60434220D02*
X178038760Y-60685680D01*
X178038760Y-60685680D02*
X178287680Y-60685680D01*
X178838860Y-60335160D02*
X178236880Y-60434220D01*
X178236880Y-60434220D02*
X177787300Y-60385960D01*
X177787300Y-60385960D02*
X177286920Y-60335160D01*
X177286920Y-60335160D02*
X176837340Y-60185300D01*
X176837340Y-60185300D02*
X176687480Y-59984640D01*
X176687480Y-59984640D02*
X176486820Y-59634120D01*
X176486820Y-59634120D02*
X176336960Y-59133740D01*
X176336960Y-59133740D02*
X176187100Y-58884820D01*
X176187100Y-58884820D02*
X175887380Y-58834020D01*
X178838860Y-59634120D02*
X178689000Y-59634120D01*
X178689000Y-59634120D02*
X178287680Y-59735720D01*
X178287680Y-59735720D02*
X178437540Y-60086240D01*
X178437540Y-60086240D02*
X178788060Y-60284360D01*
X178788060Y-57785000D02*
X178737260Y-58435240D01*
X178038760Y-58285380D02*
X178137820Y-58435240D01*
X178137820Y-58435240D02*
X178287680Y-58585100D01*
X178287680Y-58585100D02*
X178437540Y-58585100D01*
X178437540Y-58585100D02*
X178638200Y-58486040D01*
X178638200Y-58486040D02*
X178838860Y-58486040D01*
X177888900Y-58234580D02*
X177589180Y-58084720D01*
X177589180Y-58084720D02*
X177286920Y-58084720D01*
X177286920Y-58084720D02*
X177137060Y-58084720D01*
X177137060Y-58084720D02*
X176938940Y-58183780D01*
X176938940Y-58183780D02*
X176738280Y-58234580D01*
X177688240Y-57233820D02*
X177739040Y-57685940D01*
X177739040Y-57685940D02*
X177888900Y-58084720D01*
X177888900Y-58084720D02*
X177987960Y-58234580D01*
X178788060Y-59034680D02*
X178689000Y-59184540D01*
X177937160Y-58935620D02*
X177487580Y-58585100D01*
X177487580Y-58585100D02*
X177088800Y-58734960D01*
X177088800Y-58734960D02*
X177137060Y-59133740D01*
X177137060Y-59133740D02*
X177388520Y-59286140D01*
X177388520Y-59286140D02*
X177688240Y-59286140D01*
X177688240Y-59286140D02*
X177787300Y-59184540D01*
X177787300Y-59184540D02*
X177937160Y-58935620D01*
X178236880Y-57185560D02*
X178386740Y-56835040D01*
X178386740Y-56835040D02*
X178788060Y-56934100D01*
X178788060Y-56934100D02*
X178887120Y-57134760D01*
X178887120Y-57134760D02*
X178788060Y-57386220D01*
X178788060Y-57386220D02*
X178338480Y-57284620D01*
X177088800Y-57335420D02*
X176738280Y-57185560D01*
X176738280Y-57185560D02*
X176288700Y-57083960D01*
X176288700Y-57083960D02*
X176037240Y-57335420D01*
X176037240Y-57335420D02*
X176237900Y-57584340D01*
X176237900Y-57584340D02*
X176639220Y-57584340D01*
X176639220Y-57584340D02*
X177038000Y-57386220D01*
X177038000Y-56235600D02*
X177436780Y-56085740D01*
X177436780Y-56085740D02*
X177688240Y-55735220D01*
X174038260Y-57536080D02*
X174038260Y-58135520D01*
X174038260Y-58135520D02*
X173537880Y-58884820D01*
X173537880Y-58884820D02*
X174937420Y-58336180D01*
X174937420Y-58336180D02*
X175437800Y-57985660D01*
X175437800Y-57985660D02*
X175587660Y-57035700D01*
X175587660Y-57035700D02*
X176187100Y-56484520D01*
X178137820Y-54284880D02*
X178587400Y-54884320D01*
X178587400Y-54884320D02*
X178937920Y-54985920D01*
X178937920Y-54985920D02*
X179387500Y-54985920D01*
X179387500Y-54985920D02*
X179738020Y-55034180D01*
X179738020Y-55034180D02*
X179938680Y-55435500D01*
X179938680Y-55435500D02*
X179986940Y-55735220D01*
X179986940Y-55735220D02*
X179687220Y-55984140D01*
X179687220Y-55984140D02*
X179387500Y-56034940D01*
X179387500Y-56034940D02*
X179036980Y-55885080D01*
X179036980Y-55885080D02*
X178587400Y-55585360D01*
X178587400Y-55585360D02*
X178338480Y-55384700D01*
X178338480Y-55384700D02*
X178038760Y-55234840D01*
X178038760Y-55234840D02*
X177637440Y-55234840D01*
X177637440Y-55234840D02*
X177137060Y-55483760D01*
X177137060Y-55483760D02*
X176938940Y-55435500D01*
X176938940Y-55435500D02*
X176639220Y-55285640D01*
X176639220Y-55285640D02*
X176138840Y-55184040D01*
X176138840Y-55184040D02*
X175638460Y-55234840D01*
X175638460Y-55234840D02*
X175039020Y-55636160D01*
X175039020Y-55636160D02*
X174586900Y-56085740D01*
X174586900Y-56085740D02*
X174238920Y-56484520D01*
X174238920Y-56484520D02*
X173786800Y-56334660D01*
X173786800Y-56334660D02*
X173588680Y-55834280D01*
X173588680Y-55834280D02*
X173687740Y-55184040D01*
X173687740Y-55184040D02*
X173987460Y-54935120D01*
X173987460Y-54935120D02*
X174437040Y-54785260D01*
X174437040Y-54785260D02*
X175087280Y-54635400D01*
X175087280Y-54635400D02*
X175437800Y-54686200D01*
X175437800Y-54686200D02*
X175988980Y-54434740D01*
X175988980Y-54434740D02*
X176187100Y-54084220D01*
X176187100Y-54084220D02*
X175788320Y-54234080D01*
X175788320Y-54234080D02*
X175138080Y-54185820D01*
X175138080Y-54185820D02*
X174188120Y-54035960D01*
X174188120Y-54035960D02*
X173786800Y-54084220D01*
X173786800Y-54084220D02*
X173438820Y-54234080D01*
X173438820Y-54234080D02*
X172836840Y-54635400D01*
X172836840Y-54635400D02*
X172387260Y-55435500D01*
X172387260Y-55435500D02*
X172288200Y-56134000D01*
X172288200Y-56134000D02*
X172587920Y-57035700D01*
X172587920Y-57035700D02*
X173139100Y-57536080D01*
X173139100Y-57536080D02*
X173786800Y-57785000D01*
X173786800Y-57785000D02*
X174538640Y-56586120D01*
X174538640Y-56586120D02*
X175237140Y-55935880D01*
X175237140Y-55935880D02*
X175839120Y-55483760D01*
X175839120Y-55483760D02*
X176387760Y-55435500D01*
X176387760Y-55435500D02*
X176837340Y-55636160D01*
X176837340Y-55636160D02*
X177238660Y-55735220D01*
X177238660Y-55735220D02*
X177688240Y-55585360D01*
X177688240Y-55585360D02*
X178137820Y-55684420D01*
X178137820Y-55684420D02*
X178737260Y-55984140D01*
X178737260Y-55984140D02*
X178937920Y-56235600D01*
X178937920Y-56235600D02*
X179638960Y-57335420D01*
X179638960Y-57335420D02*
X179938680Y-57985660D01*
X179938680Y-57985660D02*
X179339240Y-58084720D01*
X179339240Y-58084720D02*
X178887120Y-57685940D01*
X178788060Y-58486040D02*
X179186840Y-58486040D01*
X179186840Y-58486040D02*
X179339240Y-58635900D01*
X179339240Y-58635900D02*
X178838860Y-59634120D01*
X178188620Y-54185820D02*
X178788060Y-54434740D01*
X178788060Y-54434740D02*
X179237640Y-54335680D01*
X179237640Y-54335680D02*
X179738020Y-54084220D01*
X179738020Y-54084220D02*
X180187600Y-54035960D01*
X180187600Y-54035960D02*
X180637180Y-54284880D01*
X180637180Y-54284880D02*
X181086760Y-54584600D01*
X181086760Y-54584600D02*
X181287420Y-55135780D01*
X181287420Y-55135780D02*
X181287420Y-55585360D01*
X181287420Y-55585360D02*
X181188360Y-55984140D01*
X181188360Y-55984140D02*
X180936900Y-56535320D01*
X180936900Y-56535320D02*
X180487320Y-56934100D01*
X180487320Y-56934100D02*
X179938680Y-57335420D01*
D12*
X122670000Y-55330000D02*
X122670000Y-54000000D01*
X124000000Y-55330000D02*
X122670000Y-55330000D01*
X125270000Y-55330000D02*
X125270000Y-52670000D01*
X125270000Y-52670000D02*
X127870000Y-52670000D01*
X125270000Y-55330000D02*
X127870000Y-55330000D01*
X127870000Y-55330000D02*
X127870000Y-52670000D01*
X106670000Y-55330000D02*
X106670000Y-54000000D01*
X108000000Y-55330000D02*
X106670000Y-55330000D01*
X109270000Y-55330000D02*
X109270000Y-52670000D01*
X109270000Y-52670000D02*
X111870000Y-52670000D01*
X109270000Y-55330000D02*
X111870000Y-55330000D01*
X111870000Y-55330000D02*
X111870000Y-52670000D01*
D10*
X106148000Y-73374000D02*
X129008000Y-73374000D01*
X106148000Y-56674000D02*
X106148000Y-73374000D01*
X129008000Y-56674000D02*
X106148000Y-56674000D01*
X129008000Y-73374000D02*
X129008000Y-56674000D01*
D12*
X133996936Y-67331000D02*
X135201064Y-67331000D01*
X133996936Y-65511000D02*
X135201064Y-65511000D01*
X133996936Y-71522000D02*
X135201064Y-71522000D01*
X133996936Y-69702000D02*
X135201064Y-69702000D01*
X136348000Y-61941000D02*
X136348000Y-53881000D01*
X131828000Y-61941000D02*
X136348000Y-61941000D01*
X131828000Y-53881000D02*
X131828000Y-61941000D01*
X95626000Y-52724000D02*
X95626000Y-55074000D01*
X95626000Y-59544000D02*
X95626000Y-57194000D01*
X101381563Y-59544000D02*
X95626000Y-59544000D01*
X101381563Y-52724000D02*
X95626000Y-52724000D01*
X102446000Y-53788437D02*
X102446000Y-55074000D01*
X102446000Y-58479563D02*
X102446000Y-57194000D01*
X102446000Y-58479563D02*
X101381563Y-59544000D01*
X102446000Y-53788437D02*
X101381563Y-52724000D01*
X103473500Y-57981500D02*
X102686000Y-57981500D01*
X103079750Y-58375250D02*
X103079750Y-57587750D01*
D11*
X149433333Y-75122380D02*
X149100000Y-74646190D01*
X148861904Y-75122380D02*
X148861904Y-74122380D01*
X149242857Y-74122380D01*
X149338095Y-74170000D01*
X149385714Y-74217619D01*
X149433333Y-74312857D01*
X149433333Y-74455714D01*
X149385714Y-74550952D01*
X149338095Y-74598571D01*
X149242857Y-74646190D01*
X148861904Y-74646190D01*
X150338095Y-74122380D02*
X149861904Y-74122380D01*
X149814285Y-74598571D01*
X149861904Y-74550952D01*
X149957142Y-74503333D01*
X150195238Y-74503333D01*
X150290476Y-74550952D01*
X150338095Y-74598571D01*
X150385714Y-74693809D01*
X150385714Y-74931904D01*
X150338095Y-75027142D01*
X150290476Y-75074761D01*
X150195238Y-75122380D01*
X149957142Y-75122380D01*
X149861904Y-75074761D01*
X149814285Y-75027142D01*
D17*
X140963095Y-86267380D02*
X140963095Y-87076904D01*
X141010714Y-87172142D01*
X141058333Y-87219761D01*
X141153571Y-87267380D01*
X141344047Y-87267380D01*
X141439285Y-87219761D01*
X141486904Y-87172142D01*
X141534523Y-87076904D01*
X141534523Y-86267380D01*
X141963095Y-86362619D02*
X142010714Y-86315000D01*
X142105952Y-86267380D01*
X142344047Y-86267380D01*
X142439285Y-86315000D01*
X142486904Y-86362619D01*
X142534523Y-86457857D01*
X142534523Y-86553095D01*
X142486904Y-86695952D01*
X141915476Y-87267380D01*
X142534523Y-87267380D01*
D11*
X143138095Y-76784761D02*
X143280952Y-76832380D01*
X143519047Y-76832380D01*
X143614285Y-76784761D01*
X143661904Y-76737142D01*
X143709523Y-76641904D01*
X143709523Y-76546666D01*
X143661904Y-76451428D01*
X143614285Y-76403809D01*
X143519047Y-76356190D01*
X143328571Y-76308571D01*
X143233333Y-76260952D01*
X143185714Y-76213333D01*
X143138095Y-76118095D01*
X143138095Y-76022857D01*
X143185714Y-75927619D01*
X143233333Y-75880000D01*
X143328571Y-75832380D01*
X143566666Y-75832380D01*
X143709523Y-75880000D01*
X144661904Y-76832380D02*
X144090476Y-76832380D01*
X144376190Y-76832380D02*
X144376190Y-75832380D01*
X144280952Y-75975238D01*
X144185714Y-76070476D01*
X144090476Y-76118095D01*
X148733833Y-95044000D02*
X148400500Y-94567810D01*
X148162404Y-95044000D02*
X148162404Y-94044000D01*
X148543357Y-94044000D01*
X148638595Y-94091620D01*
X148686214Y-94139239D01*
X148733833Y-94234477D01*
X148733833Y-94377334D01*
X148686214Y-94472572D01*
X148638595Y-94520191D01*
X148543357Y-94567810D01*
X148162404Y-94567810D01*
X149590976Y-94377334D02*
X149590976Y-95044000D01*
X149352880Y-93996381D02*
X149114785Y-94710667D01*
X149733833Y-94710667D01*
X148783833Y-93860000D02*
X148450500Y-93383810D01*
X148212404Y-93860000D02*
X148212404Y-92860000D01*
X148593357Y-92860000D01*
X148688595Y-92907620D01*
X148736214Y-92955239D01*
X148783833Y-93050477D01*
X148783833Y-93193334D01*
X148736214Y-93288572D01*
X148688595Y-93336191D01*
X148593357Y-93383810D01*
X148212404Y-93383810D01*
X149117166Y-92860000D02*
X149736214Y-92860000D01*
X149402880Y-93240953D01*
X149545738Y-93240953D01*
X149640976Y-93288572D01*
X149688595Y-93336191D01*
X149736214Y-93431429D01*
X149736214Y-93669524D01*
X149688595Y-93764762D01*
X149640976Y-93812381D01*
X149545738Y-93860000D01*
X149260023Y-93860000D01*
X149164785Y-93812381D01*
X149117166Y-93764762D01*
X148733333Y-87402380D02*
X148400000Y-86926190D01*
X148161904Y-87402380D02*
X148161904Y-86402380D01*
X148542857Y-86402380D01*
X148638095Y-86450000D01*
X148685714Y-86497619D01*
X148733333Y-86592857D01*
X148733333Y-86735714D01*
X148685714Y-86830952D01*
X148638095Y-86878571D01*
X148542857Y-86926190D01*
X148161904Y-86926190D01*
X149114285Y-86497619D02*
X149161904Y-86450000D01*
X149257142Y-86402380D01*
X149495238Y-86402380D01*
X149590476Y-86450000D01*
X149638095Y-86497619D01*
X149685714Y-86592857D01*
X149685714Y-86688095D01*
X149638095Y-86830952D01*
X149066666Y-87402380D01*
X149685714Y-87402380D01*
X148733333Y-86168380D02*
X148400000Y-85692190D01*
X148161904Y-86168380D02*
X148161904Y-85168380D01*
X148542857Y-85168380D01*
X148638095Y-85216000D01*
X148685714Y-85263619D01*
X148733333Y-85358857D01*
X148733333Y-85501714D01*
X148685714Y-85596952D01*
X148638095Y-85644571D01*
X148542857Y-85692190D01*
X148161904Y-85692190D01*
X149685714Y-86168380D02*
X149114285Y-86168380D01*
X149400000Y-86168380D02*
X149400000Y-85168380D01*
X149304761Y-85311238D01*
X149209523Y-85406476D01*
X149114285Y-85454095D01*
X147758333Y-100802380D02*
X147282142Y-100802380D01*
X147282142Y-99802380D01*
X148044047Y-99897619D02*
X148091666Y-99850000D01*
X148186904Y-99802380D01*
X148425000Y-99802380D01*
X148520238Y-99850000D01*
X148567857Y-99897619D01*
X148615476Y-99992857D01*
X148615476Y-100088095D01*
X148567857Y-100230952D01*
X147996428Y-100802380D01*
X148615476Y-100802380D01*
X145852380Y-82991666D02*
X145852380Y-83467857D01*
X144852380Y-83467857D01*
X145852380Y-82134523D02*
X145852380Y-82705952D01*
X145852380Y-82420238D02*
X144852380Y-82420238D01*
X144995238Y-82515476D01*
X145090476Y-82610714D01*
X145138095Y-82705952D01*
X138316666Y-126502380D02*
X138316666Y-127216666D01*
X138269047Y-127359523D01*
X138173809Y-127454761D01*
X138030952Y-127502380D01*
X137935714Y-127502380D01*
X139316666Y-127502380D02*
X138745238Y-127502380D01*
X139030952Y-127502380D02*
X139030952Y-126502380D01*
X138935714Y-126645238D01*
X138840476Y-126740476D01*
X138745238Y-126788095D01*
X142232142Y-97782142D02*
X142184523Y-97829761D01*
X142041666Y-97877380D01*
X141946428Y-97877380D01*
X141803571Y-97829761D01*
X141708333Y-97734523D01*
X141660714Y-97639285D01*
X141613095Y-97448809D01*
X141613095Y-97305952D01*
X141660714Y-97115476D01*
X141708333Y-97020238D01*
X141803571Y-96925000D01*
X141946428Y-96877380D01*
X142041666Y-96877380D01*
X142184523Y-96925000D01*
X142232142Y-96972619D01*
X143184523Y-97877380D02*
X142613095Y-97877380D01*
X142898809Y-97877380D02*
X142898809Y-96877380D01*
X142803571Y-97020238D01*
X142708333Y-97115476D01*
X142613095Y-97163095D01*
X143803571Y-96877380D02*
X143898809Y-96877380D01*
X143994047Y-96925000D01*
X144041666Y-96972619D01*
X144089285Y-97067857D01*
X144136904Y-97258333D01*
X144136904Y-97496428D01*
X144089285Y-97686904D01*
X144041666Y-97782142D01*
X143994047Y-97829761D01*
X143898809Y-97877380D01*
X143803571Y-97877380D01*
X143708333Y-97829761D01*
X143660714Y-97782142D01*
X143613095Y-97686904D01*
X143565476Y-97496428D01*
X143565476Y-97258333D01*
X143613095Y-97067857D01*
X143660714Y-96972619D01*
X143708333Y-96925000D01*
X143803571Y-96877380D01*
X135733333Y-94992142D02*
X135685714Y-95039761D01*
X135542857Y-95087380D01*
X135447619Y-95087380D01*
X135304761Y-95039761D01*
X135209523Y-94944523D01*
X135161904Y-94849285D01*
X135114285Y-94658809D01*
X135114285Y-94515952D01*
X135161904Y-94325476D01*
X135209523Y-94230238D01*
X135304761Y-94135000D01*
X135447619Y-94087380D01*
X135542857Y-94087380D01*
X135685714Y-94135000D01*
X135733333Y-94182619D01*
X136209523Y-95087380D02*
X136400000Y-95087380D01*
X136495238Y-95039761D01*
X136542857Y-94992142D01*
X136638095Y-94849285D01*
X136685714Y-94658809D01*
X136685714Y-94277857D01*
X136638095Y-94182619D01*
X136590476Y-94135000D01*
X136495238Y-94087380D01*
X136304761Y-94087380D01*
X136209523Y-94135000D01*
X136161904Y-94182619D01*
X136114285Y-94277857D01*
X136114285Y-94515952D01*
X136161904Y-94611190D01*
X136209523Y-94658809D01*
X136304761Y-94706428D01*
X136495238Y-94706428D01*
X136590476Y-94658809D01*
X136638095Y-94611190D01*
X136685714Y-94515952D01*
X142733333Y-96257142D02*
X142685714Y-96304761D01*
X142542857Y-96352380D01*
X142447619Y-96352380D01*
X142304761Y-96304761D01*
X142209523Y-96209523D01*
X142161904Y-96114285D01*
X142114285Y-95923809D01*
X142114285Y-95780952D01*
X142161904Y-95590476D01*
X142209523Y-95495238D01*
X142304761Y-95400000D01*
X142447619Y-95352380D01*
X142542857Y-95352380D01*
X142685714Y-95400000D01*
X142733333Y-95447619D01*
X143304761Y-95780952D02*
X143209523Y-95733333D01*
X143161904Y-95685714D01*
X143114285Y-95590476D01*
X143114285Y-95542857D01*
X143161904Y-95447619D01*
X143209523Y-95400000D01*
X143304761Y-95352380D01*
X143495238Y-95352380D01*
X143590476Y-95400000D01*
X143638095Y-95447619D01*
X143685714Y-95542857D01*
X143685714Y-95590476D01*
X143638095Y-95685714D01*
X143590476Y-95733333D01*
X143495238Y-95780952D01*
X143304761Y-95780952D01*
X143209523Y-95828571D01*
X143161904Y-95876190D01*
X143114285Y-95971428D01*
X143114285Y-96161904D01*
X143161904Y-96257142D01*
X143209523Y-96304761D01*
X143304761Y-96352380D01*
X143495238Y-96352380D01*
X143590476Y-96304761D01*
X143638095Y-96257142D01*
X143685714Y-96161904D01*
X143685714Y-95971428D01*
X143638095Y-95876190D01*
X143590476Y-95828571D01*
X143495238Y-95780952D01*
X144357142Y-82941666D02*
X144404761Y-82989285D01*
X144452380Y-83132142D01*
X144452380Y-83227380D01*
X144404761Y-83370238D01*
X144309523Y-83465476D01*
X144214285Y-83513095D01*
X144023809Y-83560714D01*
X143880952Y-83560714D01*
X143690476Y-83513095D01*
X143595238Y-83465476D01*
X143500000Y-83370238D01*
X143452380Y-83227380D01*
X143452380Y-83132142D01*
X143500000Y-82989285D01*
X143547619Y-82941666D01*
X143452380Y-82608333D02*
X143452380Y-81941666D01*
X144452380Y-82370238D01*
X141657142Y-83141666D02*
X141704761Y-83189285D01*
X141752380Y-83332142D01*
X141752380Y-83427380D01*
X141704761Y-83570238D01*
X141609523Y-83665476D01*
X141514285Y-83713095D01*
X141323809Y-83760714D01*
X141180952Y-83760714D01*
X140990476Y-83713095D01*
X140895238Y-83665476D01*
X140800000Y-83570238D01*
X140752380Y-83427380D01*
X140752380Y-83332142D01*
X140800000Y-83189285D01*
X140847619Y-83141666D01*
X140752380Y-82284523D02*
X140752380Y-82475000D01*
X140800000Y-82570238D01*
X140847619Y-82617857D01*
X140990476Y-82713095D01*
X141180952Y-82760714D01*
X141561904Y-82760714D01*
X141657142Y-82713095D01*
X141704761Y-82665476D01*
X141752380Y-82570238D01*
X141752380Y-82379761D01*
X141704761Y-82284523D01*
X141657142Y-82236904D01*
X141561904Y-82189285D01*
X141323809Y-82189285D01*
X141228571Y-82236904D01*
X141180952Y-82284523D01*
X141133333Y-82379761D01*
X141133333Y-82570238D01*
X141180952Y-82665476D01*
X141228571Y-82713095D01*
X141323809Y-82760714D01*
X142857142Y-83166666D02*
X142904761Y-83214285D01*
X142952380Y-83357142D01*
X142952380Y-83452380D01*
X142904761Y-83595238D01*
X142809523Y-83690476D01*
X142714285Y-83738095D01*
X142523809Y-83785714D01*
X142380952Y-83785714D01*
X142190476Y-83738095D01*
X142095238Y-83690476D01*
X142000000Y-83595238D01*
X141952380Y-83452380D01*
X141952380Y-83357142D01*
X142000000Y-83214285D01*
X142047619Y-83166666D01*
X141952380Y-82261904D02*
X141952380Y-82738095D01*
X142428571Y-82785714D01*
X142380952Y-82738095D01*
X142333333Y-82642857D01*
X142333333Y-82404761D01*
X142380952Y-82309523D01*
X142428571Y-82261904D01*
X142523809Y-82214285D01*
X142761904Y-82214285D01*
X142857142Y-82261904D01*
X142904761Y-82309523D01*
X142952380Y-82404761D01*
X142952380Y-82642857D01*
X142904761Y-82738095D01*
X142857142Y-82785714D01*
X134316666Y-117702380D02*
X134316666Y-118416666D01*
X134269047Y-118559523D01*
X134173809Y-118654761D01*
X134030952Y-118702380D01*
X133935714Y-118702380D01*
X134745238Y-117797619D02*
X134792857Y-117750000D01*
X134888095Y-117702380D01*
X135126190Y-117702380D01*
X135221428Y-117750000D01*
X135269047Y-117797619D01*
X135316666Y-117892857D01*
X135316666Y-117988095D01*
X135269047Y-118130952D01*
X134697619Y-118702380D01*
X135316666Y-118702380D01*
X128357380Y-55451333D02*
X129071666Y-55451333D01*
X129214523Y-55498952D01*
X129309761Y-55594190D01*
X129357380Y-55737047D01*
X129357380Y-55832285D01*
X128690714Y-54546571D02*
X129357380Y-54546571D01*
X128309761Y-54784666D02*
X129024047Y-55022761D01*
X129024047Y-54403714D01*
X112228380Y-55578333D02*
X112942666Y-55578333D01*
X113085523Y-55625952D01*
X113180761Y-55721190D01*
X113228380Y-55864047D01*
X113228380Y-55959285D01*
X112228380Y-55197380D02*
X112228380Y-54578333D01*
X112609333Y-54911666D01*
X112609333Y-54768809D01*
X112656952Y-54673571D01*
X112704571Y-54625952D01*
X112799809Y-54578333D01*
X113037904Y-54578333D01*
X113133142Y-54625952D01*
X113180761Y-54673571D01*
X113228380Y-54768809D01*
X113228380Y-55054523D01*
X113180761Y-55149761D01*
X113133142Y-55197380D01*
X125288095Y-80402380D02*
X125859523Y-80402380D01*
X125573809Y-81402380D02*
X125573809Y-80402380D01*
X126192857Y-81402380D02*
X126192857Y-80402380D01*
X126573809Y-80402380D01*
X126669047Y-80450000D01*
X126716666Y-80497619D01*
X126764285Y-80592857D01*
X126764285Y-80735714D01*
X126716666Y-80830952D01*
X126669047Y-80878571D01*
X126573809Y-80926190D01*
X126192857Y-80926190D01*
X127716666Y-81402380D02*
X127145238Y-81402380D01*
X127430952Y-81402380D02*
X127430952Y-80402380D01*
X127335714Y-80545238D01*
X127240476Y-80640476D01*
X127145238Y-80688095D01*
X112903095Y-58126380D02*
X112903095Y-58935904D01*
X112950714Y-59031142D01*
X112998333Y-59078761D01*
X113093571Y-59126380D01*
X113284047Y-59126380D01*
X113379285Y-59078761D01*
X113426904Y-59031142D01*
X113474523Y-58935904D01*
X113474523Y-58126380D01*
X114474523Y-59126380D02*
X113903095Y-59126380D01*
X114188809Y-59126380D02*
X114188809Y-58126380D01*
X114093571Y-58269238D01*
X113998333Y-58364476D01*
X113903095Y-58412095D01*
X115792285Y-59126380D02*
X115792285Y-58126380D01*
X116030380Y-58126380D01*
X116173238Y-58174000D01*
X116268476Y-58269238D01*
X116316095Y-58364476D01*
X116363714Y-58554952D01*
X116363714Y-58697809D01*
X116316095Y-58888285D01*
X116268476Y-58983523D01*
X116173238Y-59078761D01*
X116030380Y-59126380D01*
X115792285Y-59126380D01*
X116792285Y-59126380D02*
X116792285Y-58126380D01*
X117125619Y-58840666D01*
X117458952Y-58126380D01*
X117458952Y-59126380D01*
X118125619Y-58126380D02*
X118220857Y-58126380D01*
X118316095Y-58174000D01*
X118363714Y-58221619D01*
X118411333Y-58316857D01*
X118458952Y-58507333D01*
X118458952Y-58745428D01*
X118411333Y-58935904D01*
X118363714Y-59031142D01*
X118316095Y-59078761D01*
X118220857Y-59126380D01*
X118125619Y-59126380D01*
X118030380Y-59078761D01*
X117982761Y-59031142D01*
X117935142Y-58935904D01*
X117887523Y-58745428D01*
X117887523Y-58507333D01*
X117935142Y-58316857D01*
X117982761Y-58221619D01*
X118030380Y-58174000D01*
X118125619Y-58126380D01*
X118839904Y-58221619D02*
X118887523Y-58174000D01*
X118982761Y-58126380D01*
X119220857Y-58126380D01*
X119316095Y-58174000D01*
X119363714Y-58221619D01*
X119411333Y-58316857D01*
X119411333Y-58412095D01*
X119363714Y-58554952D01*
X118792285Y-59126380D01*
X119411333Y-59126380D01*
X108164190Y-65476380D02*
X108164190Y-64476380D01*
X108640380Y-65476380D02*
X108640380Y-64476380D01*
X109211809Y-65476380D01*
X109211809Y-64476380D01*
X125468000Y-64476380D02*
X125658476Y-64476380D01*
X125753714Y-64524000D01*
X125848952Y-64619238D01*
X125896571Y-64809714D01*
X125896571Y-65143047D01*
X125848952Y-65333523D01*
X125753714Y-65428761D01*
X125658476Y-65476380D01*
X125468000Y-65476380D01*
X125372761Y-65428761D01*
X125277523Y-65333523D01*
X125229904Y-65143047D01*
X125229904Y-64809714D01*
X125277523Y-64619238D01*
X125372761Y-64524000D01*
X125468000Y-64476380D01*
X126325142Y-64476380D02*
X126325142Y-65285904D01*
X126372761Y-65381142D01*
X126420380Y-65428761D01*
X126515619Y-65476380D01*
X126706095Y-65476380D01*
X126801333Y-65428761D01*
X126848952Y-65381142D01*
X126896571Y-65285904D01*
X126896571Y-64476380D01*
X127229904Y-64476380D02*
X127801333Y-64476380D01*
X127515619Y-65476380D02*
X127515619Y-64476380D01*
D10*
X110466095Y-70246857D02*
X111989904Y-70246857D01*
X111228000Y-71008761D02*
X111228000Y-69484952D01*
X123166095Y-70246857D02*
X124689904Y-70246857D01*
X123928000Y-71008761D02*
X123928000Y-69484952D01*
D11*
X134432333Y-64958142D02*
X134384714Y-65005761D01*
X134241857Y-65053380D01*
X134146619Y-65053380D01*
X134003761Y-65005761D01*
X133908523Y-64910523D01*
X133860904Y-64815285D01*
X133813285Y-64624809D01*
X133813285Y-64481952D01*
X133860904Y-64291476D01*
X133908523Y-64196238D01*
X134003761Y-64101000D01*
X134146619Y-64053380D01*
X134241857Y-64053380D01*
X134384714Y-64101000D01*
X134432333Y-64148619D01*
X135289476Y-64386714D02*
X135289476Y-65053380D01*
X135051380Y-64005761D02*
X134813285Y-64720047D01*
X135432333Y-64720047D01*
X134432333Y-69149142D02*
X134384714Y-69196761D01*
X134241857Y-69244380D01*
X134146619Y-69244380D01*
X134003761Y-69196761D01*
X133908523Y-69101523D01*
X133860904Y-69006285D01*
X133813285Y-68815809D01*
X133813285Y-68672952D01*
X133860904Y-68482476D01*
X133908523Y-68387238D01*
X134003761Y-68292000D01*
X134146619Y-68244380D01*
X134241857Y-68244380D01*
X134384714Y-68292000D01*
X134432333Y-68339619D01*
X134765666Y-68244380D02*
X135384714Y-68244380D01*
X135051380Y-68625333D01*
X135194238Y-68625333D01*
X135289476Y-68672952D01*
X135337095Y-68720571D01*
X135384714Y-68815809D01*
X135384714Y-69053904D01*
X135337095Y-69149142D01*
X135289476Y-69196761D01*
X135194238Y-69244380D01*
X134908523Y-69244380D01*
X134813285Y-69196761D01*
X134765666Y-69149142D01*
X131345142Y-57697666D02*
X131392761Y-57745285D01*
X131440380Y-57888142D01*
X131440380Y-57983380D01*
X131392761Y-58126238D01*
X131297523Y-58221476D01*
X131202285Y-58269095D01*
X131011809Y-58316714D01*
X130868952Y-58316714D01*
X130678476Y-58269095D01*
X130583238Y-58221476D01*
X130488000Y-58126238D01*
X130440380Y-57983380D01*
X130440380Y-57888142D01*
X130488000Y-57745285D01*
X130535619Y-57697666D01*
X130535619Y-57316714D02*
X130488000Y-57269095D01*
X130440380Y-57173857D01*
X130440380Y-56935761D01*
X130488000Y-56840523D01*
X130535619Y-56792904D01*
X130630857Y-56745285D01*
X130726095Y-56745285D01*
X130868952Y-56792904D01*
X131440380Y-57364333D01*
X131440380Y-56745285D01*
X98869333Y-60841142D02*
X98821714Y-60888761D01*
X98678857Y-60936380D01*
X98583619Y-60936380D01*
X98440761Y-60888761D01*
X98345523Y-60793523D01*
X98297904Y-60698285D01*
X98250285Y-60507809D01*
X98250285Y-60364952D01*
X98297904Y-60174476D01*
X98345523Y-60079238D01*
X98440761Y-59984000D01*
X98583619Y-59936380D01*
X98678857Y-59936380D01*
X98821714Y-59984000D01*
X98869333Y-60031619D01*
X99821714Y-60936380D02*
X99250285Y-60936380D01*
X99536000Y-60936380D02*
X99536000Y-59936380D01*
X99440761Y-60079238D01*
X99345523Y-60174476D01*
X99250285Y-60222095D01*
X173440476Y-86678571D02*
X173107142Y-86678571D01*
X173107142Y-87202380D02*
X173107142Y-86202380D01*
X173583333Y-86202380D01*
X173916666Y-86916666D02*
X174392857Y-86916666D01*
X173821428Y-87202380D02*
X174154761Y-86202380D01*
X174488095Y-87202380D01*
X174821428Y-87202380D02*
X174821428Y-86202380D01*
X175392857Y-87202380D01*
X175392857Y-86202380D01*
M02*
