M48
; DRILL file {KiCad (5.1.9)-1} date 07/12/21 14:29:26
; FORMAT={-:-/ absolute / inch / decimal}
; #@! TF.CreationDate,2021-07-12T14:29:26+08:00
; #@! TF.GenerationSoftware,Kicad,Pcbnew,(5.1.9)-1
; #@! TF.FileFunction,Plated,1,4,PTH
FMAT,2
INCH
T1C0.0079
T2C0.0118
T3C0.0157
T4C0.0394
T5C0.1181
T6C0.1260
T7C0.1299
%
G90
G05
T1
X5.7886Y-4.989
X5.7886Y-5.0236
X5.8189Y-4.8543
X5.838Y-4.8762
X5.8541Y-4.8923
X5.874Y-4.9134
X5.911Y-4.989
X5.911Y-5.0236
X5.9909Y-4.9898
X5.9913Y-5.0232
X6.1079Y-4.9878
X6.1079Y-5.0224
X6.1874Y-4.6146
X6.1874Y-4.6461
X6.1874Y-4.8189
X6.1878Y-4.9886
X6.1882Y-5.022
X6.2008Y-4.7925
X6.215Y-4.6146
X6.215Y-4.8189
X6.2377Y-4.6146
X6.2377Y-4.8189
X6.252Y-4.7925
X6.2638Y-4.8189
X6.2654Y-4.6146
X6.2654Y-4.9878
X6.2654Y-5.0224
X6.278Y-4.7927
X6.3007Y-4.7927
X6.3134Y-4.615
X6.315Y-4.8189
X6.3268Y-4.7925
X6.341Y-4.615
X6.341Y-4.8189
X6.3453Y-4.9886
X6.3457Y-5.022
X6.3637Y-4.615
X6.3637Y-4.8189
X6.378Y-4.7925
X6.3898Y-4.8189
X6.3913Y-4.615
X6.404Y-4.7926
X6.4228Y-4.9874
X6.4228Y-5.022
X6.4267Y-4.7926
X6.4394Y-4.6146
X6.4409Y-4.8339
X6.4528Y-4.7925
X6.467Y-4.6146
X6.467Y-4.8335
X6.4897Y-4.6146
X6.4897Y-4.8335
X6.5028Y-4.9882
X6.5031Y-5.0217
X6.5039Y-4.7925
X6.5157Y-4.8339
X6.5173Y-4.6146
X6.53Y-4.7926
X6.5527Y-4.7926
X6.5654Y-4.6146
X6.5669Y-4.8335
X6.5787Y-4.7925
X6.5803Y-4.987
X6.5803Y-5.0217
X6.593Y-4.6146
X6.593Y-4.8335
X6.6157Y-4.6146
X6.6157Y-4.8335
X6.6299Y-4.7921
X6.6417Y-4.8335
X6.6433Y-4.6146
X6.656Y-4.7921
X6.6587Y-4.987
X6.6587Y-5.0217
X6.6787Y-4.7921
X6.6913Y-4.615
X6.6929Y-4.8331
X6.7047Y-4.7921
X6.719Y-4.615
X6.719Y-4.8331
X6.7386Y-4.9878
X6.739Y-5.0213
X6.7417Y-4.615
X6.7417Y-4.8331
X6.7559Y-4.7929
X6.7677Y-4.8331
X6.7693Y-4.615
X6.7819Y-4.7926
X6.8047Y-4.7926
X6.8165Y-4.9854
X6.8165Y-5.0201
X6.8173Y-4.615
X6.8189Y-4.8335
X6.8307Y-4.7929
X6.8449Y-4.615
X6.8449Y-4.8335
X6.8677Y-4.615
X6.8677Y-4.8335
X6.8819Y-4.7925
X6.8937Y-4.8335
X6.8953Y-4.615
X6.8965Y-4.9862
X6.8969Y-5.0197
X6.9079Y-4.7925
X6.9306Y-4.7925
X6.9433Y-4.6138
X6.9449Y-4.8343
X6.9567Y-4.7925
X6.9709Y-4.6138
X6.9709Y-4.8339
X6.9744Y-4.9846
X6.9744Y-5.0193
X6.9936Y-4.6138
X6.9936Y-4.8339
X7.0079Y-4.7925
X7.0197Y-4.8343
X7.0213Y-4.6138
X7.0339Y-4.7926
X7.0543Y-4.9854
X7.0547Y-5.0189
X7.0566Y-4.7926
X7.0693Y-4.6146
X7.0709Y-4.8335
X7.0827Y-4.7925
X7.0969Y-4.6146
X7.0969Y-4.8335
X7.1196Y-4.6146
X7.1196Y-4.8335
X7.1323Y-4.9858
X7.1323Y-5.0205
X7.1339Y-4.7925
X7.1457Y-4.8335
X7.1472Y-4.6146
X7.1599Y-4.7927
X7.1826Y-4.7927
X7.2087Y-4.7925
X7.2268Y-4.9858
X7.2268Y-5.0205
T2
X3.8327Y-2.4823
X3.8602Y-2.5079
X3.8878Y-2.5354
X4.0705Y-2.96
X4.0705Y-3.01
X4.0713Y-2.91
X4.1205Y-2.91
X4.1205Y-2.96
X4.1205Y-3.01
X4.5365Y-2.5685
X4.5365Y-2.6685
X4.5365Y-2.7685
X4.5365Y-2.8685
X4.5365Y-2.9685
X4.6365Y-2.5685
X4.6365Y-2.6685
X4.6365Y-2.7685
X4.6365Y-2.8685
X4.6365Y-2.9685
X4.7365Y-2.5685
X4.7365Y-2.6685
X4.7365Y-2.7685
X4.7365Y-2.8685
X4.7365Y-2.9685
X5.1492Y-2.91
X5.1492Y-2.96
X5.1492Y-3.01
X5.1992Y-2.91
X5.1992Y-2.96
X5.1992Y-3.01
X5.2538Y-3.386
X5.2538Y-3.436
X5.2638Y-4.7795
X5.2992Y-4.9354
X5.2996Y-4.9697
X5.3004Y-5.0039
X5.3038Y-3.386
X5.3038Y-3.436
X5.3248Y-4.8681
X5.3394Y-4.95
X5.3398Y-4.9122
X5.3398Y-4.9843
X5.3406Y-5.0185
X5.3431Y-4.1652
X5.3431Y-4.2136
X5.3431Y-4.2636
X5.3528Y-4.8252
X5.3538Y-3.386
X5.3538Y-3.436
X5.3701Y-4.8681
X5.3819Y-5.0118
X5.3931Y-4.1652
X5.3931Y-4.2136
X5.3931Y-4.2636
X5.3996Y-4.8264
X5.4134Y-2.815
X5.4134Y-2.9803
X5.4431Y-4.1652
X5.4431Y-4.2136
X5.4431Y-4.2636
X5.4449Y-2.815
X5.4449Y-2.9803
X5.4764Y-2.815
X5.4764Y-2.9803
X5.4862Y-4.7913
X5.4961Y-5.0157
X5.5362Y-4.9425
X5.5366Y-4.9768
X5.5374Y-5.011
X5.548Y-4.8362
X5.548Y-4.872
X5.5484Y-4.9067
X5.5512Y-4.4567
X5.5675Y-4.1652
X5.5675Y-4.2136
X5.5675Y-4.2636
X5.5764Y-4.9571
X5.5768Y-4.9913
X5.5776Y-5.0256
X5.5827Y-4.4567
X5.595Y-3.379
X5.595Y-3.429
X5.6142Y-4.7913
X5.6175Y-4.1652
X5.6175Y-4.2136
X5.6175Y-4.2636
X5.6335Y-4.6031
X5.645Y-3.379
X5.645Y-3.429
X5.648Y-4.6433
X5.6675Y-4.1652
X5.6675Y-4.2136
X5.6675Y-4.2636
X5.6677Y-4.6035
X5.6823Y-4.6437
X5.6917Y-4.865
X5.695Y-3.379
X5.695Y-3.429
X5.702Y-4.6043
X5.7165Y-4.6445
X5.7402Y-4.4528
X5.748Y-4.8661
X5.8622Y-4.6063
X5.9291Y-4.4528
X5.9606Y-4.6457
X5.9882Y-4.6457
X6.0236Y-4.4587
X6.0512Y-4.4587
X6.0866Y-4.6516
X6.1142Y-4.6516
X6.1496Y-4.4567
X6.1772Y-4.4567
X6.2654Y-4.6461
X6.2756Y-4.4567
X6.3031Y-4.4567
X6.3134Y-4.648
X6.3913Y-4.648
X6.4016Y-4.4567
X6.4291Y-4.4567
X6.4394Y-4.648
X6.5173Y-4.648
X6.5276Y-4.4567
X6.5551Y-4.4567
X6.5654Y-4.65
X6.6433Y-4.65
X6.6535Y-4.4567
X6.6811Y-4.4567
X6.6913Y-4.65
X6.7693Y-4.65
X6.7795Y-4.4567
X6.8071Y-4.4567
X6.8173Y-4.65
X6.8953Y-4.65
X6.9055Y-4.4567
X6.9331Y-4.4567
X6.9433Y-4.65
X7.0213Y-4.65
X7.0315Y-4.4606
X7.0591Y-4.4606
X7.0693Y-4.65
X7.1472Y-4.65
X7.1575Y-4.4606
X7.185Y-4.4606
X7.2067Y-4.6516
X7.2205Y-4.6063
X7.2244Y-4.8976
T3
X5.3624Y-4.6358
X5.4018Y-4.6358
X5.4411Y-4.6358
X5.4805Y-4.6358
T4
X4.2571Y-2.326
X4.2842Y-2.51
X4.2842Y-2.61
X4.2842Y-2.91
X4.2842Y-3.01
X4.3571Y-2.326
X4.887Y-2.326
X4.9842Y-2.51
X4.9842Y-2.61
X4.9842Y-2.91
X4.9842Y-3.01
X4.987Y-2.326
T6
X3.7717Y-4.9075
T7
X5.0098Y-4.6543
X5.8957Y-2.4654
X7.5689Y-2.4654
X7.5689Y-4.6543
T5
G00X3.7717Y-2.7106
M15
G01X3.7717Y-2.8602
M16
G05
T0
M30
