%TF.GenerationSoftware,KiCad,Pcbnew,(5.1.9)-1*%
%TF.CreationDate,2021-07-12T14:29:20+08:00*%
%TF.ProjectId,V1-10x10,56312d31-3078-4313-902e-6b696361645f,rev?*%
%TF.SameCoordinates,Original*%
%TF.FileFunction,Legend,Top*%
%TF.FilePolarity,Positive*%
%FSLAX46Y46*%
G04 Gerber Fmt 4.6, Leading zero omitted, Abs format (unit mm)*
G04 Created by KiCad (PCBNEW (5.1.9)-1) date 2021-07-12 14:29:20*
%MOMM*%
%LPD*%
G01*
G04 APERTURE LIST*
%ADD10C,0.200000*%
%ADD11C,0.150000*%
%ADD12C,0.152400*%
%ADD13C,0.100000*%
%ADD14C,0.010000*%
%ADD15C,0.120000*%
G04 APERTURE END LIST*
D10*
X122049952Y-59126428D02*
X121288047Y-59126428D01*
X121669000Y-59507380D02*
X121669000Y-58745476D01*
X106047952Y-59126428D02*
X105286047Y-59126428D01*
X105667000Y-59507380D02*
X105667000Y-58745476D01*
D11*
X129320857Y-57598571D02*
X128606571Y-57598571D01*
X128535142Y-58312857D01*
X128606571Y-58241428D01*
X128749428Y-58170000D01*
X129106571Y-58170000D01*
X129249428Y-58241428D01*
X129320857Y-58312857D01*
X129392285Y-58455714D01*
X129392285Y-58812857D01*
X129320857Y-58955714D01*
X129249428Y-59027142D01*
X129106571Y-59098571D01*
X128749428Y-59098571D01*
X128606571Y-59027142D01*
X128535142Y-58955714D01*
X129820857Y-57598571D02*
X130320857Y-59098571D01*
X130820857Y-57598571D01*
X131535142Y-57598571D02*
X131535142Y-57955714D01*
X131178000Y-57812857D02*
X131535142Y-57955714D01*
X131892285Y-57812857D01*
X131320857Y-58241428D02*
X131535142Y-57955714D01*
X131749428Y-58241428D01*
X113501428Y-58971571D02*
X112644285Y-58971571D01*
X113072857Y-58971571D02*
X113072857Y-57471571D01*
X112930000Y-57685857D01*
X112787142Y-57828714D01*
X112644285Y-57900142D01*
X114072857Y-57614428D02*
X114144285Y-57543000D01*
X114287142Y-57471571D01*
X114644285Y-57471571D01*
X114787142Y-57543000D01*
X114858571Y-57614428D01*
X114930000Y-57757285D01*
X114930000Y-57900142D01*
X114858571Y-58114428D01*
X114001428Y-58971571D01*
X114930000Y-58971571D01*
X115358571Y-57471571D02*
X115858571Y-58971571D01*
X116358571Y-57471571D01*
D12*
X186650000Y-120820000D02*
X183950000Y-120820000D01*
X132850000Y-120820000D02*
X132850000Y-114020000D01*
D13*
G36*
X134650000Y-119820000D02*
G01*
X133650000Y-119820000D01*
X134150000Y-118820000D01*
X134650000Y-119820000D01*
G37*
X134650000Y-119820000D02*
X133650000Y-119820000D01*
X134150000Y-118820000D01*
X134650000Y-119820000D01*
D12*
X183950000Y-114020000D02*
X186650000Y-114020000D01*
X186650000Y-114020000D02*
X186650000Y-120820000D01*
X135550000Y-120820000D02*
X132850000Y-120820000D01*
X132850000Y-114020000D02*
X135550000Y-114020000D01*
D10*
X91000000Y-80249999D02*
X91000000Y-79969999D01*
X136800000Y-78969999D02*
X92000000Y-78969999D01*
X134525000Y-111749999D02*
X134525000Y-80249999D01*
X137800000Y-57419999D02*
X137800000Y-77969999D01*
X92000000Y-121019999D02*
X116400000Y-121019999D01*
X198250000Y-56419999D02*
X138800000Y-56419999D01*
X118400000Y-124419999D02*
X198250000Y-124419999D01*
X117400000Y-123419999D02*
X117400000Y-122019999D01*
X91000000Y-111749999D02*
X134525000Y-111749999D01*
X134525000Y-80249999D02*
X91000000Y-80249999D01*
X199250000Y-123419999D02*
X199250000Y-57419999D01*
X91000000Y-112024999D02*
X91000000Y-111749999D01*
X91000000Y-80249999D02*
X91000000Y-120019999D01*
X198250000Y-124419999D02*
G75*
G03*
X199250000Y-123419999I0J1000000D01*
G01*
X117400000Y-122019999D02*
G75*
G03*
X116400000Y-121019999I-1000000J0D01*
G01*
X117400000Y-123419999D02*
G75*
G03*
X118400000Y-124419999I1000000J0D01*
G01*
X92000000Y-121019999D02*
G75*
G02*
X91000000Y-120019999I0J1000000D01*
G01*
X137800000Y-57419999D02*
G75*
G02*
X138800000Y-56419999I1000000J0D01*
G01*
X136800000Y-78969999D02*
G75*
G03*
X137800000Y-77969999I0J1000000D01*
G01*
X199250000Y-57419999D02*
G75*
G03*
X198250000Y-56419999I-1000000J0D01*
G01*
X91000000Y-79969999D02*
G75*
G02*
X92000000Y-78969999I1000000J0D01*
G01*
D14*
G36*
X162707014Y-58815998D02*
G01*
X162865006Y-58816863D01*
X162979347Y-58819205D01*
X163057407Y-58823762D01*
X163106554Y-58831270D01*
X163134159Y-58842466D01*
X163147592Y-58858088D01*
X163154221Y-58878873D01*
X163154865Y-58881563D01*
X163164935Y-58930113D01*
X163183575Y-59025905D01*
X163208845Y-59158743D01*
X163238807Y-59318431D01*
X163271522Y-59494774D01*
X163272664Y-59500967D01*
X163305433Y-59673782D01*
X163336093Y-59826469D01*
X163362664Y-59949871D01*
X163383167Y-60034831D01*
X163395626Y-60072190D01*
X163396220Y-60072852D01*
X163432919Y-60091095D01*
X163508586Y-60121497D01*
X163606878Y-60157493D01*
X163607425Y-60157685D01*
X163731233Y-60204222D01*
X163877196Y-60263504D01*
X164014781Y-60323109D01*
X164021293Y-60326056D01*
X164245390Y-60427765D01*
X164741619Y-60088897D01*
X164893846Y-59985592D01*
X165031741Y-59893237D01*
X165147315Y-59817084D01*
X165232579Y-59762385D01*
X165279544Y-59734393D01*
X165284004Y-59732317D01*
X165318134Y-59741560D01*
X165381881Y-59786156D01*
X165477731Y-59868209D01*
X165608169Y-59989821D01*
X165741328Y-60119205D01*
X165869694Y-60246702D01*
X165984581Y-60363046D01*
X166079073Y-60461052D01*
X166146253Y-60533536D01*
X166179206Y-60573313D01*
X166180432Y-60575361D01*
X166184074Y-60602656D01*
X166170350Y-60647234D01*
X166135869Y-60715112D01*
X166077239Y-60812311D01*
X165991070Y-60944851D01*
X165876200Y-61115476D01*
X165774254Y-61265655D01*
X165683123Y-61400350D01*
X165608073Y-61511740D01*
X165554369Y-61592005D01*
X165527280Y-61633325D01*
X165525574Y-61636130D01*
X165528882Y-61675721D01*
X165553953Y-61752669D01*
X165595798Y-61852432D01*
X165610712Y-61884291D01*
X165675786Y-62026226D01*
X165745212Y-62187273D01*
X165801609Y-62326621D01*
X165842247Y-62430044D01*
X165874526Y-62508642D01*
X165893178Y-62549720D01*
X165895497Y-62552885D01*
X165929803Y-62558128D01*
X166010669Y-62572494D01*
X166127343Y-62593937D01*
X166269075Y-62620413D01*
X166425110Y-62649877D01*
X166584698Y-62680283D01*
X166737085Y-62709588D01*
X166871521Y-62735745D01*
X166977252Y-62756710D01*
X167043526Y-62770439D01*
X167059782Y-62774320D01*
X167076573Y-62783900D01*
X167089249Y-62805536D01*
X167098378Y-62846531D01*
X167104531Y-62914189D01*
X167108280Y-63015812D01*
X167110192Y-63158703D01*
X167110840Y-63350165D01*
X167110874Y-63428645D01*
X167110874Y-64066906D01*
X166957598Y-64097160D01*
X166872322Y-64113564D01*
X166745070Y-64137509D01*
X166591315Y-64166107D01*
X166426534Y-64196467D01*
X166380989Y-64204806D01*
X166228932Y-64234370D01*
X166096468Y-64263442D01*
X165994714Y-64289329D01*
X165934788Y-64309337D01*
X165924805Y-64315301D01*
X165900293Y-64357534D01*
X165865148Y-64439370D01*
X165826173Y-64544683D01*
X165818442Y-64567368D01*
X165767360Y-64708018D01*
X165703954Y-64866714D01*
X165641904Y-65009225D01*
X165641598Y-65009886D01*
X165538267Y-65233440D01*
X166217961Y-66233232D01*
X165781621Y-66670300D01*
X165649649Y-66800381D01*
X165529279Y-66915048D01*
X165427273Y-67008181D01*
X165350391Y-67073658D01*
X165305393Y-67105357D01*
X165298938Y-67107368D01*
X165261040Y-67091529D01*
X165183708Y-67047496D01*
X165075389Y-66980490D01*
X164944532Y-66895734D01*
X164803052Y-66800816D01*
X164659461Y-66703998D01*
X164531435Y-66619751D01*
X164427105Y-66553258D01*
X164354600Y-66509702D01*
X164322158Y-66494264D01*
X164282576Y-66507328D01*
X164207519Y-66541750D01*
X164112468Y-66590380D01*
X164102392Y-66595785D01*
X163974391Y-66659980D01*
X163886618Y-66691463D01*
X163832028Y-66691798D01*
X163803575Y-66662548D01*
X163803410Y-66662138D01*
X163789188Y-66627498D01*
X163755269Y-66545269D01*
X163704284Y-66421814D01*
X163638862Y-66263498D01*
X163561634Y-66076686D01*
X163475229Y-65867742D01*
X163391551Y-65665446D01*
X163299588Y-65442200D01*
X163215150Y-65235392D01*
X163140769Y-65051362D01*
X163078974Y-64896451D01*
X163032297Y-64776996D01*
X163003268Y-64699339D01*
X162994322Y-64670356D01*
X163016756Y-64637110D01*
X163075439Y-64584123D01*
X163153689Y-64525704D01*
X163376534Y-64340952D01*
X163550718Y-64129182D01*
X163674154Y-63894856D01*
X163744754Y-63642434D01*
X163760431Y-63376377D01*
X163749036Y-63253575D01*
X163686950Y-62998793D01*
X163580023Y-62773801D01*
X163434889Y-62580817D01*
X163258178Y-62422061D01*
X163056522Y-62299750D01*
X162836554Y-62216105D01*
X162604906Y-62173344D01*
X162368209Y-62173687D01*
X162133095Y-62219352D01*
X161906196Y-62312559D01*
X161694144Y-62455527D01*
X161605636Y-62536383D01*
X161435889Y-62744007D01*
X161317699Y-62970895D01*
X161250278Y-63210433D01*
X161232840Y-63456007D01*
X161264598Y-63701003D01*
X161344765Y-63938808D01*
X161472555Y-64162807D01*
X161647180Y-64366387D01*
X161842312Y-64525704D01*
X161923591Y-64586602D01*
X161981009Y-64639015D01*
X162001678Y-64670406D01*
X161990856Y-64704639D01*
X161960077Y-64786419D01*
X161911874Y-64909407D01*
X161848778Y-65067263D01*
X161773322Y-65253649D01*
X161688038Y-65462226D01*
X161604219Y-65665496D01*
X161511745Y-65888933D01*
X161426089Y-66095984D01*
X161349882Y-66280286D01*
X161285753Y-66435475D01*
X161236332Y-66555188D01*
X161204248Y-66633061D01*
X161192359Y-66662138D01*
X161164274Y-66691677D01*
X161109949Y-66691591D01*
X161022395Y-66660326D01*
X160894619Y-66596329D01*
X160893608Y-66595785D01*
X160797402Y-66546121D01*
X160719631Y-66509945D01*
X160675777Y-66494408D01*
X160673842Y-66494264D01*
X160640829Y-66510024D01*
X160567946Y-66553850D01*
X160463322Y-66620557D01*
X160335090Y-66704964D01*
X160192948Y-66800816D01*
X160048233Y-66897867D01*
X159917804Y-66982270D01*
X159810110Y-67048801D01*
X159733598Y-67092238D01*
X159697062Y-67107368D01*
X159663418Y-67087482D01*
X159595776Y-67031903D01*
X159500893Y-66946754D01*
X159385530Y-66838153D01*
X159256445Y-66712221D01*
X159214229Y-66670149D01*
X158777739Y-66232931D01*
X159109977Y-65745340D01*
X159210946Y-65595605D01*
X159299562Y-65461220D01*
X159370854Y-65349969D01*
X159419850Y-65269639D01*
X159441578Y-65228014D01*
X159442215Y-65225053D01*
X159430760Y-65185818D01*
X159399949Y-65106895D01*
X159355116Y-65001509D01*
X159323647Y-64930954D01*
X159264808Y-64795876D01*
X159209396Y-64659409D01*
X159166436Y-64544103D01*
X159154766Y-64508977D01*
X159121611Y-64415174D01*
X159089201Y-64342694D01*
X159071399Y-64315301D01*
X159032114Y-64298536D01*
X158946374Y-64274770D01*
X158825303Y-64246697D01*
X158680027Y-64217009D01*
X158615012Y-64204806D01*
X158449913Y-64174468D01*
X158291552Y-64145093D01*
X158155404Y-64119569D01*
X158056943Y-64100785D01*
X158038402Y-64097160D01*
X157885127Y-64066906D01*
X157885127Y-63428645D01*
X157885471Y-63218770D01*
X157886884Y-63059980D01*
X157889936Y-62944973D01*
X157895197Y-62866446D01*
X157903237Y-62817096D01*
X157914627Y-62789619D01*
X157929937Y-62776713D01*
X157936218Y-62774320D01*
X157974104Y-62765833D01*
X158057805Y-62748900D01*
X158176567Y-62725566D01*
X158319639Y-62697875D01*
X158476268Y-62667873D01*
X158635703Y-62637604D01*
X158787191Y-62609115D01*
X158919981Y-62584449D01*
X159023319Y-62565651D01*
X159086455Y-62554767D01*
X159100503Y-62552885D01*
X159113230Y-62527704D01*
X159141400Y-62460622D01*
X159179748Y-62364333D01*
X159194391Y-62326621D01*
X159253452Y-62180921D01*
X159323000Y-62019951D01*
X159385288Y-61884291D01*
X159431121Y-61780561D01*
X159461613Y-61695326D01*
X159471792Y-61643126D01*
X159470169Y-61636130D01*
X159448657Y-61603102D01*
X159399535Y-61529643D01*
X159328077Y-61423577D01*
X159239555Y-61292726D01*
X159139241Y-61144912D01*
X159119406Y-61115734D01*
X159003012Y-60942863D01*
X158917452Y-60811226D01*
X158859316Y-60714761D01*
X158825192Y-60647408D01*
X158811669Y-60603106D01*
X158815336Y-60575794D01*
X158815430Y-60575620D01*
X158844293Y-60539746D01*
X158908133Y-60470391D01*
X159000031Y-60374745D01*
X159113067Y-60259999D01*
X159240321Y-60133341D01*
X159254672Y-60119205D01*
X159415043Y-59963903D01*
X159538805Y-59849870D01*
X159628445Y-59775002D01*
X159686448Y-59737196D01*
X159711996Y-59732317D01*
X159749282Y-59753603D01*
X159826657Y-59802773D01*
X159936133Y-59874575D01*
X160069720Y-59963755D01*
X160219430Y-60065063D01*
X160254382Y-60088897D01*
X160750610Y-60427765D01*
X160974707Y-60326056D01*
X161110989Y-60266783D01*
X161257276Y-60207170D01*
X161383035Y-60159640D01*
X161388575Y-60157685D01*
X161486943Y-60121677D01*
X161562771Y-60091229D01*
X161599718Y-60072905D01*
X161599780Y-60072852D01*
X161611504Y-60039729D01*
X161631432Y-59958267D01*
X161657587Y-59837625D01*
X161687990Y-59686959D01*
X161720663Y-59515428D01*
X161723336Y-59500967D01*
X161756110Y-59324235D01*
X161786198Y-59163810D01*
X161811661Y-59029888D01*
X161830559Y-58932663D01*
X161840953Y-58882332D01*
X161841135Y-58881563D01*
X161847461Y-58860153D01*
X161859761Y-58843988D01*
X161885406Y-58832331D01*
X161931765Y-58824445D01*
X162006208Y-58819593D01*
X162116105Y-58817039D01*
X162268825Y-58816045D01*
X162471738Y-58815874D01*
X162498000Y-58815874D01*
X162707014Y-58815998D01*
G37*
X162707014Y-58815998D02*
X162865006Y-58816863D01*
X162979347Y-58819205D01*
X163057407Y-58823762D01*
X163106554Y-58831270D01*
X163134159Y-58842466D01*
X163147592Y-58858088D01*
X163154221Y-58878873D01*
X163154865Y-58881563D01*
X163164935Y-58930113D01*
X163183575Y-59025905D01*
X163208845Y-59158743D01*
X163238807Y-59318431D01*
X163271522Y-59494774D01*
X163272664Y-59500967D01*
X163305433Y-59673782D01*
X163336093Y-59826469D01*
X163362664Y-59949871D01*
X163383167Y-60034831D01*
X163395626Y-60072190D01*
X163396220Y-60072852D01*
X163432919Y-60091095D01*
X163508586Y-60121497D01*
X163606878Y-60157493D01*
X163607425Y-60157685D01*
X163731233Y-60204222D01*
X163877196Y-60263504D01*
X164014781Y-60323109D01*
X164021293Y-60326056D01*
X164245390Y-60427765D01*
X164741619Y-60088897D01*
X164893846Y-59985592D01*
X165031741Y-59893237D01*
X165147315Y-59817084D01*
X165232579Y-59762385D01*
X165279544Y-59734393D01*
X165284004Y-59732317D01*
X165318134Y-59741560D01*
X165381881Y-59786156D01*
X165477731Y-59868209D01*
X165608169Y-59989821D01*
X165741328Y-60119205D01*
X165869694Y-60246702D01*
X165984581Y-60363046D01*
X166079073Y-60461052D01*
X166146253Y-60533536D01*
X166179206Y-60573313D01*
X166180432Y-60575361D01*
X166184074Y-60602656D01*
X166170350Y-60647234D01*
X166135869Y-60715112D01*
X166077239Y-60812311D01*
X165991070Y-60944851D01*
X165876200Y-61115476D01*
X165774254Y-61265655D01*
X165683123Y-61400350D01*
X165608073Y-61511740D01*
X165554369Y-61592005D01*
X165527280Y-61633325D01*
X165525574Y-61636130D01*
X165528882Y-61675721D01*
X165553953Y-61752669D01*
X165595798Y-61852432D01*
X165610712Y-61884291D01*
X165675786Y-62026226D01*
X165745212Y-62187273D01*
X165801609Y-62326621D01*
X165842247Y-62430044D01*
X165874526Y-62508642D01*
X165893178Y-62549720D01*
X165895497Y-62552885D01*
X165929803Y-62558128D01*
X166010669Y-62572494D01*
X166127343Y-62593937D01*
X166269075Y-62620413D01*
X166425110Y-62649877D01*
X166584698Y-62680283D01*
X166737085Y-62709588D01*
X166871521Y-62735745D01*
X166977252Y-62756710D01*
X167043526Y-62770439D01*
X167059782Y-62774320D01*
X167076573Y-62783900D01*
X167089249Y-62805536D01*
X167098378Y-62846531D01*
X167104531Y-62914189D01*
X167108280Y-63015812D01*
X167110192Y-63158703D01*
X167110840Y-63350165D01*
X167110874Y-63428645D01*
X167110874Y-64066906D01*
X166957598Y-64097160D01*
X166872322Y-64113564D01*
X166745070Y-64137509D01*
X166591315Y-64166107D01*
X166426534Y-64196467D01*
X166380989Y-64204806D01*
X166228932Y-64234370D01*
X166096468Y-64263442D01*
X165994714Y-64289329D01*
X165934788Y-64309337D01*
X165924805Y-64315301D01*
X165900293Y-64357534D01*
X165865148Y-64439370D01*
X165826173Y-64544683D01*
X165818442Y-64567368D01*
X165767360Y-64708018D01*
X165703954Y-64866714D01*
X165641904Y-65009225D01*
X165641598Y-65009886D01*
X165538267Y-65233440D01*
X166217961Y-66233232D01*
X165781621Y-66670300D01*
X165649649Y-66800381D01*
X165529279Y-66915048D01*
X165427273Y-67008181D01*
X165350391Y-67073658D01*
X165305393Y-67105357D01*
X165298938Y-67107368D01*
X165261040Y-67091529D01*
X165183708Y-67047496D01*
X165075389Y-66980490D01*
X164944532Y-66895734D01*
X164803052Y-66800816D01*
X164659461Y-66703998D01*
X164531435Y-66619751D01*
X164427105Y-66553258D01*
X164354600Y-66509702D01*
X164322158Y-66494264D01*
X164282576Y-66507328D01*
X164207519Y-66541750D01*
X164112468Y-66590380D01*
X164102392Y-66595785D01*
X163974391Y-66659980D01*
X163886618Y-66691463D01*
X163832028Y-66691798D01*
X163803575Y-66662548D01*
X163803410Y-66662138D01*
X163789188Y-66627498D01*
X163755269Y-66545269D01*
X163704284Y-66421814D01*
X163638862Y-66263498D01*
X163561634Y-66076686D01*
X163475229Y-65867742D01*
X163391551Y-65665446D01*
X163299588Y-65442200D01*
X163215150Y-65235392D01*
X163140769Y-65051362D01*
X163078974Y-64896451D01*
X163032297Y-64776996D01*
X163003268Y-64699339D01*
X162994322Y-64670356D01*
X163016756Y-64637110D01*
X163075439Y-64584123D01*
X163153689Y-64525704D01*
X163376534Y-64340952D01*
X163550718Y-64129182D01*
X163674154Y-63894856D01*
X163744754Y-63642434D01*
X163760431Y-63376377D01*
X163749036Y-63253575D01*
X163686950Y-62998793D01*
X163580023Y-62773801D01*
X163434889Y-62580817D01*
X163258178Y-62422061D01*
X163056522Y-62299750D01*
X162836554Y-62216105D01*
X162604906Y-62173344D01*
X162368209Y-62173687D01*
X162133095Y-62219352D01*
X161906196Y-62312559D01*
X161694144Y-62455527D01*
X161605636Y-62536383D01*
X161435889Y-62744007D01*
X161317699Y-62970895D01*
X161250278Y-63210433D01*
X161232840Y-63456007D01*
X161264598Y-63701003D01*
X161344765Y-63938808D01*
X161472555Y-64162807D01*
X161647180Y-64366387D01*
X161842312Y-64525704D01*
X161923591Y-64586602D01*
X161981009Y-64639015D01*
X162001678Y-64670406D01*
X161990856Y-64704639D01*
X161960077Y-64786419D01*
X161911874Y-64909407D01*
X161848778Y-65067263D01*
X161773322Y-65253649D01*
X161688038Y-65462226D01*
X161604219Y-65665496D01*
X161511745Y-65888933D01*
X161426089Y-66095984D01*
X161349882Y-66280286D01*
X161285753Y-66435475D01*
X161236332Y-66555188D01*
X161204248Y-66633061D01*
X161192359Y-66662138D01*
X161164274Y-66691677D01*
X161109949Y-66691591D01*
X161022395Y-66660326D01*
X160894619Y-66596329D01*
X160893608Y-66595785D01*
X160797402Y-66546121D01*
X160719631Y-66509945D01*
X160675777Y-66494408D01*
X160673842Y-66494264D01*
X160640829Y-66510024D01*
X160567946Y-66553850D01*
X160463322Y-66620557D01*
X160335090Y-66704964D01*
X160192948Y-66800816D01*
X160048233Y-66897867D01*
X159917804Y-66982270D01*
X159810110Y-67048801D01*
X159733598Y-67092238D01*
X159697062Y-67107368D01*
X159663418Y-67087482D01*
X159595776Y-67031903D01*
X159500893Y-66946754D01*
X159385530Y-66838153D01*
X159256445Y-66712221D01*
X159214229Y-66670149D01*
X158777739Y-66232931D01*
X159109977Y-65745340D01*
X159210946Y-65595605D01*
X159299562Y-65461220D01*
X159370854Y-65349969D01*
X159419850Y-65269639D01*
X159441578Y-65228014D01*
X159442215Y-65225053D01*
X159430760Y-65185818D01*
X159399949Y-65106895D01*
X159355116Y-65001509D01*
X159323647Y-64930954D01*
X159264808Y-64795876D01*
X159209396Y-64659409D01*
X159166436Y-64544103D01*
X159154766Y-64508977D01*
X159121611Y-64415174D01*
X159089201Y-64342694D01*
X159071399Y-64315301D01*
X159032114Y-64298536D01*
X158946374Y-64274770D01*
X158825303Y-64246697D01*
X158680027Y-64217009D01*
X158615012Y-64204806D01*
X158449913Y-64174468D01*
X158291552Y-64145093D01*
X158155404Y-64119569D01*
X158056943Y-64100785D01*
X158038402Y-64097160D01*
X157885127Y-64066906D01*
X157885127Y-63428645D01*
X157885471Y-63218770D01*
X157886884Y-63059980D01*
X157889936Y-62944973D01*
X157895197Y-62866446D01*
X157903237Y-62817096D01*
X157914627Y-62789619D01*
X157929937Y-62776713D01*
X157936218Y-62774320D01*
X157974104Y-62765833D01*
X158057805Y-62748900D01*
X158176567Y-62725566D01*
X158319639Y-62697875D01*
X158476268Y-62667873D01*
X158635703Y-62637604D01*
X158787191Y-62609115D01*
X158919981Y-62584449D01*
X159023319Y-62565651D01*
X159086455Y-62554767D01*
X159100503Y-62552885D01*
X159113230Y-62527704D01*
X159141400Y-62460622D01*
X159179748Y-62364333D01*
X159194391Y-62326621D01*
X159253452Y-62180921D01*
X159323000Y-62019951D01*
X159385288Y-61884291D01*
X159431121Y-61780561D01*
X159461613Y-61695326D01*
X159471792Y-61643126D01*
X159470169Y-61636130D01*
X159448657Y-61603102D01*
X159399535Y-61529643D01*
X159328077Y-61423577D01*
X159239555Y-61292726D01*
X159139241Y-61144912D01*
X159119406Y-61115734D01*
X159003012Y-60942863D01*
X158917452Y-60811226D01*
X158859316Y-60714761D01*
X158825192Y-60647408D01*
X158811669Y-60603106D01*
X158815336Y-60575794D01*
X158815430Y-60575620D01*
X158844293Y-60539746D01*
X158908133Y-60470391D01*
X159000031Y-60374745D01*
X159113067Y-60259999D01*
X159240321Y-60133341D01*
X159254672Y-60119205D01*
X159415043Y-59963903D01*
X159538805Y-59849870D01*
X159628445Y-59775002D01*
X159686448Y-59737196D01*
X159711996Y-59732317D01*
X159749282Y-59753603D01*
X159826657Y-59802773D01*
X159936133Y-59874575D01*
X160069720Y-59963755D01*
X160219430Y-60065063D01*
X160254382Y-60088897D01*
X160750610Y-60427765D01*
X160974707Y-60326056D01*
X161110989Y-60266783D01*
X161257276Y-60207170D01*
X161383035Y-60159640D01*
X161388575Y-60157685D01*
X161486943Y-60121677D01*
X161562771Y-60091229D01*
X161599718Y-60072905D01*
X161599780Y-60072852D01*
X161611504Y-60039729D01*
X161631432Y-59958267D01*
X161657587Y-59837625D01*
X161687990Y-59686959D01*
X161720663Y-59515428D01*
X161723336Y-59500967D01*
X161756110Y-59324235D01*
X161786198Y-59163810D01*
X161811661Y-59029888D01*
X161830559Y-58932663D01*
X161840953Y-58882332D01*
X161841135Y-58881563D01*
X161847461Y-58860153D01*
X161859761Y-58843988D01*
X161885406Y-58832331D01*
X161931765Y-58824445D01*
X162006208Y-58819593D01*
X162116105Y-58817039D01*
X162268825Y-58816045D01*
X162471738Y-58815874D01*
X162498000Y-58815874D01*
X162707014Y-58815998D01*
G36*
X168841439Y-68319540D02*
G01*
X168956950Y-68395034D01*
X169012664Y-68462617D01*
X169056804Y-68585255D01*
X169060309Y-68682298D01*
X169052368Y-68812056D01*
X168753115Y-68943039D01*
X168607611Y-69009958D01*
X168512537Y-69063790D01*
X168463101Y-69110416D01*
X168454511Y-69155720D01*
X168481972Y-69205582D01*
X168512253Y-69238632D01*
X168600363Y-69291633D01*
X168696196Y-69295347D01*
X168784212Y-69254041D01*
X168848869Y-69171983D01*
X168860433Y-69143008D01*
X168915825Y-69052509D01*
X168979553Y-69013940D01*
X169066966Y-68980946D01*
X169066966Y-69106034D01*
X169059238Y-69191156D01*
X169028966Y-69262938D01*
X168965518Y-69345356D01*
X168956088Y-69356066D01*
X168885513Y-69429391D01*
X168824847Y-69468742D01*
X168748950Y-69486845D01*
X168686030Y-69492774D01*
X168573487Y-69494251D01*
X168493370Y-69475535D01*
X168443390Y-69447747D01*
X168364838Y-69386641D01*
X168310463Y-69320554D01*
X168276052Y-69237441D01*
X168257388Y-69125254D01*
X168250256Y-68971946D01*
X168249687Y-68894136D01*
X168251622Y-68800853D01*
X168427899Y-68800853D01*
X168429944Y-68850896D01*
X168435039Y-68859092D01*
X168468666Y-68847958D01*
X168541030Y-68818493D01*
X168637747Y-68776601D01*
X168657973Y-68767597D01*
X168780203Y-68705442D01*
X168847547Y-68650815D01*
X168862348Y-68599649D01*
X168826947Y-68547876D01*
X168797711Y-68525000D01*
X168692216Y-68479250D01*
X168593476Y-68486808D01*
X168510812Y-68542651D01*
X168453548Y-68641753D01*
X168435188Y-68720414D01*
X168427899Y-68800853D01*
X168251622Y-68800853D01*
X168253459Y-68712351D01*
X168267359Y-68577853D01*
X168294894Y-68479916D01*
X168339572Y-68407811D01*
X168404901Y-68350813D01*
X168433383Y-68332393D01*
X168562763Y-68284422D01*
X168704412Y-68281403D01*
X168841439Y-68319540D01*
G37*
X168841439Y-68319540D02*
X168956950Y-68395034D01*
X169012664Y-68462617D01*
X169056804Y-68585255D01*
X169060309Y-68682298D01*
X169052368Y-68812056D01*
X168753115Y-68943039D01*
X168607611Y-69009958D01*
X168512537Y-69063790D01*
X168463101Y-69110416D01*
X168454511Y-69155720D01*
X168481972Y-69205582D01*
X168512253Y-69238632D01*
X168600363Y-69291633D01*
X168696196Y-69295347D01*
X168784212Y-69254041D01*
X168848869Y-69171983D01*
X168860433Y-69143008D01*
X168915825Y-69052509D01*
X168979553Y-69013940D01*
X169066966Y-68980946D01*
X169066966Y-69106034D01*
X169059238Y-69191156D01*
X169028966Y-69262938D01*
X168965518Y-69345356D01*
X168956088Y-69356066D01*
X168885513Y-69429391D01*
X168824847Y-69468742D01*
X168748950Y-69486845D01*
X168686030Y-69492774D01*
X168573487Y-69494251D01*
X168493370Y-69475535D01*
X168443390Y-69447747D01*
X168364838Y-69386641D01*
X168310463Y-69320554D01*
X168276052Y-69237441D01*
X168257388Y-69125254D01*
X168250256Y-68971946D01*
X168249687Y-68894136D01*
X168251622Y-68800853D01*
X168427899Y-68800853D01*
X168429944Y-68850896D01*
X168435039Y-68859092D01*
X168468666Y-68847958D01*
X168541030Y-68818493D01*
X168637747Y-68776601D01*
X168657973Y-68767597D01*
X168780203Y-68705442D01*
X168847547Y-68650815D01*
X168862348Y-68599649D01*
X168826947Y-68547876D01*
X168797711Y-68525000D01*
X168692216Y-68479250D01*
X168593476Y-68486808D01*
X168510812Y-68542651D01*
X168453548Y-68641753D01*
X168435188Y-68720414D01*
X168427899Y-68800853D01*
X168251622Y-68800853D01*
X168253459Y-68712351D01*
X168267359Y-68577853D01*
X168294894Y-68479916D01*
X168339572Y-68407811D01*
X168404901Y-68350813D01*
X168433383Y-68332393D01*
X168562763Y-68284422D01*
X168704412Y-68281403D01*
X168841439Y-68319540D01*
G36*
X167833690Y-68303018D02*
G01*
X167868585Y-68318269D01*
X167951877Y-68384235D01*
X168023103Y-68479618D01*
X168067153Y-68581406D01*
X168074322Y-68631587D01*
X168050285Y-68701647D01*
X167997561Y-68738717D01*
X167941031Y-68761164D01*
X167915146Y-68765300D01*
X167902542Y-68735283D01*
X167877654Y-68669961D01*
X167866735Y-68640445D01*
X167805508Y-68538348D01*
X167716861Y-68487423D01*
X167603193Y-68488989D01*
X167594774Y-68490994D01*
X167534088Y-68519767D01*
X167489474Y-68575859D01*
X167459002Y-68666163D01*
X167440744Y-68797571D01*
X167432771Y-68976974D01*
X167432023Y-69072433D01*
X167431652Y-69222913D01*
X167429223Y-69325495D01*
X167422760Y-69390672D01*
X167410288Y-69428938D01*
X167389833Y-69450785D01*
X167359419Y-69466707D01*
X167357661Y-69467509D01*
X167299091Y-69492272D01*
X167270075Y-69501391D01*
X167265616Y-69473822D01*
X167261799Y-69397620D01*
X167258899Y-69282541D01*
X167257191Y-69138341D01*
X167256851Y-69032814D01*
X167258588Y-68828613D01*
X167265382Y-68673697D01*
X167279607Y-68559024D01*
X167303638Y-68475551D01*
X167339848Y-68414236D01*
X167390612Y-68366034D01*
X167440739Y-68332393D01*
X167561275Y-68287619D01*
X167701557Y-68277521D01*
X167833690Y-68303018D01*
G37*
X167833690Y-68303018D02*
X167868585Y-68318269D01*
X167951877Y-68384235D01*
X168023103Y-68479618D01*
X168067153Y-68581406D01*
X168074322Y-68631587D01*
X168050285Y-68701647D01*
X167997561Y-68738717D01*
X167941031Y-68761164D01*
X167915146Y-68765300D01*
X167902542Y-68735283D01*
X167877654Y-68669961D01*
X167866735Y-68640445D01*
X167805508Y-68538348D01*
X167716861Y-68487423D01*
X167603193Y-68488989D01*
X167594774Y-68490994D01*
X167534088Y-68519767D01*
X167489474Y-68575859D01*
X167459002Y-68666163D01*
X167440744Y-68797571D01*
X167432771Y-68976974D01*
X167432023Y-69072433D01*
X167431652Y-69222913D01*
X167429223Y-69325495D01*
X167422760Y-69390672D01*
X167410288Y-69428938D01*
X167389833Y-69450785D01*
X167359419Y-69466707D01*
X167357661Y-69467509D01*
X167299091Y-69492272D01*
X167270075Y-69501391D01*
X167265616Y-69473822D01*
X167261799Y-69397620D01*
X167258899Y-69282541D01*
X167257191Y-69138341D01*
X167256851Y-69032814D01*
X167258588Y-68828613D01*
X167265382Y-68673697D01*
X167279607Y-68559024D01*
X167303638Y-68475551D01*
X167339848Y-68414236D01*
X167390612Y-68366034D01*
X167440739Y-68332393D01*
X167561275Y-68287619D01*
X167701557Y-68277521D01*
X167833690Y-68303018D01*
G36*
X166812406Y-68298156D02*
G01*
X166896469Y-68336393D01*
X166962450Y-68382726D01*
X167010794Y-68434532D01*
X167044172Y-68501363D01*
X167065253Y-68592769D01*
X167076707Y-68718301D01*
X167081203Y-68887508D01*
X167081678Y-68998933D01*
X167081678Y-69433627D01*
X167007316Y-69467509D01*
X166948746Y-69492272D01*
X166919730Y-69501391D01*
X166914179Y-69474257D01*
X166909775Y-69401094D01*
X166907078Y-69294263D01*
X166906506Y-69209437D01*
X166904046Y-69086887D01*
X166897412Y-68989668D01*
X166887726Y-68930134D01*
X166880032Y-68917483D01*
X166828311Y-68930402D01*
X166747117Y-68963539D01*
X166653102Y-69008461D01*
X166562917Y-69056735D01*
X166493215Y-69099928D01*
X166460648Y-69129608D01*
X166460519Y-69129929D01*
X166463320Y-69184857D01*
X166488439Y-69237292D01*
X166532541Y-69279881D01*
X166596909Y-69294126D01*
X166651921Y-69292466D01*
X166729835Y-69291245D01*
X166770732Y-69309498D01*
X166795295Y-69357726D01*
X166798392Y-69366820D01*
X166809040Y-69435598D01*
X166780565Y-69477360D01*
X166706344Y-69497263D01*
X166626168Y-69500944D01*
X166481890Y-69473658D01*
X166407203Y-69434690D01*
X166314963Y-69343148D01*
X166266043Y-69230782D01*
X166261654Y-69112051D01*
X166303001Y-69001411D01*
X166365197Y-68932080D01*
X166427294Y-68893265D01*
X166524895Y-68844125D01*
X166638632Y-68794292D01*
X166657590Y-68786677D01*
X166782521Y-68731545D01*
X166854539Y-68682954D01*
X166877700Y-68634647D01*
X166856064Y-68580370D01*
X166818920Y-68537943D01*
X166731127Y-68485702D01*
X166634530Y-68481784D01*
X166545944Y-68522041D01*
X166482186Y-68602326D01*
X166473817Y-68623040D01*
X166425096Y-68699225D01*
X166353965Y-68755785D01*
X166264207Y-68802201D01*
X166264207Y-68670584D01*
X166269490Y-68590168D01*
X166292142Y-68526786D01*
X166342367Y-68459163D01*
X166390582Y-68407076D01*
X166465554Y-68333322D01*
X166523806Y-68293702D01*
X166586372Y-68277810D01*
X166657193Y-68275184D01*
X166812406Y-68298156D01*
G37*
X166812406Y-68298156D02*
X166896469Y-68336393D01*
X166962450Y-68382726D01*
X167010794Y-68434532D01*
X167044172Y-68501363D01*
X167065253Y-68592769D01*
X167076707Y-68718301D01*
X167081203Y-68887508D01*
X167081678Y-68998933D01*
X167081678Y-69433627D01*
X167007316Y-69467509D01*
X166948746Y-69492272D01*
X166919730Y-69501391D01*
X166914179Y-69474257D01*
X166909775Y-69401094D01*
X166907078Y-69294263D01*
X166906506Y-69209437D01*
X166904046Y-69086887D01*
X166897412Y-68989668D01*
X166887726Y-68930134D01*
X166880032Y-68917483D01*
X166828311Y-68930402D01*
X166747117Y-68963539D01*
X166653102Y-69008461D01*
X166562917Y-69056735D01*
X166493215Y-69099928D01*
X166460648Y-69129608D01*
X166460519Y-69129929D01*
X166463320Y-69184857D01*
X166488439Y-69237292D01*
X166532541Y-69279881D01*
X166596909Y-69294126D01*
X166651921Y-69292466D01*
X166729835Y-69291245D01*
X166770732Y-69309498D01*
X166795295Y-69357726D01*
X166798392Y-69366820D01*
X166809040Y-69435598D01*
X166780565Y-69477360D01*
X166706344Y-69497263D01*
X166626168Y-69500944D01*
X166481890Y-69473658D01*
X166407203Y-69434690D01*
X166314963Y-69343148D01*
X166266043Y-69230782D01*
X166261654Y-69112051D01*
X166303001Y-69001411D01*
X166365197Y-68932080D01*
X166427294Y-68893265D01*
X166524895Y-68844125D01*
X166638632Y-68794292D01*
X166657590Y-68786677D01*
X166782521Y-68731545D01*
X166854539Y-68682954D01*
X166877700Y-68634647D01*
X166856064Y-68580370D01*
X166818920Y-68537943D01*
X166731127Y-68485702D01*
X166634530Y-68481784D01*
X166545944Y-68522041D01*
X166482186Y-68602326D01*
X166473817Y-68623040D01*
X166425096Y-68699225D01*
X166353965Y-68755785D01*
X166264207Y-68802201D01*
X166264207Y-68670584D01*
X166269490Y-68590168D01*
X166292142Y-68526786D01*
X166342367Y-68459163D01*
X166390582Y-68407076D01*
X166465554Y-68333322D01*
X166523806Y-68293702D01*
X166586372Y-68277810D01*
X166657193Y-68275184D01*
X166812406Y-68298156D01*
G36*
X166078124Y-68302840D02*
G01*
X166082579Y-68379653D01*
X166086071Y-68496391D01*
X166088315Y-68643821D01*
X166089035Y-68798455D01*
X166089035Y-69321727D01*
X165996645Y-69414117D01*
X165932978Y-69471047D01*
X165877089Y-69494107D01*
X165800702Y-69492647D01*
X165770380Y-69488934D01*
X165675610Y-69478126D01*
X165597222Y-69471933D01*
X165578115Y-69471361D01*
X165513699Y-69475102D01*
X165421571Y-69484494D01*
X165385850Y-69488934D01*
X165298114Y-69495801D01*
X165239153Y-69480885D01*
X165180690Y-69434835D01*
X165159585Y-69414117D01*
X165067195Y-69321727D01*
X165067195Y-68342947D01*
X165141558Y-68309066D01*
X165205590Y-68283970D01*
X165243052Y-68275184D01*
X165252657Y-68302950D01*
X165261635Y-68380530D01*
X165269386Y-68499348D01*
X165275314Y-68650828D01*
X165278173Y-68778805D01*
X165286161Y-69282425D01*
X165355848Y-69292278D01*
X165419229Y-69285389D01*
X165450286Y-69263083D01*
X165458967Y-69221379D01*
X165466378Y-69132544D01*
X165471931Y-69007834D01*
X165475036Y-68858507D01*
X165475484Y-68781661D01*
X165475931Y-68339287D01*
X165567874Y-68307235D01*
X165632949Y-68285443D01*
X165668347Y-68275281D01*
X165669368Y-68275184D01*
X165672920Y-68302809D01*
X165676823Y-68379411D01*
X165680751Y-68495579D01*
X165684376Y-68641904D01*
X165686908Y-68778805D01*
X165694897Y-69282425D01*
X165870069Y-69282425D01*
X165878107Y-68822965D01*
X165886146Y-68363505D01*
X165971543Y-68319344D01*
X166034593Y-68289019D01*
X166071910Y-68275258D01*
X166072987Y-68275184D01*
X166078124Y-68302840D01*
G37*
X166078124Y-68302840D02*
X166082579Y-68379653D01*
X166086071Y-68496391D01*
X166088315Y-68643821D01*
X166089035Y-68798455D01*
X166089035Y-69321727D01*
X165996645Y-69414117D01*
X165932978Y-69471047D01*
X165877089Y-69494107D01*
X165800702Y-69492647D01*
X165770380Y-69488934D01*
X165675610Y-69478126D01*
X165597222Y-69471933D01*
X165578115Y-69471361D01*
X165513699Y-69475102D01*
X165421571Y-69484494D01*
X165385850Y-69488934D01*
X165298114Y-69495801D01*
X165239153Y-69480885D01*
X165180690Y-69434835D01*
X165159585Y-69414117D01*
X165067195Y-69321727D01*
X165067195Y-68342947D01*
X165141558Y-68309066D01*
X165205590Y-68283970D01*
X165243052Y-68275184D01*
X165252657Y-68302950D01*
X165261635Y-68380530D01*
X165269386Y-68499348D01*
X165275314Y-68650828D01*
X165278173Y-68778805D01*
X165286161Y-69282425D01*
X165355848Y-69292278D01*
X165419229Y-69285389D01*
X165450286Y-69263083D01*
X165458967Y-69221379D01*
X165466378Y-69132544D01*
X165471931Y-69007834D01*
X165475036Y-68858507D01*
X165475484Y-68781661D01*
X165475931Y-68339287D01*
X165567874Y-68307235D01*
X165632949Y-68285443D01*
X165668347Y-68275281D01*
X165669368Y-68275184D01*
X165672920Y-68302809D01*
X165676823Y-68379411D01*
X165680751Y-68495579D01*
X165684376Y-68641904D01*
X165686908Y-68778805D01*
X165694897Y-69282425D01*
X165870069Y-69282425D01*
X165878107Y-68822965D01*
X165886146Y-68363505D01*
X165971543Y-68319344D01*
X166034593Y-68289019D01*
X166071910Y-68275258D01*
X166072987Y-68275184D01*
X166078124Y-68302840D01*
G36*
X164891914Y-68517455D02*
G01*
X164891543Y-68735661D01*
X164890108Y-68903519D01*
X164887002Y-69029070D01*
X164881622Y-69120355D01*
X164873362Y-69185415D01*
X164861616Y-69232291D01*
X164845781Y-69269024D01*
X164833790Y-69289991D01*
X164734490Y-69403694D01*
X164608588Y-69474965D01*
X164469291Y-69500538D01*
X164329805Y-69477150D01*
X164246743Y-69435119D01*
X164159545Y-69362411D01*
X164100117Y-69273612D01*
X164064261Y-69157320D01*
X164047781Y-69002135D01*
X164045447Y-68888287D01*
X164045761Y-68880106D01*
X164249724Y-68880106D01*
X164250970Y-69010657D01*
X164256678Y-69097080D01*
X164269804Y-69153618D01*
X164293306Y-69194514D01*
X164321386Y-69225362D01*
X164415688Y-69284905D01*
X164516940Y-69289992D01*
X164612636Y-69240279D01*
X164620084Y-69233543D01*
X164651874Y-69198502D01*
X164671808Y-69156811D01*
X164682600Y-69094762D01*
X164686965Y-68998644D01*
X164687655Y-68892379D01*
X164686159Y-68758880D01*
X164679964Y-68669822D01*
X164666514Y-68611293D01*
X164643251Y-68569382D01*
X164624175Y-68547123D01*
X164535563Y-68490985D01*
X164433508Y-68484235D01*
X164336095Y-68527114D01*
X164317296Y-68543032D01*
X164285293Y-68578382D01*
X164265318Y-68620502D01*
X164254593Y-68683251D01*
X164250339Y-68780487D01*
X164249724Y-68880106D01*
X164045761Y-68880106D01*
X164052504Y-68704947D01*
X164076472Y-68567195D01*
X164121548Y-68463632D01*
X164191928Y-68382856D01*
X164246743Y-68341455D01*
X164346376Y-68296728D01*
X164461855Y-68275967D01*
X164569199Y-68281525D01*
X164629264Y-68303943D01*
X164652835Y-68310323D01*
X164668477Y-68286535D01*
X164679395Y-68222788D01*
X164687655Y-68125687D01*
X164696699Y-68017541D01*
X164709261Y-67952475D01*
X164732119Y-67915268D01*
X164772051Y-67890699D01*
X164797138Y-67879819D01*
X164892023Y-67840072D01*
X164891914Y-68517455D01*
G37*
X164891914Y-68517455D02*
X164891543Y-68735661D01*
X164890108Y-68903519D01*
X164887002Y-69029070D01*
X164881622Y-69120355D01*
X164873362Y-69185415D01*
X164861616Y-69232291D01*
X164845781Y-69269024D01*
X164833790Y-69289991D01*
X164734490Y-69403694D01*
X164608588Y-69474965D01*
X164469291Y-69500538D01*
X164329805Y-69477150D01*
X164246743Y-69435119D01*
X164159545Y-69362411D01*
X164100117Y-69273612D01*
X164064261Y-69157320D01*
X164047781Y-69002135D01*
X164045447Y-68888287D01*
X164045761Y-68880106D01*
X164249724Y-68880106D01*
X164250970Y-69010657D01*
X164256678Y-69097080D01*
X164269804Y-69153618D01*
X164293306Y-69194514D01*
X164321386Y-69225362D01*
X164415688Y-69284905D01*
X164516940Y-69289992D01*
X164612636Y-69240279D01*
X164620084Y-69233543D01*
X164651874Y-69198502D01*
X164671808Y-69156811D01*
X164682600Y-69094762D01*
X164686965Y-68998644D01*
X164687655Y-68892379D01*
X164686159Y-68758880D01*
X164679964Y-68669822D01*
X164666514Y-68611293D01*
X164643251Y-68569382D01*
X164624175Y-68547123D01*
X164535563Y-68490985D01*
X164433508Y-68484235D01*
X164336095Y-68527114D01*
X164317296Y-68543032D01*
X164285293Y-68578382D01*
X164265318Y-68620502D01*
X164254593Y-68683251D01*
X164250339Y-68780487D01*
X164249724Y-68880106D01*
X164045761Y-68880106D01*
X164052504Y-68704947D01*
X164076472Y-68567195D01*
X164121548Y-68463632D01*
X164191928Y-68382856D01*
X164246743Y-68341455D01*
X164346376Y-68296728D01*
X164461855Y-68275967D01*
X164569199Y-68281525D01*
X164629264Y-68303943D01*
X164652835Y-68310323D01*
X164668477Y-68286535D01*
X164679395Y-68222788D01*
X164687655Y-68125687D01*
X164696699Y-68017541D01*
X164709261Y-67952475D01*
X164732119Y-67915268D01*
X164772051Y-67890699D01*
X164797138Y-67879819D01*
X164892023Y-67840072D01*
X164891914Y-68517455D01*
G36*
X163563943Y-68284920D02*
G01*
X163696565Y-68333859D01*
X163804010Y-68420419D01*
X163846032Y-68481352D01*
X163891843Y-68593161D01*
X163890891Y-68674006D01*
X163842808Y-68728378D01*
X163825017Y-68737624D01*
X163748204Y-68766450D01*
X163708976Y-68759065D01*
X163695689Y-68710658D01*
X163695012Y-68683920D01*
X163670686Y-68585548D01*
X163607281Y-68516734D01*
X163519154Y-68483498D01*
X163420663Y-68491861D01*
X163340602Y-68535296D01*
X163313561Y-68560072D01*
X163294394Y-68590129D01*
X163281446Y-68635565D01*
X163273064Y-68706476D01*
X163267593Y-68812960D01*
X163263378Y-68965112D01*
X163262287Y-69013287D01*
X163258307Y-69178095D01*
X163253781Y-69294088D01*
X163246995Y-69370833D01*
X163236231Y-69417893D01*
X163219773Y-69444835D01*
X163195906Y-69461223D01*
X163180626Y-69468463D01*
X163115733Y-69493220D01*
X163077534Y-69501391D01*
X163064912Y-69474103D01*
X163057208Y-69391603D01*
X163054380Y-69252941D01*
X163056386Y-69057162D01*
X163057011Y-69026965D01*
X163061421Y-68848349D01*
X163066635Y-68717923D01*
X163074055Y-68625492D01*
X163085082Y-68560858D01*
X163101117Y-68513825D01*
X163123561Y-68474196D01*
X163135302Y-68457215D01*
X163202619Y-68382080D01*
X163277910Y-68323638D01*
X163287128Y-68318536D01*
X163422133Y-68278260D01*
X163563943Y-68284920D01*
G37*
X163563943Y-68284920D02*
X163696565Y-68333859D01*
X163804010Y-68420419D01*
X163846032Y-68481352D01*
X163891843Y-68593161D01*
X163890891Y-68674006D01*
X163842808Y-68728378D01*
X163825017Y-68737624D01*
X163748204Y-68766450D01*
X163708976Y-68759065D01*
X163695689Y-68710658D01*
X163695012Y-68683920D01*
X163670686Y-68585548D01*
X163607281Y-68516734D01*
X163519154Y-68483498D01*
X163420663Y-68491861D01*
X163340602Y-68535296D01*
X163313561Y-68560072D01*
X163294394Y-68590129D01*
X163281446Y-68635565D01*
X163273064Y-68706476D01*
X163267593Y-68812960D01*
X163263378Y-68965112D01*
X163262287Y-69013287D01*
X163258307Y-69178095D01*
X163253781Y-69294088D01*
X163246995Y-69370833D01*
X163236231Y-69417893D01*
X163219773Y-69444835D01*
X163195906Y-69461223D01*
X163180626Y-69468463D01*
X163115733Y-69493220D01*
X163077534Y-69501391D01*
X163064912Y-69474103D01*
X163057208Y-69391603D01*
X163054380Y-69252941D01*
X163056386Y-69057162D01*
X163057011Y-69026965D01*
X163061421Y-68848349D01*
X163066635Y-68717923D01*
X163074055Y-68625492D01*
X163085082Y-68560858D01*
X163101117Y-68513825D01*
X163123561Y-68474196D01*
X163135302Y-68457215D01*
X163202619Y-68382080D01*
X163277910Y-68323638D01*
X163287128Y-68318536D01*
X163422133Y-68278260D01*
X163563943Y-68284920D01*
G36*
X162577944Y-68287360D02*
G01*
X162692343Y-68329842D01*
X162693652Y-68330658D01*
X162764403Y-68382730D01*
X162816636Y-68443584D01*
X162853371Y-68522887D01*
X162877634Y-68630309D01*
X162892445Y-68775517D01*
X162900829Y-68968179D01*
X162901564Y-68995628D01*
X162912120Y-69409521D01*
X162823291Y-69455456D01*
X162759018Y-69486498D01*
X162720210Y-69501206D01*
X162718415Y-69501391D01*
X162711700Y-69474250D01*
X162706365Y-69401041D01*
X162703083Y-69294081D01*
X162702368Y-69207469D01*
X162702351Y-69067162D01*
X162695937Y-68979051D01*
X162673580Y-68937025D01*
X162625732Y-68934975D01*
X162542849Y-68966790D01*
X162417713Y-69025272D01*
X162325697Y-69073845D01*
X162278371Y-69115986D01*
X162264458Y-69161916D01*
X162264437Y-69164189D01*
X162287395Y-69243311D01*
X162355370Y-69286055D01*
X162459398Y-69292246D01*
X162534330Y-69291172D01*
X162573839Y-69312753D01*
X162598478Y-69364591D01*
X162612659Y-69430632D01*
X162592223Y-69468104D01*
X162584528Y-69473467D01*
X162512083Y-69495006D01*
X162410633Y-69498055D01*
X162306157Y-69483778D01*
X162232125Y-69457688D01*
X162129772Y-69370785D01*
X162071591Y-69249816D01*
X162060069Y-69155308D01*
X162068862Y-69070062D01*
X162100680Y-69000476D01*
X162163684Y-68938672D01*
X162266031Y-68876772D01*
X162415882Y-68806897D01*
X162425012Y-68802948D01*
X162559997Y-68740588D01*
X162643294Y-68689446D01*
X162678997Y-68643488D01*
X162671203Y-68596683D01*
X162624007Y-68542998D01*
X162609894Y-68530644D01*
X162515359Y-68482741D01*
X162417406Y-68484758D01*
X162332097Y-68531724D01*
X162275496Y-68618669D01*
X162270237Y-68635734D01*
X162219023Y-68718504D01*
X162154037Y-68758372D01*
X162060069Y-68797882D01*
X162060069Y-68695658D01*
X162088653Y-68547072D01*
X162173495Y-68410784D01*
X162217645Y-68365191D01*
X162318005Y-68306674D01*
X162445635Y-68280184D01*
X162577944Y-68287360D01*
G37*
X162577944Y-68287360D02*
X162692343Y-68329842D01*
X162693652Y-68330658D01*
X162764403Y-68382730D01*
X162816636Y-68443584D01*
X162853371Y-68522887D01*
X162877634Y-68630309D01*
X162892445Y-68775517D01*
X162900829Y-68968179D01*
X162901564Y-68995628D01*
X162912120Y-69409521D01*
X162823291Y-69455456D01*
X162759018Y-69486498D01*
X162720210Y-69501206D01*
X162718415Y-69501391D01*
X162711700Y-69474250D01*
X162706365Y-69401041D01*
X162703083Y-69294081D01*
X162702368Y-69207469D01*
X162702351Y-69067162D01*
X162695937Y-68979051D01*
X162673580Y-68937025D01*
X162625732Y-68934975D01*
X162542849Y-68966790D01*
X162417713Y-69025272D01*
X162325697Y-69073845D01*
X162278371Y-69115986D01*
X162264458Y-69161916D01*
X162264437Y-69164189D01*
X162287395Y-69243311D01*
X162355370Y-69286055D01*
X162459398Y-69292246D01*
X162534330Y-69291172D01*
X162573839Y-69312753D01*
X162598478Y-69364591D01*
X162612659Y-69430632D01*
X162592223Y-69468104D01*
X162584528Y-69473467D01*
X162512083Y-69495006D01*
X162410633Y-69498055D01*
X162306157Y-69483778D01*
X162232125Y-69457688D01*
X162129772Y-69370785D01*
X162071591Y-69249816D01*
X162060069Y-69155308D01*
X162068862Y-69070062D01*
X162100680Y-69000476D01*
X162163684Y-68938672D01*
X162266031Y-68876772D01*
X162415882Y-68806897D01*
X162425012Y-68802948D01*
X162559997Y-68740588D01*
X162643294Y-68689446D01*
X162678997Y-68643488D01*
X162671203Y-68596683D01*
X162624007Y-68542998D01*
X162609894Y-68530644D01*
X162515359Y-68482741D01*
X162417406Y-68484758D01*
X162332097Y-68531724D01*
X162275496Y-68618669D01*
X162270237Y-68635734D01*
X162219023Y-68718504D01*
X162154037Y-68758372D01*
X162060069Y-68797882D01*
X162060069Y-68695658D01*
X162088653Y-68547072D01*
X162173495Y-68410784D01*
X162217645Y-68365191D01*
X162318005Y-68306674D01*
X162445635Y-68280184D01*
X162577944Y-68287360D01*
G36*
X161242598Y-68086857D02*
G01*
X161251154Y-68206188D01*
X161260981Y-68276506D01*
X161274599Y-68307179D01*
X161294527Y-68307571D01*
X161300989Y-68303910D01*
X161386940Y-68277398D01*
X161498745Y-68278946D01*
X161612414Y-68306199D01*
X161683510Y-68341455D01*
X161756405Y-68397778D01*
X161809693Y-68461519D01*
X161846275Y-68542510D01*
X161869050Y-68650586D01*
X161880919Y-68795580D01*
X161884782Y-68987326D01*
X161884851Y-69024109D01*
X161884897Y-69437288D01*
X161792954Y-69469339D01*
X161727652Y-69491144D01*
X161691824Y-69501297D01*
X161690770Y-69501391D01*
X161687242Y-69473860D01*
X161684239Y-69397923D01*
X161681990Y-69283565D01*
X161680724Y-69140769D01*
X161680529Y-69053951D01*
X161680123Y-68882773D01*
X161678032Y-68760088D01*
X161672947Y-68676000D01*
X161663560Y-68620614D01*
X161648561Y-68584032D01*
X161626642Y-68556359D01*
X161612957Y-68543032D01*
X161518949Y-68489328D01*
X161416364Y-68485307D01*
X161323290Y-68530725D01*
X161306078Y-68547123D01*
X161280832Y-68577957D01*
X161263320Y-68614531D01*
X161252142Y-68667415D01*
X161245896Y-68747177D01*
X161243182Y-68864385D01*
X161242598Y-69025991D01*
X161242598Y-69437288D01*
X161150655Y-69469339D01*
X161085353Y-69491144D01*
X161049525Y-69501297D01*
X161048471Y-69501391D01*
X161045775Y-69473448D01*
X161043345Y-69394630D01*
X161041278Y-69272453D01*
X161039671Y-69114432D01*
X161038623Y-68928083D01*
X161038231Y-68720920D01*
X161038230Y-68711706D01*
X161038230Y-67922020D01*
X161133115Y-67881997D01*
X161228000Y-67841973D01*
X161242598Y-68086857D01*
G37*
X161242598Y-68086857D02*
X161251154Y-68206188D01*
X161260981Y-68276506D01*
X161274599Y-68307179D01*
X161294527Y-68307571D01*
X161300989Y-68303910D01*
X161386940Y-68277398D01*
X161498745Y-68278946D01*
X161612414Y-68306199D01*
X161683510Y-68341455D01*
X161756405Y-68397778D01*
X161809693Y-68461519D01*
X161846275Y-68542510D01*
X161869050Y-68650586D01*
X161880919Y-68795580D01*
X161884782Y-68987326D01*
X161884851Y-69024109D01*
X161884897Y-69437288D01*
X161792954Y-69469339D01*
X161727652Y-69491144D01*
X161691824Y-69501297D01*
X161690770Y-69501391D01*
X161687242Y-69473860D01*
X161684239Y-69397923D01*
X161681990Y-69283565D01*
X161680724Y-69140769D01*
X161680529Y-69053951D01*
X161680123Y-68882773D01*
X161678032Y-68760088D01*
X161672947Y-68676000D01*
X161663560Y-68620614D01*
X161648561Y-68584032D01*
X161626642Y-68556359D01*
X161612957Y-68543032D01*
X161518949Y-68489328D01*
X161416364Y-68485307D01*
X161323290Y-68530725D01*
X161306078Y-68547123D01*
X161280832Y-68577957D01*
X161263320Y-68614531D01*
X161252142Y-68667415D01*
X161245896Y-68747177D01*
X161243182Y-68864385D01*
X161242598Y-69025991D01*
X161242598Y-69437288D01*
X161150655Y-69469339D01*
X161085353Y-69491144D01*
X161049525Y-69501297D01*
X161048471Y-69501391D01*
X161045775Y-69473448D01*
X161043345Y-69394630D01*
X161041278Y-69272453D01*
X161039671Y-69114432D01*
X161038623Y-68928083D01*
X161038231Y-68720920D01*
X161038230Y-68711706D01*
X161038230Y-67922020D01*
X161133115Y-67881997D01*
X161228000Y-67841973D01*
X161242598Y-68086857D01*
G36*
X158813552Y-68247676D02*
G01*
X158928658Y-68325111D01*
X159017611Y-68436949D01*
X159070749Y-68579265D01*
X159081497Y-68684015D01*
X159080276Y-68727726D01*
X159070056Y-68761194D01*
X159041961Y-68791179D01*
X158987116Y-68824440D01*
X158896645Y-68867738D01*
X158761672Y-68927833D01*
X158760989Y-68928134D01*
X158636751Y-68985037D01*
X158534873Y-69035565D01*
X158465767Y-69074280D01*
X158439846Y-69095740D01*
X158439839Y-69095913D01*
X158462685Y-69142644D01*
X158516109Y-69194154D01*
X158577442Y-69231261D01*
X158608515Y-69238632D01*
X158693289Y-69213138D01*
X158766293Y-69149291D01*
X158801913Y-69079094D01*
X158836180Y-69027343D01*
X158903303Y-68968409D01*
X158982208Y-68917496D01*
X159051821Y-68889809D01*
X159066377Y-68888287D01*
X159082763Y-68913321D01*
X159083750Y-68977311D01*
X159071708Y-69063593D01*
X159049007Y-69155501D01*
X159018014Y-69236369D01*
X159016448Y-69239509D01*
X158923181Y-69369734D01*
X158802304Y-69458311D01*
X158665027Y-69501786D01*
X158522560Y-69496706D01*
X158386112Y-69439616D01*
X158380045Y-69435602D01*
X158272710Y-69338326D01*
X158202132Y-69211409D01*
X158163074Y-69044526D01*
X158157832Y-68997639D01*
X158148548Y-68776329D01*
X158159678Y-68673124D01*
X158439839Y-68673124D01*
X158443479Y-68737503D01*
X158463389Y-68756291D01*
X158513026Y-68742235D01*
X158591267Y-68709009D01*
X158678726Y-68667359D01*
X158680899Y-68666256D01*
X158755030Y-68627265D01*
X158784781Y-68601244D01*
X158777445Y-68573965D01*
X158746553Y-68538121D01*
X158667960Y-68486251D01*
X158583323Y-68482439D01*
X158507403Y-68520189D01*
X158454965Y-68593001D01*
X158439839Y-68673124D01*
X158159678Y-68673124D01*
X158167644Y-68599261D01*
X158216634Y-68458829D01*
X158284836Y-68360447D01*
X158407935Y-68261030D01*
X158543528Y-68211711D01*
X158681955Y-68208568D01*
X158813552Y-68247676D01*
G37*
X158813552Y-68247676D02*
X158928658Y-68325111D01*
X159017611Y-68436949D01*
X159070749Y-68579265D01*
X159081497Y-68684015D01*
X159080276Y-68727726D01*
X159070056Y-68761194D01*
X159041961Y-68791179D01*
X158987116Y-68824440D01*
X158896645Y-68867738D01*
X158761672Y-68927833D01*
X158760989Y-68928134D01*
X158636751Y-68985037D01*
X158534873Y-69035565D01*
X158465767Y-69074280D01*
X158439846Y-69095740D01*
X158439839Y-69095913D01*
X158462685Y-69142644D01*
X158516109Y-69194154D01*
X158577442Y-69231261D01*
X158608515Y-69238632D01*
X158693289Y-69213138D01*
X158766293Y-69149291D01*
X158801913Y-69079094D01*
X158836180Y-69027343D01*
X158903303Y-68968409D01*
X158982208Y-68917496D01*
X159051821Y-68889809D01*
X159066377Y-68888287D01*
X159082763Y-68913321D01*
X159083750Y-68977311D01*
X159071708Y-69063593D01*
X159049007Y-69155501D01*
X159018014Y-69236369D01*
X159016448Y-69239509D01*
X158923181Y-69369734D01*
X158802304Y-69458311D01*
X158665027Y-69501786D01*
X158522560Y-69496706D01*
X158386112Y-69439616D01*
X158380045Y-69435602D01*
X158272710Y-69338326D01*
X158202132Y-69211409D01*
X158163074Y-69044526D01*
X158157832Y-68997639D01*
X158148548Y-68776329D01*
X158159678Y-68673124D01*
X158439839Y-68673124D01*
X158443479Y-68737503D01*
X158463389Y-68756291D01*
X158513026Y-68742235D01*
X158591267Y-68709009D01*
X158678726Y-68667359D01*
X158680899Y-68666256D01*
X158755030Y-68627265D01*
X158784781Y-68601244D01*
X158777445Y-68573965D01*
X158746553Y-68538121D01*
X158667960Y-68486251D01*
X158583323Y-68482439D01*
X158507403Y-68520189D01*
X158454965Y-68593001D01*
X158439839Y-68673124D01*
X158159678Y-68673124D01*
X158167644Y-68599261D01*
X158216634Y-68458829D01*
X158284836Y-68360447D01*
X158407935Y-68261030D01*
X158543528Y-68211711D01*
X158681955Y-68208568D01*
X158813552Y-68247676D01*
G36*
X156546221Y-68229015D02*
G01*
X156683061Y-68300968D01*
X156784051Y-68416766D01*
X156819925Y-68491213D01*
X156847839Y-68602992D01*
X156862129Y-68744227D01*
X156863484Y-68898371D01*
X156852595Y-69048879D01*
X156830153Y-69179205D01*
X156796850Y-69272803D01*
X156786615Y-69288922D01*
X156665382Y-69409249D01*
X156521387Y-69481317D01*
X156365139Y-69502408D01*
X156207148Y-69469802D01*
X156163180Y-69450253D01*
X156077556Y-69390012D01*
X156002408Y-69310135D01*
X155995306Y-69300004D01*
X155966439Y-69251181D01*
X155947357Y-69198990D01*
X155936084Y-69130285D01*
X155930645Y-69031918D01*
X155929062Y-68890744D01*
X155929035Y-68859092D01*
X155929107Y-68849019D01*
X156220989Y-68849019D01*
X156222687Y-68982256D01*
X156229372Y-69070674D01*
X156243425Y-69127785D01*
X156267229Y-69167102D01*
X156279379Y-69180241D01*
X156349236Y-69230172D01*
X156417059Y-69227895D01*
X156485635Y-69184584D01*
X156526535Y-69138346D01*
X156550758Y-69070857D01*
X156564361Y-68964433D01*
X156565294Y-68952020D01*
X156567616Y-68759147D01*
X156543350Y-68615900D01*
X156492824Y-68523160D01*
X156416368Y-68481807D01*
X156389076Y-68479552D01*
X156317411Y-68490893D01*
X156268390Y-68530184D01*
X156238418Y-68605326D01*
X156223899Y-68724222D01*
X156220989Y-68849019D01*
X155929107Y-68849019D01*
X155930122Y-68708659D01*
X155934688Y-68603549D01*
X155944688Y-68530714D01*
X155962079Y-68477108D01*
X155988816Y-68429681D01*
X155994724Y-68420864D01*
X156094032Y-68302007D01*
X156202242Y-68233008D01*
X156333981Y-68205619D01*
X156378717Y-68204281D01*
X156546221Y-68229015D01*
G37*
X156546221Y-68229015D02*
X156683061Y-68300968D01*
X156784051Y-68416766D01*
X156819925Y-68491213D01*
X156847839Y-68602992D01*
X156862129Y-68744227D01*
X156863484Y-68898371D01*
X156852595Y-69048879D01*
X156830153Y-69179205D01*
X156796850Y-69272803D01*
X156786615Y-69288922D01*
X156665382Y-69409249D01*
X156521387Y-69481317D01*
X156365139Y-69502408D01*
X156207148Y-69469802D01*
X156163180Y-69450253D01*
X156077556Y-69390012D01*
X156002408Y-69310135D01*
X155995306Y-69300004D01*
X155966439Y-69251181D01*
X155947357Y-69198990D01*
X155936084Y-69130285D01*
X155930645Y-69031918D01*
X155929062Y-68890744D01*
X155929035Y-68859092D01*
X155929107Y-68849019D01*
X156220989Y-68849019D01*
X156222687Y-68982256D01*
X156229372Y-69070674D01*
X156243425Y-69127785D01*
X156267229Y-69167102D01*
X156279379Y-69180241D01*
X156349236Y-69230172D01*
X156417059Y-69227895D01*
X156485635Y-69184584D01*
X156526535Y-69138346D01*
X156550758Y-69070857D01*
X156564361Y-68964433D01*
X156565294Y-68952020D01*
X156567616Y-68759147D01*
X156543350Y-68615900D01*
X156492824Y-68523160D01*
X156416368Y-68481807D01*
X156389076Y-68479552D01*
X156317411Y-68490893D01*
X156268390Y-68530184D01*
X156238418Y-68605326D01*
X156223899Y-68724222D01*
X156220989Y-68849019D01*
X155929107Y-68849019D01*
X155930122Y-68708659D01*
X155934688Y-68603549D01*
X155944688Y-68530714D01*
X155962079Y-68477108D01*
X155988816Y-68429681D01*
X155994724Y-68420864D01*
X156094032Y-68302007D01*
X156202242Y-68233008D01*
X156333981Y-68205619D01*
X156378717Y-68204281D01*
X156546221Y-68229015D01*
G36*
X159915429Y-68240719D02*
G01*
X160009123Y-68294914D01*
X160074264Y-68348707D01*
X160121907Y-68405066D01*
X160154728Y-68473987D01*
X160175406Y-68565468D01*
X160186620Y-68689506D01*
X160191049Y-68856098D01*
X160191563Y-68975851D01*
X160191563Y-69416659D01*
X160067483Y-69472283D01*
X159943402Y-69527907D01*
X159928805Y-69045095D01*
X159922773Y-68864779D01*
X159916445Y-68733901D01*
X159908606Y-68643511D01*
X159898037Y-68584664D01*
X159883523Y-68548413D01*
X159863848Y-68525810D01*
X159857535Y-68520917D01*
X159761888Y-68482706D01*
X159665207Y-68497827D01*
X159607655Y-68537943D01*
X159584245Y-68566370D01*
X159568039Y-68603672D01*
X159557741Y-68660223D01*
X159552049Y-68746394D01*
X159549664Y-68872558D01*
X159549264Y-69004042D01*
X159549186Y-69168999D01*
X159546361Y-69285761D01*
X159536907Y-69364510D01*
X159516940Y-69415431D01*
X159482576Y-69448706D01*
X159429932Y-69474520D01*
X159359617Y-69501344D01*
X159282820Y-69530542D01*
X159291962Y-69012346D01*
X159295643Y-68825539D01*
X159299950Y-68687490D01*
X159306123Y-68588568D01*
X159315402Y-68519145D01*
X159329027Y-68469590D01*
X159348239Y-68430273D01*
X159371402Y-68395584D01*
X159483152Y-68284770D01*
X159619513Y-68220689D01*
X159767825Y-68205339D01*
X159915429Y-68240719D01*
G37*
X159915429Y-68240719D02*
X160009123Y-68294914D01*
X160074264Y-68348707D01*
X160121907Y-68405066D01*
X160154728Y-68473987D01*
X160175406Y-68565468D01*
X160186620Y-68689506D01*
X160191049Y-68856098D01*
X160191563Y-68975851D01*
X160191563Y-69416659D01*
X160067483Y-69472283D01*
X159943402Y-69527907D01*
X159928805Y-69045095D01*
X159922773Y-68864779D01*
X159916445Y-68733901D01*
X159908606Y-68643511D01*
X159898037Y-68584664D01*
X159883523Y-68548413D01*
X159863848Y-68525810D01*
X159857535Y-68520917D01*
X159761888Y-68482706D01*
X159665207Y-68497827D01*
X159607655Y-68537943D01*
X159584245Y-68566370D01*
X159568039Y-68603672D01*
X159557741Y-68660223D01*
X159552049Y-68746394D01*
X159549664Y-68872558D01*
X159549264Y-69004042D01*
X159549186Y-69168999D01*
X159546361Y-69285761D01*
X159536907Y-69364510D01*
X159516940Y-69415431D01*
X159482576Y-69448706D01*
X159429932Y-69474520D01*
X159359617Y-69501344D01*
X159282820Y-69530542D01*
X159291962Y-69012346D01*
X159295643Y-68825539D01*
X159299950Y-68687490D01*
X159306123Y-68588568D01*
X159315402Y-68519145D01*
X159329027Y-68469590D01*
X159348239Y-68430273D01*
X159371402Y-68395584D01*
X159483152Y-68284770D01*
X159619513Y-68220689D01*
X159767825Y-68205339D01*
X159915429Y-68240719D01*
G36*
X157669900Y-68224903D02*
G01*
X157781450Y-68280522D01*
X157879908Y-68382931D01*
X157907023Y-68420864D01*
X157936562Y-68470500D01*
X157955728Y-68524412D01*
X157966693Y-68596364D01*
X157971629Y-68700122D01*
X157972713Y-68837101D01*
X157967818Y-69024815D01*
X157950804Y-69165758D01*
X157918177Y-69270908D01*
X157866442Y-69351243D01*
X157792104Y-69417741D01*
X157786642Y-69421678D01*
X157713380Y-69461953D01*
X157625160Y-69481880D01*
X157512962Y-69486793D01*
X157330567Y-69486793D01*
X157330491Y-69663857D01*
X157328793Y-69762470D01*
X157318450Y-69820314D01*
X157291422Y-69855006D01*
X157239668Y-69884164D01*
X157227239Y-69890121D01*
X157169077Y-69918039D01*
X157124044Y-69935672D01*
X157090559Y-69937194D01*
X157067038Y-69916781D01*
X157051900Y-69868607D01*
X157043563Y-69786846D01*
X157040444Y-69665672D01*
X157040960Y-69499260D01*
X157043529Y-69281785D01*
X157044332Y-69216736D01*
X157047222Y-68992502D01*
X157049812Y-68845821D01*
X157330414Y-68845821D01*
X157331991Y-68970326D01*
X157339000Y-69051787D01*
X157354858Y-69105515D01*
X157382981Y-69146823D01*
X157402075Y-69166971D01*
X157480135Y-69225921D01*
X157549247Y-69230720D01*
X157620560Y-69182038D01*
X157622368Y-69180241D01*
X157651383Y-69142618D01*
X157669033Y-69091484D01*
X157677936Y-69012738D01*
X157680709Y-68892276D01*
X157680759Y-68865588D01*
X157674058Y-68699583D01*
X157652248Y-68584505D01*
X157612765Y-68514254D01*
X157553044Y-68482729D01*
X157518528Y-68479552D01*
X157436611Y-68494460D01*
X157380421Y-68543548D01*
X157346598Y-68633362D01*
X157331780Y-68770445D01*
X157330414Y-68845821D01*
X157049812Y-68845821D01*
X157050287Y-68818952D01*
X157054247Y-68688382D01*
X157059826Y-68593087D01*
X157067746Y-68525364D01*
X157078731Y-68477507D01*
X157093501Y-68441813D01*
X157112782Y-68410578D01*
X157121049Y-68398824D01*
X157230712Y-68287797D01*
X157369365Y-68224847D01*
X157529754Y-68207297D01*
X157669900Y-68224903D01*
G37*
X157669900Y-68224903D02*
X157781450Y-68280522D01*
X157879908Y-68382931D01*
X157907023Y-68420864D01*
X157936562Y-68470500D01*
X157955728Y-68524412D01*
X157966693Y-68596364D01*
X157971629Y-68700122D01*
X157972713Y-68837101D01*
X157967818Y-69024815D01*
X157950804Y-69165758D01*
X157918177Y-69270908D01*
X157866442Y-69351243D01*
X157792104Y-69417741D01*
X157786642Y-69421678D01*
X157713380Y-69461953D01*
X157625160Y-69481880D01*
X157512962Y-69486793D01*
X157330567Y-69486793D01*
X157330491Y-69663857D01*
X157328793Y-69762470D01*
X157318450Y-69820314D01*
X157291422Y-69855006D01*
X157239668Y-69884164D01*
X157227239Y-69890121D01*
X157169077Y-69918039D01*
X157124044Y-69935672D01*
X157090559Y-69937194D01*
X157067038Y-69916781D01*
X157051900Y-69868607D01*
X157043563Y-69786846D01*
X157040444Y-69665672D01*
X157040960Y-69499260D01*
X157043529Y-69281785D01*
X157044332Y-69216736D01*
X157047222Y-68992502D01*
X157049812Y-68845821D01*
X157330414Y-68845821D01*
X157331991Y-68970326D01*
X157339000Y-69051787D01*
X157354858Y-69105515D01*
X157382981Y-69146823D01*
X157402075Y-69166971D01*
X157480135Y-69225921D01*
X157549247Y-69230720D01*
X157620560Y-69182038D01*
X157622368Y-69180241D01*
X157651383Y-69142618D01*
X157669033Y-69091484D01*
X157677936Y-69012738D01*
X157680709Y-68892276D01*
X157680759Y-68865588D01*
X157674058Y-68699583D01*
X157652248Y-68584505D01*
X157612765Y-68514254D01*
X157553044Y-68482729D01*
X157518528Y-68479552D01*
X157436611Y-68494460D01*
X157380421Y-68543548D01*
X157346598Y-68633362D01*
X157331780Y-68770445D01*
X157330414Y-68845821D01*
X157049812Y-68845821D01*
X157050287Y-68818952D01*
X157054247Y-68688382D01*
X157059826Y-68593087D01*
X157067746Y-68525364D01*
X157078731Y-68477507D01*
X157093501Y-68441813D01*
X157112782Y-68410578D01*
X157121049Y-68398824D01*
X157230712Y-68287797D01*
X157369365Y-68224847D01*
X157529754Y-68207297D01*
X157669900Y-68224903D01*
D11*
X181187320Y-61734100D02*
X180638680Y-62135420D01*
X181636900Y-61335320D02*
X181187320Y-61734100D01*
X181888360Y-60784140D02*
X181636900Y-61335320D01*
X181987420Y-60385360D02*
X181888360Y-60784140D01*
X181987420Y-59935780D02*
X181987420Y-60385360D01*
X181786760Y-59384600D02*
X181987420Y-59935780D01*
X181337180Y-59084880D02*
X181786760Y-59384600D01*
X180887600Y-58835960D02*
X181337180Y-59084880D01*
X180438020Y-58884220D02*
X180887600Y-58835960D01*
X179937640Y-59135680D02*
X180438020Y-58884220D01*
X179488060Y-59234740D02*
X179937640Y-59135680D01*
X178888620Y-58985820D02*
X179488060Y-59234740D01*
X180039240Y-63435900D02*
X179538860Y-64434120D01*
X179886840Y-63286040D02*
X180039240Y-63435900D01*
X179488060Y-63286040D02*
X179886840Y-63286040D01*
X180039240Y-62884720D02*
X179587120Y-62485940D01*
X180638680Y-62785660D02*
X180039240Y-62884720D01*
X180338960Y-62135420D02*
X180638680Y-62785660D01*
X179637920Y-61035600D02*
X180338960Y-62135420D01*
X179437260Y-60784140D02*
X179637920Y-61035600D01*
X178837820Y-60484420D02*
X179437260Y-60784140D01*
X178388240Y-60385360D02*
X178837820Y-60484420D01*
X177938660Y-60535220D02*
X178388240Y-60385360D01*
X177537340Y-60436160D02*
X177938660Y-60535220D01*
X177087760Y-60235500D02*
X177537340Y-60436160D01*
X176539120Y-60283760D02*
X177087760Y-60235500D01*
X175937140Y-60735880D02*
X176539120Y-60283760D01*
X175238640Y-61386120D02*
X175937140Y-60735880D01*
X174486800Y-62585000D02*
X175238640Y-61386120D01*
X173839100Y-62336080D02*
X174486800Y-62585000D01*
X173287920Y-61835700D02*
X173839100Y-62336080D01*
X172988200Y-60934000D02*
X173287920Y-61835700D01*
X173087260Y-60235500D02*
X172988200Y-60934000D01*
X173536840Y-59435400D02*
X173087260Y-60235500D01*
X174138820Y-59034080D02*
X173536840Y-59435400D01*
X174486800Y-58884220D02*
X174138820Y-59034080D01*
X174888120Y-58835960D02*
X174486800Y-58884220D01*
X175838080Y-58985820D02*
X174888120Y-58835960D01*
X176488320Y-59034080D02*
X175838080Y-58985820D01*
X176887100Y-58884220D02*
X176488320Y-59034080D01*
X176688980Y-59234740D02*
X176887100Y-58884220D01*
X176137800Y-59486200D02*
X176688980Y-59234740D01*
X175787280Y-59435400D02*
X176137800Y-59486200D01*
X175137040Y-59585260D02*
X175787280Y-59435400D01*
X174687460Y-59735120D02*
X175137040Y-59585260D01*
X174387740Y-59984040D02*
X174687460Y-59735120D01*
X174288680Y-60634280D02*
X174387740Y-59984040D01*
X174486800Y-61134660D02*
X174288680Y-60634280D01*
X174938920Y-61284520D02*
X174486800Y-61134660D01*
X175286900Y-60885740D02*
X174938920Y-61284520D01*
X175739020Y-60436160D02*
X175286900Y-60885740D01*
X176338460Y-60034840D02*
X175739020Y-60436160D01*
X176838840Y-59984040D02*
X176338460Y-60034840D01*
X177339220Y-60085640D02*
X176838840Y-59984040D01*
X177638940Y-60235500D02*
X177339220Y-60085640D01*
X177837060Y-60283760D02*
X177638940Y-60235500D01*
X178337440Y-60034840D02*
X177837060Y-60283760D01*
X178738760Y-60034840D02*
X178337440Y-60034840D01*
X179038480Y-60184700D02*
X178738760Y-60034840D01*
X179287400Y-60385360D02*
X179038480Y-60184700D01*
X179736980Y-60685080D02*
X179287400Y-60385360D01*
X180087500Y-60834940D02*
X179736980Y-60685080D01*
X180387220Y-60784140D02*
X180087500Y-60834940D01*
X180686940Y-60535220D02*
X180387220Y-60784140D01*
X180638680Y-60235500D02*
X180686940Y-60535220D01*
X180438020Y-59834180D02*
X180638680Y-60235500D01*
X180087500Y-59785920D02*
X180438020Y-59834180D01*
X179637920Y-59785920D02*
X180087500Y-59785920D01*
X179287400Y-59684320D02*
X179637920Y-59785920D01*
X178837820Y-59084880D02*
X179287400Y-59684320D01*
X176287660Y-61835700D02*
X176887100Y-61284520D01*
X176137800Y-62785660D02*
X176287660Y-61835700D01*
X175637420Y-63136180D02*
X176137800Y-62785660D01*
X174237880Y-63684820D02*
X175637420Y-63136180D01*
X174738260Y-62935520D02*
X174237880Y-63684820D01*
X174738260Y-62336080D02*
X174738260Y-62935520D01*
X178136780Y-60885740D02*
X178388240Y-60535220D01*
X177738000Y-61035600D02*
X178136780Y-60885740D01*
X177339220Y-62384340D02*
X177738000Y-62186220D01*
X176937900Y-62384340D02*
X177339220Y-62384340D01*
X176737240Y-62135420D02*
X176937900Y-62384340D01*
X176988700Y-61883960D02*
X176737240Y-62135420D01*
X177438280Y-61985560D02*
X176988700Y-61883960D01*
X177788800Y-62135420D02*
X177438280Y-61985560D01*
X179488060Y-62186220D02*
X179038480Y-62084620D01*
X179587120Y-61934760D02*
X179488060Y-62186220D01*
X179488060Y-61734100D02*
X179587120Y-61934760D01*
X179086740Y-61635040D02*
X179488060Y-61734100D01*
X178936880Y-61985560D02*
X179086740Y-61635040D01*
X178487300Y-63984540D02*
X178637160Y-63735620D01*
X178388240Y-64086140D02*
X178487300Y-63984540D01*
X178088520Y-64086140D02*
X178388240Y-64086140D01*
X177837060Y-63933740D02*
X178088520Y-64086140D01*
X177788800Y-63534960D02*
X177837060Y-63933740D01*
X178187580Y-63385100D02*
X177788800Y-63534960D01*
X178637160Y-63735620D02*
X178187580Y-63385100D01*
X179488060Y-63834680D02*
X179389000Y-63984540D01*
X178588900Y-62884720D02*
X178687960Y-63034580D01*
X178439040Y-62485940D02*
X178588900Y-62884720D01*
X178388240Y-62033820D02*
X178439040Y-62485940D01*
X177638940Y-62983780D02*
X177438280Y-63034580D01*
X177837060Y-62884720D02*
X177638940Y-62983780D01*
X177986920Y-62884720D02*
X177837060Y-62884720D01*
X178289180Y-62884720D02*
X177986920Y-62884720D01*
X178588900Y-63034580D02*
X178289180Y-62884720D01*
X179338200Y-63286040D02*
X179538860Y-63286040D01*
X179137540Y-63385100D02*
X179338200Y-63286040D01*
X178987680Y-63385100D02*
X179137540Y-63385100D01*
X178837820Y-63235240D02*
X178987680Y-63385100D01*
X178738760Y-63085380D02*
X178837820Y-63235240D01*
X179488060Y-62585000D02*
X179437260Y-63235240D01*
X179137540Y-64886240D02*
X179488060Y-65084360D01*
X178987680Y-64535720D02*
X179137540Y-64886240D01*
X179389000Y-64434120D02*
X178987680Y-64535720D01*
X179538860Y-64434120D02*
X179389000Y-64434120D01*
X176887100Y-63684820D02*
X176587380Y-63634020D01*
X177036960Y-63933740D02*
X176887100Y-63684820D01*
X177186820Y-64434120D02*
X177036960Y-63933740D01*
X177387480Y-64784640D02*
X177186820Y-64434120D01*
X177537340Y-64985300D02*
X177387480Y-64784640D01*
X177986920Y-65135160D02*
X177537340Y-64985300D01*
X178487300Y-65185960D02*
X177986920Y-65135160D01*
X178936880Y-65234220D02*
X178487300Y-65185960D01*
X179538860Y-65135160D02*
X178936880Y-65234220D01*
X178738760Y-65485680D02*
X178987680Y-65485680D01*
X178337440Y-65234220D02*
X178738760Y-65485680D01*
X179188340Y-67184940D02*
X179038480Y-67484660D01*
X179287400Y-66885220D02*
X179188340Y-67184940D01*
X179188340Y-66534700D02*
X179287400Y-66885220D01*
X178936880Y-66334040D02*
X179188340Y-66534700D01*
X178738760Y-66135920D02*
X178936880Y-66334040D01*
X178687960Y-65935260D02*
X178738760Y-66135920D01*
X178738760Y-65785400D02*
X178687960Y-65935260D01*
X179287400Y-65683800D02*
X178738760Y-65785400D01*
X179488060Y-65635540D02*
X179287400Y-65683800D01*
X179239140Y-65635540D02*
X179488060Y-65635540D01*
X178987680Y-65533940D02*
X179239140Y-65635540D01*
X179038480Y-67484660D02*
X179086740Y-67484660D01*
X178487300Y-67685320D02*
X178637160Y-67934240D01*
X178637160Y-67284000D02*
X178487300Y-67685320D01*
X178687960Y-66834420D02*
X178637160Y-67284000D01*
X178289180Y-66633760D02*
X178687960Y-66834420D01*
X177986920Y-66334040D02*
X178289180Y-66633760D01*
X178187580Y-65884460D02*
X177986920Y-66334040D01*
X177887860Y-68335560D02*
X178088520Y-68536220D01*
X177837060Y-67784380D02*
X177887860Y-68335560D01*
X177887860Y-67586260D02*
X177837060Y-67784380D01*
X177938660Y-67284000D02*
X177887860Y-67586260D01*
X177788800Y-67085880D02*
X177938660Y-67284000D01*
X177537340Y-66885220D02*
X177788800Y-67085880D01*
X177438280Y-66684560D02*
X177537340Y-66885220D01*
X177588140Y-66285780D02*
X177438280Y-66684560D01*
X177036960Y-68383820D02*
X177087760Y-68536220D01*
X177087760Y-68084100D02*
X177036960Y-68383820D01*
X176737240Y-67736120D02*
X177087760Y-68084100D01*
X177138560Y-67634520D02*
X176737240Y-67736120D01*
X177036960Y-67334800D02*
X177138560Y-67634520D01*
X176838840Y-66936020D02*
X177036960Y-67334800D01*
X177138560Y-68584480D02*
X177087760Y-68686080D01*
X176338460Y-66384840D02*
X176887100Y-66834420D01*
X176539120Y-65683800D02*
X176338460Y-66384840D01*
X175987940Y-65285020D02*
X176539120Y-65683800D01*
X176188600Y-64634780D02*
X175987940Y-65285020D01*
X175739020Y-64335060D02*
X176188600Y-64634780D01*
X175838080Y-63885480D02*
X175739020Y-64335060D01*
X175538360Y-63435900D02*
X175838080Y-63885480D01*
X175987940Y-66585500D02*
X176188600Y-66534700D01*
X174987180Y-63933740D02*
X174987180Y-63435900D01*
X174987180Y-64434120D02*
X174987180Y-63933740D01*
X175037980Y-64835440D02*
X174987180Y-64434120D01*
X175088780Y-65234220D02*
X175037980Y-64835440D01*
X175187840Y-65635540D02*
X175088780Y-65234220D01*
X175238640Y-65935260D02*
X175187840Y-65635540D01*
X175487560Y-66184180D02*
X175238640Y-65935260D01*
X175637420Y-66384840D02*
X175487560Y-66184180D01*
X175888880Y-66585500D02*
X175637420Y-66384840D01*
X176937900Y-60385360D02*
X177288420Y-60385360D01*
X176188600Y-60735880D02*
X176937900Y-60385360D01*
X175688220Y-61035600D02*
X176188600Y-60735880D01*
X178588900Y-60283760D02*
X178837820Y-60334560D01*
X180537080Y-58935020D02*
X179389000Y-59636060D01*
X180039240Y-59636060D02*
X180537080Y-58935020D01*
X181786760Y-59435400D02*
X180039240Y-59636060D01*
X180638680Y-59884980D02*
X181786760Y-59435400D01*
X181888360Y-60586020D02*
X180638680Y-59884980D01*
X180887600Y-60334560D02*
X181888360Y-60586020D01*
X181337180Y-61434380D02*
X180887600Y-60334560D01*
X180587880Y-60735880D02*
X181337180Y-61434380D01*
X180836800Y-61835700D02*
X180587880Y-60735880D01*
X179538860Y-60984800D02*
X180836800Y-61835700D01*
X179137540Y-60784140D02*
X179538860Y-60984800D01*
X178487300Y-60586020D02*
X179137540Y-60784140D01*
X174938920Y-58884220D02*
X176038740Y-59384600D01*
X174987180Y-59534460D02*
X174938920Y-58884220D01*
X173938160Y-59285540D02*
X174987180Y-59534460D01*
X174438540Y-59785920D02*
X173938160Y-59285540D01*
X173188860Y-60184700D02*
X174438540Y-59785920D01*
X174336940Y-60436160D02*
X173188860Y-60184700D01*
X173039000Y-60784140D02*
X174336940Y-60436160D01*
X173138060Y-61236260D02*
X173039000Y-60784140D01*
X174187080Y-60586020D02*
X173138060Y-61236260D01*
X173488580Y-61883960D02*
X174187080Y-60586020D01*
X174438540Y-61083860D02*
X173488580Y-61883960D01*
X173988960Y-62234480D02*
X174438540Y-61083860D01*
X174987180Y-61434380D02*
X173988960Y-62234480D01*
X172238900Y-68884200D02*
X171987440Y-68785140D01*
X172188100Y-69435380D02*
X172238900Y-68884200D01*
X171786780Y-69435380D02*
X172188100Y-69435380D01*
X171487060Y-69285520D02*
X171786780Y-69435380D01*
X171337200Y-68884200D02*
X171487060Y-69285520D01*
X171337200Y-68434620D02*
X171337200Y-68884200D01*
X171537860Y-68035840D02*
X171337200Y-68434620D01*
X171987440Y-67885980D02*
X171537860Y-68035840D01*
X172188100Y-67985040D02*
X171987440Y-67885980D01*
X173788300Y-69435380D02*
X173788300Y-67934240D01*
X172937400Y-67934240D02*
X173788300Y-69435380D01*
X172937400Y-69486180D02*
X172937400Y-67934240D01*
X175388500Y-69034060D02*
X175388500Y-67934240D01*
X175286900Y-69333780D02*
X175388500Y-69034060D01*
X174987180Y-69486180D02*
X175286900Y-69333780D01*
X174639200Y-69333780D02*
X174987180Y-69486180D01*
X174486800Y-69084860D02*
X174639200Y-69333780D01*
X174486800Y-67934240D02*
X174486800Y-69084860D01*
X180737740Y-68785140D02*
X180438020Y-68785140D01*
X180737740Y-69285520D02*
X180737740Y-68785140D01*
X180288160Y-69384580D02*
X180737740Y-69285520D01*
X179937640Y-69234720D02*
X180288160Y-69384580D01*
X179787780Y-68785140D02*
X179937640Y-69234720D01*
X179838580Y-68284760D02*
X179787780Y-68785140D01*
X180138300Y-67934240D02*
X179838580Y-68284760D01*
X180438020Y-67885980D02*
X180138300Y-67934240D01*
X180686940Y-67985040D02*
X180438020Y-67885980D01*
X181987420Y-68635280D02*
X181487040Y-68584480D01*
X182287140Y-68485420D02*
X181987420Y-68635280D01*
X182188080Y-68084100D02*
X182287140Y-68485420D01*
X181939160Y-67885980D02*
X182188080Y-68084100D01*
X181387980Y-67934240D02*
X181939160Y-67885980D01*
X181387980Y-69384580D02*
X181387980Y-67934240D01*
X182937380Y-69435380D02*
X183638420Y-69435380D01*
X182937380Y-67835180D02*
X182937380Y-69435380D01*
D15*
X128000000Y-60410000D02*
X128000000Y-57750000D01*
X125400000Y-60410000D02*
X128000000Y-60410000D01*
X125400000Y-57750000D02*
X128000000Y-57750000D01*
X125400000Y-60410000D02*
X125400000Y-57750000D01*
X124130000Y-60410000D02*
X122800000Y-60410000D01*
X122800000Y-60410000D02*
X122800000Y-59080000D01*
X112000000Y-60410000D02*
X112000000Y-57750000D01*
X109400000Y-60410000D02*
X112000000Y-60410000D01*
X109400000Y-57750000D02*
X112000000Y-57750000D01*
X109400000Y-60410000D02*
X109400000Y-57750000D01*
X108130000Y-60410000D02*
X106800000Y-60410000D01*
X106800000Y-60410000D02*
X106800000Y-59080000D01*
D10*
X129138000Y-78454000D02*
X129138000Y-61754000D01*
X129138000Y-61754000D02*
X106278000Y-61754000D01*
X106278000Y-61754000D02*
X106278000Y-78454000D01*
X106278000Y-78454000D02*
X129138000Y-78454000D01*
D15*
X134126936Y-70591000D02*
X135331064Y-70591000D01*
X134126936Y-72411000D02*
X135331064Y-72411000D01*
X134126936Y-74782000D02*
X135331064Y-74782000D01*
X134126936Y-76602000D02*
X135331064Y-76602000D01*
X131958000Y-58961000D02*
X131958000Y-67021000D01*
X131958000Y-67021000D02*
X136478000Y-67021000D01*
X136478000Y-67021000D02*
X136478000Y-58961000D01*
X103209750Y-63455250D02*
X103209750Y-62667750D01*
X103603500Y-63061500D02*
X102816000Y-63061500D01*
X102576000Y-58868437D02*
X101511563Y-57804000D01*
X102576000Y-63559563D02*
X101511563Y-64624000D01*
X102576000Y-63559563D02*
X102576000Y-62274000D01*
X102576000Y-58868437D02*
X102576000Y-60154000D01*
X101511563Y-57804000D02*
X95756000Y-57804000D01*
X101511563Y-64624000D02*
X95756000Y-64624000D01*
X95756000Y-64624000D02*
X95756000Y-62274000D01*
X95756000Y-57804000D02*
X95756000Y-60154000D01*
D11*
X138316666Y-126502380D02*
X138316666Y-127216666D01*
X138269047Y-127359523D01*
X138173809Y-127454761D01*
X138030952Y-127502380D01*
X137935714Y-127502380D01*
X139316666Y-127502380D02*
X138745238Y-127502380D01*
X139030952Y-127502380D02*
X139030952Y-126502380D01*
X138935714Y-126645238D01*
X138840476Y-126740476D01*
X138745238Y-126788095D01*
X134316666Y-121872380D02*
X134316666Y-122586666D01*
X134269047Y-122729523D01*
X134173809Y-122824761D01*
X134030952Y-122872380D01*
X133935714Y-122872380D01*
X134745238Y-121967619D02*
X134792857Y-121920000D01*
X134888095Y-121872380D01*
X135126190Y-121872380D01*
X135221428Y-121920000D01*
X135269047Y-121967619D01*
X135316666Y-122062857D01*
X135316666Y-122158095D01*
X135269047Y-122300952D01*
X134697619Y-122872380D01*
X135316666Y-122872380D01*
X128487380Y-60531333D02*
X129201666Y-60531333D01*
X129344523Y-60578952D01*
X129439761Y-60674190D01*
X129487380Y-60817047D01*
X129487380Y-60912285D01*
X128820714Y-59626571D02*
X129487380Y-59626571D01*
X128439761Y-59864666D02*
X129154047Y-60102761D01*
X129154047Y-59483714D01*
X112358380Y-60658333D02*
X113072666Y-60658333D01*
X113215523Y-60705952D01*
X113310761Y-60801190D01*
X113358380Y-60944047D01*
X113358380Y-61039285D01*
X112358380Y-60277380D02*
X112358380Y-59658333D01*
X112739333Y-59991666D01*
X112739333Y-59848809D01*
X112786952Y-59753571D01*
X112834571Y-59705952D01*
X112929809Y-59658333D01*
X113167904Y-59658333D01*
X113263142Y-59705952D01*
X113310761Y-59753571D01*
X113358380Y-59848809D01*
X113358380Y-60134523D01*
X113310761Y-60229761D01*
X113263142Y-60277380D01*
X137818095Y-83382380D02*
X138389523Y-83382380D01*
X138103809Y-84382380D02*
X138103809Y-83382380D01*
X138722857Y-84382380D02*
X138722857Y-83382380D01*
X139103809Y-83382380D01*
X139199047Y-83430000D01*
X139246666Y-83477619D01*
X139294285Y-83572857D01*
X139294285Y-83715714D01*
X139246666Y-83810952D01*
X139199047Y-83858571D01*
X139103809Y-83906190D01*
X138722857Y-83906190D01*
X140246666Y-84382380D02*
X139675238Y-84382380D01*
X139960952Y-84382380D02*
X139960952Y-83382380D01*
X139865714Y-83525238D01*
X139770476Y-83620476D01*
X139675238Y-83668095D01*
X113033095Y-63206380D02*
X113033095Y-64015904D01*
X113080714Y-64111142D01*
X113128333Y-64158761D01*
X113223571Y-64206380D01*
X113414047Y-64206380D01*
X113509285Y-64158761D01*
X113556904Y-64111142D01*
X113604523Y-64015904D01*
X113604523Y-63206380D01*
X114604523Y-64206380D02*
X114033095Y-64206380D01*
X114318809Y-64206380D02*
X114318809Y-63206380D01*
X114223571Y-63349238D01*
X114128333Y-63444476D01*
X114033095Y-63492095D01*
X115922285Y-64206380D02*
X115922285Y-63206380D01*
X116160380Y-63206380D01*
X116303238Y-63254000D01*
X116398476Y-63349238D01*
X116446095Y-63444476D01*
X116493714Y-63634952D01*
X116493714Y-63777809D01*
X116446095Y-63968285D01*
X116398476Y-64063523D01*
X116303238Y-64158761D01*
X116160380Y-64206380D01*
X115922285Y-64206380D01*
X116922285Y-64206380D02*
X116922285Y-63206380D01*
X117255619Y-63920666D01*
X117588952Y-63206380D01*
X117588952Y-64206380D01*
X118255619Y-63206380D02*
X118350857Y-63206380D01*
X118446095Y-63254000D01*
X118493714Y-63301619D01*
X118541333Y-63396857D01*
X118588952Y-63587333D01*
X118588952Y-63825428D01*
X118541333Y-64015904D01*
X118493714Y-64111142D01*
X118446095Y-64158761D01*
X118350857Y-64206380D01*
X118255619Y-64206380D01*
X118160380Y-64158761D01*
X118112761Y-64111142D01*
X118065142Y-64015904D01*
X118017523Y-63825428D01*
X118017523Y-63587333D01*
X118065142Y-63396857D01*
X118112761Y-63301619D01*
X118160380Y-63254000D01*
X118255619Y-63206380D01*
X118969904Y-63301619D02*
X119017523Y-63254000D01*
X119112761Y-63206380D01*
X119350857Y-63206380D01*
X119446095Y-63254000D01*
X119493714Y-63301619D01*
X119541333Y-63396857D01*
X119541333Y-63492095D01*
X119493714Y-63634952D01*
X118922285Y-64206380D01*
X119541333Y-64206380D01*
X108294190Y-70556380D02*
X108294190Y-69556380D01*
X108770380Y-70556380D02*
X108770380Y-69556380D01*
X109341809Y-70556380D01*
X109341809Y-69556380D01*
X125598000Y-69556380D02*
X125788476Y-69556380D01*
X125883714Y-69604000D01*
X125978952Y-69699238D01*
X126026571Y-69889714D01*
X126026571Y-70223047D01*
X125978952Y-70413523D01*
X125883714Y-70508761D01*
X125788476Y-70556380D01*
X125598000Y-70556380D01*
X125502761Y-70508761D01*
X125407523Y-70413523D01*
X125359904Y-70223047D01*
X125359904Y-69889714D01*
X125407523Y-69699238D01*
X125502761Y-69604000D01*
X125598000Y-69556380D01*
X126455142Y-69556380D02*
X126455142Y-70365904D01*
X126502761Y-70461142D01*
X126550380Y-70508761D01*
X126645619Y-70556380D01*
X126836095Y-70556380D01*
X126931333Y-70508761D01*
X126978952Y-70461142D01*
X127026571Y-70365904D01*
X127026571Y-69556380D01*
X127359904Y-69556380D02*
X127931333Y-69556380D01*
X127645619Y-70556380D02*
X127645619Y-69556380D01*
D10*
X110596095Y-75326857D02*
X112119904Y-75326857D01*
X111358000Y-76088761D02*
X111358000Y-74564952D01*
X123296095Y-75326857D02*
X124819904Y-75326857D01*
X124058000Y-76088761D02*
X124058000Y-74564952D01*
D11*
X134562333Y-70038142D02*
X134514714Y-70085761D01*
X134371857Y-70133380D01*
X134276619Y-70133380D01*
X134133761Y-70085761D01*
X134038523Y-69990523D01*
X133990904Y-69895285D01*
X133943285Y-69704809D01*
X133943285Y-69561952D01*
X133990904Y-69371476D01*
X134038523Y-69276238D01*
X134133761Y-69181000D01*
X134276619Y-69133380D01*
X134371857Y-69133380D01*
X134514714Y-69181000D01*
X134562333Y-69228619D01*
X135419476Y-69466714D02*
X135419476Y-70133380D01*
X135181380Y-69085761D02*
X134943285Y-69800047D01*
X135562333Y-69800047D01*
X134562333Y-74229142D02*
X134514714Y-74276761D01*
X134371857Y-74324380D01*
X134276619Y-74324380D01*
X134133761Y-74276761D01*
X134038523Y-74181523D01*
X133990904Y-74086285D01*
X133943285Y-73895809D01*
X133943285Y-73752952D01*
X133990904Y-73562476D01*
X134038523Y-73467238D01*
X134133761Y-73372000D01*
X134276619Y-73324380D01*
X134371857Y-73324380D01*
X134514714Y-73372000D01*
X134562333Y-73419619D01*
X134895666Y-73324380D02*
X135514714Y-73324380D01*
X135181380Y-73705333D01*
X135324238Y-73705333D01*
X135419476Y-73752952D01*
X135467095Y-73800571D01*
X135514714Y-73895809D01*
X135514714Y-74133904D01*
X135467095Y-74229142D01*
X135419476Y-74276761D01*
X135324238Y-74324380D01*
X135038523Y-74324380D01*
X134943285Y-74276761D01*
X134895666Y-74229142D01*
X131475142Y-62777666D02*
X131522761Y-62825285D01*
X131570380Y-62968142D01*
X131570380Y-63063380D01*
X131522761Y-63206238D01*
X131427523Y-63301476D01*
X131332285Y-63349095D01*
X131141809Y-63396714D01*
X130998952Y-63396714D01*
X130808476Y-63349095D01*
X130713238Y-63301476D01*
X130618000Y-63206238D01*
X130570380Y-63063380D01*
X130570380Y-62968142D01*
X130618000Y-62825285D01*
X130665619Y-62777666D01*
X130665619Y-62396714D02*
X130618000Y-62349095D01*
X130570380Y-62253857D01*
X130570380Y-62015761D01*
X130618000Y-61920523D01*
X130665619Y-61872904D01*
X130760857Y-61825285D01*
X130856095Y-61825285D01*
X130998952Y-61872904D01*
X131570380Y-62444333D01*
X131570380Y-61825285D01*
X98999333Y-65921142D02*
X98951714Y-65968761D01*
X98808857Y-66016380D01*
X98713619Y-66016380D01*
X98570761Y-65968761D01*
X98475523Y-65873523D01*
X98427904Y-65778285D01*
X98380285Y-65587809D01*
X98380285Y-65444952D01*
X98427904Y-65254476D01*
X98475523Y-65159238D01*
X98570761Y-65064000D01*
X98713619Y-65016380D01*
X98808857Y-65016380D01*
X98951714Y-65064000D01*
X98999333Y-65111619D01*
X99951714Y-66016380D02*
X99380285Y-66016380D01*
X99666000Y-66016380D02*
X99666000Y-65016380D01*
X99570761Y-65159238D01*
X99475523Y-65254476D01*
X99380285Y-65302095D01*
X173440476Y-91848571D02*
X173107142Y-91848571D01*
X173107142Y-92372380D02*
X173107142Y-91372380D01*
X173583333Y-91372380D01*
X173916666Y-92086666D02*
X174392857Y-92086666D01*
X173821428Y-92372380D02*
X174154761Y-91372380D01*
X174488095Y-92372380D01*
X174821428Y-92372380D02*
X174821428Y-91372380D01*
X175392857Y-92372380D01*
X175392857Y-91372380D01*
M02*
