%TF.GenerationSoftware,KiCad,Pcbnew,(5.1.9)-1*%
%TF.CreationDate,2021-07-12T14:29:21+08:00*%
%TF.ProjectId,V1-10x10,56312d31-3078-4313-902e-6b696361645f,rev?*%
%TF.SameCoordinates,Original*%
%TF.FileFunction,Soldermask,Bot*%
%TF.FilePolarity,Negative*%
%FSLAX46Y46*%
G04 Gerber Fmt 4.6, Leading zero omitted, Abs format (unit mm)*
G04 Created by KiCad (PCBNEW (5.1.9)-1) date 2021-07-12 14:29:21*
%MOMM*%
%LPD*%
G01*
G04 APERTURE LIST*
%ADD10C,0.100000*%
%ADD11O,6.100000X10.100000*%
%ADD12C,6.100000*%
%ADD13C,5.100000*%
%ADD14C,1.300000*%
%ADD15C,0.900000*%
%ADD16O,1.800000X1.800000*%
%ADD17C,1.800000*%
G04 APERTURE END LIST*
D10*
G36*
X184750000Y-135000000D02*
G01*
X132250000Y-135000000D01*
X132250000Y-128350000D01*
X184750000Y-128350000D01*
X184750000Y-135000000D01*
G37*
X184750000Y-135000000D02*
X132250000Y-135000000D01*
X132250000Y-128350000D01*
X184750000Y-128350000D01*
X184750000Y-135000000D01*
G36*
G01*
X183250000Y-132700000D02*
X183250000Y-128400000D01*
G75*
G02*
X183300000Y-128350000I50000J0D01*
G01*
X184000000Y-128350000D01*
G75*
G02*
X184050000Y-128400000I0J-50000D01*
G01*
X184050000Y-132700000D01*
G75*
G02*
X184000000Y-132750000I-50000J0D01*
G01*
X183300000Y-132750000D01*
G75*
G02*
X183250000Y-132700000I0J50000D01*
G01*
G37*
G36*
G01*
X182250000Y-132700000D02*
X182250000Y-128400000D01*
G75*
G02*
X182300000Y-128350000I50000J0D01*
G01*
X183000000Y-128350000D01*
G75*
G02*
X183050000Y-128400000I0J-50000D01*
G01*
X183050000Y-132700000D01*
G75*
G02*
X183000000Y-132750000I-50000J0D01*
G01*
X182300000Y-132750000D01*
G75*
G02*
X182250000Y-132700000I0J50000D01*
G01*
G37*
G36*
G01*
X181250000Y-132700000D02*
X181250000Y-128400000D01*
G75*
G02*
X181300000Y-128350000I50000J0D01*
G01*
X182000000Y-128350000D01*
G75*
G02*
X182050000Y-128400000I0J-50000D01*
G01*
X182050000Y-132700000D01*
G75*
G02*
X182000000Y-132750000I-50000J0D01*
G01*
X181300000Y-132750000D01*
G75*
G02*
X181250000Y-132700000I0J50000D01*
G01*
G37*
G36*
G01*
X180250000Y-132700000D02*
X180250000Y-128400000D01*
G75*
G02*
X180300000Y-128350000I50000J0D01*
G01*
X181000000Y-128350000D01*
G75*
G02*
X181050000Y-128400000I0J-50000D01*
G01*
X181050000Y-132700000D01*
G75*
G02*
X181000000Y-132750000I-50000J0D01*
G01*
X180300000Y-132750000D01*
G75*
G02*
X180250000Y-132700000I0J50000D01*
G01*
G37*
G36*
G01*
X179250000Y-132700000D02*
X179250000Y-128400000D01*
G75*
G02*
X179300000Y-128350000I50000J0D01*
G01*
X180000000Y-128350000D01*
G75*
G02*
X180050000Y-128400000I0J-50000D01*
G01*
X180050000Y-132700000D01*
G75*
G02*
X180000000Y-132750000I-50000J0D01*
G01*
X179300000Y-132750000D01*
G75*
G02*
X179250000Y-132700000I0J50000D01*
G01*
G37*
G36*
G01*
X178250000Y-132700000D02*
X178250000Y-128400000D01*
G75*
G02*
X178300000Y-128350000I50000J0D01*
G01*
X179000000Y-128350000D01*
G75*
G02*
X179050000Y-128400000I0J-50000D01*
G01*
X179050000Y-132700000D01*
G75*
G02*
X179000000Y-132750000I-50000J0D01*
G01*
X178300000Y-132750000D01*
G75*
G02*
X178250000Y-132700000I0J50000D01*
G01*
G37*
G36*
G01*
X177250000Y-132700000D02*
X177250000Y-128400000D01*
G75*
G02*
X177300000Y-128350000I50000J0D01*
G01*
X178000000Y-128350000D01*
G75*
G02*
X178050000Y-128400000I0J-50000D01*
G01*
X178050000Y-132700000D01*
G75*
G02*
X178000000Y-132750000I-50000J0D01*
G01*
X177300000Y-132750000D01*
G75*
G02*
X177250000Y-132700000I0J50000D01*
G01*
G37*
G36*
G01*
X176250000Y-132700000D02*
X176250000Y-128400000D01*
G75*
G02*
X176300000Y-128350000I50000J0D01*
G01*
X177000000Y-128350000D01*
G75*
G02*
X177050000Y-128400000I0J-50000D01*
G01*
X177050000Y-132700000D01*
G75*
G02*
X177000000Y-132750000I-50000J0D01*
G01*
X176300000Y-132750000D01*
G75*
G02*
X176250000Y-132700000I0J50000D01*
G01*
G37*
G36*
G01*
X147250000Y-132700000D02*
X147250000Y-128400000D01*
G75*
G02*
X147300000Y-128350000I50000J0D01*
G01*
X148000000Y-128350000D01*
G75*
G02*
X148050000Y-128400000I0J-50000D01*
G01*
X148050000Y-132700000D01*
G75*
G02*
X148000000Y-132750000I-50000J0D01*
G01*
X147300000Y-132750000D01*
G75*
G02*
X147250000Y-132700000I0J50000D01*
G01*
G37*
G36*
G01*
X146250000Y-132700000D02*
X146250000Y-128400000D01*
G75*
G02*
X146300000Y-128350000I50000J0D01*
G01*
X147000000Y-128350000D01*
G75*
G02*
X147050000Y-128400000I0J-50000D01*
G01*
X147050000Y-132700000D01*
G75*
G02*
X147000000Y-132750000I-50000J0D01*
G01*
X146300000Y-132750000D01*
G75*
G02*
X146250000Y-132700000I0J50000D01*
G01*
G37*
G36*
G01*
X152250000Y-132700000D02*
X152250000Y-128400000D01*
G75*
G02*
X152300000Y-128350000I50000J0D01*
G01*
X153000000Y-128350000D01*
G75*
G02*
X153050000Y-128400000I0J-50000D01*
G01*
X153050000Y-132700000D01*
G75*
G02*
X153000000Y-132750000I-50000J0D01*
G01*
X152300000Y-132750000D01*
G75*
G02*
X152250000Y-132700000I0J50000D01*
G01*
G37*
G36*
G01*
X151250000Y-132700000D02*
X151250000Y-128400000D01*
G75*
G02*
X151300000Y-128350000I50000J0D01*
G01*
X152000000Y-128350000D01*
G75*
G02*
X152050000Y-128400000I0J-50000D01*
G01*
X152050000Y-132700000D01*
G75*
G02*
X152000000Y-132750000I-50000J0D01*
G01*
X151300000Y-132750000D01*
G75*
G02*
X151250000Y-132700000I0J50000D01*
G01*
G37*
G36*
G01*
X150250000Y-132700000D02*
X150250000Y-128400000D01*
G75*
G02*
X150300000Y-128350000I50000J0D01*
G01*
X151000000Y-128350000D01*
G75*
G02*
X151050000Y-128400000I0J-50000D01*
G01*
X151050000Y-132700000D01*
G75*
G02*
X151000000Y-132750000I-50000J0D01*
G01*
X150300000Y-132750000D01*
G75*
G02*
X150250000Y-132700000I0J50000D01*
G01*
G37*
G36*
G01*
X149250000Y-132700000D02*
X149250000Y-128400000D01*
G75*
G02*
X149300000Y-128350000I50000J0D01*
G01*
X150000000Y-128350000D01*
G75*
G02*
X150050000Y-128400000I0J-50000D01*
G01*
X150050000Y-132700000D01*
G75*
G02*
X150000000Y-132750000I-50000J0D01*
G01*
X149300000Y-132750000D01*
G75*
G02*
X149250000Y-132700000I0J50000D01*
G01*
G37*
G36*
G01*
X148250000Y-132700000D02*
X148250000Y-128400000D01*
G75*
G02*
X148300000Y-128350000I50000J0D01*
G01*
X149000000Y-128350000D01*
G75*
G02*
X149050000Y-128400000I0J-50000D01*
G01*
X149050000Y-132700000D01*
G75*
G02*
X149000000Y-132750000I-50000J0D01*
G01*
X148300000Y-132750000D01*
G75*
G02*
X148250000Y-132700000I0J50000D01*
G01*
G37*
G36*
G01*
X143250000Y-132700000D02*
X143250000Y-128400000D01*
G75*
G02*
X143300000Y-128350000I50000J0D01*
G01*
X144000000Y-128350000D01*
G75*
G02*
X144050000Y-128400000I0J-50000D01*
G01*
X144050000Y-132700000D01*
G75*
G02*
X144000000Y-132750000I-50000J0D01*
G01*
X143300000Y-132750000D01*
G75*
G02*
X143250000Y-132700000I0J50000D01*
G01*
G37*
G36*
G01*
X142250000Y-132700000D02*
X142250000Y-128400000D01*
G75*
G02*
X142300000Y-128350000I50000J0D01*
G01*
X143000000Y-128350000D01*
G75*
G02*
X143050000Y-128400000I0J-50000D01*
G01*
X143050000Y-132700000D01*
G75*
G02*
X143000000Y-132750000I-50000J0D01*
G01*
X142300000Y-132750000D01*
G75*
G02*
X142250000Y-132700000I0J50000D01*
G01*
G37*
G36*
G01*
X141250000Y-132700000D02*
X141250000Y-128400000D01*
G75*
G02*
X141300000Y-128350000I50000J0D01*
G01*
X142000000Y-128350000D01*
G75*
G02*
X142050000Y-128400000I0J-50000D01*
G01*
X142050000Y-132700000D01*
G75*
G02*
X142000000Y-132750000I-50000J0D01*
G01*
X141300000Y-132750000D01*
G75*
G02*
X141250000Y-132700000I0J50000D01*
G01*
G37*
G36*
G01*
X140250000Y-132700000D02*
X140250000Y-128400000D01*
G75*
G02*
X140300000Y-128350000I50000J0D01*
G01*
X141000000Y-128350000D01*
G75*
G02*
X141050000Y-128400000I0J-50000D01*
G01*
X141050000Y-132700000D01*
G75*
G02*
X141000000Y-132750000I-50000J0D01*
G01*
X140300000Y-132750000D01*
G75*
G02*
X140250000Y-132700000I0J50000D01*
G01*
G37*
G36*
G01*
X139250000Y-132700000D02*
X139250000Y-128400000D01*
G75*
G02*
X139300000Y-128350000I50000J0D01*
G01*
X140000000Y-128350000D01*
G75*
G02*
X140050000Y-128400000I0J-50000D01*
G01*
X140050000Y-132700000D01*
G75*
G02*
X140000000Y-132750000I-50000J0D01*
G01*
X139300000Y-132750000D01*
G75*
G02*
X139250000Y-132700000I0J50000D01*
G01*
G37*
G36*
G01*
X138250000Y-132700000D02*
X138250000Y-128400000D01*
G75*
G02*
X138300000Y-128350000I50000J0D01*
G01*
X139000000Y-128350000D01*
G75*
G02*
X139050000Y-128400000I0J-50000D01*
G01*
X139050000Y-132700000D01*
G75*
G02*
X139000000Y-132750000I-50000J0D01*
G01*
X138300000Y-132750000D01*
G75*
G02*
X138250000Y-132700000I0J50000D01*
G01*
G37*
G36*
G01*
X137250000Y-132700000D02*
X137250000Y-128400000D01*
G75*
G02*
X137300000Y-128350000I50000J0D01*
G01*
X138000000Y-128350000D01*
G75*
G02*
X138050000Y-128400000I0J-50000D01*
G01*
X138050000Y-132700000D01*
G75*
G02*
X138000000Y-132750000I-50000J0D01*
G01*
X137300000Y-132750000D01*
G75*
G02*
X137250000Y-132700000I0J50000D01*
G01*
G37*
G36*
G01*
X136250000Y-132700000D02*
X136250000Y-128400000D01*
G75*
G02*
X136300000Y-128350000I50000J0D01*
G01*
X137000000Y-128350000D01*
G75*
G02*
X137050000Y-128400000I0J-50000D01*
G01*
X137050000Y-132700000D01*
G75*
G02*
X137000000Y-132750000I-50000J0D01*
G01*
X136300000Y-132750000D01*
G75*
G02*
X136250000Y-132700000I0J50000D01*
G01*
G37*
G36*
G01*
X135250000Y-132700000D02*
X135250000Y-128400000D01*
G75*
G02*
X135300000Y-128350000I50000J0D01*
G01*
X136000000Y-128350000D01*
G75*
G02*
X136050000Y-128400000I0J-50000D01*
G01*
X136050000Y-132700000D01*
G75*
G02*
X136000000Y-132750000I-50000J0D01*
G01*
X135300000Y-132750000D01*
G75*
G02*
X135250000Y-132700000I0J50000D01*
G01*
G37*
G36*
G01*
X134250000Y-132700000D02*
X134250000Y-128400000D01*
G75*
G02*
X134300000Y-128350000I50000J0D01*
G01*
X135000000Y-128350000D01*
G75*
G02*
X135050000Y-128400000I0J-50000D01*
G01*
X135050000Y-132700000D01*
G75*
G02*
X135000000Y-132750000I-50000J0D01*
G01*
X134300000Y-132750000D01*
G75*
G02*
X134250000Y-132700000I0J50000D01*
G01*
G37*
G36*
G01*
X133250000Y-131600000D02*
X133250000Y-128400000D01*
G75*
G02*
X133300000Y-128350000I50000J0D01*
G01*
X134000000Y-128350000D01*
G75*
G02*
X134050000Y-128400000I0J-50000D01*
G01*
X134050000Y-131600000D01*
G75*
G02*
X134000000Y-131650000I-50000J0D01*
G01*
X133300000Y-131650000D01*
G75*
G02*
X133250000Y-131600000I0J50000D01*
G01*
G37*
G36*
G01*
X153250000Y-132700000D02*
X153250000Y-128400000D01*
G75*
G02*
X153300000Y-128350000I50000J0D01*
G01*
X154000000Y-128350000D01*
G75*
G02*
X154050000Y-128400000I0J-50000D01*
G01*
X154050000Y-132700000D01*
G75*
G02*
X154000000Y-132750000I-50000J0D01*
G01*
X153300000Y-132750000D01*
G75*
G02*
X153250000Y-132700000I0J50000D01*
G01*
G37*
G36*
G01*
X154250000Y-132700000D02*
X154250000Y-128400000D01*
G75*
G02*
X154300000Y-128350000I50000J0D01*
G01*
X155000000Y-128350000D01*
G75*
G02*
X155050000Y-128400000I0J-50000D01*
G01*
X155050000Y-132700000D01*
G75*
G02*
X155000000Y-132750000I-50000J0D01*
G01*
X154300000Y-132750000D01*
G75*
G02*
X154250000Y-132700000I0J50000D01*
G01*
G37*
G36*
G01*
X155250000Y-132700000D02*
X155250000Y-128400000D01*
G75*
G02*
X155300000Y-128350000I50000J0D01*
G01*
X156000000Y-128350000D01*
G75*
G02*
X156050000Y-128400000I0J-50000D01*
G01*
X156050000Y-132700000D01*
G75*
G02*
X156000000Y-132750000I-50000J0D01*
G01*
X155300000Y-132750000D01*
G75*
G02*
X155250000Y-132700000I0J50000D01*
G01*
G37*
G36*
G01*
X156250000Y-132700000D02*
X156250000Y-128400000D01*
G75*
G02*
X156300000Y-128350000I50000J0D01*
G01*
X157000000Y-128350000D01*
G75*
G02*
X157050000Y-128400000I0J-50000D01*
G01*
X157050000Y-132700000D01*
G75*
G02*
X157000000Y-132750000I-50000J0D01*
G01*
X156300000Y-132750000D01*
G75*
G02*
X156250000Y-132700000I0J50000D01*
G01*
G37*
G36*
G01*
X157250000Y-132700000D02*
X157250000Y-128400000D01*
G75*
G02*
X157300000Y-128350000I50000J0D01*
G01*
X158000000Y-128350000D01*
G75*
G02*
X158050000Y-128400000I0J-50000D01*
G01*
X158050000Y-132700000D01*
G75*
G02*
X158000000Y-132750000I-50000J0D01*
G01*
X157300000Y-132750000D01*
G75*
G02*
X157250000Y-132700000I0J50000D01*
G01*
G37*
G36*
G01*
X158250000Y-132700000D02*
X158250000Y-128400000D01*
G75*
G02*
X158300000Y-128350000I50000J0D01*
G01*
X159000000Y-128350000D01*
G75*
G02*
X159050000Y-128400000I0J-50000D01*
G01*
X159050000Y-132700000D01*
G75*
G02*
X159000000Y-132750000I-50000J0D01*
G01*
X158300000Y-132750000D01*
G75*
G02*
X158250000Y-132700000I0J50000D01*
G01*
G37*
G36*
G01*
X159250000Y-132700000D02*
X159250000Y-128400000D01*
G75*
G02*
X159300000Y-128350000I50000J0D01*
G01*
X160000000Y-128350000D01*
G75*
G02*
X160050000Y-128400000I0J-50000D01*
G01*
X160050000Y-132700000D01*
G75*
G02*
X160000000Y-132750000I-50000J0D01*
G01*
X159300000Y-132750000D01*
G75*
G02*
X159250000Y-132700000I0J50000D01*
G01*
G37*
G36*
G01*
X160250000Y-132700000D02*
X160250000Y-128400000D01*
G75*
G02*
X160300000Y-128350000I50000J0D01*
G01*
X161000000Y-128350000D01*
G75*
G02*
X161050000Y-128400000I0J-50000D01*
G01*
X161050000Y-132700000D01*
G75*
G02*
X161000000Y-132750000I-50000J0D01*
G01*
X160300000Y-132750000D01*
G75*
G02*
X160250000Y-132700000I0J50000D01*
G01*
G37*
G36*
G01*
X161250000Y-132700000D02*
X161250000Y-128400000D01*
G75*
G02*
X161300000Y-128350000I50000J0D01*
G01*
X162000000Y-128350000D01*
G75*
G02*
X162050000Y-128400000I0J-50000D01*
G01*
X162050000Y-132700000D01*
G75*
G02*
X162000000Y-132750000I-50000J0D01*
G01*
X161300000Y-132750000D01*
G75*
G02*
X161250000Y-132700000I0J50000D01*
G01*
G37*
G36*
G01*
X162250000Y-132700000D02*
X162250000Y-128400000D01*
G75*
G02*
X162300000Y-128350000I50000J0D01*
G01*
X163000000Y-128350000D01*
G75*
G02*
X163050000Y-128400000I0J-50000D01*
G01*
X163050000Y-132700000D01*
G75*
G02*
X163000000Y-132750000I-50000J0D01*
G01*
X162300000Y-132750000D01*
G75*
G02*
X162250000Y-132700000I0J50000D01*
G01*
G37*
G36*
G01*
X163250000Y-132700000D02*
X163250000Y-128400000D01*
G75*
G02*
X163300000Y-128350000I50000J0D01*
G01*
X164000000Y-128350000D01*
G75*
G02*
X164050000Y-128400000I0J-50000D01*
G01*
X164050000Y-132700000D01*
G75*
G02*
X164000000Y-132750000I-50000J0D01*
G01*
X163300000Y-132750000D01*
G75*
G02*
X163250000Y-132700000I0J50000D01*
G01*
G37*
G36*
G01*
X164250000Y-132700000D02*
X164250000Y-128400000D01*
G75*
G02*
X164300000Y-128350000I50000J0D01*
G01*
X165000000Y-128350000D01*
G75*
G02*
X165050000Y-128400000I0J-50000D01*
G01*
X165050000Y-132700000D01*
G75*
G02*
X165000000Y-132750000I-50000J0D01*
G01*
X164300000Y-132750000D01*
G75*
G02*
X164250000Y-132700000I0J50000D01*
G01*
G37*
G36*
G01*
X165250000Y-132700000D02*
X165250000Y-128400000D01*
G75*
G02*
X165300000Y-128350000I50000J0D01*
G01*
X166000000Y-128350000D01*
G75*
G02*
X166050000Y-128400000I0J-50000D01*
G01*
X166050000Y-132700000D01*
G75*
G02*
X166000000Y-132750000I-50000J0D01*
G01*
X165300000Y-132750000D01*
G75*
G02*
X165250000Y-132700000I0J50000D01*
G01*
G37*
G36*
G01*
X166250000Y-132700000D02*
X166250000Y-128400000D01*
G75*
G02*
X166300000Y-128350000I50000J0D01*
G01*
X167000000Y-128350000D01*
G75*
G02*
X167050000Y-128400000I0J-50000D01*
G01*
X167050000Y-132700000D01*
G75*
G02*
X167000000Y-132750000I-50000J0D01*
G01*
X166300000Y-132750000D01*
G75*
G02*
X166250000Y-132700000I0J50000D01*
G01*
G37*
G36*
G01*
X167250000Y-132700000D02*
X167250000Y-128400000D01*
G75*
G02*
X167300000Y-128350000I50000J0D01*
G01*
X168000000Y-128350000D01*
G75*
G02*
X168050000Y-128400000I0J-50000D01*
G01*
X168050000Y-132700000D01*
G75*
G02*
X168000000Y-132750000I-50000J0D01*
G01*
X167300000Y-132750000D01*
G75*
G02*
X167250000Y-132700000I0J50000D01*
G01*
G37*
G36*
G01*
X168250000Y-132700000D02*
X168250000Y-128400000D01*
G75*
G02*
X168300000Y-128350000I50000J0D01*
G01*
X169000000Y-128350000D01*
G75*
G02*
X169050000Y-128400000I0J-50000D01*
G01*
X169050000Y-132700000D01*
G75*
G02*
X169000000Y-132750000I-50000J0D01*
G01*
X168300000Y-132750000D01*
G75*
G02*
X168250000Y-132700000I0J50000D01*
G01*
G37*
G36*
G01*
X169250000Y-132700000D02*
X169250000Y-128400000D01*
G75*
G02*
X169300000Y-128350000I50000J0D01*
G01*
X170000000Y-128350000D01*
G75*
G02*
X170050000Y-128400000I0J-50000D01*
G01*
X170050000Y-132700000D01*
G75*
G02*
X170000000Y-132750000I-50000J0D01*
G01*
X169300000Y-132750000D01*
G75*
G02*
X169250000Y-132700000I0J50000D01*
G01*
G37*
G36*
G01*
X170250000Y-132700000D02*
X170250000Y-128400000D01*
G75*
G02*
X170300000Y-128350000I50000J0D01*
G01*
X171000000Y-128350000D01*
G75*
G02*
X171050000Y-128400000I0J-50000D01*
G01*
X171050000Y-132700000D01*
G75*
G02*
X171000000Y-132750000I-50000J0D01*
G01*
X170300000Y-132750000D01*
G75*
G02*
X170250000Y-132700000I0J50000D01*
G01*
G37*
G36*
G01*
X171250000Y-132700000D02*
X171250000Y-128400000D01*
G75*
G02*
X171300000Y-128350000I50000J0D01*
G01*
X172000000Y-128350000D01*
G75*
G02*
X172050000Y-128400000I0J-50000D01*
G01*
X172050000Y-132700000D01*
G75*
G02*
X172000000Y-132750000I-50000J0D01*
G01*
X171300000Y-132750000D01*
G75*
G02*
X171250000Y-132700000I0J50000D01*
G01*
G37*
G36*
G01*
X172250000Y-132700000D02*
X172250000Y-128400000D01*
G75*
G02*
X172300000Y-128350000I50000J0D01*
G01*
X173000000Y-128350000D01*
G75*
G02*
X173050000Y-128400000I0J-50000D01*
G01*
X173050000Y-132700000D01*
G75*
G02*
X173000000Y-132750000I-50000J0D01*
G01*
X172300000Y-132750000D01*
G75*
G02*
X172250000Y-132700000I0J50000D01*
G01*
G37*
G36*
G01*
X173250000Y-132700000D02*
X173250000Y-128400000D01*
G75*
G02*
X173300000Y-128350000I50000J0D01*
G01*
X174000000Y-128350000D01*
G75*
G02*
X174050000Y-128400000I0J-50000D01*
G01*
X174050000Y-132700000D01*
G75*
G02*
X174000000Y-132750000I-50000J0D01*
G01*
X173300000Y-132750000D01*
G75*
G02*
X173250000Y-132700000I0J50000D01*
G01*
G37*
G36*
G01*
X174250000Y-132700000D02*
X174250000Y-128400000D01*
G75*
G02*
X174300000Y-128350000I50000J0D01*
G01*
X175000000Y-128350000D01*
G75*
G02*
X175050000Y-128400000I0J-50000D01*
G01*
X175050000Y-132700000D01*
G75*
G02*
X175000000Y-132750000I-50000J0D01*
G01*
X174300000Y-132750000D01*
G75*
G02*
X174250000Y-132700000I0J50000D01*
G01*
G37*
G36*
G01*
X175250000Y-132700000D02*
X175250000Y-128400000D01*
G75*
G02*
X175300000Y-128350000I50000J0D01*
G01*
X176000000Y-128350000D01*
G75*
G02*
X176050000Y-128400000I0J-50000D01*
G01*
X176050000Y-132700000D01*
G75*
G02*
X176000000Y-132750000I-50000J0D01*
G01*
X175300000Y-132750000D01*
G75*
G02*
X175250000Y-132700000I0J50000D01*
G01*
G37*
D11*
X95800000Y-70750000D03*
D12*
X95800000Y-124650001D03*
D13*
X192250000Y-118220000D03*
X192250000Y-62620000D03*
X149750000Y-62620000D03*
D14*
X133650000Y-117420000D03*
D15*
X185850000Y-117420000D03*
D13*
X127250000Y-118220000D03*
G36*
G01*
X124980000Y-59980000D02*
X123280000Y-59980000D01*
G75*
G02*
X123230000Y-59930000I0J50000D01*
G01*
X123230000Y-58230000D01*
G75*
G02*
X123280000Y-58180000I50000J0D01*
G01*
X124980000Y-58180000D01*
G75*
G02*
X125030000Y-58230000I0J-50000D01*
G01*
X125030000Y-59930000D01*
G75*
G02*
X124980000Y-59980000I-50000J0D01*
G01*
G37*
D16*
X126670000Y-59080000D03*
G36*
G01*
X108980000Y-59980000D02*
X107280000Y-59980000D01*
G75*
G02*
X107230000Y-59930000I0J50000D01*
G01*
X107230000Y-58230000D01*
G75*
G02*
X107280000Y-58180000I50000J0D01*
G01*
X108980000Y-58180000D01*
G75*
G02*
X109030000Y-58230000I0J-50000D01*
G01*
X109030000Y-59930000D01*
G75*
G02*
X108980000Y-59980000I-50000J0D01*
G01*
G37*
X110670000Y-59080000D03*
D17*
X126598000Y-76454000D03*
X126598000Y-73914000D03*
X126598000Y-63754000D03*
X126598000Y-66294000D03*
X108818000Y-66294000D03*
X108818000Y-63754000D03*
X108818000Y-76454000D03*
X108818000Y-73914000D03*
M02*
