%TF.GenerationSoftware,KiCad,Pcbnew,(5.1.9)-1*%
%TF.CreationDate,2021-07-12T14:13:14+08:00*%
%TF.ProjectId,V1,56312e6b-6963-4616-945f-706362585858,rev?*%
%TF.SameCoordinates,Original*%
%TF.FileFunction,Copper,L4,Bot*%
%TF.FilePolarity,Positive*%
%FSLAX46Y46*%
G04 Gerber Fmt 4.6, Leading zero omitted, Abs format (unit mm)*
G04 Created by KiCad (PCBNEW (5.1.9)-1) date 2021-07-12 14:13:14*
%MOMM*%
%LPD*%
G01*
G04 APERTURE LIST*
%TA.AperFunction,ConnectorPad*%
%ADD10R,0.700000X4.300000*%
%TD*%
%TA.AperFunction,ConnectorPad*%
%ADD11R,0.700000X3.200000*%
%TD*%
%TA.AperFunction,ComponentPad*%
%ADD12O,6.000000X10.000000*%
%TD*%
%TA.AperFunction,ComponentPad*%
%ADD13C,6.000000*%
%TD*%
%TA.AperFunction,ComponentPad*%
%ADD14C,5.000000*%
%TD*%
%TA.AperFunction,ComponentPad*%
%ADD15R,1.700000X1.700000*%
%TD*%
%TA.AperFunction,ComponentPad*%
%ADD16O,1.700000X1.700000*%
%TD*%
%TA.AperFunction,ComponentPad*%
%ADD17C,1.700000*%
%TD*%
%TA.AperFunction,ViaPad*%
%ADD18C,0.600000*%
%TD*%
%TA.AperFunction,ViaPad*%
%ADD19C,0.450000*%
%TD*%
%TA.AperFunction,ViaPad*%
%ADD20C,0.800000*%
%TD*%
%TA.AperFunction,Conductor*%
%ADD21C,0.500000*%
%TD*%
%TA.AperFunction,Conductor*%
%ADD22C,0.254000*%
%TD*%
%TA.AperFunction,Conductor*%
%ADD23C,0.153670*%
%TD*%
%TA.AperFunction,Conductor*%
%ADD24C,0.100000*%
%TD*%
G04 APERTURE END LIST*
D10*
X183650000Y-130550000D03*
X182650000Y-130550000D03*
X181650000Y-130550000D03*
X180650000Y-130550000D03*
X179650000Y-130550000D03*
X178650000Y-130550000D03*
X177650000Y-130550000D03*
X176650000Y-130550000D03*
X147650000Y-130550000D03*
X146650000Y-130550000D03*
X152650000Y-130550000D03*
X151650000Y-130550000D03*
X150650000Y-130550000D03*
X149650000Y-130550000D03*
X148650000Y-130550000D03*
X143650000Y-130550000D03*
X142650000Y-130550000D03*
X141650000Y-130550000D03*
X140650000Y-130550000D03*
X139650000Y-130550000D03*
X138650000Y-130550000D03*
X137650000Y-130550000D03*
X136650000Y-130550000D03*
X135650000Y-130550000D03*
X134650000Y-130550000D03*
D11*
X133650000Y-130000000D03*
D10*
X153650000Y-130550000D03*
X154650000Y-130550000D03*
X155650000Y-130550000D03*
X156650000Y-130550000D03*
X157650000Y-130550000D03*
X158650000Y-130550000D03*
X159650000Y-130550000D03*
X160650000Y-130550000D03*
X161650000Y-130550000D03*
X162650000Y-130550000D03*
X163650000Y-130550000D03*
X164650000Y-130550000D03*
X165650000Y-130550000D03*
X166650000Y-130550000D03*
X167650000Y-130550000D03*
X168650000Y-130550000D03*
X169650000Y-130550000D03*
X170650000Y-130550000D03*
X171650000Y-130550000D03*
X172650000Y-130550000D03*
X173650000Y-130550000D03*
X174650000Y-130550000D03*
X175650000Y-130550000D03*
D12*
X95500000Y-70739000D03*
D13*
X95500000Y-124650001D03*
D14*
X192250000Y-118220000D03*
X192250000Y-62620000D03*
X149750000Y-62620000D03*
X127250000Y-118220000D03*
D15*
X124130000Y-59080000D03*
D16*
X126670000Y-59080000D03*
D15*
X108130000Y-59080000D03*
D16*
X110670000Y-59080000D03*
D17*
X126598000Y-76454000D03*
X126598000Y-73914000D03*
X126598000Y-63754000D03*
X126598000Y-66294000D03*
X108818000Y-66294000D03*
X108818000Y-63754000D03*
X108818000Y-76454000D03*
X108818000Y-73914000D03*
D18*
X136984000Y-105796000D03*
X136984000Y-107026000D03*
X135714000Y-108296000D03*
X136984000Y-108296000D03*
X138254000Y-108296000D03*
X138254000Y-105796000D03*
X135714000Y-105796000D03*
X135714000Y-107026000D03*
X138254000Y-107026000D03*
X134716000Y-87274000D03*
X135986000Y-86004000D03*
X134716000Y-86004000D03*
X133446000Y-86004000D03*
X133446000Y-87274000D03*
X135986000Y-87274000D03*
X135960000Y-122560000D03*
X136400000Y-123650000D03*
X135250000Y-123650000D03*
X135630000Y-124770000D03*
X134580000Y-124770000D03*
X134600000Y-125560000D03*
X134630000Y-127300000D03*
X134610000Y-126430000D03*
X135620000Y-125930000D03*
X135630000Y-126800000D03*
X135650000Y-127670000D03*
X137150000Y-122590000D03*
D19*
X183560000Y-127520000D03*
X183560000Y-126640000D03*
D18*
X153000000Y-113250000D03*
X153700000Y-113250000D03*
X154600000Y-118150000D03*
X155300000Y-118150000D03*
X151400000Y-118000000D03*
X152100000Y-118000000D03*
X179560000Y-118110000D03*
X181540000Y-118110000D03*
X159140000Y-118010000D03*
X160360000Y-118060000D03*
X162340000Y-118060000D03*
X163560000Y-118060000D03*
X165540000Y-118060000D03*
X166760000Y-118110000D03*
X168740000Y-118110000D03*
X169960000Y-118110000D03*
X171940000Y-118110000D03*
X173160000Y-118110000D03*
X175140000Y-118110000D03*
X176360000Y-118110000D03*
X178340000Y-118110000D03*
D19*
X147800000Y-123300000D03*
X149200000Y-124800000D03*
D18*
X137500000Y-75700000D03*
X138300000Y-75700000D03*
X137500000Y-71500000D03*
X138300000Y-71500000D03*
X93800000Y-61200000D03*
X92900000Y-61200000D03*
D19*
X157500000Y-121730000D03*
X181160000Y-127520000D03*
X181160000Y-126640000D03*
X167140000Y-127550000D03*
X167140000Y-126670000D03*
X147030000Y-127600000D03*
X147030000Y-126720000D03*
X160700000Y-121730000D03*
X160400000Y-122400000D03*
X162300000Y-122400000D03*
X162000000Y-121730000D03*
X163900000Y-121730000D03*
X163600000Y-122780000D03*
X165500000Y-122780000D03*
X165200000Y-121730000D03*
X167100000Y-121730000D03*
X166800000Y-122770000D03*
X168700000Y-122770000D03*
X168400000Y-121720000D03*
X170300000Y-121720000D03*
X170000000Y-122760000D03*
X171900000Y-122760000D03*
X171600000Y-121740000D03*
X173500000Y-121740000D03*
X173200000Y-122770000D03*
X175100000Y-122770000D03*
X174800000Y-121730000D03*
X176700000Y-121730000D03*
X176400000Y-122790000D03*
X178300000Y-122790000D03*
X178000000Y-121730000D03*
X179900000Y-121730000D03*
X179600000Y-122770000D03*
X181500000Y-122770000D03*
X181200000Y-121730000D03*
X183100000Y-121730000D03*
X157160000Y-117210000D03*
X159140000Y-117210000D03*
X160360000Y-117220000D03*
X162340000Y-117220000D03*
X163560000Y-117210000D03*
X165540000Y-117210000D03*
X166760000Y-117210000D03*
X168740000Y-117210000D03*
X169960000Y-117220000D03*
X171940000Y-117220000D03*
X173160000Y-117220000D03*
X175140000Y-117220000D03*
X176360000Y-117190000D03*
X178340000Y-117190000D03*
X179560000Y-117210000D03*
X181540000Y-117210000D03*
X159100000Y-122400000D03*
X177150000Y-127490000D03*
X177150000Y-126610000D03*
X179180000Y-126630000D03*
X179190000Y-127480000D03*
X173140000Y-127510000D03*
X175170000Y-126650000D03*
X175180000Y-127500000D03*
X173140000Y-126630000D03*
X169130000Y-127550000D03*
X171160000Y-126690000D03*
X171170000Y-127540000D03*
X169130000Y-126670000D03*
X163140000Y-127560000D03*
X165170000Y-126700000D03*
X165180000Y-127550000D03*
X163140000Y-126680000D03*
X159140000Y-127570000D03*
X161170000Y-126710000D03*
X161180000Y-127560000D03*
X159140000Y-126690000D03*
X155140000Y-127570000D03*
X157170000Y-126710000D03*
X157180000Y-127560000D03*
X155140000Y-126690000D03*
X150140000Y-127600000D03*
X152170000Y-126740000D03*
X152180000Y-127590000D03*
X150140000Y-126720000D03*
D18*
X115228000Y-65240000D03*
X117768000Y-65240000D03*
X120308000Y-65240000D03*
X115228000Y-67780000D03*
X117768000Y-67780000D03*
X120308000Y-67780000D03*
X115228000Y-70320000D03*
X117768000Y-70320000D03*
X120308000Y-70320000D03*
X115228000Y-72860000D03*
X117768000Y-72860000D03*
X120308000Y-72860000D03*
X115228000Y-75400000D03*
X117768000Y-75400000D03*
X120308000Y-75400000D03*
D19*
X157160000Y-122400000D03*
X158800000Y-121730000D03*
D18*
X92000000Y-61200000D03*
X139100000Y-71500000D03*
X139100000Y-75700000D03*
X136700000Y-127300000D03*
X139600000Y-127400000D03*
X139700000Y-121700000D03*
X142600000Y-121700000D03*
X141000000Y-113200000D03*
X141800000Y-113200000D03*
X145800000Y-113100000D03*
X150600000Y-113100000D03*
X156200000Y-113200000D03*
X156900000Y-113200000D03*
X159400000Y-113200000D03*
X160100000Y-113200000D03*
X162600000Y-113200000D03*
X163300000Y-113200000D03*
X165800000Y-113200000D03*
X166500000Y-113200000D03*
X169000000Y-113200000D03*
X169700000Y-113200000D03*
X172200000Y-113200000D03*
X172900000Y-113200000D03*
X176100000Y-113200000D03*
X175400000Y-113200000D03*
X178600000Y-113300000D03*
X179300000Y-113300000D03*
X181800000Y-113300000D03*
X182500000Y-113300000D03*
X183050000Y-118150000D03*
D19*
X157160000Y-118010000D03*
D18*
X144010000Y-116930000D03*
X145250000Y-117970000D03*
X143510000Y-117940000D03*
X144380000Y-117950000D03*
X144880000Y-116950000D03*
X140920000Y-122840000D03*
X140920000Y-123750000D03*
X140930000Y-124630000D03*
X140620000Y-125540000D03*
X140630000Y-126410000D03*
X141650000Y-126780000D03*
X141670000Y-127650000D03*
X140650000Y-127280000D03*
X141640000Y-125910000D03*
X143140000Y-116920000D03*
X144570152Y-123570152D03*
X148900000Y-117000000D03*
X146000000Y-123600000D03*
D19*
X148694001Y-124264001D03*
X148285999Y-123855999D03*
X168038500Y-117210000D03*
X168038500Y-122770000D03*
X167461500Y-117210000D03*
X167461500Y-122770000D03*
X164838500Y-117210000D03*
X164838500Y-122770000D03*
X164261500Y-117210000D03*
X164261500Y-122770000D03*
X161638500Y-117220000D03*
X161638500Y-122400000D03*
X161061500Y-117220000D03*
X161061500Y-122400000D03*
X157861500Y-122400000D03*
X157861500Y-117210000D03*
X158438500Y-122400000D03*
X158438500Y-117210000D03*
X169638500Y-121719647D03*
X169061500Y-121719647D03*
X166438500Y-121732508D03*
X165861500Y-121732508D03*
X163238500Y-121732766D03*
X162661500Y-121732766D03*
X159461500Y-121733502D03*
X160038500Y-121733502D03*
D18*
X183500000Y-124400000D03*
X183400000Y-117000000D03*
X133700000Y-121400000D03*
X141414000Y-105696000D03*
X142684000Y-105696000D03*
X143954000Y-105696000D03*
X142684000Y-106926000D03*
X141414000Y-108196000D03*
X142684000Y-108196000D03*
X143954000Y-108196000D03*
X143954000Y-106926000D03*
X141414000Y-106926000D03*
D20*
X136205000Y-117750000D03*
X139205000Y-117750000D03*
X138205000Y-117750000D03*
X137205000Y-117750000D03*
D18*
X142114000Y-85826000D03*
X143384000Y-85826000D03*
X142114000Y-87096000D03*
X143384000Y-87096000D03*
X144654000Y-85826000D03*
X144654000Y-87096000D03*
X130789000Y-73914000D03*
X132059000Y-73914000D03*
X130789000Y-75184000D03*
X132059000Y-75184000D03*
X130789000Y-76454000D03*
X132059000Y-76454000D03*
D19*
X182438500Y-121733502D03*
X181861500Y-121733502D03*
X179238500Y-121731922D03*
X178661500Y-121731922D03*
X170661500Y-117220000D03*
X170661500Y-122760000D03*
X171238500Y-117220000D03*
X171238500Y-122760000D03*
X173861500Y-117220000D03*
X173861500Y-122770000D03*
X174438500Y-117220000D03*
X174438500Y-122770000D03*
X177061500Y-117190000D03*
X177061500Y-122780000D03*
X177638500Y-117190000D03*
X177638500Y-122780000D03*
X180261500Y-117210000D03*
X180261500Y-122770000D03*
X180838500Y-117210000D03*
X180838500Y-122770000D03*
X172261500Y-121733013D03*
X172838500Y-121733013D03*
X175461500Y-121730046D03*
X176038500Y-121730046D03*
D21*
X135650000Y-127670000D02*
X135650000Y-130550000D01*
X134630000Y-130530000D02*
X134650000Y-130550000D01*
X134630000Y-127300000D02*
X134630000Y-130530000D01*
X183650000Y-127625000D02*
X183650000Y-130550000D01*
X136700000Y-130500000D02*
X136650000Y-130550000D01*
X136700000Y-127300000D02*
X136700000Y-130500000D01*
X146650000Y-127980000D02*
X147030000Y-127600000D01*
X146650000Y-130550000D02*
X146650000Y-127980000D01*
X149650000Y-130550000D02*
X149650000Y-127750000D01*
X152650000Y-130550000D02*
X152650000Y-127650000D01*
X154650000Y-130550000D02*
X154650000Y-127750000D01*
X157650000Y-130550000D02*
X157650000Y-127750000D01*
X158650000Y-130550000D02*
X158650000Y-127550000D01*
X161650000Y-130550000D02*
X161650000Y-127350000D01*
X162650000Y-130550000D02*
X162650000Y-127550000D01*
X165650000Y-130550000D02*
X165650000Y-127450000D01*
X168650000Y-130550000D02*
X168650000Y-127850000D01*
X171650000Y-130550000D02*
X171650000Y-127650000D01*
X172650000Y-130550000D02*
X172650000Y-127850000D01*
X175650000Y-130550000D02*
X175650000Y-127650000D01*
X176650000Y-130550000D02*
X176650000Y-127850000D01*
X179650000Y-130550000D02*
X179650000Y-127850000D01*
X180650000Y-130550000D02*
X180650000Y-127750000D01*
X141650000Y-127670000D02*
X141670000Y-127650000D01*
X141650000Y-130550000D02*
X141650000Y-127670000D01*
X142650000Y-130550000D02*
X142650000Y-127450000D01*
X141980000Y-126780000D02*
X141650000Y-126780000D01*
X142650000Y-127450000D02*
X141980000Y-126780000D01*
D22*
X144620152Y-123520152D02*
X144570152Y-123570152D01*
X144570152Y-121329848D02*
X144570152Y-123570152D01*
X148900000Y-117000000D02*
X144570152Y-121329848D01*
X146000000Y-123812917D02*
X146000000Y-123600000D01*
X143650000Y-126162917D02*
X146000000Y-123812917D01*
X143650000Y-130550000D02*
X143650000Y-126162917D01*
D23*
X148650000Y-128750000D02*
X148650000Y-130550000D01*
X148290335Y-128390335D02*
X148650000Y-128750000D01*
X148290335Y-124458129D02*
X148290335Y-128390335D01*
X148484463Y-124264001D02*
X148290335Y-124458129D01*
X148694001Y-124264001D02*
X148484463Y-124264001D01*
X147650000Y-128750000D02*
X147650000Y-130550000D01*
X148009665Y-128390335D02*
X147650000Y-128750000D01*
X148009665Y-124341871D02*
X148009665Y-128390335D01*
X148285999Y-124065537D02*
X148009665Y-124341871D01*
X148285999Y-123855999D02*
X148285999Y-124065537D01*
X167890335Y-122621835D02*
X168038500Y-122770000D01*
X167890335Y-117358165D02*
X167890335Y-122621835D01*
X168038500Y-117210000D02*
X167890335Y-117358165D01*
X167609665Y-122621835D02*
X167461500Y-122770000D01*
X167609665Y-117358165D02*
X167609665Y-122621835D01*
X167461500Y-117210000D02*
X167609665Y-117358165D01*
X164690335Y-122621835D02*
X164838500Y-122770000D01*
X164690335Y-117358165D02*
X164690335Y-122621835D01*
X164838500Y-117210000D02*
X164690335Y-117358165D01*
X164409665Y-122621835D02*
X164261500Y-122770000D01*
X164409665Y-117358165D02*
X164409665Y-122621835D01*
X164261500Y-117210000D02*
X164409665Y-117358165D01*
X161638500Y-117220000D02*
X161490335Y-117368165D01*
X161490335Y-117368165D02*
X161490335Y-122251835D01*
X161490335Y-122251835D02*
X161638500Y-122400000D01*
X161209665Y-122251835D02*
X161061500Y-122400000D01*
X161209665Y-117368165D02*
X161209665Y-122251835D01*
X161061500Y-117220000D02*
X161209665Y-117368165D01*
X158009665Y-122251835D02*
X157861500Y-122400000D01*
X158009665Y-117358165D02*
X158009665Y-122251835D01*
X157861500Y-117210000D02*
X158009665Y-117358165D01*
X158290335Y-122251835D02*
X158438500Y-122400000D01*
X158438500Y-117210000D02*
X158290335Y-117358165D01*
X158290335Y-117358165D02*
X158290335Y-122251835D01*
X164650000Y-128750000D02*
X164650000Y-130550000D01*
X164290335Y-128390335D02*
X164650000Y-128750000D01*
X164290335Y-126188129D02*
X164290335Y-128390335D01*
X164938129Y-125540335D02*
X164290335Y-126188129D01*
X167268129Y-125540335D02*
X164938129Y-125540335D01*
X169490335Y-121867812D02*
X169490335Y-123318129D01*
X169638500Y-121719647D02*
X169490335Y-121867812D01*
X169490335Y-123318129D02*
X167268129Y-125540335D01*
X164821871Y-125259665D02*
X164009665Y-126071871D01*
X164009665Y-126071871D02*
X164009665Y-128390335D01*
X169209665Y-121867812D02*
X169209665Y-123201871D01*
X169209665Y-123201871D02*
X167151871Y-125259665D01*
X167151871Y-125259665D02*
X164821871Y-125259665D01*
X163650000Y-128750000D02*
X163650000Y-130550000D01*
X164009665Y-128390335D02*
X163650000Y-128750000D01*
X169061500Y-121719647D02*
X169209665Y-121867812D01*
X160650000Y-128750000D02*
X160650000Y-130550000D01*
X160290335Y-128390335D02*
X160650000Y-128750000D01*
X160290335Y-126568129D02*
X160290335Y-128390335D01*
X166438500Y-121732508D02*
X166290335Y-121880673D01*
X166290335Y-121880673D02*
X166290335Y-123268129D01*
X166290335Y-123268129D02*
X165068129Y-124490335D01*
X165068129Y-124490335D02*
X162368129Y-124490335D01*
X162368129Y-124490335D02*
X160290335Y-126568129D01*
X159650000Y-128750000D02*
X159650000Y-130550000D01*
X165861500Y-121732508D02*
X166009665Y-121880673D01*
X166009665Y-121880673D02*
X166009665Y-123151871D01*
X166009665Y-123151871D02*
X164951871Y-124209665D01*
X162251871Y-124209665D02*
X160009665Y-126451871D01*
X164951871Y-124209665D02*
X162251871Y-124209665D01*
X160009665Y-126451871D02*
X160009665Y-128390335D01*
X160009665Y-128390335D02*
X159650000Y-128750000D01*
X156290335Y-128390335D02*
X156650000Y-128750000D01*
X156290335Y-125868129D02*
X156290335Y-128390335D01*
X156768129Y-125390335D02*
X156290335Y-125868129D01*
X158888129Y-125390335D02*
X156768129Y-125390335D01*
X160748129Y-123530335D02*
X158888129Y-125390335D01*
X162318129Y-123530335D02*
X160748129Y-123530335D01*
X156650000Y-128750000D02*
X156650000Y-130550000D01*
X163238500Y-121732766D02*
X163090335Y-121880931D01*
X163090335Y-121880931D02*
X163090335Y-122758129D01*
X163090335Y-122758129D02*
X162318129Y-123530335D01*
X162661500Y-121732766D02*
X162809665Y-121880931D01*
X162809665Y-122641871D02*
X162201871Y-123249665D01*
X162809665Y-121880931D02*
X162809665Y-122641871D01*
X162201871Y-123249665D02*
X160631871Y-123249665D01*
X160631871Y-123249665D02*
X158771871Y-125109665D01*
X158771871Y-125109665D02*
X156651871Y-125109665D01*
X156009665Y-128390335D02*
X155650000Y-128750000D01*
X156651871Y-125109665D02*
X156009665Y-125751871D01*
X156009665Y-125751871D02*
X156009665Y-128390335D01*
X155650000Y-128750000D02*
X155650000Y-130550000D01*
X159461500Y-121733502D02*
X159609665Y-121881667D01*
X159609665Y-121881667D02*
X159609665Y-122601871D01*
X159609665Y-122601871D02*
X158411871Y-123799665D01*
X150650000Y-128750000D02*
X151009665Y-128390335D01*
X150650000Y-130550000D02*
X150650000Y-128750000D01*
X151009665Y-128390335D02*
X151009665Y-125091871D01*
X152301871Y-123799665D02*
X158411871Y-123799665D01*
X151009665Y-125091871D02*
X152301871Y-123799665D01*
X160038500Y-121733502D02*
X159890335Y-121881667D01*
X159890335Y-121881667D02*
X159890335Y-122718129D01*
X159890335Y-122718129D02*
X158528129Y-124080335D01*
X151650000Y-128750000D02*
X151290335Y-128390335D01*
X151650000Y-130550000D02*
X151650000Y-128750000D01*
X151290335Y-128390335D02*
X151290335Y-125208129D01*
X152418129Y-124080335D02*
X158528129Y-124080335D01*
X151290335Y-125208129D02*
X152418129Y-124080335D01*
D22*
X183400000Y-117000000D02*
X183699999Y-117299999D01*
X183699999Y-117299999D02*
X183699999Y-124200001D01*
X183699999Y-124200001D02*
X183500000Y-124400000D01*
X133650000Y-121450000D02*
X133700000Y-121400000D01*
X133650000Y-130000000D02*
X133650000Y-121450000D01*
D23*
X182290335Y-128390335D02*
X182650000Y-128750000D01*
X182290335Y-121881667D02*
X182290335Y-128390335D01*
X182438500Y-121733502D02*
X182290335Y-121881667D01*
X182650000Y-128750000D02*
X182650000Y-130550000D01*
X181650000Y-128750000D02*
X181650000Y-130550000D01*
X182009665Y-128390335D02*
X181650000Y-128750000D01*
X181861500Y-121733502D02*
X182009665Y-121881667D01*
X182009665Y-121881667D02*
X182009665Y-128390335D01*
X178650000Y-128750000D02*
X178650000Y-130550000D01*
X178290335Y-128390335D02*
X178650000Y-128750000D01*
X178290335Y-124818129D02*
X178290335Y-128390335D01*
X179238500Y-121731922D02*
X179090335Y-121880087D01*
X179090335Y-121880087D02*
X179090335Y-124018129D01*
X179090335Y-124018129D02*
X178290335Y-124818129D01*
X178009665Y-128390335D02*
X177650000Y-128750000D01*
X177650000Y-128750000D02*
X177650000Y-130550000D01*
X178009665Y-124701871D02*
X178009665Y-128390335D01*
X178809665Y-123901871D02*
X178009665Y-124701871D01*
X178809665Y-121880087D02*
X178809665Y-123901871D01*
X178661500Y-121731922D02*
X178809665Y-121880087D01*
X170809665Y-117368165D02*
X170809665Y-122611835D01*
X170661500Y-117220000D02*
X170809665Y-117368165D01*
X170809665Y-122611835D02*
X170661500Y-122760000D01*
X171090335Y-122611835D02*
X171238500Y-122760000D01*
X171238500Y-117220000D02*
X171090335Y-117368165D01*
X171090335Y-117368165D02*
X171090335Y-122611835D01*
X174009665Y-117368165D02*
X174009665Y-122621835D01*
X173861500Y-117220000D02*
X174009665Y-117368165D01*
X174009665Y-122621835D02*
X173861500Y-122770000D01*
X174290335Y-122621835D02*
X174438500Y-122770000D01*
X174290335Y-117368165D02*
X174290335Y-122621835D01*
X174438500Y-117220000D02*
X174290335Y-117368165D01*
X177209665Y-122631835D02*
X177061500Y-122780000D01*
X177209665Y-117338165D02*
X177209665Y-122631835D01*
X177061500Y-117190000D02*
X177209665Y-117338165D01*
X177490335Y-122631835D02*
X177638500Y-122780000D01*
X177490335Y-117338165D02*
X177490335Y-122631835D01*
X177638500Y-117190000D02*
X177490335Y-117338165D01*
X180409665Y-122621835D02*
X180261500Y-122770000D01*
X180409665Y-117358165D02*
X180409665Y-122621835D01*
X180261500Y-117210000D02*
X180409665Y-117358165D01*
X180690335Y-122621835D02*
X180838500Y-122770000D01*
X180690335Y-117358165D02*
X180690335Y-122621835D01*
X180838500Y-117210000D02*
X180690335Y-117358165D01*
X170009665Y-128390335D02*
X169650000Y-128750000D01*
X170009665Y-125371871D02*
X170009665Y-128390335D01*
X172409665Y-121881178D02*
X172409665Y-122971871D01*
X169650000Y-128750000D02*
X169650000Y-130550000D01*
X172261500Y-121733013D02*
X172409665Y-121881178D01*
X172409665Y-122971871D02*
X170009665Y-125371871D01*
X170650000Y-128750000D02*
X170650000Y-130550000D01*
X170290335Y-125488129D02*
X170290335Y-128390335D01*
X172838500Y-121733013D02*
X172690335Y-121881178D01*
X170290335Y-128390335D02*
X170650000Y-128750000D01*
X172690335Y-121881178D02*
X172690335Y-123088129D01*
X172690335Y-123088129D02*
X170290335Y-125488129D01*
X173650000Y-128750000D02*
X173650000Y-130550000D01*
X174009665Y-128390335D02*
X173650000Y-128750000D01*
X174009665Y-125121871D02*
X174009665Y-128390335D01*
X175609665Y-123521871D02*
X174009665Y-125121871D01*
X175609665Y-121878211D02*
X175609665Y-123521871D01*
X175461500Y-121730046D02*
X175609665Y-121878211D01*
X175890335Y-123638129D02*
X174290335Y-125238129D01*
X176038500Y-121730046D02*
X175890335Y-121878211D01*
X175890335Y-121878211D02*
X175890335Y-123638129D01*
X174650000Y-128750000D02*
X174650000Y-130550000D01*
X174290335Y-128390335D02*
X174650000Y-128750000D01*
X174290335Y-125238129D02*
X174290335Y-128390335D01*
D22*
X183869000Y-126232770D02*
X183869000Y-128045787D01*
X183135282Y-128042894D01*
X183074689Y-128024513D01*
X183000000Y-128017157D01*
X182748170Y-128017157D01*
X182748170Y-126228350D01*
X183869000Y-126232770D01*
%TA.AperFunction,Conductor*%
D24*
G36*
X183869000Y-126232770D02*
G01*
X183869000Y-128045787D01*
X183135282Y-128042894D01*
X183074689Y-128024513D01*
X183000000Y-128017157D01*
X182748170Y-128017157D01*
X182748170Y-126228350D01*
X183869000Y-126232770D01*
G37*
%TD.AperFunction*%
D22*
X181551831Y-126223632D02*
X181551831Y-128017157D01*
X181300000Y-128017157D01*
X181225311Y-128024513D01*
X181190008Y-128035222D01*
X179082594Y-128026911D01*
X179074689Y-128024513D01*
X179000000Y-128017157D01*
X178748170Y-128017157D01*
X178748170Y-126212575D01*
X181551831Y-126223632D01*
%TA.AperFunction,Conductor*%
D24*
G36*
X181551831Y-126223632D02*
G01*
X181551831Y-128017157D01*
X181300000Y-128017157D01*
X181225311Y-128024513D01*
X181190008Y-128035222D01*
X179082594Y-128026911D01*
X179074689Y-128024513D01*
X179000000Y-128017157D01*
X178748170Y-128017157D01*
X178748170Y-126212575D01*
X181551831Y-126223632D01*
G37*
%TD.AperFunction*%
D22*
X177551830Y-126207857D02*
X177551831Y-128017157D01*
X177300000Y-128017157D01*
X177273410Y-128019776D01*
X174748170Y-128009817D01*
X174748170Y-126196799D01*
X177551830Y-126207857D01*
%TA.AperFunction,Conductor*%
D24*
G36*
X177551830Y-126207857D02*
G01*
X177551831Y-128017157D01*
X177300000Y-128017157D01*
X177273410Y-128019776D01*
X174748170Y-128009817D01*
X174748170Y-126196799D01*
X177551830Y-126207857D01*
G37*
%TD.AperFunction*%
D22*
X173551830Y-126192081D02*
X173551831Y-128005099D01*
X170748170Y-127994042D01*
X170748170Y-126181024D01*
X173551830Y-126192081D01*
%TA.AperFunction,Conductor*%
D24*
G36*
X173551830Y-126192081D02*
G01*
X173551831Y-128005099D01*
X170748170Y-127994042D01*
X170748170Y-126181024D01*
X173551830Y-126192081D01*
G37*
%TD.AperFunction*%
D22*
X169551830Y-126176306D02*
X169551831Y-127989323D01*
X164748170Y-127970379D01*
X164748170Y-126377770D01*
X164967713Y-126158227D01*
X169551830Y-126176306D01*
%TA.AperFunction,Conductor*%
D24*
G36*
X169551830Y-126176306D02*
G01*
X169551831Y-127989323D01*
X164748170Y-127970379D01*
X164748170Y-126377770D01*
X164967713Y-126158227D01*
X169551830Y-126176306D01*
G37*
%TD.AperFunction*%
D22*
X163551830Y-126152643D02*
X163551831Y-127965661D01*
X160748170Y-127954604D01*
X160748170Y-126757770D01*
X161361933Y-126144007D01*
X163551830Y-126152643D01*
%TA.AperFunction,Conductor*%
D24*
G36*
X163551830Y-126152643D02*
G01*
X163551831Y-127965661D01*
X160748170Y-127954604D01*
X160748170Y-126757770D01*
X161361933Y-126144007D01*
X163551830Y-126152643D01*
G37*
%TD.AperFunction*%
D22*
X159675507Y-126137356D02*
X159670027Y-126144033D01*
X159670025Y-126144035D01*
X159651343Y-126166799D01*
X159627147Y-126196282D01*
X159598089Y-126250646D01*
X159584634Y-126275818D01*
X159562382Y-126349176D01*
X159558455Y-126362121D01*
X159551830Y-126429383D01*
X159551830Y-126429390D01*
X159549616Y-126451871D01*
X159551830Y-126474352D01*
X159551831Y-127949886D01*
X156748170Y-127938828D01*
X156748170Y-126125811D01*
X159675507Y-126137356D01*
%TA.AperFunction,Conductor*%
D24*
G36*
X159675507Y-126137356D02*
G01*
X159670027Y-126144033D01*
X159670025Y-126144035D01*
X159651343Y-126166799D01*
X159627147Y-126196282D01*
X159598089Y-126250646D01*
X159584634Y-126275818D01*
X159562382Y-126349176D01*
X159558455Y-126362121D01*
X159551830Y-126429383D01*
X159551830Y-126429390D01*
X159549616Y-126451871D01*
X159551830Y-126474352D01*
X159551831Y-127949886D01*
X156748170Y-127938828D01*
X156748170Y-126125811D01*
X159675507Y-126137356D01*
G37*
%TD.AperFunction*%
D22*
X155551830Y-126121093D02*
X155551831Y-127934110D01*
X151748170Y-127919109D01*
X151748170Y-126106092D01*
X155551830Y-126121093D01*
%TA.AperFunction,Conductor*%
D24*
G36*
X155551830Y-126121093D02*
G01*
X155551831Y-127934110D01*
X151748170Y-127919109D01*
X151748170Y-126106092D01*
X155551830Y-126121093D01*
G37*
%TD.AperFunction*%
D22*
X150551831Y-126101374D02*
X150551830Y-127914391D01*
X148748170Y-127907278D01*
X148748170Y-126094261D01*
X150551831Y-126101374D01*
%TA.AperFunction,Conductor*%
D24*
G36*
X150551831Y-126101374D02*
G01*
X150551830Y-127914391D01*
X148748170Y-127907278D01*
X148748170Y-126094261D01*
X150551831Y-126101374D01*
G37*
%TD.AperFunction*%
D22*
X147551830Y-126089543D02*
X147551831Y-127902560D01*
X146531000Y-127898534D01*
X146531000Y-126528832D01*
X146528850Y-126507003D01*
X146528850Y-126494678D01*
X146528221Y-126488693D01*
X146507554Y-126304441D01*
X146499429Y-126266216D01*
X146491845Y-126227914D01*
X146490066Y-126222165D01*
X146490066Y-126222163D01*
X146490064Y-126222157D01*
X146446614Y-126085184D01*
X147551830Y-126089543D01*
%TA.AperFunction,Conductor*%
D24*
G36*
X147551830Y-126089543D02*
G01*
X147551831Y-127902560D01*
X146531000Y-127898534D01*
X146531000Y-126528832D01*
X146528850Y-126507003D01*
X146528850Y-126494678D01*
X146528221Y-126488693D01*
X146507554Y-126304441D01*
X146499429Y-126266216D01*
X146491845Y-126227914D01*
X146490066Y-126222165D01*
X146490066Y-126222163D01*
X146490064Y-126222157D01*
X146446614Y-126085184D01*
X147551830Y-126089543D01*
G37*
%TD.AperFunction*%
D22*
X137873000Y-122893538D02*
X136052983Y-125048045D01*
X136038858Y-125068547D01*
X136029005Y-125091410D01*
X136023801Y-125115757D01*
X136023000Y-125130000D01*
X136023000Y-127212818D01*
X136019000Y-127232927D01*
X136019000Y-127367073D01*
X136023000Y-127387182D01*
X136023000Y-127973000D01*
X134277000Y-127973000D01*
X134277000Y-122878299D01*
X134908294Y-121926784D01*
X137873000Y-121917402D01*
X137873000Y-122893538D01*
%TA.AperFunction,Conductor*%
D24*
G36*
X137873000Y-122893538D02*
G01*
X136052983Y-125048045D01*
X136038858Y-125068547D01*
X136029005Y-125091410D01*
X136023801Y-125115757D01*
X136023000Y-125130000D01*
X136023000Y-127212818D01*
X136019000Y-127232927D01*
X136019000Y-127367073D01*
X136023000Y-127387182D01*
X136023000Y-127973000D01*
X134277000Y-127973000D01*
X134277000Y-122878299D01*
X134908294Y-121926784D01*
X137873000Y-121917402D01*
X137873000Y-122893538D01*
G37*
%TD.AperFunction*%
D22*
X141533000Y-125280000D02*
X141535440Y-125304776D01*
X141542667Y-125328601D01*
X141554403Y-125350557D01*
X141570197Y-125369803D01*
X141589443Y-125385597D01*
X141611399Y-125397333D01*
X141635224Y-125404560D01*
X141664964Y-125406903D01*
X142458210Y-125375872D01*
X143022467Y-125724272D01*
X143068126Y-127973000D01*
X140328133Y-127973000D01*
X140278148Y-122417000D01*
X141533000Y-122417000D01*
X141533000Y-125280000D01*
%TA.AperFunction,Conductor*%
D24*
G36*
X141533000Y-125280000D02*
G01*
X141535440Y-125304776D01*
X141542667Y-125328601D01*
X141554403Y-125350557D01*
X141570197Y-125369803D01*
X141589443Y-125385597D01*
X141611399Y-125397333D01*
X141635224Y-125404560D01*
X141664964Y-125406903D01*
X142458210Y-125375872D01*
X143022467Y-125724272D01*
X143068126Y-127973000D01*
X140328133Y-127973000D01*
X140278148Y-122417000D01*
X141533000Y-122417000D01*
X141533000Y-125280000D01*
G37*
%TD.AperFunction*%
D22*
X144373000Y-108947394D02*
X140756741Y-112563653D01*
X140677426Y-112596506D01*
X140565888Y-112671033D01*
X140471033Y-112765888D01*
X140396506Y-112877426D01*
X140363653Y-112956741D01*
X139610197Y-113710197D01*
X139594403Y-113729443D01*
X139582667Y-113751399D01*
X139575440Y-113775224D01*
X139573000Y-113800000D01*
X139573000Y-118273000D01*
X135827000Y-118273000D01*
X135827000Y-114052606D01*
X140889803Y-108989803D01*
X140905597Y-108970557D01*
X140917333Y-108948601D01*
X140924560Y-108924776D01*
X140927000Y-108900000D01*
X140927000Y-105227000D01*
X144373000Y-105227000D01*
X144373000Y-108947394D01*
%TA.AperFunction,Conductor*%
D24*
G36*
X144373000Y-108947394D02*
G01*
X140756741Y-112563653D01*
X140677426Y-112596506D01*
X140565888Y-112671033D01*
X140471033Y-112765888D01*
X140396506Y-112877426D01*
X140363653Y-112956741D01*
X139610197Y-113710197D01*
X139594403Y-113729443D01*
X139582667Y-113751399D01*
X139575440Y-113775224D01*
X139573000Y-113800000D01*
X139573000Y-118273000D01*
X135827000Y-118273000D01*
X135827000Y-114052606D01*
X140889803Y-108989803D01*
X140905597Y-108970557D01*
X140917333Y-108948601D01*
X140924560Y-108924776D01*
X140927000Y-108900000D01*
X140927000Y-105227000D01*
X144373000Y-105227000D01*
X144373000Y-108947394D01*
G37*
%TD.AperFunction*%
M02*
