%TF.GenerationSoftware,KiCad,Pcbnew,(5.1.9)-1*%
%TF.CreationDate,2021-07-12T14:13:14+08:00*%
%TF.ProjectId,V1,56312e6b-6963-4616-945f-706362585858,rev?*%
%TF.SameCoordinates,Original*%
%TF.FileFunction,Profile,NP*%
%FSLAX46Y46*%
G04 Gerber Fmt 4.6, Leading zero omitted, Abs format (unit mm)*
G04 Created by KiCad (PCBNEW (5.1.9)-1) date 2021-07-12 14:13:14*
%MOMM*%
%LPD*%
G01*
G04 APERTURE LIST*
%TA.AperFunction,Profile*%
%ADD10C,0.203200*%
%TD*%
%TA.AperFunction,Profile*%
%ADD11C,0.050000*%
%TD*%
%TA.AperFunction,Profile*%
%ADD12C,0.120000*%
%TD*%
%TA.AperFunction,Profile*%
%ADD13C,0.200000*%
%TD*%
%TA.AperFunction,Profile*%
%ADD14C,0.100000*%
%TD*%
G04 APERTURE END LIST*
D10*
X184299987Y-122299478D02*
G75*
G02*
X185350000Y-121250000I1025013J24478D01*
G01*
D11*
X88000000Y-57370000D02*
X88000000Y-72426000D01*
D12*
X88900000Y-73326000D02*
G75*
G02*
X89800000Y-74226000I0J-900000D01*
G01*
X88900000Y-73326000D02*
G75*
G02*
X88000000Y-72426000I0J900000D01*
G01*
D11*
X89800000Y-120326000D02*
X89800000Y-74226000D01*
D12*
X89800000Y-120326000D02*
G75*
G02*
X88900000Y-121226000I-900000J0D01*
G01*
X88000000Y-122126000D02*
G75*
G02*
X88900000Y-121226000I900000J0D01*
G01*
D13*
X133000000Y-123075000D02*
X133000000Y-125600000D01*
X133000000Y-123075000D02*
G75*
G03*
X129350000Y-123075000I-1825000J0D01*
G01*
X129350000Y-129500000D02*
X129350000Y-123075000D01*
X121350000Y-129500000D02*
X129350000Y-129500000D01*
X121350000Y-122250000D02*
X121350000Y-129500000D01*
X120350000Y-121250000D02*
G75*
G02*
X121350000Y-122250000I0J-1000000D01*
G01*
X104000000Y-121250000D02*
X120350000Y-121250000D01*
X103000000Y-122250000D02*
G75*
G02*
X104000000Y-121250000I1000000J0D01*
G01*
X103000000Y-122250000D02*
X103000000Y-128500000D01*
X102000000Y-129500000D02*
G75*
G03*
X103000000Y-128500000I0J1000000D01*
G01*
X89000000Y-129500000D02*
X102000000Y-129500000D01*
X88000000Y-128500000D02*
G75*
G03*
X89000000Y-129500000I1000000J0D01*
G01*
X88000000Y-128500000D02*
X88000000Y-122126000D01*
X89000000Y-56370000D02*
G75*
G03*
X88000000Y-57370000I0J-1000000D01*
G01*
X89000000Y-56370000D02*
X199009951Y-56410000D01*
X200050000Y-57440000D02*
G75*
G03*
X199009951Y-56410000I-1030049J0D01*
G01*
X200050000Y-57440000D02*
X200050000Y-120250000D01*
X97100000Y-124650001D02*
G75*
G03*
X97100000Y-124650001I-1600000J0D01*
G01*
X185350000Y-121250000D02*
X199050000Y-121250000D01*
X199050000Y-121250000D02*
G75*
G03*
X200050000Y-120250000I0J1000000D01*
G01*
X184300000Y-125600000D02*
X184300000Y-122300000D01*
D14*
X144200000Y-126550000D02*
X144200000Y-133500000D01*
X146100000Y-126550000D02*
X146100000Y-133500000D01*
X133000000Y-125600000D02*
X133000000Y-133500000D01*
X133500000Y-134000000D02*
X143700000Y-134000000D01*
X184300000Y-125600000D02*
X184300000Y-133500000D01*
X146600000Y-134000000D02*
X183800000Y-134000000D01*
X133000000Y-133500000D02*
X133500000Y-134000000D01*
X144200000Y-133500000D02*
X143700000Y-134000000D01*
X146100000Y-133500000D02*
X146600000Y-134000000D01*
X184300000Y-133500000D02*
X183800000Y-134000000D01*
X144200000Y-126550000D02*
G75*
G02*
X146100000Y-126550000I950000J0D01*
G01*
D13*
X191850000Y-75420000D02*
G75*
G03*
X191850000Y-75420000I-1600000J0D01*
G01*
X159850000Y-75420000D02*
G75*
G03*
X159850000Y-75420000I-1600000J0D01*
G01*
X191850000Y-107420000D02*
G75*
G03*
X191850000Y-107420000I-1600000J0D01*
G01*
X159850000Y-107420000D02*
G75*
G03*
X159850000Y-107420000I-1600000J0D01*
G01*
X165240796Y-106793165D02*
X189623165Y-82410796D01*
X187501845Y-80289475D02*
X163119475Y-104671845D01*
X185380525Y-78168155D02*
X160998155Y-102550525D01*
X158876835Y-100429204D02*
X183259204Y-76046835D01*
X192287113Y-88232129D02*
X171062129Y-109457113D01*
X168940809Y-107335793D02*
X190165793Y-86110809D01*
X192291036Y-96713487D02*
X179543487Y-109461036D01*
X177422167Y-107339715D02*
X190169715Y-94592167D01*
X156212887Y-94607871D02*
X177437871Y-73382887D01*
X179559191Y-75504207D02*
X158334207Y-96729191D01*
X156208964Y-86126513D02*
X168956513Y-73378964D01*
X171077833Y-75500285D02*
X158330285Y-88247833D01*
X158330284Y-88247833D02*
G75*
G02*
X156208964Y-86126513I-1060660J1060660D01*
G01*
X168956513Y-73378963D02*
G75*
G02*
X171077833Y-75500285I1060660J-1060661D01*
G01*
X158334207Y-96729191D02*
G75*
G02*
X156212887Y-94607871I-1060660J1060660D01*
G01*
X177437871Y-73382887D02*
G75*
G02*
X179559191Y-75504207I1060660J-1060660D01*
G01*
X190169716Y-94592167D02*
G75*
G02*
X192291036Y-96713487I1060660J-1060660D01*
G01*
X179543487Y-109461037D02*
G75*
G02*
X177422167Y-107339715I-1060660J1060661D01*
G01*
X190165793Y-86110809D02*
G75*
G02*
X192287113Y-88232129I1060660J-1060660D01*
G01*
X171062129Y-109457113D02*
G75*
G02*
X168940809Y-107335793I-1060660J1060660D01*
G01*
X183259203Y-76046835D02*
G75*
G02*
X185380525Y-78168155I1060661J-1060660D01*
G01*
X160998155Y-102550524D02*
G75*
G02*
X158876835Y-100429204I-1060660J1060660D01*
G01*
X165240797Y-106793165D02*
G75*
G02*
X163119475Y-104671845I-1060661J1060660D01*
G01*
X187501845Y-80289476D02*
G75*
G02*
X189623165Y-82410796I1060660J-1060660D01*
G01*
M02*
