%TF.GenerationSoftware,KiCad,Pcbnew,(5.1.9)-1*%
%TF.CreationDate,2021-07-12T14:13:14+08:00*%
%TF.ProjectId,V1,56312e6b-6963-4616-945f-706362585858,rev?*%
%TF.SameCoordinates,Original*%
%TF.FileFunction,Copper,L1,Top*%
%TF.FilePolarity,Positive*%
%FSLAX46Y46*%
G04 Gerber Fmt 4.6, Leading zero omitted, Abs format (unit mm)*
G04 Created by KiCad (PCBNEW (5.1.9)-1) date 2021-07-12 14:13:14*
%MOMM*%
%LPD*%
G01*
G04 APERTURE LIST*
%TA.AperFunction,ConnectorPad*%
%ADD10R,0.700000X4.300000*%
%TD*%
%TA.AperFunction,ConnectorPad*%
%ADD11R,0.700000X3.200000*%
%TD*%
%TA.AperFunction,ComponentPad*%
%ADD12O,6.000000X10.000000*%
%TD*%
%TA.AperFunction,ComponentPad*%
%ADD13C,6.000000*%
%TD*%
%TA.AperFunction,SMDPad,CuDef*%
%ADD14R,0.500000X2.400000*%
%TD*%
%TA.AperFunction,ComponentPad*%
%ADD15C,5.000000*%
%TD*%
%TA.AperFunction,ComponentPad*%
%ADD16R,1.700000X1.700000*%
%TD*%
%TA.AperFunction,ComponentPad*%
%ADD17O,1.700000X1.700000*%
%TD*%
%TA.AperFunction,SMDPad,CuDef*%
%ADD18R,2.400000X2.000000*%
%TD*%
%TA.AperFunction,ComponentPad*%
%ADD19C,1.700000*%
%TD*%
%TA.AperFunction,ConnectorPad*%
%ADD20O,4.240000X1.700000*%
%TD*%
%TA.AperFunction,ViaPad*%
%ADD21C,0.600000*%
%TD*%
%TA.AperFunction,ViaPad*%
%ADD22C,0.450000*%
%TD*%
%TA.AperFunction,ViaPad*%
%ADD23C,0.800000*%
%TD*%
%TA.AperFunction,Conductor*%
%ADD24C,2.400000*%
%TD*%
%TA.AperFunction,Conductor*%
%ADD25C,0.500000*%
%TD*%
%TA.AperFunction,Conductor*%
%ADD26C,1.700000*%
%TD*%
%TA.AperFunction,Conductor*%
%ADD27C,0.381000*%
%TD*%
%TA.AperFunction,Conductor*%
%ADD28C,0.250000*%
%TD*%
%TA.AperFunction,Conductor*%
%ADD29C,0.254000*%
%TD*%
%TA.AperFunction,Conductor*%
%ADD30C,0.153670*%
%TD*%
%TA.AperFunction,Conductor*%
%ADD31C,0.100000*%
%TD*%
G04 APERTURE END LIST*
D10*
X147650000Y-130550000D03*
X146650000Y-130550000D03*
X152650000Y-130550000D03*
X151650000Y-130550000D03*
X150650000Y-130550000D03*
X149650000Y-130550000D03*
X148650000Y-130550000D03*
X143650000Y-130550000D03*
X142650000Y-130550000D03*
X141650000Y-130550000D03*
X140650000Y-130550000D03*
X139650000Y-130550000D03*
X138650000Y-130550000D03*
X137650000Y-130550000D03*
X136650000Y-130550000D03*
X135650000Y-130550000D03*
X134650000Y-130550000D03*
X133650000Y-130550000D03*
X153650000Y-130550000D03*
X154650000Y-130550000D03*
X155650000Y-130550000D03*
X156650000Y-130550000D03*
X157650000Y-130550000D03*
X158650000Y-130550000D03*
X159650000Y-130550000D03*
X160650000Y-130550000D03*
X161650000Y-130550000D03*
X162650000Y-130550000D03*
X163650000Y-130550000D03*
X164650000Y-130550000D03*
X165650000Y-130550000D03*
X166650000Y-130550000D03*
X167650000Y-130550000D03*
X168650000Y-130550000D03*
X169650000Y-130550000D03*
X170650000Y-130550000D03*
X171650000Y-130550000D03*
X172650000Y-130550000D03*
X173650000Y-130550000D03*
X174650000Y-130550000D03*
X175650000Y-130550000D03*
X176650000Y-130550000D03*
X177650000Y-130550000D03*
X178650000Y-130550000D03*
X179650000Y-130550000D03*
X180650000Y-130550000D03*
X181650000Y-130550000D03*
D11*
X182650000Y-130000000D03*
D10*
X183650000Y-130550000D03*
D12*
X95500000Y-70739000D03*
D13*
X95500000Y-124650001D03*
D14*
X183350000Y-115020000D03*
X182550000Y-115020000D03*
X181750000Y-115020000D03*
X180950000Y-115020000D03*
X180150000Y-115020000D03*
X179350000Y-115020000D03*
X178550000Y-115020000D03*
X177750000Y-115020000D03*
X176950000Y-115020000D03*
X176150000Y-115020000D03*
X175350000Y-115020000D03*
X174550000Y-115020000D03*
X173750000Y-115020000D03*
X172950000Y-115020000D03*
X172150000Y-115020000D03*
X171350000Y-115020000D03*
X170550000Y-115020000D03*
X169750000Y-115020000D03*
X168950000Y-115020000D03*
X168150000Y-115020000D03*
X167350000Y-115020000D03*
X166550000Y-115020000D03*
X165750000Y-115020000D03*
X164950000Y-115020000D03*
X164150000Y-115020000D03*
X163350000Y-115020000D03*
X162550000Y-115020000D03*
X161750000Y-115020000D03*
X160950000Y-115020000D03*
X160150000Y-115020000D03*
X159350000Y-115020000D03*
X158550000Y-115020000D03*
X157750000Y-115020000D03*
X156950000Y-115020000D03*
X156150000Y-115020000D03*
X155350000Y-115020000D03*
X154550000Y-115020000D03*
X153750000Y-115020000D03*
X152950000Y-115020000D03*
X152150000Y-115020000D03*
X151350000Y-115020000D03*
X150550000Y-115020000D03*
X149750000Y-115020000D03*
X148950000Y-115020000D03*
X148150000Y-115020000D03*
X147350000Y-115020000D03*
X146550000Y-115020000D03*
X145750000Y-115020000D03*
X144950000Y-115020000D03*
X144150000Y-115020000D03*
X143350000Y-115020000D03*
X142550000Y-115020000D03*
X141750000Y-115020000D03*
X140950000Y-115020000D03*
X140150000Y-115020000D03*
X139350000Y-115020000D03*
X138550000Y-115020000D03*
X137750000Y-115020000D03*
X136950000Y-115020000D03*
X136150000Y-115020000D03*
X183350000Y-119820000D03*
X182550000Y-119820000D03*
X181750000Y-119820000D03*
X180950000Y-119820000D03*
X180150000Y-119820000D03*
X179350000Y-119820000D03*
X178550000Y-119820000D03*
X177750000Y-119820000D03*
X176950000Y-119820000D03*
X176150000Y-119820000D03*
X175350000Y-119820000D03*
X174550000Y-119820000D03*
X173750000Y-119820000D03*
X172950000Y-119820000D03*
X172150000Y-119820000D03*
X171350000Y-119820000D03*
X170550000Y-119820000D03*
X169750000Y-119820000D03*
X168950000Y-119820000D03*
X168150000Y-119820000D03*
X167350000Y-119820000D03*
X166550000Y-119820000D03*
X165750000Y-119820000D03*
X164950000Y-119820000D03*
X164150000Y-119820000D03*
X163350000Y-119820000D03*
X162550000Y-119820000D03*
X161750000Y-119820000D03*
X160950000Y-119820000D03*
X160150000Y-119820000D03*
X159350000Y-119820000D03*
X158550000Y-119820000D03*
X157750000Y-119820000D03*
X156950000Y-119820000D03*
X156150000Y-119820000D03*
X155350000Y-119820000D03*
X154550000Y-119820000D03*
X153750000Y-119820000D03*
X152950000Y-119820000D03*
X152150000Y-119820000D03*
X151350000Y-119820000D03*
X150550000Y-119820000D03*
X149750000Y-119820000D03*
X148950000Y-119820000D03*
X148150000Y-119820000D03*
X147350000Y-119820000D03*
X146550000Y-119820000D03*
X145750000Y-119820000D03*
X144950000Y-119820000D03*
X144150000Y-119820000D03*
X143350000Y-119820000D03*
X142550000Y-119820000D03*
X141750000Y-119820000D03*
X140950000Y-119820000D03*
X140150000Y-119820000D03*
X139350000Y-119820000D03*
X138550000Y-119820000D03*
X137750000Y-119820000D03*
X136950000Y-119820000D03*
D15*
X192250000Y-118220000D03*
X192250000Y-62620000D03*
X149750000Y-62620000D03*
D14*
X136150000Y-119820000D03*
D15*
X127250000Y-118220000D03*
D16*
X124130000Y-59080000D03*
D17*
X126670000Y-59080000D03*
D16*
X108130000Y-59080000D03*
D17*
X110670000Y-59080000D03*
D18*
X140405000Y-86530000D03*
X137755000Y-86530000D03*
D19*
X126598000Y-76454000D03*
D20*
X127868000Y-76454000D03*
X127868000Y-73914000D03*
D19*
X126598000Y-73914000D03*
D20*
X127868000Y-66294000D03*
D19*
X126598000Y-63754000D03*
X126598000Y-66294000D03*
D20*
X127868000Y-63754000D03*
X107548000Y-66294000D03*
D19*
X108818000Y-66294000D03*
D20*
X107548000Y-63754000D03*
D19*
X108818000Y-63754000D03*
D20*
X107548000Y-76454000D03*
D19*
X108818000Y-76454000D03*
D20*
X107548000Y-73914000D03*
D19*
X108818000Y-73914000D03*
%TA.AperFunction,SMDPad,CuDef*%
G36*
G01*
X132704000Y-72126000D02*
X132704000Y-70876000D01*
G75*
G02*
X132954000Y-70626000I250000J0D01*
G01*
X133704000Y-70626000D01*
G75*
G02*
X133954000Y-70876000I0J-250000D01*
G01*
X133954000Y-72126000D01*
G75*
G02*
X133704000Y-72376000I-250000J0D01*
G01*
X132954000Y-72376000D01*
G75*
G02*
X132704000Y-72126000I0J250000D01*
G01*
G37*
%TD.AperFunction*%
%TA.AperFunction,SMDPad,CuDef*%
G36*
G01*
X135504000Y-72126000D02*
X135504000Y-70876000D01*
G75*
G02*
X135754000Y-70626000I250000J0D01*
G01*
X136504000Y-70626000D01*
G75*
G02*
X136754000Y-70876000I0J-250000D01*
G01*
X136754000Y-72126000D01*
G75*
G02*
X136504000Y-72376000I-250000J0D01*
G01*
X135754000Y-72376000D01*
G75*
G02*
X135504000Y-72126000I0J250000D01*
G01*
G37*
%TD.AperFunction*%
%TA.AperFunction,SMDPad,CuDef*%
G36*
G01*
X132704000Y-76317000D02*
X132704000Y-75067000D01*
G75*
G02*
X132954000Y-74817000I250000J0D01*
G01*
X133704000Y-74817000D01*
G75*
G02*
X133954000Y-75067000I0J-250000D01*
G01*
X133954000Y-76317000D01*
G75*
G02*
X133704000Y-76567000I-250000J0D01*
G01*
X132954000Y-76567000D01*
G75*
G02*
X132704000Y-76317000I0J250000D01*
G01*
G37*
%TD.AperFunction*%
%TA.AperFunction,SMDPad,CuDef*%
G36*
G01*
X135504000Y-76317000D02*
X135504000Y-75067000D01*
G75*
G02*
X135754000Y-74817000I250000J0D01*
G01*
X136504000Y-74817000D01*
G75*
G02*
X136754000Y-75067000I0J-250000D01*
G01*
X136754000Y-76317000D01*
G75*
G02*
X136504000Y-76567000I-250000J0D01*
G01*
X135754000Y-76567000D01*
G75*
G02*
X135504000Y-76317000I0J250000D01*
G01*
G37*
%TD.AperFunction*%
%TA.AperFunction,SMDPad,CuDef*%
G36*
G01*
X135243000Y-66761000D02*
X133193000Y-66761000D01*
G75*
G02*
X132943000Y-66511000I0J250000D01*
G01*
X132943000Y-64936000D01*
G75*
G02*
X133193000Y-64686000I250000J0D01*
G01*
X135243000Y-64686000D01*
G75*
G02*
X135493000Y-64936000I0J-250000D01*
G01*
X135493000Y-66511000D01*
G75*
G02*
X135243000Y-66761000I-250000J0D01*
G01*
G37*
%TD.AperFunction*%
%TA.AperFunction,SMDPad,CuDef*%
G36*
G01*
X135243000Y-60536000D02*
X133193000Y-60536000D01*
G75*
G02*
X132943000Y-60286000I0J250000D01*
G01*
X132943000Y-58711000D01*
G75*
G02*
X133193000Y-58461000I250000J0D01*
G01*
X135243000Y-58461000D01*
G75*
G02*
X135493000Y-58711000I0J-250000D01*
G01*
X135493000Y-60286000D01*
G75*
G02*
X135243000Y-60536000I-250000J0D01*
G01*
G37*
%TD.AperFunction*%
%TA.AperFunction,SMDPad,CuDef*%
G36*
G01*
X98116000Y-60664000D02*
X98116000Y-61764000D01*
G75*
G02*
X97866000Y-62014000I-250000J0D01*
G01*
X94866000Y-62014000D01*
G75*
G02*
X94616000Y-61764000I0J250000D01*
G01*
X94616000Y-60664000D01*
G75*
G02*
X94866000Y-60414000I250000J0D01*
G01*
X97866000Y-60414000D01*
G75*
G02*
X98116000Y-60664000I0J-250000D01*
G01*
G37*
%TD.AperFunction*%
%TA.AperFunction,SMDPad,CuDef*%
G36*
G01*
X103716000Y-60664000D02*
X103716000Y-61764000D01*
G75*
G02*
X103466000Y-62014000I-250000J0D01*
G01*
X100466000Y-62014000D01*
G75*
G02*
X100216000Y-61764000I0J250000D01*
G01*
X100216000Y-60664000D01*
G75*
G02*
X100466000Y-60414000I250000J0D01*
G01*
X103466000Y-60414000D01*
G75*
G02*
X103716000Y-60664000I0J-250000D01*
G01*
G37*
%TD.AperFunction*%
D21*
X136984000Y-105796000D03*
X136984000Y-107026000D03*
X135714000Y-108296000D03*
X136984000Y-108296000D03*
X138254000Y-108296000D03*
X138254000Y-105796000D03*
X135714000Y-105796000D03*
X135714000Y-107026000D03*
X138254000Y-107026000D03*
X134716000Y-87274000D03*
X135986000Y-86004000D03*
X134716000Y-86004000D03*
X133446000Y-86004000D03*
X133446000Y-87274000D03*
X135986000Y-87274000D03*
X135960000Y-122560000D03*
X136400000Y-123650000D03*
X135250000Y-123650000D03*
X135630000Y-124770000D03*
X134580000Y-124770000D03*
X134600000Y-125560000D03*
X134630000Y-127300000D03*
X134610000Y-126430000D03*
X135620000Y-125930000D03*
X135630000Y-126800000D03*
X135650000Y-127670000D03*
X137150000Y-122590000D03*
D22*
X183560000Y-127520000D03*
X183560000Y-126640000D03*
D21*
X153000000Y-113250000D03*
X153700000Y-113250000D03*
X154600000Y-118150000D03*
X155300000Y-118150000D03*
X151400000Y-118000000D03*
X152100000Y-118000000D03*
X179560000Y-118110000D03*
X181540000Y-118110000D03*
X159140000Y-118010000D03*
X160360000Y-118060000D03*
X162340000Y-118060000D03*
X163560000Y-118060000D03*
X165540000Y-118060000D03*
X166760000Y-118110000D03*
X168740000Y-118110000D03*
X169960000Y-118110000D03*
X171940000Y-118110000D03*
X173160000Y-118110000D03*
X175140000Y-118110000D03*
X176360000Y-118110000D03*
X178340000Y-118110000D03*
D22*
X147800000Y-123300000D03*
X149200000Y-124800000D03*
D21*
X137500000Y-75700000D03*
X138300000Y-75700000D03*
X137500000Y-71500000D03*
X138300000Y-71500000D03*
X93800000Y-61200000D03*
X92900000Y-61200000D03*
D22*
X157500000Y-121730000D03*
X181160000Y-127520000D03*
X181160000Y-126640000D03*
X167140000Y-127550000D03*
X167140000Y-126670000D03*
X147030000Y-127600000D03*
X147030000Y-126720000D03*
X160700000Y-121730000D03*
X160400000Y-122400000D03*
X162300000Y-122400000D03*
X162000000Y-121730000D03*
X163900000Y-121730000D03*
X163600000Y-122780000D03*
X165500000Y-122780000D03*
X165200000Y-121730000D03*
X167100000Y-121730000D03*
X166800000Y-122770000D03*
X168700000Y-122770000D03*
X168400000Y-121720000D03*
X170300000Y-121720000D03*
X170000000Y-122760000D03*
X171900000Y-122760000D03*
X171600000Y-121740000D03*
X173500000Y-121740000D03*
X173200000Y-122770000D03*
X175100000Y-122770000D03*
X174800000Y-121730000D03*
X176700000Y-121730000D03*
X176400000Y-122790000D03*
X178300000Y-122790000D03*
X178000000Y-121730000D03*
X179900000Y-121730000D03*
X179600000Y-122770000D03*
X181500000Y-122770000D03*
X181200000Y-121730000D03*
X183100000Y-121730000D03*
X157160000Y-117210000D03*
X159140000Y-117210000D03*
X160360000Y-117220000D03*
X162340000Y-117220000D03*
X163560000Y-117210000D03*
X165540000Y-117210000D03*
X166760000Y-117210000D03*
X168740000Y-117210000D03*
X169960000Y-117220000D03*
X171940000Y-117220000D03*
X173160000Y-117220000D03*
X175140000Y-117220000D03*
X176360000Y-117190000D03*
X178340000Y-117190000D03*
X179560000Y-117210000D03*
X181540000Y-117210000D03*
X159100000Y-122400000D03*
X177150000Y-127490000D03*
X177150000Y-126610000D03*
X179180000Y-126630000D03*
X179190000Y-127480000D03*
X173140000Y-127510000D03*
X175170000Y-126650000D03*
X175180000Y-127500000D03*
X173140000Y-126630000D03*
X169130000Y-127550000D03*
X171160000Y-126690000D03*
X171170000Y-127540000D03*
X169130000Y-126670000D03*
X163140000Y-127560000D03*
X165170000Y-126700000D03*
X165180000Y-127550000D03*
X163140000Y-126680000D03*
X159140000Y-127570000D03*
X161170000Y-126710000D03*
X161180000Y-127560000D03*
X159140000Y-126690000D03*
X155140000Y-127570000D03*
X157170000Y-126710000D03*
X157180000Y-127560000D03*
X155140000Y-126690000D03*
X150140000Y-127600000D03*
X152170000Y-126740000D03*
X152180000Y-127590000D03*
X150140000Y-126720000D03*
D21*
X115228000Y-65240000D03*
X117768000Y-65240000D03*
X120308000Y-65240000D03*
X115228000Y-67780000D03*
X117768000Y-67780000D03*
X120308000Y-67780000D03*
X115228000Y-70320000D03*
X117768000Y-70320000D03*
X120308000Y-70320000D03*
X115228000Y-72860000D03*
X117768000Y-72860000D03*
X120308000Y-72860000D03*
X115228000Y-75400000D03*
X117768000Y-75400000D03*
X120308000Y-75400000D03*
D22*
X157160000Y-122400000D03*
X158800000Y-121730000D03*
D21*
X92000000Y-61200000D03*
X139100000Y-71500000D03*
X139100000Y-75700000D03*
X136700000Y-127300000D03*
X139600000Y-127400000D03*
X139700000Y-121700000D03*
X142600000Y-121700000D03*
X141000000Y-113200000D03*
X141800000Y-113200000D03*
X145800000Y-113100000D03*
X150600000Y-113100000D03*
X156200000Y-113200000D03*
X156900000Y-113200000D03*
X159400000Y-113200000D03*
X160100000Y-113200000D03*
X162600000Y-113200000D03*
X163300000Y-113200000D03*
X165800000Y-113200000D03*
X166500000Y-113200000D03*
X169000000Y-113200000D03*
X169700000Y-113200000D03*
X172200000Y-113200000D03*
X172900000Y-113200000D03*
X176100000Y-113200000D03*
X175400000Y-113200000D03*
X178600000Y-113300000D03*
X179300000Y-113300000D03*
X181800000Y-113300000D03*
X182500000Y-113300000D03*
X183050000Y-118150000D03*
D22*
X157160000Y-118010000D03*
D21*
X144010000Y-116930000D03*
X145250000Y-117970000D03*
X143510000Y-117940000D03*
X144380000Y-117950000D03*
X144880000Y-116950000D03*
X140920000Y-122840000D03*
X140920000Y-123750000D03*
X140930000Y-124630000D03*
X140620000Y-125540000D03*
X140630000Y-126410000D03*
X141650000Y-126780000D03*
X141670000Y-127650000D03*
X140650000Y-127280000D03*
X141640000Y-125910000D03*
X143140000Y-116920000D03*
X144570152Y-123570152D03*
X148900000Y-117000000D03*
X146000000Y-123600000D03*
D22*
X148694001Y-124264001D03*
X148285999Y-123855999D03*
X168038500Y-117210000D03*
X168038500Y-122770000D03*
X167461500Y-117210000D03*
X167461500Y-122770000D03*
X164838500Y-117210000D03*
X164838500Y-122770000D03*
X164261500Y-117210000D03*
X164261500Y-122770000D03*
X161638500Y-117220000D03*
X161638500Y-122400000D03*
X161061500Y-117220000D03*
X161061500Y-122400000D03*
X157861500Y-122400000D03*
X157861500Y-117210000D03*
X158438500Y-122400000D03*
X158438500Y-117210000D03*
X169638500Y-121719647D03*
X169061500Y-121719647D03*
X166438500Y-121732508D03*
X165861500Y-121732508D03*
X163238500Y-121732766D03*
X162661500Y-121732766D03*
X159461500Y-121733502D03*
X160038500Y-121733502D03*
D21*
X183500000Y-124400000D03*
X183400000Y-117000000D03*
X133700000Y-121400000D03*
X141414000Y-105696000D03*
X142684000Y-105696000D03*
X143954000Y-105696000D03*
X142684000Y-106926000D03*
X141414000Y-108196000D03*
X142684000Y-108196000D03*
X143954000Y-108196000D03*
X143954000Y-106926000D03*
X141414000Y-106926000D03*
D23*
X136205000Y-117750000D03*
X139205000Y-117750000D03*
X138205000Y-117750000D03*
X137205000Y-117750000D03*
D21*
X142114000Y-85826000D03*
X143384000Y-85826000D03*
X142114000Y-87096000D03*
X143384000Y-87096000D03*
X144654000Y-85826000D03*
X144654000Y-87096000D03*
X130789000Y-73914000D03*
X132059000Y-73914000D03*
X130789000Y-75184000D03*
X132059000Y-75184000D03*
X130789000Y-76454000D03*
X132059000Y-76454000D03*
D22*
X182438500Y-121733502D03*
X181861500Y-121733502D03*
X179238500Y-121731922D03*
X178661500Y-121731922D03*
X170661500Y-117220000D03*
X170661500Y-122760000D03*
X171238500Y-117220000D03*
X171238500Y-122760000D03*
X173861500Y-117220000D03*
X173861500Y-122770000D03*
X174438500Y-117220000D03*
X174438500Y-122770000D03*
X177061500Y-117190000D03*
X177061500Y-122780000D03*
X177638500Y-117190000D03*
X177638500Y-122780000D03*
X180261500Y-117210000D03*
X180261500Y-122770000D03*
X180838500Y-117210000D03*
X180838500Y-122770000D03*
X172261500Y-121733013D03*
X172838500Y-121733013D03*
X175461500Y-121730046D03*
X176038500Y-121730046D03*
D24*
X137695000Y-86570000D02*
X133645000Y-86570000D01*
X108818000Y-73914000D02*
X108818000Y-76454000D01*
X108818000Y-73914000D02*
X106272000Y-73914000D01*
X101966000Y-72269000D02*
X101966000Y-61214000D01*
X108818000Y-73914000D02*
X103611000Y-73914000D01*
X103611000Y-73914000D02*
X101966000Y-72269000D01*
X104100000Y-59080000D02*
X108130000Y-59080000D01*
X101966000Y-61214000D02*
X104100000Y-59080000D01*
D25*
X135650000Y-127670000D02*
X135650000Y-130550000D01*
X134630000Y-130530000D02*
X134650000Y-130550000D01*
X134630000Y-127300000D02*
X134630000Y-130530000D01*
X133650000Y-127390000D02*
X134610000Y-126430000D01*
X133650000Y-130550000D02*
X133650000Y-127390000D01*
X136150000Y-115020000D02*
X136150000Y-112850000D01*
X136950000Y-115020000D02*
X136950000Y-113050000D01*
X137750000Y-115020000D02*
X137750000Y-112950000D01*
X153750000Y-113300000D02*
X153700000Y-113250000D01*
X153750000Y-115070000D02*
X153750000Y-113300000D01*
X153000000Y-113250000D02*
X153700000Y-113250000D01*
X152950000Y-113300000D02*
X153000000Y-113250000D01*
X152950000Y-115070000D02*
X152950000Y-113300000D01*
X155350000Y-118200000D02*
X155300000Y-118150000D01*
X155350000Y-119970000D02*
X155350000Y-118200000D01*
X154600000Y-118150000D02*
X155300000Y-118150000D01*
X154550000Y-118200000D02*
X154600000Y-118150000D01*
X154550000Y-119970000D02*
X154550000Y-118200000D01*
X152150000Y-118050000D02*
X152100000Y-118000000D01*
X152150000Y-119820000D02*
X152150000Y-118050000D01*
X151400000Y-118000000D02*
X152100000Y-118000000D01*
X151350000Y-118050000D02*
X151400000Y-118000000D01*
X151350000Y-119820000D02*
X151350000Y-118050000D01*
X179900002Y-118110000D02*
X179560000Y-118110000D01*
X180150000Y-118359998D02*
X179900002Y-118110000D01*
X180150000Y-119820000D02*
X180150000Y-118359998D01*
X181199998Y-118110000D02*
X181540000Y-118110000D01*
X180950000Y-119820000D02*
X180950000Y-118359998D01*
X180950000Y-118359998D02*
X181199998Y-118110000D01*
X176950000Y-119820000D02*
X176950000Y-118359998D01*
X176950000Y-118359998D02*
X176700002Y-118110000D01*
X176700002Y-118110000D02*
X176360000Y-118110000D01*
X177750000Y-119820000D02*
X177750000Y-118359998D01*
X177750000Y-118359998D02*
X177999998Y-118110000D01*
X177999998Y-118110000D02*
X178340000Y-118110000D01*
X183650000Y-127625000D02*
X183650000Y-130550000D01*
D26*
X133799500Y-59080000D02*
X134218000Y-59498500D01*
X126670000Y-59080000D02*
X133799500Y-59080000D01*
X92014000Y-61214000D02*
X92000000Y-61200000D01*
X96366000Y-61214000D02*
X92014000Y-61214000D01*
X139099000Y-71501000D02*
X139100000Y-71500000D01*
X136129000Y-71501000D02*
X139099000Y-71501000D01*
X139092000Y-75692000D02*
X139100000Y-75700000D01*
X136129000Y-75692000D02*
X139092000Y-75692000D01*
D25*
X136650000Y-127350000D02*
X136700000Y-127300000D01*
X136650000Y-130550000D02*
X136650000Y-127350000D01*
X139650000Y-127450000D02*
X139600000Y-127400000D01*
X139650000Y-130550000D02*
X139650000Y-127450000D01*
X147650000Y-130550000D02*
X147650000Y-127750000D01*
X150650000Y-130550000D02*
X150650000Y-127850000D01*
X152650000Y-130550000D02*
X152650000Y-127850000D01*
X181650000Y-130550000D02*
X181650000Y-127550000D01*
X178650000Y-130550000D02*
X178650000Y-127650000D01*
X177650000Y-130550000D02*
X177650000Y-127950000D01*
X174650000Y-130550000D02*
X174650000Y-127650000D01*
X173650000Y-130550000D02*
X173650000Y-127750000D01*
X170650000Y-130550000D02*
X170650000Y-127350000D01*
X169650000Y-130550000D02*
X169650000Y-127550000D01*
X166650000Y-130550000D02*
X166650000Y-127650000D01*
X163650000Y-130550000D02*
X163650000Y-127550000D01*
X160650000Y-130550000D02*
X160650000Y-127650000D01*
X159650000Y-130550000D02*
X159650000Y-127850000D01*
X155650000Y-130550000D02*
X155650000Y-127650000D01*
X156650000Y-130550000D02*
X156650000Y-127750000D01*
X139350000Y-121350000D02*
X139700000Y-121700000D01*
X139350000Y-119820000D02*
X139350000Y-121350000D01*
X140150000Y-121250000D02*
X139700000Y-121700000D01*
X140150000Y-119820000D02*
X140150000Y-121250000D01*
X141750000Y-120850000D02*
X142600000Y-121700000D01*
X141750000Y-119820000D02*
X141750000Y-120850000D01*
X142550000Y-121650000D02*
X142600000Y-121700000D01*
X142550000Y-119820000D02*
X142550000Y-121650000D01*
X141750000Y-113250000D02*
X141800000Y-113200000D01*
X141750000Y-115020000D02*
X141750000Y-113250000D01*
X140950000Y-113250000D02*
X141000000Y-113200000D01*
X140950000Y-115020000D02*
X140950000Y-113250000D01*
X139350000Y-113559998D02*
X139350000Y-115020000D01*
X139709998Y-113200000D02*
X139350000Y-113559998D01*
X141000000Y-113200000D02*
X139709998Y-113200000D01*
X138550000Y-113320000D02*
X138550000Y-115020000D01*
X138670000Y-113200000D02*
X138550000Y-113320000D01*
X141000000Y-113200000D02*
X138670000Y-113200000D01*
X141000000Y-113200000D02*
X141800000Y-113200000D01*
X145750000Y-113150000D02*
X145800000Y-113100000D01*
X145750000Y-115020000D02*
X145750000Y-113150000D01*
X150550000Y-113150000D02*
X150600000Y-113100000D01*
X150550000Y-115020000D02*
X150550000Y-113150000D01*
X156200000Y-113200000D02*
X156900000Y-113200000D01*
X156950000Y-115020000D02*
X156950000Y-113250000D01*
X156950000Y-113250000D02*
X156900000Y-113200000D01*
X156150000Y-115020000D02*
X156150000Y-113250000D01*
X156150000Y-113250000D02*
X156200000Y-113200000D01*
X159350000Y-113250000D02*
X159400000Y-113200000D01*
X159350000Y-115020000D02*
X159350000Y-113250000D01*
X160150000Y-113250000D02*
X160100000Y-113200000D01*
X160150000Y-115020000D02*
X160150000Y-113250000D01*
X159400000Y-113200000D02*
X160100000Y-113200000D01*
X162550000Y-113250000D02*
X162600000Y-113200000D01*
X162550000Y-115020000D02*
X162550000Y-113250000D01*
X163350000Y-113250000D02*
X163300000Y-113200000D01*
X163350000Y-115020000D02*
X163350000Y-113250000D01*
X162600000Y-113200000D02*
X163300000Y-113200000D01*
X165750000Y-113250000D02*
X165800000Y-113200000D01*
X165750000Y-115020000D02*
X165750000Y-113250000D01*
X166550000Y-113250000D02*
X166500000Y-113200000D01*
X166550000Y-115020000D02*
X166550000Y-113250000D01*
X165800000Y-113200000D02*
X166500000Y-113200000D01*
X168950000Y-113250000D02*
X169000000Y-113200000D01*
X168950000Y-115020000D02*
X168950000Y-113250000D01*
X169750000Y-113250000D02*
X169700000Y-113200000D01*
X169750000Y-115020000D02*
X169750000Y-113250000D01*
X172150000Y-113250000D02*
X172200000Y-113200000D01*
X172150000Y-115020000D02*
X172150000Y-113250000D01*
X172950000Y-113250000D02*
X172900000Y-113200000D01*
X172950000Y-115020000D02*
X172950000Y-113250000D01*
X176150000Y-113250000D02*
X176100000Y-113200000D01*
X176150000Y-115020000D02*
X176150000Y-113250000D01*
X175350000Y-113250000D02*
X175400000Y-113200000D01*
X175350000Y-115020000D02*
X175350000Y-113250000D01*
X178550000Y-113350000D02*
X178600000Y-113300000D01*
X178550000Y-115020000D02*
X178550000Y-113350000D01*
X179350000Y-113350000D02*
X179300000Y-113300000D01*
X179350000Y-115020000D02*
X179350000Y-113350000D01*
X181750000Y-113350000D02*
X181800000Y-113300000D01*
X181750000Y-115020000D02*
X181750000Y-113350000D01*
X182550000Y-113350000D02*
X182500000Y-113300000D01*
X182550000Y-115020000D02*
X182550000Y-113350000D01*
X182500000Y-113300000D02*
X181800000Y-113300000D01*
X179300000Y-113300000D02*
X178600000Y-113300000D01*
X176100000Y-113200000D02*
X175400000Y-113200000D01*
X172900000Y-113200000D02*
X172200000Y-113200000D01*
X169700000Y-113200000D02*
X169000000Y-113200000D01*
X158899998Y-118010000D02*
X159140000Y-118010000D01*
X158550000Y-118359998D02*
X158899998Y-118010000D01*
X158550000Y-119820000D02*
X158550000Y-118359998D01*
X160650002Y-118060000D02*
X160360000Y-118060000D01*
X160950000Y-118359998D02*
X160650002Y-118060000D01*
X160950000Y-119820000D02*
X160950000Y-118359998D01*
X162049998Y-118060000D02*
X162340000Y-118060000D01*
X161750000Y-118359998D02*
X162049998Y-118060000D01*
X161750000Y-119820000D02*
X161750000Y-118359998D01*
X163850002Y-118060000D02*
X163560000Y-118060000D01*
X164150000Y-118359998D02*
X163850002Y-118060000D01*
X164150000Y-119820000D02*
X164150000Y-118359998D01*
X165249998Y-118060000D02*
X165540000Y-118060000D01*
X164950000Y-118359998D02*
X165249998Y-118060000D01*
X164950000Y-119820000D02*
X164950000Y-118359998D01*
X167100002Y-118110000D02*
X166760000Y-118110000D01*
X167350000Y-118359998D02*
X167100002Y-118110000D01*
X167350000Y-119820000D02*
X167350000Y-118359998D01*
X168680001Y-118169999D02*
X168740000Y-118110000D01*
X168339999Y-118169999D02*
X168680001Y-118169999D01*
X168150000Y-118359998D02*
X168339999Y-118169999D01*
X168150000Y-119820000D02*
X168150000Y-118359998D01*
X170300002Y-118110000D02*
X169960000Y-118110000D01*
X170550000Y-118359998D02*
X170300002Y-118110000D01*
X170550000Y-119820000D02*
X170550000Y-118359998D01*
X171599998Y-118110000D02*
X171940000Y-118110000D01*
X171350000Y-118359998D02*
X171599998Y-118110000D01*
X171350000Y-119820000D02*
X171350000Y-118359998D01*
X173500002Y-118110000D02*
X173160000Y-118110000D01*
X173750000Y-118359998D02*
X173500002Y-118110000D01*
X173750000Y-119820000D02*
X173750000Y-118359998D01*
X174799998Y-118110000D02*
X175140000Y-118110000D01*
X174550000Y-118359998D02*
X174799998Y-118110000D01*
X174550000Y-119820000D02*
X174550000Y-118359998D01*
X183350000Y-118450000D02*
X183050000Y-118150000D01*
X183350000Y-119820000D02*
X183350000Y-118450000D01*
X157400002Y-118010000D02*
X157160000Y-118010000D01*
X157750000Y-118359998D02*
X157400002Y-118010000D01*
X157750000Y-119820000D02*
X157750000Y-118359998D01*
X140650000Y-130550000D02*
X140650000Y-127280000D01*
D27*
X140950000Y-121250000D02*
X142650000Y-122950000D01*
X140950000Y-119820000D02*
X140950000Y-121250000D01*
X140950000Y-118239000D02*
X140950000Y-119820000D01*
X140150000Y-117439000D02*
X140950000Y-118239000D01*
X140150000Y-115020000D02*
X140150000Y-117439000D01*
D25*
X142650000Y-130550000D02*
X142650000Y-127050000D01*
D28*
X143650000Y-130550000D02*
X143650000Y-124490304D01*
X143650000Y-124490304D02*
X144570152Y-123570152D01*
D29*
X148950000Y-115888602D02*
X148950000Y-114650000D01*
X148950000Y-116950000D02*
X148900000Y-117000000D01*
X148950000Y-115020000D02*
X148950000Y-116950000D01*
X146000000Y-123600000D02*
X146000000Y-123000000D01*
X146000000Y-123000000D02*
X146800000Y-122200000D01*
X148950000Y-121274000D02*
X148950000Y-119820000D01*
X148024000Y-122200000D02*
X148950000Y-121274000D01*
X146800000Y-122200000D02*
X148024000Y-122200000D01*
D30*
X156690335Y-121018129D02*
X155658129Y-122050335D01*
X156950000Y-119820000D02*
X156690335Y-120079665D01*
X156690335Y-120079665D02*
X156690335Y-121018129D01*
X155658129Y-122050335D02*
X152768129Y-122050335D01*
X152768129Y-122050335D02*
X150998129Y-123820335D01*
X148694001Y-124054463D02*
X148928129Y-123820335D01*
X148694001Y-124264001D02*
X148694001Y-124054463D01*
X148928129Y-123820335D02*
X150998129Y-123820335D01*
X156690335Y-118610335D02*
X156690335Y-118251871D01*
X156950000Y-118870000D02*
X156690335Y-118610335D01*
X156950000Y-119820000D02*
X156950000Y-118870000D01*
X155090335Y-116651871D02*
X155090335Y-116229665D01*
X155350000Y-115970000D02*
X155350000Y-115020000D01*
X156690335Y-118251871D02*
X155090335Y-116651871D01*
X155090335Y-116229665D02*
X155350000Y-115970000D01*
X156150000Y-119820000D02*
X156409665Y-120079665D01*
X156409665Y-120079665D02*
X156409665Y-120901871D01*
X156409665Y-120901871D02*
X155541871Y-121769665D01*
X155541871Y-121769665D02*
X152651871Y-121769665D01*
X152651871Y-121769665D02*
X150881871Y-123539665D01*
X148811871Y-123539665D02*
X150881871Y-123539665D01*
X148495537Y-123855999D02*
X148811871Y-123539665D01*
X148285999Y-123855999D02*
X148495537Y-123855999D01*
X156409665Y-118610335D02*
X156409665Y-118368129D01*
X156150000Y-118870000D02*
X156409665Y-118610335D01*
X156150000Y-119820000D02*
X156150000Y-118870000D01*
X154550000Y-115970000D02*
X154550000Y-115020000D01*
X154809665Y-116229665D02*
X154550000Y-115970000D01*
X154809665Y-116768129D02*
X154809665Y-116229665D01*
X156409665Y-118368129D02*
X154809665Y-116768129D01*
X167890335Y-117061835D02*
X168038500Y-117210000D01*
X167890335Y-116229665D02*
X167890335Y-117061835D01*
X168150000Y-115970000D02*
X167890335Y-116229665D01*
X168150000Y-115020000D02*
X168150000Y-115970000D01*
X162650000Y-128750000D02*
X162650000Y-130550000D01*
X162290335Y-128390335D02*
X162650000Y-128750000D01*
X162290335Y-126058129D02*
X162290335Y-128390335D01*
X162948129Y-125400335D02*
X162290335Y-126058129D01*
X167890335Y-123078129D02*
X165568129Y-125400335D01*
X165568129Y-125400335D02*
X162948129Y-125400335D01*
X168038500Y-122770000D02*
X167890335Y-122918165D01*
X167890335Y-122918165D02*
X167890335Y-123078129D01*
X167609665Y-117061835D02*
X167461500Y-117210000D01*
X167609665Y-116229665D02*
X167609665Y-117061835D01*
X167350000Y-115970000D02*
X167609665Y-116229665D01*
X167350000Y-115020000D02*
X167350000Y-115970000D01*
X165451871Y-125119665D02*
X162831871Y-125119665D01*
X167461500Y-122770000D02*
X167609665Y-122918165D01*
X167609665Y-122961871D02*
X165451871Y-125119665D01*
X162831871Y-125119665D02*
X162009665Y-125941871D01*
X167609665Y-122918165D02*
X167609665Y-122961871D01*
X162009665Y-128390335D02*
X161650000Y-128750000D01*
X162009665Y-125941871D02*
X162009665Y-128390335D01*
X161650000Y-128750000D02*
X161650000Y-130550000D01*
X164690335Y-116229665D02*
X164690335Y-117061835D01*
X164690335Y-117061835D02*
X164838500Y-117210000D01*
X164950000Y-115020000D02*
X164950000Y-115970000D01*
X164950000Y-115970000D02*
X164690335Y-116229665D01*
X158290335Y-126178129D02*
X158290335Y-128390335D01*
X161938129Y-124240335D02*
X160738129Y-125440335D01*
X163938129Y-124240335D02*
X161938129Y-124240335D01*
X160738129Y-125440335D02*
X159028129Y-125440335D01*
X158650000Y-128750000D02*
X158650000Y-130550000D01*
X164690335Y-123488129D02*
X163938129Y-124240335D01*
X159028129Y-125440335D02*
X158290335Y-126178129D01*
X164838500Y-122770000D02*
X164690335Y-122918165D01*
X158290335Y-128390335D02*
X158650000Y-128750000D01*
X164690335Y-122918165D02*
X164690335Y-123488129D01*
X164409665Y-117061835D02*
X164261500Y-117210000D01*
X164409665Y-116229665D02*
X164409665Y-117061835D01*
X164150000Y-115970000D02*
X164409665Y-116229665D01*
X164150000Y-115020000D02*
X164150000Y-115970000D01*
X163821871Y-123959665D02*
X161821871Y-123959665D01*
X164261500Y-122770000D02*
X164409665Y-122918165D01*
X158009665Y-128390335D02*
X157650000Y-128750000D01*
X164409665Y-122918165D02*
X164409665Y-123371871D01*
X160621871Y-125159665D02*
X158911871Y-125159665D01*
X161821871Y-123959665D02*
X160621871Y-125159665D01*
X158911871Y-125159665D02*
X158009665Y-126061871D01*
X158009665Y-126061871D02*
X158009665Y-128390335D01*
X164409665Y-123371871D02*
X163821871Y-123959665D01*
X157650000Y-128750000D02*
X157650000Y-130550000D01*
X161490335Y-117071835D02*
X161638500Y-117220000D01*
X161490335Y-116229665D02*
X161490335Y-117071835D01*
X161750000Y-115970000D02*
X161490335Y-116229665D01*
X161750000Y-115020000D02*
X161750000Y-115970000D01*
X154650000Y-128750000D02*
X154650000Y-130550000D01*
X154290335Y-126068129D02*
X154290335Y-128390335D01*
X161638500Y-122400000D02*
X161490335Y-122548165D01*
X161490335Y-122698129D02*
X159808129Y-124380335D01*
X159808129Y-124380335D02*
X155978129Y-124380335D01*
X161490335Y-122548165D02*
X161490335Y-122698129D01*
X154290335Y-128390335D02*
X154650000Y-128750000D01*
X155978129Y-124380335D02*
X154290335Y-126068129D01*
X161209665Y-117071835D02*
X161061500Y-117220000D01*
X160950000Y-115970000D02*
X161209665Y-116229665D01*
X160950000Y-115020000D02*
X160950000Y-115970000D01*
X161209665Y-116229665D02*
X161209665Y-117071835D01*
X161209665Y-122548165D02*
X161209665Y-122581871D01*
X154009665Y-125951871D02*
X154009665Y-128390335D01*
X161209665Y-122581871D02*
X159691871Y-124099665D01*
X159691871Y-124099665D02*
X155861871Y-124099665D01*
X155861871Y-124099665D02*
X154009665Y-125951871D01*
X154009665Y-128390335D02*
X153650000Y-128750000D01*
X153650000Y-128750000D02*
X153650000Y-130550000D01*
X161061500Y-122400000D02*
X161209665Y-122548165D01*
X158009665Y-117061835D02*
X157861500Y-117210000D01*
X158009665Y-116229665D02*
X158009665Y-117061835D01*
X157750000Y-115020000D02*
X157750000Y-115970000D01*
X157750000Y-115970000D02*
X158009665Y-116229665D01*
X157861500Y-122400000D02*
X158009665Y-122548165D01*
X158009665Y-122548165D02*
X158009665Y-122601871D01*
X158009665Y-122601871D02*
X157701871Y-122909665D01*
X157701871Y-122909665D02*
X154871871Y-122909665D01*
X154871871Y-122909665D02*
X152821871Y-124959665D01*
X149009665Y-128390335D02*
X148650000Y-128750000D01*
X152821871Y-124959665D02*
X149911871Y-124959665D01*
X149911871Y-124959665D02*
X149009665Y-125861871D01*
X149009665Y-125861871D02*
X149009665Y-128390335D01*
X148650000Y-128750000D02*
X148650000Y-130550000D01*
X158290335Y-117061835D02*
X158438500Y-117210000D01*
X158290335Y-116229665D02*
X158290335Y-117061835D01*
X158550000Y-115020000D02*
X158550000Y-115970000D01*
X158550000Y-115970000D02*
X158290335Y-116229665D01*
X149650000Y-128750000D02*
X149650000Y-130550000D01*
X149290335Y-125978129D02*
X149290335Y-128390335D01*
X152938129Y-125240335D02*
X150028129Y-125240335D01*
X154988129Y-123190335D02*
X152938129Y-125240335D01*
X157818129Y-123190335D02*
X154988129Y-123190335D01*
X150028129Y-125240335D02*
X149290335Y-125978129D01*
X158290335Y-122548165D02*
X158290335Y-122718129D01*
X149290335Y-128390335D02*
X149650000Y-128750000D01*
X158290335Y-122718129D02*
X157818129Y-123190335D01*
X158438500Y-122400000D02*
X158290335Y-122548165D01*
X169490335Y-121029665D02*
X169490335Y-121571482D01*
X169750000Y-120770000D02*
X169490335Y-121029665D01*
X169490335Y-121571482D02*
X169638500Y-121719647D01*
X169750000Y-119820000D02*
X169750000Y-120770000D01*
X169209665Y-121571482D02*
X169061500Y-121719647D01*
X169209665Y-121029665D02*
X169209665Y-121571482D01*
X168950000Y-120770000D02*
X169209665Y-121029665D01*
X168950000Y-119820000D02*
X168950000Y-120770000D01*
X166290335Y-121584343D02*
X166438500Y-121732508D01*
X166550000Y-119820000D02*
X166550000Y-120770000D01*
X166550000Y-120770000D02*
X166290335Y-121029665D01*
X166290335Y-121029665D02*
X166290335Y-121584343D01*
X166009665Y-121584343D02*
X165861500Y-121732508D01*
X165750000Y-120770000D02*
X166009665Y-121029665D01*
X165750000Y-119820000D02*
X165750000Y-120770000D01*
X166009665Y-121029665D02*
X166009665Y-121584343D01*
X163090335Y-121584601D02*
X163238500Y-121732766D01*
X163350000Y-119820000D02*
X163350000Y-120770000D01*
X163350000Y-120770000D02*
X163090335Y-121029665D01*
X163090335Y-121029665D02*
X163090335Y-121584601D01*
X162809665Y-121584601D02*
X162661500Y-121732766D01*
X162809665Y-121029665D02*
X162809665Y-121584601D01*
X162550000Y-120770000D02*
X162809665Y-121029665D01*
X162550000Y-119820000D02*
X162550000Y-120770000D01*
X159609665Y-121585337D02*
X159461500Y-121733502D01*
X159609665Y-121029665D02*
X159609665Y-121585337D01*
X159350000Y-120770000D02*
X159609665Y-121029665D01*
X159350000Y-119820000D02*
X159350000Y-120770000D01*
X159890335Y-121585337D02*
X160038500Y-121733502D01*
X160150000Y-120770000D02*
X159890335Y-121029665D01*
X159890335Y-121029665D02*
X159890335Y-121585337D01*
X160150000Y-119820000D02*
X160150000Y-120770000D01*
D29*
X183350000Y-115020000D02*
X183350000Y-116950000D01*
X183350000Y-116950000D02*
X183400000Y-117000000D01*
X182650000Y-130000000D02*
X182650000Y-125250000D01*
X182650000Y-125250000D02*
X183500000Y-124400000D01*
X135280000Y-119820000D02*
X136150000Y-119820000D01*
X133700000Y-121400000D02*
X135280000Y-119820000D01*
D25*
X136930000Y-118025000D02*
X137205000Y-117750000D01*
X136930000Y-119900000D02*
X136930000Y-118025000D01*
X138530000Y-118075000D02*
X138205000Y-117750000D01*
X137730000Y-118225000D02*
X138205000Y-117750000D01*
X138530000Y-119900000D02*
X138530000Y-118075000D01*
X137730000Y-119900000D02*
X137730000Y-118225000D01*
D24*
X133329000Y-66612500D02*
X134218000Y-65723500D01*
X133075000Y-73914000D02*
X133329000Y-73660000D01*
X133329000Y-75692000D02*
X133329000Y-73660000D01*
X133329000Y-73660000D02*
X133329000Y-66612500D01*
X132567000Y-76454000D02*
X133329000Y-75692000D01*
X126598000Y-76454000D02*
X132567000Y-76454000D01*
X126598000Y-76454000D02*
X126598000Y-73914000D01*
X140405000Y-86530000D02*
X144455000Y-86530000D01*
X126598000Y-73914000D02*
X133075000Y-73914000D01*
D30*
X182290335Y-121585337D02*
X182438500Y-121733502D01*
X182550000Y-120770000D02*
X182290335Y-121029665D01*
X182290335Y-121029665D02*
X182290335Y-121585337D01*
X182550000Y-119820000D02*
X182550000Y-120770000D01*
X182009665Y-121585337D02*
X181861500Y-121733502D01*
X181750000Y-120770000D02*
X182009665Y-121029665D01*
X181750000Y-119820000D02*
X181750000Y-120770000D01*
X182009665Y-121029665D02*
X182009665Y-121585337D01*
X179090335Y-121583757D02*
X179238500Y-121731922D01*
X179350000Y-120770000D02*
X179090335Y-121029665D01*
X179090335Y-121029665D02*
X179090335Y-121583757D01*
X179350000Y-119820000D02*
X179350000Y-120770000D01*
X178809665Y-121583757D02*
X178661500Y-121731922D01*
X178809665Y-121029665D02*
X178809665Y-121583757D01*
X178550000Y-120770000D02*
X178809665Y-121029665D01*
X178550000Y-119820000D02*
X178550000Y-120770000D01*
X170809665Y-117071835D02*
X170661500Y-117220000D01*
X170809665Y-116229665D02*
X170809665Y-117071835D01*
X170550000Y-115970000D02*
X170809665Y-116229665D01*
X170550000Y-115020000D02*
X170550000Y-115970000D01*
X167650000Y-128750000D02*
X167650000Y-130550000D01*
X168009665Y-128390335D02*
X167650000Y-128750000D01*
X168009665Y-126031871D02*
X168009665Y-128390335D01*
X170809665Y-123231871D02*
X168009665Y-126031871D01*
X170809665Y-122908165D02*
X170809665Y-123231871D01*
X170661500Y-122760000D02*
X170809665Y-122908165D01*
X171350000Y-115020000D02*
X171350000Y-115970000D01*
X171090335Y-116229665D02*
X171090335Y-117071835D01*
X171350000Y-115970000D02*
X171090335Y-116229665D01*
X171090335Y-117071835D02*
X171238500Y-117220000D01*
X168290335Y-128390335D02*
X168650000Y-128750000D01*
X171090335Y-123348129D02*
X168290335Y-126148129D01*
X171090335Y-122908165D02*
X171090335Y-123348129D01*
X171238500Y-122760000D02*
X171090335Y-122908165D01*
X168650000Y-128750000D02*
X168650000Y-130550000D01*
X168290335Y-126148129D02*
X168290335Y-128390335D01*
X174009665Y-117071835D02*
X173861500Y-117220000D01*
X174009665Y-116229665D02*
X174009665Y-117071835D01*
X173750000Y-115020000D02*
X173750000Y-115970000D01*
X173750000Y-115970000D02*
X174009665Y-116229665D01*
X171650000Y-128750000D02*
X171650000Y-130550000D01*
X172009665Y-125171871D02*
X172009665Y-128390335D01*
X173861500Y-122770000D02*
X174009665Y-122918165D01*
X172009665Y-128390335D02*
X171650000Y-128750000D01*
X174009665Y-123171871D02*
X172009665Y-125171871D01*
X174009665Y-122918165D02*
X174009665Y-123171871D01*
X174290335Y-117071835D02*
X174438500Y-117220000D01*
X174290335Y-116229665D02*
X174290335Y-117071835D01*
X174550000Y-115970000D02*
X174290335Y-116229665D01*
X174550000Y-115020000D02*
X174550000Y-115970000D01*
X172290335Y-128390335D02*
X172650000Y-128750000D01*
X174290335Y-123288129D02*
X172290335Y-125288129D01*
X172650000Y-128750000D02*
X172650000Y-130550000D01*
X172290335Y-125288129D02*
X172290335Y-128390335D01*
X174290335Y-122918165D02*
X174290335Y-123288129D01*
X174438500Y-122770000D02*
X174290335Y-122918165D01*
X177209665Y-117041835D02*
X177061500Y-117190000D01*
X177209665Y-116229665D02*
X177209665Y-117041835D01*
X176950000Y-115970000D02*
X177209665Y-116229665D01*
X176950000Y-115020000D02*
X176950000Y-115970000D01*
X176009665Y-128390335D02*
X175650000Y-128750000D01*
X176009665Y-125151871D02*
X176009665Y-128390335D01*
X177209665Y-123951871D02*
X176009665Y-125151871D01*
X177209665Y-122928165D02*
X177209665Y-123951871D01*
X177061500Y-122780000D02*
X177209665Y-122928165D01*
X175650000Y-128750000D02*
X175650000Y-130550000D01*
X177490335Y-116229665D02*
X177490335Y-117041835D01*
X177750000Y-115970000D02*
X177490335Y-116229665D01*
X177490335Y-117041835D02*
X177638500Y-117190000D01*
X177750000Y-115020000D02*
X177750000Y-115970000D01*
X177490335Y-124068129D02*
X176290335Y-125268129D01*
X177490335Y-122928165D02*
X177490335Y-124068129D01*
X177638500Y-122780000D02*
X177490335Y-122928165D01*
X176650000Y-128750000D02*
X176650000Y-130550000D01*
X176290335Y-128390335D02*
X176650000Y-128750000D01*
X176290335Y-125268129D02*
X176290335Y-128390335D01*
X180409665Y-117061835D02*
X180261500Y-117210000D01*
X180409665Y-116229665D02*
X180409665Y-117061835D01*
X180150000Y-115970000D02*
X180409665Y-116229665D01*
X180150000Y-115020000D02*
X180150000Y-115970000D01*
X179650000Y-128750000D02*
X179650000Y-130550000D01*
X180009665Y-124621871D02*
X180009665Y-128390335D01*
X180409665Y-124221871D02*
X180009665Y-124621871D01*
X180409665Y-122918165D02*
X180409665Y-124221871D01*
X180261500Y-122770000D02*
X180409665Y-122918165D01*
X180009665Y-128390335D02*
X179650000Y-128750000D01*
X180690335Y-117061835D02*
X180838500Y-117210000D01*
X180950000Y-115970000D02*
X180690335Y-116229665D01*
X180690335Y-116229665D02*
X180690335Y-117061835D01*
X180950000Y-115020000D02*
X180950000Y-115970000D01*
X180650000Y-128750000D02*
X180650000Y-130550000D01*
X180290335Y-128390335D02*
X180650000Y-128750000D01*
X180690335Y-122918165D02*
X180690335Y-124338129D01*
X180290335Y-124738129D02*
X180290335Y-128390335D01*
X180838500Y-122770000D02*
X180690335Y-122918165D01*
X180690335Y-124338129D02*
X180290335Y-124738129D01*
X172409665Y-121584848D02*
X172261500Y-121733013D01*
X172409665Y-121029665D02*
X172409665Y-121584848D01*
X172150000Y-120770000D02*
X172409665Y-121029665D01*
X172150000Y-119820000D02*
X172150000Y-120770000D01*
X172690335Y-121584848D02*
X172838500Y-121733013D01*
X172690335Y-121029665D02*
X172690335Y-121584848D01*
X172950000Y-119820000D02*
X172950000Y-120770000D01*
X172950000Y-120770000D02*
X172690335Y-121029665D01*
X175609665Y-121581881D02*
X175461500Y-121730046D01*
X175609665Y-121029665D02*
X175609665Y-121581881D01*
X175350000Y-120770000D02*
X175609665Y-121029665D01*
X175350000Y-119820000D02*
X175350000Y-120770000D01*
X175890335Y-121029665D02*
X175890335Y-121581881D01*
X176150000Y-120770000D02*
X175890335Y-121029665D01*
X176150000Y-119820000D02*
X176150000Y-120770000D01*
X175890335Y-121581881D02*
X176038500Y-121730046D01*
D29*
X183869000Y-126236385D02*
X183869000Y-128009394D01*
X183158000Y-128007992D01*
X183158000Y-126234983D01*
X183869000Y-126236385D01*
%TA.AperFunction,Conductor*%
D31*
G36*
X183869000Y-126236385D02*
G01*
X183869000Y-128009394D01*
X183158000Y-128007992D01*
X183158000Y-126234983D01*
X183869000Y-126236385D01*
G37*
%TD.AperFunction*%
D29*
X182142001Y-126232979D02*
X182142000Y-128005989D01*
X180748170Y-128003240D01*
X180748170Y-126230231D01*
X182142001Y-126232979D01*
%TA.AperFunction,Conductor*%
D31*
G36*
X182142001Y-126232979D02*
G01*
X182142000Y-128005989D01*
X180748170Y-128003240D01*
X180748170Y-126230231D01*
X182142001Y-126232979D01*
G37*
%TD.AperFunction*%
D29*
X179551830Y-126227872D02*
X179551831Y-128000881D01*
X176748170Y-127995353D01*
X176748170Y-126222343D01*
X179551830Y-126227872D01*
%TA.AperFunction,Conductor*%
D31*
G36*
X179551830Y-126227872D02*
G01*
X179551831Y-128000881D01*
X176748170Y-127995353D01*
X176748170Y-126222343D01*
X179551830Y-126227872D01*
G37*
%TD.AperFunction*%
D29*
X175551830Y-126219984D02*
X175551831Y-127992994D01*
X172748170Y-127987465D01*
X172748170Y-126214455D01*
X175551830Y-126219984D01*
%TA.AperFunction,Conductor*%
D31*
G36*
X175551830Y-126219984D02*
G01*
X175551831Y-127992994D01*
X172748170Y-127987465D01*
X172748170Y-126214455D01*
X175551830Y-126219984D01*
G37*
%TD.AperFunction*%
D29*
X171551830Y-126212096D02*
X171551831Y-127985106D01*
X168748170Y-127979577D01*
X168748170Y-126337770D01*
X168879114Y-126206826D01*
X171551830Y-126212096D01*
%TA.AperFunction,Conductor*%
D31*
G36*
X171551830Y-126212096D02*
G01*
X171551831Y-127985106D01*
X168748170Y-127979577D01*
X168748170Y-126337770D01*
X168879114Y-126206826D01*
X171551830Y-126212096D01*
G37*
%TD.AperFunction*%
D29*
X167551830Y-126204209D02*
X167551831Y-127977218D01*
X162748170Y-127967746D01*
X162748170Y-126247770D01*
X162801099Y-126194841D01*
X167551830Y-126204209D01*
%TA.AperFunction,Conductor*%
D31*
G36*
X167551830Y-126204209D02*
G01*
X167551831Y-127977218D01*
X162748170Y-127967746D01*
X162748170Y-126247770D01*
X162801099Y-126194841D01*
X167551830Y-126204209D01*
G37*
%TD.AperFunction*%
D29*
X161551830Y-126192377D02*
X161551831Y-127965387D01*
X158748170Y-127959859D01*
X158748170Y-126367770D01*
X158928735Y-126187205D01*
X161551830Y-126192377D01*
%TA.AperFunction,Conductor*%
D31*
G36*
X161551830Y-126192377D02*
G01*
X161551831Y-127965387D01*
X158748170Y-127959859D01*
X158748170Y-126367770D01*
X158928735Y-126187205D01*
X161551830Y-126192377D01*
G37*
%TD.AperFunction*%
D29*
X157551830Y-126184490D02*
X157551831Y-127957499D01*
X154748170Y-127951971D01*
X154748170Y-126257770D01*
X154826824Y-126179116D01*
X157551830Y-126184490D01*
%TA.AperFunction,Conductor*%
D31*
G36*
X157551830Y-126184490D02*
G01*
X157551831Y-127957499D01*
X154748170Y-127951971D01*
X154748170Y-126257770D01*
X154826824Y-126179116D01*
X157551830Y-126184490D01*
G37*
%TD.AperFunction*%
D29*
X153551830Y-126176602D02*
X153551831Y-127949612D01*
X149748170Y-127942111D01*
X149748170Y-126169102D01*
X153551830Y-126176602D01*
%TA.AperFunction,Conductor*%
D31*
G36*
X153551830Y-126176602D02*
G01*
X153551831Y-127949612D01*
X149748170Y-127942111D01*
X149748170Y-126169102D01*
X153551830Y-126176602D01*
G37*
%TD.AperFunction*%
D29*
X148551830Y-126166743D02*
X148551831Y-127939752D01*
X146531000Y-127935768D01*
X146531000Y-126528832D01*
X146528850Y-126507003D01*
X146528850Y-126494678D01*
X146528221Y-126488693D01*
X146507554Y-126304441D01*
X146499429Y-126266216D01*
X146491845Y-126227914D01*
X146490066Y-126222165D01*
X146490066Y-126222163D01*
X146490064Y-126222157D01*
X146471184Y-126162640D01*
X148551830Y-126166743D01*
%TA.AperFunction,Conductor*%
D31*
G36*
X148551830Y-126166743D02*
G01*
X148551831Y-127939752D01*
X146531000Y-127935768D01*
X146531000Y-126528832D01*
X146528850Y-126507003D01*
X146528850Y-126494678D01*
X146528221Y-126488693D01*
X146507554Y-126304441D01*
X146499429Y-126266216D01*
X146491845Y-126227914D01*
X146490066Y-126222165D01*
X146490066Y-126222163D01*
X146490064Y-126222157D01*
X146471184Y-126162640D01*
X148551830Y-126166743D01*
G37*
%TD.AperFunction*%
D29*
X132948000Y-77216000D02*
X126217000Y-77216000D01*
X126217000Y-73152000D01*
X132948000Y-73152000D01*
X132948000Y-77216000D01*
%TA.AperFunction,Conductor*%
D31*
G36*
X132948000Y-77216000D02*
G01*
X126217000Y-77216000D01*
X126217000Y-73152000D01*
X132948000Y-73152000D01*
X132948000Y-77216000D01*
G37*
%TD.AperFunction*%
D29*
X109326000Y-77216000D02*
X105824873Y-77216000D01*
X101999931Y-73152000D01*
X109326000Y-73152000D01*
X109326000Y-77216000D01*
%TA.AperFunction,Conductor*%
D31*
G36*
X109326000Y-77216000D02*
G01*
X105824873Y-77216000D01*
X101999931Y-73152000D01*
X109326000Y-73152000D01*
X109326000Y-77216000D01*
G37*
%TD.AperFunction*%
D29*
X137873000Y-122863700D02*
X136052799Y-125028263D01*
X136038721Y-125048796D01*
X136028919Y-125071682D01*
X136023770Y-125096040D01*
X136023006Y-125108784D01*
X135995588Y-127973000D01*
X133431000Y-127973000D01*
X133431000Y-125814027D01*
X133446536Y-125784961D01*
X133474040Y-125694292D01*
X133481000Y-125623626D01*
X133481000Y-124163890D01*
X134899815Y-121936780D01*
X137873000Y-121927401D01*
X137873000Y-122863700D01*
%TA.AperFunction,Conductor*%
D31*
G36*
X137873000Y-122863700D02*
G01*
X136052799Y-125028263D01*
X136038721Y-125048796D01*
X136028919Y-125071682D01*
X136023770Y-125096040D01*
X136023006Y-125108784D01*
X135995588Y-127973000D01*
X133431000Y-127973000D01*
X133431000Y-125814027D01*
X133446536Y-125784961D01*
X133474040Y-125694292D01*
X133481000Y-125623626D01*
X133481000Y-124163890D01*
X134899815Y-121936780D01*
X137873000Y-121927401D01*
X137873000Y-122863700D01*
G37*
%TD.AperFunction*%
D29*
X141535762Y-122643985D02*
X141543000Y-125260351D01*
X141545509Y-125285121D01*
X141552802Y-125308925D01*
X141564599Y-125330849D01*
X141580446Y-125350051D01*
X141591891Y-125360140D01*
X142042284Y-125711446D01*
X142028304Y-126925733D01*
X142028131Y-126926302D01*
X142019001Y-127019002D01*
X142019001Y-127733712D01*
X142016246Y-127973000D01*
X140281000Y-127973000D01*
X140281000Y-127480990D01*
X140284052Y-127450000D01*
X140281000Y-127419010D01*
X140281000Y-127332927D01*
X140265468Y-127254843D01*
X140266961Y-122417000D01*
X141308778Y-122417000D01*
X141535762Y-122643985D01*
%TA.AperFunction,Conductor*%
D31*
G36*
X141535762Y-122643985D02*
G01*
X141543000Y-125260351D01*
X141545509Y-125285121D01*
X141552802Y-125308925D01*
X141564599Y-125330849D01*
X141580446Y-125350051D01*
X141591891Y-125360140D01*
X142042284Y-125711446D01*
X142028304Y-126925733D01*
X142028131Y-126926302D01*
X142019001Y-127019002D01*
X142019001Y-127733712D01*
X142016246Y-127973000D01*
X140281000Y-127973000D01*
X140281000Y-127480990D01*
X140284052Y-127450000D01*
X140281000Y-127419010D01*
X140281000Y-127332927D01*
X140265468Y-127254843D01*
X140266961Y-122417000D01*
X141308778Y-122417000D01*
X141535762Y-122643985D01*
G37*
%TD.AperFunction*%
D29*
X145037489Y-116198469D02*
X145039929Y-116223245D01*
X145044006Y-116238630D01*
X145837489Y-118619079D01*
X145837489Y-120871469D01*
X143191489Y-120871469D01*
X143191489Y-118598469D01*
X143189049Y-118573693D01*
X143184972Y-118558308D01*
X142391489Y-116177859D01*
X142391489Y-113925469D01*
X145037489Y-113925469D01*
X145037489Y-116198469D01*
%TA.AperFunction,Conductor*%
D31*
G36*
X145037489Y-116198469D02*
G01*
X145039929Y-116223245D01*
X145044006Y-116238630D01*
X145837489Y-118619079D01*
X145837489Y-120871469D01*
X143191489Y-120871469D01*
X143191489Y-118598469D01*
X143189049Y-118573693D01*
X143184972Y-118558308D01*
X142391489Y-116177859D01*
X142391489Y-113925469D01*
X145037489Y-113925469D01*
X145037489Y-116198469D01*
G37*
%TD.AperFunction*%
D29*
X143069657Y-127973000D02*
X142524281Y-127973000D01*
X142550975Y-125654386D01*
X142548123Y-125603266D01*
X142531740Y-125530396D01*
X142501456Y-125462122D01*
X142458433Y-125401068D01*
X142404327Y-125349581D01*
X142050486Y-125073585D01*
X142043165Y-122427000D01*
X143072925Y-122427000D01*
X143069657Y-127973000D01*
%TA.AperFunction,Conductor*%
D31*
G36*
X143069657Y-127973000D02*
G01*
X142524281Y-127973000D01*
X142550975Y-125654386D01*
X142548123Y-125603266D01*
X142531740Y-125530396D01*
X142501456Y-125462122D01*
X142458433Y-125401068D01*
X142404327Y-125349581D01*
X142050486Y-125073585D01*
X142043165Y-122427000D01*
X143072925Y-122427000D01*
X143069657Y-127973000D01*
G37*
%TD.AperFunction*%
D29*
X139477434Y-117872394D02*
X139112671Y-118237157D01*
X139100000Y-118237157D01*
X139025311Y-118244513D01*
X138953492Y-118266299D01*
X138887304Y-118301678D01*
X138829289Y-118349289D01*
X138781678Y-118407304D01*
X138746299Y-118473492D01*
X138724513Y-118545311D01*
X138717157Y-118620000D01*
X138717157Y-118632671D01*
X138701828Y-118648000D01*
X136782843Y-118648000D01*
X136782843Y-118620000D01*
X136775487Y-118545311D01*
X136753701Y-118473492D01*
X136718322Y-118407304D01*
X136670711Y-118349289D01*
X136612696Y-118301678D01*
X136546508Y-118266299D01*
X136474689Y-118244513D01*
X136400000Y-118237157D01*
X136296197Y-118237157D01*
X135931434Y-117872394D01*
X135931434Y-117402000D01*
X139477434Y-117402000D01*
X139477434Y-117872394D01*
%TA.AperFunction,Conductor*%
D31*
G36*
X139477434Y-117872394D02*
G01*
X139112671Y-118237157D01*
X139100000Y-118237157D01*
X139025311Y-118244513D01*
X138953492Y-118266299D01*
X138887304Y-118301678D01*
X138829289Y-118349289D01*
X138781678Y-118407304D01*
X138746299Y-118473492D01*
X138724513Y-118545311D01*
X138717157Y-118620000D01*
X138717157Y-118632671D01*
X138701828Y-118648000D01*
X136782843Y-118648000D01*
X136782843Y-118620000D01*
X136775487Y-118545311D01*
X136753701Y-118473492D01*
X136718322Y-118407304D01*
X136670711Y-118349289D01*
X136612696Y-118301678D01*
X136546508Y-118266299D01*
X136474689Y-118244513D01*
X136400000Y-118237157D01*
X136296197Y-118237157D01*
X135931434Y-117872394D01*
X135931434Y-117402000D01*
X139477434Y-117402000D01*
X139477434Y-117872394D01*
G37*
%TD.AperFunction*%
D29*
X138873000Y-112475430D02*
X138835389Y-112569000D01*
X138700998Y-112569000D01*
X138670000Y-112565947D01*
X138639002Y-112569000D01*
X138546302Y-112578130D01*
X138427358Y-112614211D01*
X138317739Y-112672804D01*
X138221657Y-112751657D01*
X138201895Y-112775737D01*
X138125737Y-112851895D01*
X138101657Y-112871657D01*
X138022804Y-112967740D01*
X137964211Y-113077359D01*
X137928130Y-113196303D01*
X137920576Y-113273000D01*
X135435097Y-113273000D01*
X135027000Y-112565978D01*
X135027000Y-105327000D01*
X138873000Y-105327000D01*
X138873000Y-112475430D01*
%TA.AperFunction,Conductor*%
D31*
G36*
X138873000Y-112475430D02*
G01*
X138835389Y-112569000D01*
X138700998Y-112569000D01*
X138670000Y-112565947D01*
X138639002Y-112569000D01*
X138546302Y-112578130D01*
X138427358Y-112614211D01*
X138317739Y-112672804D01*
X138221657Y-112751657D01*
X138201895Y-112775737D01*
X138125737Y-112851895D01*
X138101657Y-112871657D01*
X138022804Y-112967740D01*
X137964211Y-113077359D01*
X137928130Y-113196303D01*
X137920576Y-113273000D01*
X135435097Y-113273000D01*
X135027000Y-112565978D01*
X135027000Y-105327000D01*
X138873000Y-105327000D01*
X138873000Y-112475430D01*
G37*
%TD.AperFunction*%
M02*
